%TF.GenerationSoftware,KiCad,Pcbnew,8.0.5*%
%TF.CreationDate,2024-12-11T17:42:57+10:00*%
%TF.ProjectId,solarRadiationShield,736f6c61-7252-4616-9469-6174696f6e53,rev?*%
%TF.SameCoordinates,Original*%
%TF.FileFunction,Legend,Top*%
%TF.FilePolarity,Positive*%
%FSLAX46Y46*%
G04 Gerber Fmt 4.6, Leading zero omitted, Abs format (unit mm)*
G04 Created by KiCad (PCBNEW 8.0.5) date 2024-12-11 17:42:57*
%MOMM*%
%LPD*%
G01*
G04 APERTURE LIST*
%ADD10C,0.150000*%
%ADD11C,0.120000*%
%ADD12C,0.350000*%
G04 APERTURE END LIST*
D10*
X128185715Y-80429819D02*
X128185715Y-79429819D01*
X128661905Y-80429819D02*
X128661905Y-79429819D01*
X128661905Y-79429819D02*
X129233333Y-80429819D01*
X129233333Y-80429819D02*
X129233333Y-79429819D01*
X129661905Y-80382200D02*
X129804762Y-80429819D01*
X129804762Y-80429819D02*
X130042857Y-80429819D01*
X130042857Y-80429819D02*
X130138095Y-80382200D01*
X130138095Y-80382200D02*
X130185714Y-80334580D01*
X130185714Y-80334580D02*
X130233333Y-80239342D01*
X130233333Y-80239342D02*
X130233333Y-80144104D01*
X130233333Y-80144104D02*
X130185714Y-80048866D01*
X130185714Y-80048866D02*
X130138095Y-80001247D01*
X130138095Y-80001247D02*
X130042857Y-79953628D01*
X130042857Y-79953628D02*
X129852381Y-79906009D01*
X129852381Y-79906009D02*
X129757143Y-79858390D01*
X129757143Y-79858390D02*
X129709524Y-79810771D01*
X129709524Y-79810771D02*
X129661905Y-79715533D01*
X129661905Y-79715533D02*
X129661905Y-79620295D01*
X129661905Y-79620295D02*
X129709524Y-79525057D01*
X129709524Y-79525057D02*
X129757143Y-79477438D01*
X129757143Y-79477438D02*
X129852381Y-79429819D01*
X129852381Y-79429819D02*
X130090476Y-79429819D01*
X130090476Y-79429819D02*
X130233333Y-79477438D01*
X130661905Y-80429819D02*
X130661905Y-79429819D01*
X131661904Y-79477438D02*
X131566666Y-79429819D01*
X131566666Y-79429819D02*
X131423809Y-79429819D01*
X131423809Y-79429819D02*
X131280952Y-79477438D01*
X131280952Y-79477438D02*
X131185714Y-79572676D01*
X131185714Y-79572676D02*
X131138095Y-79667914D01*
X131138095Y-79667914D02*
X131090476Y-79858390D01*
X131090476Y-79858390D02*
X131090476Y-80001247D01*
X131090476Y-80001247D02*
X131138095Y-80191723D01*
X131138095Y-80191723D02*
X131185714Y-80286961D01*
X131185714Y-80286961D02*
X131280952Y-80382200D01*
X131280952Y-80382200D02*
X131423809Y-80429819D01*
X131423809Y-80429819D02*
X131519047Y-80429819D01*
X131519047Y-80429819D02*
X131661904Y-80382200D01*
X131661904Y-80382200D02*
X131709523Y-80334580D01*
X131709523Y-80334580D02*
X131709523Y-80001247D01*
X131709523Y-80001247D02*
X131519047Y-80001247D01*
X132661904Y-80429819D02*
X132090476Y-80429819D01*
X132376190Y-80429819D02*
X132376190Y-79429819D01*
X132376190Y-79429819D02*
X132280952Y-79572676D01*
X132280952Y-79572676D02*
X132185714Y-79667914D01*
X132185714Y-79667914D02*
X132090476Y-79715533D01*
X131219104Y-110170237D02*
X131219104Y-109694047D01*
X131504819Y-110265475D02*
X130504819Y-109932142D01*
X130504819Y-109932142D02*
X131504819Y-109598809D01*
X131504819Y-109265475D02*
X130504819Y-109265475D01*
X130981009Y-109265475D02*
X130981009Y-108694047D01*
X131504819Y-108694047D02*
X130504819Y-108694047D01*
X130504819Y-108360713D02*
X130504819Y-107789285D01*
X131504819Y-108074999D02*
X130504819Y-108074999D01*
X130600057Y-107503570D02*
X130552438Y-107455951D01*
X130552438Y-107455951D02*
X130504819Y-107360713D01*
X130504819Y-107360713D02*
X130504819Y-107122618D01*
X130504819Y-107122618D02*
X130552438Y-107027380D01*
X130552438Y-107027380D02*
X130600057Y-106979761D01*
X130600057Y-106979761D02*
X130695295Y-106932142D01*
X130695295Y-106932142D02*
X130790533Y-106932142D01*
X130790533Y-106932142D02*
X130933390Y-106979761D01*
X130933390Y-106979761D02*
X131504819Y-107551189D01*
X131504819Y-107551189D02*
X131504819Y-106932142D01*
X130504819Y-106313094D02*
X130504819Y-106217856D01*
X130504819Y-106217856D02*
X130552438Y-106122618D01*
X130552438Y-106122618D02*
X130600057Y-106074999D01*
X130600057Y-106074999D02*
X130695295Y-106027380D01*
X130695295Y-106027380D02*
X130885771Y-105979761D01*
X130885771Y-105979761D02*
X131123866Y-105979761D01*
X131123866Y-105979761D02*
X131314342Y-106027380D01*
X131314342Y-106027380D02*
X131409580Y-106074999D01*
X131409580Y-106074999D02*
X131457200Y-106122618D01*
X131457200Y-106122618D02*
X131504819Y-106217856D01*
X131504819Y-106217856D02*
X131504819Y-106313094D01*
X131504819Y-106313094D02*
X131457200Y-106408332D01*
X131457200Y-106408332D02*
X131409580Y-106455951D01*
X131409580Y-106455951D02*
X131314342Y-106503570D01*
X131314342Y-106503570D02*
X131123866Y-106551189D01*
X131123866Y-106551189D02*
X130885771Y-106551189D01*
X130885771Y-106551189D02*
X130695295Y-106503570D01*
X130695295Y-106503570D02*
X130600057Y-106455951D01*
X130600057Y-106455951D02*
X130552438Y-106408332D01*
X130552438Y-106408332D02*
X130504819Y-106313094D01*
X132254819Y-92855953D02*
X132207200Y-92951191D01*
X132207200Y-92951191D02*
X132111961Y-92998810D01*
X132111961Y-92998810D02*
X131254819Y-92998810D01*
X131588152Y-92475000D02*
X132588152Y-92475000D01*
X131635771Y-92475000D02*
X131588152Y-92379762D01*
X131588152Y-92379762D02*
X131588152Y-92189286D01*
X131588152Y-92189286D02*
X131635771Y-92094048D01*
X131635771Y-92094048D02*
X131683390Y-92046429D01*
X131683390Y-92046429D02*
X131778628Y-91998810D01*
X131778628Y-91998810D02*
X132064342Y-91998810D01*
X132064342Y-91998810D02*
X132159580Y-92046429D01*
X132159580Y-92046429D02*
X132207200Y-92094048D01*
X132207200Y-92094048D02*
X132254819Y-92189286D01*
X132254819Y-92189286D02*
X132254819Y-92379762D01*
X132254819Y-92379762D02*
X132207200Y-92475000D01*
X132207200Y-91617857D02*
X132254819Y-91522619D01*
X132254819Y-91522619D02*
X132254819Y-91332143D01*
X132254819Y-91332143D02*
X132207200Y-91236905D01*
X132207200Y-91236905D02*
X132111961Y-91189286D01*
X132111961Y-91189286D02*
X132064342Y-91189286D01*
X132064342Y-91189286D02*
X131969104Y-91236905D01*
X131969104Y-91236905D02*
X131921485Y-91332143D01*
X131921485Y-91332143D02*
X131921485Y-91475000D01*
X131921485Y-91475000D02*
X131873866Y-91570238D01*
X131873866Y-91570238D02*
X131778628Y-91617857D01*
X131778628Y-91617857D02*
X131731009Y-91617857D01*
X131731009Y-91617857D02*
X131635771Y-91570238D01*
X131635771Y-91570238D02*
X131588152Y-91475000D01*
X131588152Y-91475000D02*
X131588152Y-91332143D01*
X131588152Y-91332143D02*
X131635771Y-91236905D01*
X131731009Y-90760714D02*
X131731009Y-90427381D01*
X132254819Y-90284524D02*
X132254819Y-90760714D01*
X132254819Y-90760714D02*
X131254819Y-90760714D01*
X131254819Y-90760714D02*
X131254819Y-90284524D01*
X132254819Y-89951190D02*
X131588152Y-89427381D01*
X131588152Y-89951190D02*
X132254819Y-89427381D01*
X131588152Y-89189285D02*
X131588152Y-88808333D01*
X131254819Y-89046428D02*
X132111961Y-89046428D01*
X132111961Y-89046428D02*
X132207200Y-88998809D01*
X132207200Y-88998809D02*
X132254819Y-88903571D01*
X132254819Y-88903571D02*
X132254819Y-88808333D01*
X132254819Y-88474999D02*
X131588152Y-88474999D01*
X131778628Y-88474999D02*
X131683390Y-88427380D01*
X131683390Y-88427380D02*
X131635771Y-88379761D01*
X131635771Y-88379761D02*
X131588152Y-88284523D01*
X131588152Y-88284523D02*
X131588152Y-88189285D01*
X132254819Y-87427380D02*
X131731009Y-87427380D01*
X131731009Y-87427380D02*
X131635771Y-87474999D01*
X131635771Y-87474999D02*
X131588152Y-87570237D01*
X131588152Y-87570237D02*
X131588152Y-87760713D01*
X131588152Y-87760713D02*
X131635771Y-87855951D01*
X132207200Y-87427380D02*
X132254819Y-87522618D01*
X132254819Y-87522618D02*
X132254819Y-87760713D01*
X132254819Y-87760713D02*
X132207200Y-87855951D01*
X132207200Y-87855951D02*
X132111961Y-87903570D01*
X132111961Y-87903570D02*
X132016723Y-87903570D01*
X132016723Y-87903570D02*
X131921485Y-87855951D01*
X131921485Y-87855951D02*
X131873866Y-87760713D01*
X131873866Y-87760713D02*
X131873866Y-87522618D01*
X131873866Y-87522618D02*
X131826247Y-87427380D01*
X131731009Y-86617856D02*
X131731009Y-86951189D01*
X132254819Y-86951189D02*
X131254819Y-86951189D01*
X131254819Y-86951189D02*
X131254819Y-86474999D01*
X131588152Y-85665475D02*
X132254819Y-85665475D01*
X131588152Y-86094046D02*
X132111961Y-86094046D01*
X132111961Y-86094046D02*
X132207200Y-86046427D01*
X132207200Y-86046427D02*
X132254819Y-85951189D01*
X132254819Y-85951189D02*
X132254819Y-85808332D01*
X132254819Y-85808332D02*
X132207200Y-85713094D01*
X132207200Y-85713094D02*
X132159580Y-85665475D01*
X131588152Y-85189284D02*
X132254819Y-85189284D01*
X131683390Y-85189284D02*
X131635771Y-85141665D01*
X131635771Y-85141665D02*
X131588152Y-85046427D01*
X131588152Y-85046427D02*
X131588152Y-84903570D01*
X131588152Y-84903570D02*
X131635771Y-84808332D01*
X131635771Y-84808332D02*
X131731009Y-84760713D01*
X131731009Y-84760713D02*
X132254819Y-84760713D01*
X132207200Y-83855951D02*
X132254819Y-83951189D01*
X132254819Y-83951189D02*
X132254819Y-84141665D01*
X132254819Y-84141665D02*
X132207200Y-84236903D01*
X132207200Y-84236903D02*
X132159580Y-84284522D01*
X132159580Y-84284522D02*
X132064342Y-84332141D01*
X132064342Y-84332141D02*
X131778628Y-84332141D01*
X131778628Y-84332141D02*
X131683390Y-84284522D01*
X131683390Y-84284522D02*
X131635771Y-84236903D01*
X131635771Y-84236903D02*
X131588152Y-84141665D01*
X131588152Y-84141665D02*
X131588152Y-83951189D01*
X131588152Y-83951189D02*
X131635771Y-83855951D01*
X132254819Y-82903570D02*
X132254819Y-83474998D01*
X132254819Y-83189284D02*
X131254819Y-83189284D01*
X131254819Y-83189284D02*
X131397676Y-83284522D01*
X131397676Y-83284522D02*
X131492914Y-83379760D01*
X131492914Y-83379760D02*
X131540533Y-83474998D01*
X129754819Y-103675000D02*
X129754819Y-104151190D01*
X129754819Y-104151190D02*
X128754819Y-104151190D01*
X129754819Y-103341666D02*
X128754819Y-103341666D01*
X128754819Y-103341666D02*
X128754819Y-102960714D01*
X128754819Y-102960714D02*
X128802438Y-102865476D01*
X128802438Y-102865476D02*
X128850057Y-102817857D01*
X128850057Y-102817857D02*
X128945295Y-102770238D01*
X128945295Y-102770238D02*
X129088152Y-102770238D01*
X129088152Y-102770238D02*
X129183390Y-102817857D01*
X129183390Y-102817857D02*
X129231009Y-102865476D01*
X129231009Y-102865476D02*
X129278628Y-102960714D01*
X129278628Y-102960714D02*
X129278628Y-103341666D01*
X129707200Y-102389285D02*
X129754819Y-102246428D01*
X129754819Y-102246428D02*
X129754819Y-102008333D01*
X129754819Y-102008333D02*
X129707200Y-101913095D01*
X129707200Y-101913095D02*
X129659580Y-101865476D01*
X129659580Y-101865476D02*
X129564342Y-101817857D01*
X129564342Y-101817857D02*
X129469104Y-101817857D01*
X129469104Y-101817857D02*
X129373866Y-101865476D01*
X129373866Y-101865476D02*
X129326247Y-101913095D01*
X129326247Y-101913095D02*
X129278628Y-102008333D01*
X129278628Y-102008333D02*
X129231009Y-102198809D01*
X129231009Y-102198809D02*
X129183390Y-102294047D01*
X129183390Y-102294047D02*
X129135771Y-102341666D01*
X129135771Y-102341666D02*
X129040533Y-102389285D01*
X129040533Y-102389285D02*
X128945295Y-102389285D01*
X128945295Y-102389285D02*
X128850057Y-102341666D01*
X128850057Y-102341666D02*
X128802438Y-102294047D01*
X128802438Y-102294047D02*
X128754819Y-102198809D01*
X128754819Y-102198809D02*
X128754819Y-101960714D01*
X128754819Y-101960714D02*
X128802438Y-101817857D01*
X128754819Y-101484523D02*
X128754819Y-100865476D01*
X128754819Y-100865476D02*
X129135771Y-101198809D01*
X129135771Y-101198809D02*
X129135771Y-101055952D01*
X129135771Y-101055952D02*
X129183390Y-100960714D01*
X129183390Y-100960714D02*
X129231009Y-100913095D01*
X129231009Y-100913095D02*
X129326247Y-100865476D01*
X129326247Y-100865476D02*
X129564342Y-100865476D01*
X129564342Y-100865476D02*
X129659580Y-100913095D01*
X129659580Y-100913095D02*
X129707200Y-100960714D01*
X129707200Y-100960714D02*
X129754819Y-101055952D01*
X129754819Y-101055952D02*
X129754819Y-101341666D01*
X129754819Y-101341666D02*
X129707200Y-101436904D01*
X129707200Y-101436904D02*
X129659580Y-101484523D01*
X128754819Y-100532142D02*
X128754819Y-99913095D01*
X128754819Y-99913095D02*
X129135771Y-100246428D01*
X129135771Y-100246428D02*
X129135771Y-100103571D01*
X129135771Y-100103571D02*
X129183390Y-100008333D01*
X129183390Y-100008333D02*
X129231009Y-99960714D01*
X129231009Y-99960714D02*
X129326247Y-99913095D01*
X129326247Y-99913095D02*
X129564342Y-99913095D01*
X129564342Y-99913095D02*
X129659580Y-99960714D01*
X129659580Y-99960714D02*
X129707200Y-100008333D01*
X129707200Y-100008333D02*
X129754819Y-100103571D01*
X129754819Y-100103571D02*
X129754819Y-100389285D01*
X129754819Y-100389285D02*
X129707200Y-100484523D01*
X129707200Y-100484523D02*
X129659580Y-100532142D01*
X129754819Y-98960714D02*
X129754819Y-99532142D01*
X129754819Y-99246428D02*
X128754819Y-99246428D01*
X128754819Y-99246428D02*
X128897676Y-99341666D01*
X128897676Y-99341666D02*
X128992914Y-99436904D01*
X128992914Y-99436904D02*
X129040533Y-99532142D01*
X129469104Y-98579761D02*
X129469104Y-98103571D01*
X129754819Y-98674999D02*
X128754819Y-98341666D01*
X128754819Y-98341666D02*
X129754819Y-98008333D01*
X129754819Y-97674999D02*
X128754819Y-97674999D01*
X128754819Y-97674999D02*
X128754819Y-97294047D01*
X128754819Y-97294047D02*
X128802438Y-97198809D01*
X128802438Y-97198809D02*
X128850057Y-97151190D01*
X128850057Y-97151190D02*
X128945295Y-97103571D01*
X128945295Y-97103571D02*
X129088152Y-97103571D01*
X129088152Y-97103571D02*
X129183390Y-97151190D01*
X129183390Y-97151190D02*
X129231009Y-97198809D01*
X129231009Y-97198809D02*
X129278628Y-97294047D01*
X129278628Y-97294047D02*
X129278628Y-97674999D01*
X129754819Y-96151190D02*
X129754819Y-96722618D01*
X129754819Y-96436904D02*
X128754819Y-96436904D01*
X128754819Y-96436904D02*
X128897676Y-96532142D01*
X128897676Y-96532142D02*
X128992914Y-96627380D01*
X128992914Y-96627380D02*
X129040533Y-96722618D01*
D11*
%TO.C,INSIG1*%
X125270000Y-79105000D02*
X125270000Y-77775000D01*
X126600000Y-79105000D02*
X125270000Y-79105000D01*
X127870000Y-76445000D02*
X135550000Y-76445000D01*
X127870000Y-79105000D02*
X127870000Y-76445000D01*
X127870000Y-79105000D02*
X135550000Y-79105000D01*
X135550000Y-79105000D02*
X135550000Y-76445000D01*
%TO.C,AHT20*%
X132120000Y-100345000D02*
X133450000Y-100345000D01*
X132120000Y-101675000D02*
X132120000Y-100345000D01*
X132120000Y-102945000D02*
X132120000Y-110625000D01*
X132120000Y-102945000D02*
X134780000Y-102945000D01*
X132120000Y-110625000D02*
X134780000Y-110625000D01*
X134780000Y-102945000D02*
X134780000Y-110625000D01*
%TO.C,lpsExtraFunc1*%
X132870000Y-90655000D02*
X132870000Y-80435000D01*
X135530000Y-80435000D02*
X132870000Y-80435000D01*
X135530000Y-90655000D02*
X132870000Y-90655000D01*
X135530000Y-90655000D02*
X135530000Y-80435000D01*
X135530000Y-91925000D02*
X135530000Y-93255000D01*
X135530000Y-93255000D02*
X134200000Y-93255000D01*
%TO.C,LPS331AP1*%
X125270000Y-100805000D02*
X125270000Y-80425000D01*
X127930000Y-80425000D02*
X125270000Y-80425000D01*
X127930000Y-100805000D02*
X125270000Y-100805000D01*
X127930000Y-100805000D02*
X127930000Y-80425000D01*
X127930000Y-102075000D02*
X127930000Y-103405000D01*
X127930000Y-103405000D02*
X126600000Y-103405000D01*
%TD*%
D12*
X126600000Y-77775000D03*
X129140000Y-77775000D03*
X131680000Y-77775000D03*
X134220000Y-77775000D03*
X133450000Y-101675000D03*
X133450000Y-104215000D03*
X133450000Y-106755000D03*
X133450000Y-109295000D03*
X134200000Y-91925000D03*
X134200000Y-89385000D03*
X134200000Y-86845000D03*
X134200000Y-84305000D03*
X134200000Y-81765000D03*
X126600000Y-102075000D03*
X126600000Y-99535000D03*
X126600000Y-96995000D03*
X126600000Y-94455000D03*
X126600000Y-91915000D03*
X126600000Y-89375000D03*
X126600000Y-86835000D03*
X126600000Y-84295000D03*
X126600000Y-81755000D03*
M02*
