%TF.GenerationSoftware,KiCad,Pcbnew,8.0.5*%
%TF.CreationDate,2024-12-11T18:44:50+10:00*%
%TF.ProjectId,powerSystem,706f7765-7253-4797-9374-656d2e6b6963,rev?*%
%TF.SameCoordinates,Original*%
%TF.FileFunction,Copper,L1,Top*%
%TF.FilePolarity,Positive*%
%FSLAX46Y46*%
G04 Gerber Fmt 4.6, Leading zero omitted, Abs format (unit mm)*
G04 Created by KiCad (PCBNEW 8.0.5) date 2024-12-11 18:44:50*
%MOMM*%
%LPD*%
G01*
G04 APERTURE LIST*
%TA.AperFunction,ComponentPad*%
%ADD10O,1.700000X1.700000*%
%TD*%
%TA.AperFunction,ComponentPad*%
%ADD11R,1.700000X1.700000*%
%TD*%
%TA.AperFunction,Conductor*%
%ADD12C,0.200000*%
%TD*%
%ADD13C,0.350000*%
G04 APERTURE END LIST*
D10*
%TO.P,P3,2,Pin_2*%
%TO.N,/GND*%
X155700000Y-99361000D03*
D11*
%TO.P,P3,1,Pin_1*%
%TO.N,/0~10V*%
X155700000Y-96821000D03*
%TD*%
D10*
%TO.P,P2,2,Pin_2*%
%TO.N,/GND*%
X151200000Y-99361000D03*
D11*
%TO.P,P2,1,Pin_1*%
%TO.N,/0~10V*%
X151200000Y-96821000D03*
%TD*%
D10*
%TO.P,SIGOUT1,3,Pin_3*%
%TO.N,/+3_3V*%
X169780000Y-99121000D03*
%TO.P,SIGOUT1,2,Pin_2*%
%TO.N,/+5V*%
X167240000Y-99121000D03*
D11*
%TO.P,SIGOUT1,1,Pin_1*%
%TO.N,/GND*%
X164700000Y-99121000D03*
%TD*%
D10*
%TO.P,P4,2,Pin_2*%
%TO.N,/GND*%
X160200000Y-99361000D03*
D11*
%TO.P,P4,1,Pin_1*%
%TO.N,/0~10V*%
X160200000Y-96821000D03*
%TD*%
D10*
%TO.P,SDI1,2,Pin_2*%
%TO.N,/GND*%
X155700000Y-91161000D03*
D11*
%TO.P,SDI1,1,Pin_1*%
%TO.N,/0~10V*%
X155700000Y-88621000D03*
%TD*%
D10*
%TO.P,SDO2,2,Pin_2*%
%TO.N,/GND*%
X178200000Y-91161000D03*
D11*
%TO.P,SDO2,1,Pin_1*%
%TO.N,/+3_3V*%
X178200000Y-88621000D03*
%TD*%
D10*
%TO.P,PMI1,2,Pin_2*%
%TO.N,/GND*%
X164700000Y-91161000D03*
D11*
%TO.P,PMI1,1,Pin_1*%
%TO.N,/+5.5V*%
X164700000Y-88621000D03*
%TD*%
D10*
%TO.P,P1,2,Pin_2*%
%TO.N,/GND*%
X146700000Y-99361000D03*
D11*
%TO.P,P1,1,Pin_1*%
%TO.N,/0~10V*%
X146700000Y-96821000D03*
%TD*%
D10*
%TO.P,SDI2,2,Pin_2*%
%TO.N,/GND*%
X173700000Y-91161000D03*
D11*
%TO.P,SDI2,1,Pin_1*%
%TO.N,/+5V*%
X173700000Y-88621000D03*
%TD*%
D10*
%TO.P,PMO1,2,Pin_2*%
%TO.N,/GND*%
X169200000Y-91161000D03*
D11*
%TO.P,PMO1,1,Pin_1*%
%TO.N,/+5V*%
X169200000Y-88621000D03*
%TD*%
D10*
%TO.P,SDO1,2,Pin_2*%
%TO.N,/GND*%
X160200000Y-91161000D03*
D11*
%TO.P,SDO1,1,Pin_1*%
%TO.N,/+5.5V*%
X160200000Y-88621000D03*
%TD*%
D12*
%TO.N,/+5V*%
X168450000Y-94571000D02*
X166950000Y-93071000D01*
X166950000Y-93071000D02*
X166950000Y-89071000D01*
X167400000Y-88621000D02*
X169200000Y-88621000D01*
X169200000Y-88621000D02*
X173700000Y-88621000D01*
X167240000Y-99121000D02*
X168450000Y-97911000D01*
X168450000Y-97911000D02*
X168450000Y-94571000D01*
X166950000Y-89071000D02*
X167400000Y-88621000D01*
%TO.N,/+3_3V*%
X175700000Y-93571000D02*
X171700000Y-93571000D01*
X171700000Y-93571000D02*
X171200000Y-94071000D01*
X175950000Y-89071000D02*
X175950000Y-93321000D01*
X175950000Y-93321000D02*
X175700000Y-93571000D01*
X176400000Y-88621000D02*
X175950000Y-89071000D01*
X169780000Y-99121000D02*
X171200000Y-97701000D01*
X178200000Y-88621000D02*
X176400000Y-88621000D01*
X171200000Y-94071000D02*
X171200000Y-97701000D01*
%TO.N,/0~10V*%
X160200000Y-96821000D02*
X157950000Y-96821000D01*
X157450000Y-88621000D02*
X157500000Y-88621000D01*
X157950000Y-96821000D02*
X157950000Y-89071000D01*
X151200000Y-96821000D02*
X155700000Y-96821000D01*
X155700000Y-88621000D02*
X157450000Y-88621000D01*
X157500000Y-88621000D02*
X157950000Y-89071000D01*
X157950000Y-96821000D02*
X155700000Y-96821000D01*
X146700000Y-96821000D02*
X151200000Y-96821000D01*
%TO.N,/+5.5V*%
X160200000Y-88621000D02*
X164700000Y-88621000D01*
%TD*%
%TA.AperFunction,NonConductor*%
G36*
X145782005Y-83720185D02*
G01*
X145827760Y-83772989D01*
X145837704Y-83842147D01*
X145808679Y-83905703D01*
X145787851Y-83924818D01*
X145588692Y-84069515D01*
X145588682Y-84069523D01*
X145359322Y-84284907D01*
X145359320Y-84284909D01*
X145158768Y-84527334D01*
X145158765Y-84527338D01*
X144990178Y-84792990D01*
X144990175Y-84792996D01*
X144856213Y-85077678D01*
X144856211Y-85077683D01*
X144758984Y-85376916D01*
X144700025Y-85685988D01*
X144700024Y-85685995D01*
X144680270Y-85999994D01*
X144680270Y-86000005D01*
X144700024Y-86314004D01*
X144700025Y-86314011D01*
X144758984Y-86623083D01*
X144856211Y-86922316D01*
X144856213Y-86922321D01*
X144990175Y-87207003D01*
X144990178Y-87207009D01*
X145158765Y-87472661D01*
X145158768Y-87472665D01*
X145359320Y-87715090D01*
X145359322Y-87715092D01*
X145359324Y-87715094D01*
X145367881Y-87723129D01*
X145588682Y-87930476D01*
X145588692Y-87930484D01*
X145843218Y-88115408D01*
X145843223Y-88115410D01*
X145843230Y-88115416D01*
X146118948Y-88266994D01*
X146118953Y-88266996D01*
X146118955Y-88266997D01*
X146118956Y-88266998D01*
X146411485Y-88382818D01*
X146411488Y-88382819D01*
X146716237Y-88461065D01*
X146716241Y-88461066D01*
X146781724Y-88469338D01*
X147028384Y-88500499D01*
X147028393Y-88500499D01*
X147028396Y-88500500D01*
X147028398Y-88500500D01*
X147343030Y-88500500D01*
X147343032Y-88500500D01*
X147343035Y-88500499D01*
X147343043Y-88500499D01*
X147529307Y-88476968D01*
X147655187Y-88461066D01*
X147959939Y-88382819D01*
X147959942Y-88382818D01*
X148252471Y-88266998D01*
X148252472Y-88266997D01*
X148252470Y-88266997D01*
X148252480Y-88266994D01*
X148528198Y-88115416D01*
X148782744Y-87930478D01*
X149012104Y-87715094D01*
X149212661Y-87472663D01*
X149381251Y-87207007D01*
X149515217Y-86922315D01*
X149612445Y-86623079D01*
X149671402Y-86314015D01*
X149691158Y-86000000D01*
X149675630Y-85753190D01*
X149671403Y-85685995D01*
X149671402Y-85685988D01*
X149671402Y-85685985D01*
X149612445Y-85376921D01*
X149515217Y-85077685D01*
X149381251Y-84792993D01*
X149212661Y-84527337D01*
X149194697Y-84505622D01*
X149012107Y-84284909D01*
X149012105Y-84284907D01*
X148782745Y-84069523D01*
X148782735Y-84069515D01*
X148583577Y-83924818D01*
X148540911Y-83869488D01*
X148534932Y-83799875D01*
X148567538Y-83738080D01*
X148628376Y-83703723D01*
X148656462Y-83700500D01*
X182761214Y-83700500D01*
X182828253Y-83720185D01*
X182874008Y-83772989D01*
X182885214Y-83824500D01*
X182885214Y-102575500D01*
X182865529Y-102642539D01*
X182812725Y-102688294D01*
X182761214Y-102699500D01*
X178056462Y-102699500D01*
X177989423Y-102679815D01*
X177943668Y-102627011D01*
X177933724Y-102557853D01*
X177962749Y-102494297D01*
X177983577Y-102475182D01*
X178116893Y-102378320D01*
X178182744Y-102330478D01*
X178412104Y-102115094D01*
X178612661Y-101872663D01*
X178781251Y-101607007D01*
X178915217Y-101322315D01*
X179012445Y-101023079D01*
X179071402Y-100714015D01*
X179071403Y-100714004D01*
X179091158Y-100400005D01*
X179091158Y-100399994D01*
X179071403Y-100085995D01*
X179071402Y-100085988D01*
X179071402Y-100085985D01*
X179012445Y-99776921D01*
X178915217Y-99477685D01*
X178781251Y-99192993D01*
X178612661Y-98927337D01*
X178587843Y-98897337D01*
X178412107Y-98684909D01*
X178412105Y-98684907D01*
X178182745Y-98469523D01*
X178182735Y-98469515D01*
X177928209Y-98284591D01*
X177928202Y-98284586D01*
X177928198Y-98284584D01*
X177652480Y-98133006D01*
X177652477Y-98133004D01*
X177652472Y-98133002D01*
X177652471Y-98133001D01*
X177359942Y-98017181D01*
X177359939Y-98017180D01*
X177055190Y-97938934D01*
X177055177Y-97938932D01*
X176743043Y-97899500D01*
X176743032Y-97899500D01*
X176428396Y-97899500D01*
X176428384Y-97899500D01*
X176116250Y-97938932D01*
X176116237Y-97938934D01*
X175811488Y-98017180D01*
X175811485Y-98017181D01*
X175518956Y-98133001D01*
X175518955Y-98133002D01*
X175243230Y-98284584D01*
X175243218Y-98284591D01*
X174988692Y-98469515D01*
X174988682Y-98469523D01*
X174759322Y-98684907D01*
X174759320Y-98684909D01*
X174558768Y-98927334D01*
X174558765Y-98927338D01*
X174390178Y-99192990D01*
X174390175Y-99192996D01*
X174256213Y-99477678D01*
X174256211Y-99477683D01*
X174158984Y-99776916D01*
X174100025Y-100085988D01*
X174100024Y-100085995D01*
X174080270Y-100399994D01*
X174080270Y-100400005D01*
X174100024Y-100714004D01*
X174100025Y-100714011D01*
X174158984Y-101023083D01*
X174256211Y-101322316D01*
X174256213Y-101322321D01*
X174390175Y-101607003D01*
X174390178Y-101607009D01*
X174558765Y-101872661D01*
X174558768Y-101872665D01*
X174759320Y-102115090D01*
X174759322Y-102115092D01*
X174988682Y-102330476D01*
X174988692Y-102330484D01*
X175187851Y-102475182D01*
X175230517Y-102530512D01*
X175236496Y-102600125D01*
X175203890Y-102661920D01*
X175143052Y-102696277D01*
X175114966Y-102699500D01*
X141010214Y-102699500D01*
X140943175Y-102679815D01*
X140897420Y-102627011D01*
X140886214Y-102575500D01*
X140886214Y-99360999D01*
X145344341Y-99360999D01*
X145344341Y-99361000D01*
X145364936Y-99596403D01*
X145364938Y-99596413D01*
X145426094Y-99824655D01*
X145426096Y-99824659D01*
X145426097Y-99824663D01*
X145516658Y-100018872D01*
X145525965Y-100038830D01*
X145525967Y-100038834D01*
X145610458Y-100159498D01*
X145661505Y-100232401D01*
X145828599Y-100399495D01*
X145922280Y-100465091D01*
X146022165Y-100535032D01*
X146022167Y-100535033D01*
X146022170Y-100535035D01*
X146236337Y-100634903D01*
X146464592Y-100696063D01*
X146652918Y-100712539D01*
X146699999Y-100716659D01*
X146700000Y-100716659D01*
X146700001Y-100716659D01*
X146739234Y-100713226D01*
X146935408Y-100696063D01*
X147163663Y-100634903D01*
X147377830Y-100535035D01*
X147571401Y-100399495D01*
X147738495Y-100232401D01*
X147874035Y-100038830D01*
X147973903Y-99824663D01*
X148035063Y-99596408D01*
X148055659Y-99361000D01*
X148035063Y-99125592D01*
X147973903Y-98897337D01*
X147874035Y-98683171D01*
X147738495Y-98489599D01*
X147616567Y-98367671D01*
X147583084Y-98306351D01*
X147588068Y-98236659D01*
X147629939Y-98180725D01*
X147660915Y-98163810D01*
X147792331Y-98114796D01*
X147907546Y-98028546D01*
X147993796Y-97913331D01*
X148044091Y-97778483D01*
X148050500Y-97718873D01*
X148050500Y-97545500D01*
X148070185Y-97478461D01*
X148122989Y-97432706D01*
X148174500Y-97421500D01*
X149725501Y-97421500D01*
X149792540Y-97441185D01*
X149838295Y-97493989D01*
X149849501Y-97545500D01*
X149849501Y-97718876D01*
X149855908Y-97778483D01*
X149906202Y-97913328D01*
X149906206Y-97913335D01*
X149992452Y-98028544D01*
X149992455Y-98028547D01*
X150107664Y-98114793D01*
X150107671Y-98114797D01*
X150239081Y-98163810D01*
X150295015Y-98205681D01*
X150319432Y-98271145D01*
X150304580Y-98339418D01*
X150283430Y-98367673D01*
X150161503Y-98489600D01*
X150025965Y-98683169D01*
X150025964Y-98683171D01*
X149926098Y-98897335D01*
X149926094Y-98897344D01*
X149864938Y-99125586D01*
X149864936Y-99125596D01*
X149844341Y-99360999D01*
X149844341Y-99361000D01*
X149864936Y-99596403D01*
X149864938Y-99596413D01*
X149926094Y-99824655D01*
X149926096Y-99824659D01*
X149926097Y-99824663D01*
X150016658Y-100018872D01*
X150025965Y-100038830D01*
X150025967Y-100038834D01*
X150110458Y-100159498D01*
X150161505Y-100232401D01*
X150328599Y-100399495D01*
X150422280Y-100465091D01*
X150522165Y-100535032D01*
X150522167Y-100535033D01*
X150522170Y-100535035D01*
X150736337Y-100634903D01*
X150964592Y-100696063D01*
X151152918Y-100712539D01*
X151199999Y-100716659D01*
X151200000Y-100716659D01*
X151200001Y-100716659D01*
X151239234Y-100713226D01*
X151435408Y-100696063D01*
X151663663Y-100634903D01*
X151877830Y-100535035D01*
X152071401Y-100399495D01*
X152238495Y-100232401D01*
X152374035Y-100038830D01*
X152473903Y-99824663D01*
X152535063Y-99596408D01*
X152555659Y-99361000D01*
X152535063Y-99125592D01*
X152473903Y-98897337D01*
X152374035Y-98683171D01*
X152238495Y-98489599D01*
X152116567Y-98367671D01*
X152083084Y-98306351D01*
X152088068Y-98236659D01*
X152129939Y-98180725D01*
X152160915Y-98163810D01*
X152292331Y-98114796D01*
X152407546Y-98028546D01*
X152493796Y-97913331D01*
X152544091Y-97778483D01*
X152550500Y-97718873D01*
X152550500Y-97545500D01*
X152570185Y-97478461D01*
X152622989Y-97432706D01*
X152674500Y-97421500D01*
X154225501Y-97421500D01*
X154292540Y-97441185D01*
X154338295Y-97493989D01*
X154349501Y-97545500D01*
X154349501Y-97718876D01*
X154355908Y-97778483D01*
X154406202Y-97913328D01*
X154406206Y-97913335D01*
X154492452Y-98028544D01*
X154492455Y-98028547D01*
X154607664Y-98114793D01*
X154607671Y-98114797D01*
X154739081Y-98163810D01*
X154795015Y-98205681D01*
X154819432Y-98271145D01*
X154804580Y-98339418D01*
X154783430Y-98367673D01*
X154661503Y-98489600D01*
X154525965Y-98683169D01*
X154525964Y-98683171D01*
X154426098Y-98897335D01*
X154426094Y-98897344D01*
X154364938Y-99125586D01*
X154364936Y-99125596D01*
X154344341Y-99360999D01*
X154344341Y-99361000D01*
X154364936Y-99596403D01*
X154364938Y-99596413D01*
X154426094Y-99824655D01*
X154426096Y-99824659D01*
X154426097Y-99824663D01*
X154516658Y-100018872D01*
X154525965Y-100038830D01*
X154525967Y-100038834D01*
X154610458Y-100159498D01*
X154661505Y-100232401D01*
X154828599Y-100399495D01*
X154922280Y-100465091D01*
X155022165Y-100535032D01*
X155022167Y-100535033D01*
X155022170Y-100535035D01*
X155236337Y-100634903D01*
X155464592Y-100696063D01*
X155652918Y-100712539D01*
X155699999Y-100716659D01*
X155700000Y-100716659D01*
X155700001Y-100716659D01*
X155739234Y-100713226D01*
X155935408Y-100696063D01*
X156163663Y-100634903D01*
X156377830Y-100535035D01*
X156571401Y-100399495D01*
X156738495Y-100232401D01*
X156874035Y-100038830D01*
X156973903Y-99824663D01*
X157035063Y-99596408D01*
X157055659Y-99361000D01*
X157035063Y-99125592D01*
X156973903Y-98897337D01*
X156874035Y-98683171D01*
X156738495Y-98489599D01*
X156616567Y-98367671D01*
X156583084Y-98306351D01*
X156588068Y-98236659D01*
X156629939Y-98180725D01*
X156660915Y-98163810D01*
X156792331Y-98114796D01*
X156907546Y-98028546D01*
X156993796Y-97913331D01*
X157044091Y-97778483D01*
X157050500Y-97718873D01*
X157050500Y-97545500D01*
X157070185Y-97478461D01*
X157122989Y-97432706D01*
X157174500Y-97421500D01*
X157870943Y-97421500D01*
X158029057Y-97421500D01*
X158725501Y-97421500D01*
X158792540Y-97441185D01*
X158838295Y-97493989D01*
X158849501Y-97545500D01*
X158849501Y-97718876D01*
X158855908Y-97778483D01*
X158906202Y-97913328D01*
X158906206Y-97913335D01*
X158992452Y-98028544D01*
X158992455Y-98028547D01*
X159107664Y-98114793D01*
X159107671Y-98114797D01*
X159239081Y-98163810D01*
X159295015Y-98205681D01*
X159319432Y-98271145D01*
X159304580Y-98339418D01*
X159283430Y-98367673D01*
X159161503Y-98489600D01*
X159025965Y-98683169D01*
X159025964Y-98683171D01*
X158926098Y-98897335D01*
X158926094Y-98897344D01*
X158864938Y-99125586D01*
X158864936Y-99125596D01*
X158844341Y-99360999D01*
X158844341Y-99361000D01*
X158864936Y-99596403D01*
X158864938Y-99596413D01*
X158926094Y-99824655D01*
X158926096Y-99824659D01*
X158926097Y-99824663D01*
X159016658Y-100018872D01*
X159025965Y-100038830D01*
X159025967Y-100038834D01*
X159110458Y-100159498D01*
X159161505Y-100232401D01*
X159328599Y-100399495D01*
X159422280Y-100465091D01*
X159522165Y-100535032D01*
X159522167Y-100535033D01*
X159522170Y-100535035D01*
X159736337Y-100634903D01*
X159964592Y-100696063D01*
X160152918Y-100712539D01*
X160199999Y-100716659D01*
X160200000Y-100716659D01*
X160200001Y-100716659D01*
X160239234Y-100713226D01*
X160435408Y-100696063D01*
X160663663Y-100634903D01*
X160877830Y-100535035D01*
X161071401Y-100399495D01*
X161238495Y-100232401D01*
X161374035Y-100038830D01*
X161473903Y-99824663D01*
X161535063Y-99596408D01*
X161555659Y-99361000D01*
X161535063Y-99125592D01*
X161473903Y-98897337D01*
X161374035Y-98683171D01*
X161238495Y-98489599D01*
X161116567Y-98367671D01*
X161083084Y-98306351D01*
X161088068Y-98236659D01*
X161098192Y-98223135D01*
X163349500Y-98223135D01*
X163349500Y-100018870D01*
X163349501Y-100018876D01*
X163355908Y-100078483D01*
X163406202Y-100213328D01*
X163406206Y-100213335D01*
X163492452Y-100328544D01*
X163492455Y-100328547D01*
X163607664Y-100414793D01*
X163607671Y-100414797D01*
X163742517Y-100465091D01*
X163742516Y-100465091D01*
X163749444Y-100465835D01*
X163802127Y-100471500D01*
X165597872Y-100471499D01*
X165657483Y-100465091D01*
X165792331Y-100414796D01*
X165907546Y-100328546D01*
X165993796Y-100213331D01*
X166042810Y-100081916D01*
X166084681Y-100025984D01*
X166150145Y-100001566D01*
X166218418Y-100016417D01*
X166246673Y-100037569D01*
X166368599Y-100159495D01*
X166465384Y-100227265D01*
X166562165Y-100295032D01*
X166562167Y-100295033D01*
X166562170Y-100295035D01*
X166776337Y-100394903D01*
X166776343Y-100394904D01*
X166776344Y-100394905D01*
X166793486Y-100399498D01*
X167004592Y-100456063D01*
X167181034Y-100471500D01*
X167239999Y-100476659D01*
X167240000Y-100476659D01*
X167240001Y-100476659D01*
X167298966Y-100471500D01*
X167475408Y-100456063D01*
X167703663Y-100394903D01*
X167917830Y-100295035D01*
X168111401Y-100159495D01*
X168278495Y-99992401D01*
X168408425Y-99806842D01*
X168463002Y-99763217D01*
X168532500Y-99756023D01*
X168594855Y-99787546D01*
X168611575Y-99806842D01*
X168741500Y-99992395D01*
X168741505Y-99992401D01*
X168908599Y-100159495D01*
X169005384Y-100227265D01*
X169102165Y-100295032D01*
X169102167Y-100295033D01*
X169102170Y-100295035D01*
X169316337Y-100394903D01*
X169316343Y-100394904D01*
X169316344Y-100394905D01*
X169333486Y-100399498D01*
X169544592Y-100456063D01*
X169721034Y-100471500D01*
X169779999Y-100476659D01*
X169780000Y-100476659D01*
X169780001Y-100476659D01*
X169838966Y-100471500D01*
X170015408Y-100456063D01*
X170243663Y-100394903D01*
X170457830Y-100295035D01*
X170651401Y-100159495D01*
X170818495Y-99992401D01*
X170954035Y-99798830D01*
X171053903Y-99584663D01*
X171115063Y-99356408D01*
X171135659Y-99121000D01*
X171115063Y-98885592D01*
X171080671Y-98757239D01*
X171082334Y-98687393D01*
X171112763Y-98637470D01*
X171558506Y-98191728D01*
X171558511Y-98191724D01*
X171568714Y-98181520D01*
X171568716Y-98181520D01*
X171680520Y-98069716D01*
X171751390Y-97946965D01*
X171759577Y-97932785D01*
X171800500Y-97780058D01*
X171800500Y-97621943D01*
X171800500Y-94371098D01*
X171820185Y-94304059D01*
X171836819Y-94283416D01*
X171912418Y-94207818D01*
X171973742Y-94174334D01*
X172000099Y-94171500D01*
X175613331Y-94171500D01*
X175613347Y-94171501D01*
X175620943Y-94171501D01*
X175779054Y-94171501D01*
X175779057Y-94171501D01*
X175931785Y-94130577D01*
X175981904Y-94101639D01*
X176068716Y-94051520D01*
X176180520Y-93939716D01*
X176180520Y-93939714D01*
X176190728Y-93929507D01*
X176190730Y-93929504D01*
X176308506Y-93811728D01*
X176308511Y-93811724D01*
X176318714Y-93801520D01*
X176318716Y-93801520D01*
X176430520Y-93689716D01*
X176509577Y-93552784D01*
X176550500Y-93400057D01*
X176550500Y-89371097D01*
X176570185Y-89304058D01*
X176586819Y-89283416D01*
X176612416Y-89257819D01*
X176673739Y-89224334D01*
X176700097Y-89221500D01*
X176725501Y-89221500D01*
X176792540Y-89241185D01*
X176838295Y-89293989D01*
X176849501Y-89345500D01*
X176849501Y-89518876D01*
X176855908Y-89578483D01*
X176906202Y-89713328D01*
X176906206Y-89713335D01*
X176992452Y-89828544D01*
X176992455Y-89828547D01*
X177107664Y-89914793D01*
X177107671Y-89914797D01*
X177239081Y-89963810D01*
X177295015Y-90005681D01*
X177319432Y-90071145D01*
X177304580Y-90139418D01*
X177283430Y-90167673D01*
X177161503Y-90289600D01*
X177025965Y-90483169D01*
X177025964Y-90483171D01*
X176926098Y-90697335D01*
X176926094Y-90697344D01*
X176864938Y-90925586D01*
X176864936Y-90925596D01*
X176844341Y-91160999D01*
X176844341Y-91161000D01*
X176864936Y-91396403D01*
X176864938Y-91396413D01*
X176926094Y-91624655D01*
X176926096Y-91624659D01*
X176926097Y-91624663D01*
X177025965Y-91838830D01*
X177025967Y-91838834D01*
X177134281Y-91993521D01*
X177161505Y-92032401D01*
X177328599Y-92199495D01*
X177425384Y-92267265D01*
X177522165Y-92335032D01*
X177522167Y-92335033D01*
X177522170Y-92335035D01*
X177736337Y-92434903D01*
X177964592Y-92496063D01*
X178152918Y-92512539D01*
X178199999Y-92516659D01*
X178200000Y-92516659D01*
X178200001Y-92516659D01*
X178239234Y-92513226D01*
X178435408Y-92496063D01*
X178663663Y-92434903D01*
X178877830Y-92335035D01*
X179071401Y-92199495D01*
X179238495Y-92032401D01*
X179374035Y-91838830D01*
X179473903Y-91624663D01*
X179535063Y-91396408D01*
X179555659Y-91161000D01*
X179535063Y-90925592D01*
X179473903Y-90697337D01*
X179374035Y-90483171D01*
X179238495Y-90289599D01*
X179116567Y-90167671D01*
X179083084Y-90106351D01*
X179088068Y-90036659D01*
X179129939Y-89980725D01*
X179160915Y-89963810D01*
X179292331Y-89914796D01*
X179407546Y-89828546D01*
X179493796Y-89713331D01*
X179544091Y-89578483D01*
X179550500Y-89518873D01*
X179550499Y-87723128D01*
X179544091Y-87663517D01*
X179493796Y-87528669D01*
X179493795Y-87528668D01*
X179493793Y-87528664D01*
X179407547Y-87413455D01*
X179407544Y-87413452D01*
X179292335Y-87327206D01*
X179292328Y-87327202D01*
X179157482Y-87276908D01*
X179157483Y-87276908D01*
X179097883Y-87270501D01*
X179097881Y-87270500D01*
X179097873Y-87270500D01*
X179097864Y-87270500D01*
X177302129Y-87270500D01*
X177302123Y-87270501D01*
X177242516Y-87276908D01*
X177107671Y-87327202D01*
X177107664Y-87327206D01*
X176992455Y-87413452D01*
X176992452Y-87413455D01*
X176906206Y-87528664D01*
X176906202Y-87528671D01*
X176855908Y-87663517D01*
X176849501Y-87723116D01*
X176849501Y-87723123D01*
X176849500Y-87723135D01*
X176849500Y-87896500D01*
X176829815Y-87963539D01*
X176777011Y-88009294D01*
X176725500Y-88020500D01*
X176479057Y-88020500D01*
X176320943Y-88020500D01*
X176168215Y-88061423D01*
X176168214Y-88061423D01*
X176168212Y-88061424D01*
X176168209Y-88061425D01*
X176118096Y-88090359D01*
X176118095Y-88090360D01*
X176074710Y-88115408D01*
X176031285Y-88140479D01*
X176031282Y-88140481D01*
X175469481Y-88702282D01*
X175469479Y-88702285D01*
X175419361Y-88789094D01*
X175419359Y-88789096D01*
X175390425Y-88839209D01*
X175390424Y-88839210D01*
X175374544Y-88898472D01*
X175349499Y-88991943D01*
X175349499Y-88991945D01*
X175349499Y-89160046D01*
X175349500Y-89160059D01*
X175349500Y-92846500D01*
X175329815Y-92913539D01*
X175277011Y-92959294D01*
X175225500Y-92970500D01*
X171786670Y-92970500D01*
X171786654Y-92970499D01*
X171779058Y-92970499D01*
X171620943Y-92970499D01*
X171544579Y-92990961D01*
X171468214Y-93011423D01*
X171468209Y-93011426D01*
X171331290Y-93090475D01*
X171331282Y-93090481D01*
X170824217Y-93597546D01*
X170824214Y-93597548D01*
X170824215Y-93597549D01*
X170719478Y-93702286D01*
X170669361Y-93789094D01*
X170669359Y-93789096D01*
X170640425Y-93839209D01*
X170640424Y-93839210D01*
X170640423Y-93839215D01*
X170599499Y-93991943D01*
X170599499Y-93991945D01*
X170599499Y-94160046D01*
X170599500Y-94160059D01*
X170599500Y-97400902D01*
X170579815Y-97467941D01*
X170563181Y-97488583D01*
X170263530Y-97788233D01*
X170202207Y-97821718D01*
X170143756Y-97820327D01*
X170015413Y-97785938D01*
X170015403Y-97785936D01*
X169780001Y-97765341D01*
X169779999Y-97765341D01*
X169544596Y-97785936D01*
X169544586Y-97785938D01*
X169316344Y-97847094D01*
X169316335Y-97847098D01*
X169226905Y-97888800D01*
X169157827Y-97899292D01*
X169094043Y-97870772D01*
X169055804Y-97812296D01*
X169050500Y-97776418D01*
X169050500Y-94491945D01*
X169050500Y-94491943D01*
X169009577Y-94339216D01*
X168977361Y-94283416D01*
X168930524Y-94202290D01*
X168930521Y-94202286D01*
X168930520Y-94202284D01*
X168818716Y-94090480D01*
X168818715Y-94090479D01*
X168814385Y-94086149D01*
X168814374Y-94086139D01*
X167586819Y-92858584D01*
X167553334Y-92797261D01*
X167550500Y-92770903D01*
X167550500Y-89371097D01*
X167570185Y-89304058D01*
X167586819Y-89283416D01*
X167612416Y-89257819D01*
X167673739Y-89224334D01*
X167700097Y-89221500D01*
X167725501Y-89221500D01*
X167792540Y-89241185D01*
X167838295Y-89293989D01*
X167849501Y-89345500D01*
X167849501Y-89518876D01*
X167855908Y-89578483D01*
X167906202Y-89713328D01*
X167906206Y-89713335D01*
X167992452Y-89828544D01*
X167992455Y-89828547D01*
X168107664Y-89914793D01*
X168107671Y-89914797D01*
X168239081Y-89963810D01*
X168295015Y-90005681D01*
X168319432Y-90071145D01*
X168304580Y-90139418D01*
X168283430Y-90167673D01*
X168161503Y-90289600D01*
X168025965Y-90483169D01*
X168025964Y-90483171D01*
X167926098Y-90697335D01*
X167926094Y-90697344D01*
X167864938Y-90925586D01*
X167864936Y-90925596D01*
X167844341Y-91160999D01*
X167844341Y-91161000D01*
X167864936Y-91396403D01*
X167864938Y-91396413D01*
X167926094Y-91624655D01*
X167926096Y-91624659D01*
X167926097Y-91624663D01*
X168025965Y-91838830D01*
X168025967Y-91838834D01*
X168134281Y-91993521D01*
X168161505Y-92032401D01*
X168328599Y-92199495D01*
X168425384Y-92267265D01*
X168522165Y-92335032D01*
X168522167Y-92335033D01*
X168522170Y-92335035D01*
X168736337Y-92434903D01*
X168964592Y-92496063D01*
X169152918Y-92512539D01*
X169199999Y-92516659D01*
X169200000Y-92516659D01*
X169200001Y-92516659D01*
X169239234Y-92513226D01*
X169435408Y-92496063D01*
X169663663Y-92434903D01*
X169877830Y-92335035D01*
X170071401Y-92199495D01*
X170238495Y-92032401D01*
X170374035Y-91838830D01*
X170473903Y-91624663D01*
X170535063Y-91396408D01*
X170555659Y-91161000D01*
X170535063Y-90925592D01*
X170473903Y-90697337D01*
X170374035Y-90483171D01*
X170238495Y-90289599D01*
X170116567Y-90167671D01*
X170083084Y-90106351D01*
X170088068Y-90036659D01*
X170129939Y-89980725D01*
X170160915Y-89963810D01*
X170292331Y-89914796D01*
X170407546Y-89828546D01*
X170493796Y-89713331D01*
X170544091Y-89578483D01*
X170550500Y-89518873D01*
X170550500Y-89345500D01*
X170570185Y-89278461D01*
X170622989Y-89232706D01*
X170674500Y-89221500D01*
X172225501Y-89221500D01*
X172292540Y-89241185D01*
X172338295Y-89293989D01*
X172349501Y-89345500D01*
X172349501Y-89518876D01*
X172355908Y-89578483D01*
X172406202Y-89713328D01*
X172406206Y-89713335D01*
X172492452Y-89828544D01*
X172492455Y-89828547D01*
X172607664Y-89914793D01*
X172607671Y-89914797D01*
X172739081Y-89963810D01*
X172795015Y-90005681D01*
X172819432Y-90071145D01*
X172804580Y-90139418D01*
X172783430Y-90167673D01*
X172661503Y-90289600D01*
X172525965Y-90483169D01*
X172525964Y-90483171D01*
X172426098Y-90697335D01*
X172426094Y-90697344D01*
X172364938Y-90925586D01*
X172364936Y-90925596D01*
X172344341Y-91160999D01*
X172344341Y-91161000D01*
X172364936Y-91396403D01*
X172364938Y-91396413D01*
X172426094Y-91624655D01*
X172426096Y-91624659D01*
X172426097Y-91624663D01*
X172525965Y-91838830D01*
X172525967Y-91838834D01*
X172634281Y-91993521D01*
X172661505Y-92032401D01*
X172828599Y-92199495D01*
X172925384Y-92267265D01*
X173022165Y-92335032D01*
X173022167Y-92335033D01*
X173022170Y-92335035D01*
X173236337Y-92434903D01*
X173464592Y-92496063D01*
X173652918Y-92512539D01*
X173699999Y-92516659D01*
X173700000Y-92516659D01*
X173700001Y-92516659D01*
X173739234Y-92513226D01*
X173935408Y-92496063D01*
X174163663Y-92434903D01*
X174377830Y-92335035D01*
X174571401Y-92199495D01*
X174738495Y-92032401D01*
X174874035Y-91838830D01*
X174973903Y-91624663D01*
X175035063Y-91396408D01*
X175055659Y-91161000D01*
X175035063Y-90925592D01*
X174973903Y-90697337D01*
X174874035Y-90483171D01*
X174738495Y-90289599D01*
X174616567Y-90167671D01*
X174583084Y-90106351D01*
X174588068Y-90036659D01*
X174629939Y-89980725D01*
X174660915Y-89963810D01*
X174792331Y-89914796D01*
X174907546Y-89828546D01*
X174993796Y-89713331D01*
X175044091Y-89578483D01*
X175050500Y-89518873D01*
X175050499Y-87723128D01*
X175044091Y-87663517D01*
X174993796Y-87528669D01*
X174993795Y-87528668D01*
X174993793Y-87528664D01*
X174907547Y-87413455D01*
X174907544Y-87413452D01*
X174792335Y-87327206D01*
X174792328Y-87327202D01*
X174657482Y-87276908D01*
X174657483Y-87276908D01*
X174597883Y-87270501D01*
X174597881Y-87270500D01*
X174597873Y-87270500D01*
X174597864Y-87270500D01*
X172802129Y-87270500D01*
X172802123Y-87270501D01*
X172742516Y-87276908D01*
X172607671Y-87327202D01*
X172607664Y-87327206D01*
X172492455Y-87413452D01*
X172492452Y-87413455D01*
X172406206Y-87528664D01*
X172406202Y-87528671D01*
X172355908Y-87663517D01*
X172349501Y-87723116D01*
X172349501Y-87723123D01*
X172349500Y-87723135D01*
X172349500Y-87896500D01*
X172329815Y-87963539D01*
X172277011Y-88009294D01*
X172225500Y-88020500D01*
X170674499Y-88020500D01*
X170607460Y-88000815D01*
X170561705Y-87948011D01*
X170550499Y-87896500D01*
X170550499Y-87723129D01*
X170550498Y-87723123D01*
X170550497Y-87723116D01*
X170544091Y-87663517D01*
X170493796Y-87528669D01*
X170493795Y-87528668D01*
X170493793Y-87528664D01*
X170407547Y-87413455D01*
X170407544Y-87413452D01*
X170292335Y-87327206D01*
X170292328Y-87327202D01*
X170157482Y-87276908D01*
X170157483Y-87276908D01*
X170097883Y-87270501D01*
X170097881Y-87270500D01*
X170097873Y-87270500D01*
X170097864Y-87270500D01*
X168302129Y-87270500D01*
X168302123Y-87270501D01*
X168242516Y-87276908D01*
X168107671Y-87327202D01*
X168107664Y-87327206D01*
X167992455Y-87413452D01*
X167992452Y-87413455D01*
X167906206Y-87528664D01*
X167906202Y-87528671D01*
X167855908Y-87663517D01*
X167849501Y-87723116D01*
X167849501Y-87723123D01*
X167849500Y-87723135D01*
X167849500Y-87896500D01*
X167829815Y-87963539D01*
X167777011Y-88009294D01*
X167725500Y-88020500D01*
X167479057Y-88020500D01*
X167320943Y-88020500D01*
X167168215Y-88061423D01*
X167168214Y-88061423D01*
X167168212Y-88061424D01*
X167168209Y-88061425D01*
X167118096Y-88090359D01*
X167118095Y-88090360D01*
X167074710Y-88115408D01*
X167031285Y-88140479D01*
X167031282Y-88140481D01*
X166469481Y-88702282D01*
X166469479Y-88702285D01*
X166419361Y-88789094D01*
X166419359Y-88789096D01*
X166390425Y-88839209D01*
X166390424Y-88839210D01*
X166374544Y-88898472D01*
X166349499Y-88991943D01*
X166349499Y-88991945D01*
X166349499Y-89160046D01*
X166349500Y-89160059D01*
X166349500Y-92984330D01*
X166349499Y-92984348D01*
X166349499Y-93150054D01*
X166349498Y-93150054D01*
X166390424Y-93302789D01*
X166390425Y-93302790D01*
X166411455Y-93339214D01*
X166411456Y-93339216D01*
X166469475Y-93439709D01*
X166469481Y-93439717D01*
X166588349Y-93558585D01*
X166588355Y-93558590D01*
X167813181Y-94783416D01*
X167846666Y-94844739D01*
X167849500Y-94871097D01*
X167849500Y-97610902D01*
X167829815Y-97677941D01*
X167813181Y-97698584D01*
X167723530Y-97788234D01*
X167662206Y-97821718D01*
X167603756Y-97820327D01*
X167475413Y-97785938D01*
X167475403Y-97785936D01*
X167240001Y-97765341D01*
X167239999Y-97765341D01*
X167004596Y-97785936D01*
X167004586Y-97785938D01*
X166776344Y-97847094D01*
X166776335Y-97847098D01*
X166562171Y-97946964D01*
X166562169Y-97946965D01*
X166368600Y-98082503D01*
X166246673Y-98204430D01*
X166185350Y-98237914D01*
X166115658Y-98232930D01*
X166059725Y-98191058D01*
X166042810Y-98160081D01*
X165993797Y-98028671D01*
X165993793Y-98028664D01*
X165907547Y-97913455D01*
X165907544Y-97913452D01*
X165792335Y-97827206D01*
X165792328Y-97827202D01*
X165657482Y-97776908D01*
X165657483Y-97776908D01*
X165597883Y-97770501D01*
X165597881Y-97770500D01*
X165597873Y-97770500D01*
X165597864Y-97770500D01*
X163802129Y-97770500D01*
X163802123Y-97770501D01*
X163742516Y-97776908D01*
X163607671Y-97827202D01*
X163607664Y-97827206D01*
X163492455Y-97913452D01*
X163492452Y-97913455D01*
X163406206Y-98028664D01*
X163406202Y-98028671D01*
X163355908Y-98163517D01*
X163349501Y-98223116D01*
X163349500Y-98223135D01*
X161098192Y-98223135D01*
X161129939Y-98180725D01*
X161160915Y-98163810D01*
X161292331Y-98114796D01*
X161407546Y-98028546D01*
X161493796Y-97913331D01*
X161544091Y-97778483D01*
X161550500Y-97718873D01*
X161550499Y-95923128D01*
X161544091Y-95863517D01*
X161493796Y-95728669D01*
X161493795Y-95728668D01*
X161493793Y-95728664D01*
X161407547Y-95613455D01*
X161407544Y-95613452D01*
X161292335Y-95527206D01*
X161292328Y-95527202D01*
X161157482Y-95476908D01*
X161157483Y-95476908D01*
X161097883Y-95470501D01*
X161097881Y-95470500D01*
X161097873Y-95470500D01*
X161097864Y-95470500D01*
X159302129Y-95470500D01*
X159302123Y-95470501D01*
X159242516Y-95476908D01*
X159107671Y-95527202D01*
X159107664Y-95527206D01*
X158992455Y-95613452D01*
X158992452Y-95613455D01*
X158906206Y-95728664D01*
X158906202Y-95728671D01*
X158855908Y-95863517D01*
X158849501Y-95923116D01*
X158849501Y-95923123D01*
X158849500Y-95923135D01*
X158849500Y-96096500D01*
X158829815Y-96163539D01*
X158777011Y-96209294D01*
X158725500Y-96220500D01*
X158674500Y-96220500D01*
X158607461Y-96200815D01*
X158561706Y-96148011D01*
X158550500Y-96096500D01*
X158550500Y-91160999D01*
X158844341Y-91160999D01*
X158844341Y-91161000D01*
X158864936Y-91396403D01*
X158864938Y-91396413D01*
X158926094Y-91624655D01*
X158926096Y-91624659D01*
X158926097Y-91624663D01*
X159025965Y-91838830D01*
X159025967Y-91838834D01*
X159134281Y-91993521D01*
X159161505Y-92032401D01*
X159328599Y-92199495D01*
X159425384Y-92267265D01*
X159522165Y-92335032D01*
X159522167Y-92335033D01*
X159522170Y-92335035D01*
X159736337Y-92434903D01*
X159964592Y-92496063D01*
X160152918Y-92512539D01*
X160199999Y-92516659D01*
X160200000Y-92516659D01*
X160200001Y-92516659D01*
X160239234Y-92513226D01*
X160435408Y-92496063D01*
X160663663Y-92434903D01*
X160877830Y-92335035D01*
X161071401Y-92199495D01*
X161238495Y-92032401D01*
X161374035Y-91838830D01*
X161473903Y-91624663D01*
X161535063Y-91396408D01*
X161555659Y-91161000D01*
X161535063Y-90925592D01*
X161473903Y-90697337D01*
X161374035Y-90483171D01*
X161238495Y-90289599D01*
X161116567Y-90167671D01*
X161083084Y-90106351D01*
X161088068Y-90036659D01*
X161129939Y-89980725D01*
X161160915Y-89963810D01*
X161292331Y-89914796D01*
X161407546Y-89828546D01*
X161493796Y-89713331D01*
X161544091Y-89578483D01*
X161550500Y-89518873D01*
X161550500Y-89345500D01*
X161570185Y-89278461D01*
X161622989Y-89232706D01*
X161674500Y-89221500D01*
X163225501Y-89221500D01*
X163292540Y-89241185D01*
X163338295Y-89293989D01*
X163349501Y-89345500D01*
X163349501Y-89518876D01*
X163355908Y-89578483D01*
X163406202Y-89713328D01*
X163406206Y-89713335D01*
X163492452Y-89828544D01*
X163492455Y-89828547D01*
X163607664Y-89914793D01*
X163607671Y-89914797D01*
X163739081Y-89963810D01*
X163795015Y-90005681D01*
X163819432Y-90071145D01*
X163804580Y-90139418D01*
X163783430Y-90167673D01*
X163661503Y-90289600D01*
X163525965Y-90483169D01*
X163525964Y-90483171D01*
X163426098Y-90697335D01*
X163426094Y-90697344D01*
X163364938Y-90925586D01*
X163364936Y-90925596D01*
X163344341Y-91160999D01*
X163344341Y-91161000D01*
X163364936Y-91396403D01*
X163364938Y-91396413D01*
X163426094Y-91624655D01*
X163426096Y-91624659D01*
X163426097Y-91624663D01*
X163525965Y-91838830D01*
X163525967Y-91838834D01*
X163634281Y-91993521D01*
X163661505Y-92032401D01*
X163828599Y-92199495D01*
X163925384Y-92267265D01*
X164022165Y-92335032D01*
X164022167Y-92335033D01*
X164022170Y-92335035D01*
X164236337Y-92434903D01*
X164464592Y-92496063D01*
X164652918Y-92512539D01*
X164699999Y-92516659D01*
X164700000Y-92516659D01*
X164700001Y-92516659D01*
X164739234Y-92513226D01*
X164935408Y-92496063D01*
X165163663Y-92434903D01*
X165377830Y-92335035D01*
X165571401Y-92199495D01*
X165738495Y-92032401D01*
X165874035Y-91838830D01*
X165973903Y-91624663D01*
X166035063Y-91396408D01*
X166055659Y-91161000D01*
X166035063Y-90925592D01*
X165973903Y-90697337D01*
X165874035Y-90483171D01*
X165738495Y-90289599D01*
X165616567Y-90167671D01*
X165583084Y-90106351D01*
X165588068Y-90036659D01*
X165629939Y-89980725D01*
X165660915Y-89963810D01*
X165792331Y-89914796D01*
X165907546Y-89828546D01*
X165993796Y-89713331D01*
X166044091Y-89578483D01*
X166050500Y-89518873D01*
X166050499Y-87723128D01*
X166044091Y-87663517D01*
X165993796Y-87528669D01*
X165993795Y-87528668D01*
X165993793Y-87528664D01*
X165907547Y-87413455D01*
X165907544Y-87413452D01*
X165792335Y-87327206D01*
X165792328Y-87327202D01*
X165657482Y-87276908D01*
X165657483Y-87276908D01*
X165597883Y-87270501D01*
X165597881Y-87270500D01*
X165597873Y-87270500D01*
X165597864Y-87270500D01*
X163802129Y-87270500D01*
X163802123Y-87270501D01*
X163742516Y-87276908D01*
X163607671Y-87327202D01*
X163607664Y-87327206D01*
X163492455Y-87413452D01*
X163492452Y-87413455D01*
X163406206Y-87528664D01*
X163406202Y-87528671D01*
X163355908Y-87663517D01*
X163349501Y-87723116D01*
X163349501Y-87723123D01*
X163349500Y-87723135D01*
X163349500Y-87896500D01*
X163329815Y-87963539D01*
X163277011Y-88009294D01*
X163225500Y-88020500D01*
X161674499Y-88020500D01*
X161607460Y-88000815D01*
X161561705Y-87948011D01*
X161550499Y-87896500D01*
X161550499Y-87723129D01*
X161550498Y-87723123D01*
X161550497Y-87723116D01*
X161544091Y-87663517D01*
X161493796Y-87528669D01*
X161493795Y-87528668D01*
X161493793Y-87528664D01*
X161407547Y-87413455D01*
X161407544Y-87413452D01*
X161292335Y-87327206D01*
X161292328Y-87327202D01*
X161157482Y-87276908D01*
X161157483Y-87276908D01*
X161097883Y-87270501D01*
X161097881Y-87270500D01*
X161097873Y-87270500D01*
X161097864Y-87270500D01*
X159302129Y-87270500D01*
X159302123Y-87270501D01*
X159242516Y-87276908D01*
X159107671Y-87327202D01*
X159107664Y-87327206D01*
X158992455Y-87413452D01*
X158992452Y-87413455D01*
X158906206Y-87528664D01*
X158906202Y-87528671D01*
X158855908Y-87663517D01*
X158849501Y-87723116D01*
X158849501Y-87723123D01*
X158849500Y-87723135D01*
X158849500Y-89518870D01*
X158849501Y-89518876D01*
X158855908Y-89578483D01*
X158906202Y-89713328D01*
X158906206Y-89713335D01*
X158992452Y-89828544D01*
X158992455Y-89828547D01*
X159107664Y-89914793D01*
X159107671Y-89914797D01*
X159239081Y-89963810D01*
X159295015Y-90005681D01*
X159319432Y-90071145D01*
X159304580Y-90139418D01*
X159283430Y-90167673D01*
X159161503Y-90289600D01*
X159025965Y-90483169D01*
X159025964Y-90483171D01*
X158926098Y-90697335D01*
X158926094Y-90697344D01*
X158864938Y-90925586D01*
X158864936Y-90925596D01*
X158844341Y-91160999D01*
X158550500Y-91160999D01*
X158550500Y-88991945D01*
X158550500Y-88991943D01*
X158509577Y-88839216D01*
X158509577Y-88839215D01*
X158509577Y-88839214D01*
X158480639Y-88789095D01*
X158480637Y-88789092D01*
X158430520Y-88702284D01*
X158318716Y-88590480D01*
X158318715Y-88590479D01*
X158314385Y-88586149D01*
X158314374Y-88586139D01*
X157987590Y-88259355D01*
X157987588Y-88259352D01*
X157868717Y-88140481D01*
X157868716Y-88140480D01*
X157781904Y-88090360D01*
X157781904Y-88090359D01*
X157781900Y-88090358D01*
X157731785Y-88061423D01*
X157579057Y-88020499D01*
X157420943Y-88020499D01*
X157413347Y-88020499D01*
X157413331Y-88020500D01*
X157174499Y-88020500D01*
X157107460Y-88000815D01*
X157061705Y-87948011D01*
X157050499Y-87896500D01*
X157050499Y-87723129D01*
X157050498Y-87723123D01*
X157050497Y-87723116D01*
X157044091Y-87663517D01*
X156993796Y-87528669D01*
X156993795Y-87528668D01*
X156993793Y-87528664D01*
X156907547Y-87413455D01*
X156907544Y-87413452D01*
X156792335Y-87327206D01*
X156792328Y-87327202D01*
X156657482Y-87276908D01*
X156657483Y-87276908D01*
X156597883Y-87270501D01*
X156597881Y-87270500D01*
X156597873Y-87270500D01*
X156597864Y-87270500D01*
X154802129Y-87270500D01*
X154802123Y-87270501D01*
X154742516Y-87276908D01*
X154607671Y-87327202D01*
X154607664Y-87327206D01*
X154492455Y-87413452D01*
X154492452Y-87413455D01*
X154406206Y-87528664D01*
X154406202Y-87528671D01*
X154355908Y-87663517D01*
X154349501Y-87723116D01*
X154349501Y-87723123D01*
X154349500Y-87723135D01*
X154349500Y-89518870D01*
X154349501Y-89518876D01*
X154355908Y-89578483D01*
X154406202Y-89713328D01*
X154406206Y-89713335D01*
X154492452Y-89828544D01*
X154492455Y-89828547D01*
X154607664Y-89914793D01*
X154607671Y-89914797D01*
X154739081Y-89963810D01*
X154795015Y-90005681D01*
X154819432Y-90071145D01*
X154804580Y-90139418D01*
X154783430Y-90167673D01*
X154661503Y-90289600D01*
X154525965Y-90483169D01*
X154525964Y-90483171D01*
X154426098Y-90697335D01*
X154426094Y-90697344D01*
X154364938Y-90925586D01*
X154364936Y-90925596D01*
X154344341Y-91160999D01*
X154344341Y-91161000D01*
X154364936Y-91396403D01*
X154364938Y-91396413D01*
X154426094Y-91624655D01*
X154426096Y-91624659D01*
X154426097Y-91624663D01*
X154525965Y-91838830D01*
X154525967Y-91838834D01*
X154634281Y-91993521D01*
X154661505Y-92032401D01*
X154828599Y-92199495D01*
X154925384Y-92267265D01*
X155022165Y-92335032D01*
X155022167Y-92335033D01*
X155022170Y-92335035D01*
X155236337Y-92434903D01*
X155464592Y-92496063D01*
X155652918Y-92512539D01*
X155699999Y-92516659D01*
X155700000Y-92516659D01*
X155700001Y-92516659D01*
X155739234Y-92513226D01*
X155935408Y-92496063D01*
X156163663Y-92434903D01*
X156377830Y-92335035D01*
X156571401Y-92199495D01*
X156738495Y-92032401D01*
X156874035Y-91838830D01*
X156973903Y-91624663D01*
X157035063Y-91396408D01*
X157055659Y-91161000D01*
X157035063Y-90925592D01*
X156973903Y-90697337D01*
X156874035Y-90483171D01*
X156738495Y-90289599D01*
X156616567Y-90167671D01*
X156583084Y-90106351D01*
X156588068Y-90036659D01*
X156629939Y-89980725D01*
X156660915Y-89963810D01*
X156792331Y-89914796D01*
X156907546Y-89828546D01*
X156993796Y-89713331D01*
X157044091Y-89578483D01*
X157050500Y-89518873D01*
X157050500Y-89345500D01*
X157070185Y-89278461D01*
X157122989Y-89232706D01*
X157174500Y-89221500D01*
X157199903Y-89221500D01*
X157266942Y-89241185D01*
X157287584Y-89257819D01*
X157313181Y-89283416D01*
X157346666Y-89344739D01*
X157349500Y-89371097D01*
X157349500Y-96096500D01*
X157329815Y-96163539D01*
X157277011Y-96209294D01*
X157225500Y-96220500D01*
X157174499Y-96220500D01*
X157107460Y-96200815D01*
X157061705Y-96148011D01*
X157050499Y-96096500D01*
X157050499Y-95923129D01*
X157050498Y-95923123D01*
X157050497Y-95923116D01*
X157044091Y-95863517D01*
X156993796Y-95728669D01*
X156993795Y-95728668D01*
X156993793Y-95728664D01*
X156907547Y-95613455D01*
X156907544Y-95613452D01*
X156792335Y-95527206D01*
X156792328Y-95527202D01*
X156657482Y-95476908D01*
X156657483Y-95476908D01*
X156597883Y-95470501D01*
X156597881Y-95470500D01*
X156597873Y-95470500D01*
X156597864Y-95470500D01*
X154802129Y-95470500D01*
X154802123Y-95470501D01*
X154742516Y-95476908D01*
X154607671Y-95527202D01*
X154607664Y-95527206D01*
X154492455Y-95613452D01*
X154492452Y-95613455D01*
X154406206Y-95728664D01*
X154406202Y-95728671D01*
X154355908Y-95863517D01*
X154349501Y-95923116D01*
X154349501Y-95923123D01*
X154349500Y-95923135D01*
X154349500Y-96096500D01*
X154329815Y-96163539D01*
X154277011Y-96209294D01*
X154225500Y-96220500D01*
X152674499Y-96220500D01*
X152607460Y-96200815D01*
X152561705Y-96148011D01*
X152550499Y-96096500D01*
X152550499Y-95923129D01*
X152550498Y-95923123D01*
X152550497Y-95923116D01*
X152544091Y-95863517D01*
X152493796Y-95728669D01*
X152493795Y-95728668D01*
X152493793Y-95728664D01*
X152407547Y-95613455D01*
X152407544Y-95613452D01*
X152292335Y-95527206D01*
X152292328Y-95527202D01*
X152157482Y-95476908D01*
X152157483Y-95476908D01*
X152097883Y-95470501D01*
X152097881Y-95470500D01*
X152097873Y-95470500D01*
X152097864Y-95470500D01*
X150302129Y-95470500D01*
X150302123Y-95470501D01*
X150242516Y-95476908D01*
X150107671Y-95527202D01*
X150107664Y-95527206D01*
X149992455Y-95613452D01*
X149992452Y-95613455D01*
X149906206Y-95728664D01*
X149906202Y-95728671D01*
X149855908Y-95863517D01*
X149849501Y-95923116D01*
X149849501Y-95923123D01*
X149849500Y-95923135D01*
X149849500Y-96096500D01*
X149829815Y-96163539D01*
X149777011Y-96209294D01*
X149725500Y-96220500D01*
X148174499Y-96220500D01*
X148107460Y-96200815D01*
X148061705Y-96148011D01*
X148050499Y-96096500D01*
X148050499Y-95923129D01*
X148050498Y-95923123D01*
X148050497Y-95923116D01*
X148044091Y-95863517D01*
X147993796Y-95728669D01*
X147993795Y-95728668D01*
X147993793Y-95728664D01*
X147907547Y-95613455D01*
X147907544Y-95613452D01*
X147792335Y-95527206D01*
X147792328Y-95527202D01*
X147657482Y-95476908D01*
X147657483Y-95476908D01*
X147597883Y-95470501D01*
X147597881Y-95470500D01*
X147597873Y-95470500D01*
X147597864Y-95470500D01*
X145802129Y-95470500D01*
X145802123Y-95470501D01*
X145742516Y-95476908D01*
X145607671Y-95527202D01*
X145607664Y-95527206D01*
X145492455Y-95613452D01*
X145492452Y-95613455D01*
X145406206Y-95728664D01*
X145406202Y-95728671D01*
X145355908Y-95863517D01*
X145349501Y-95923116D01*
X145349501Y-95923123D01*
X145349500Y-95923135D01*
X145349500Y-97718870D01*
X145349501Y-97718876D01*
X145355908Y-97778483D01*
X145406202Y-97913328D01*
X145406206Y-97913335D01*
X145492452Y-98028544D01*
X145492455Y-98028547D01*
X145607664Y-98114793D01*
X145607671Y-98114797D01*
X145739081Y-98163810D01*
X145795015Y-98205681D01*
X145819432Y-98271145D01*
X145804580Y-98339418D01*
X145783430Y-98367673D01*
X145661503Y-98489600D01*
X145525965Y-98683169D01*
X145525964Y-98683171D01*
X145426098Y-98897335D01*
X145426094Y-98897344D01*
X145364938Y-99125586D01*
X145364936Y-99125596D01*
X145344341Y-99360999D01*
X140886214Y-99360999D01*
X140886214Y-83824500D01*
X140905899Y-83757461D01*
X140958703Y-83711706D01*
X141010214Y-83700500D01*
X145714966Y-83700500D01*
X145782005Y-83720185D01*
G37*
%TD.AperFunction*%
D13*
X155700000Y-99361000D03*
X155700000Y-96821000D03*
X151200000Y-99361000D03*
X151200000Y-96821000D03*
X169780000Y-99121000D03*
X167240000Y-99121000D03*
X164700000Y-99121000D03*
X160200000Y-99361000D03*
X160200000Y-96821000D03*
X155700000Y-91161000D03*
X155700000Y-88621000D03*
X178200000Y-91161000D03*
X178200000Y-88621000D03*
X164700000Y-91161000D03*
X164700000Y-88621000D03*
X146700000Y-99361000D03*
X146700000Y-96821000D03*
X173700000Y-91161000D03*
X173700000Y-88621000D03*
X169200000Y-91161000D03*
X169200000Y-88621000D03*
X160200000Y-91161000D03*
X160200000Y-88621000D03*
M02*
