%TF.GenerationSoftware,KiCad,Pcbnew,8.0.5*%
%TF.CreationDate,2024-12-11T17:13:52+10:00*%
%TF.ProjectId,arduino,61726475-696e-46f2-9e6b-696361645f70,rev?*%
%TF.SameCoordinates,Original*%
%TF.FileFunction,Legend,Top*%
%TF.FilePolarity,Positive*%
%FSLAX46Y46*%
G04 Gerber Fmt 4.6, Leading zero omitted, Abs format (unit mm)*
G04 Created by KiCad (PCBNEW 8.0.5) date 2024-12-11 17:13:52*
%MOMM*%
%LPD*%
G01*
G04 APERTURE LIST*
%ADD10C,0.100000*%
%ADD11C,0.150000*%
%ADD12C,0.120000*%
%ADD13C,0.350000*%
G04 APERTURE END LIST*
D10*
X138083884Y-115831466D02*
X138845789Y-115831466D01*
X138464836Y-116212419D02*
X138464836Y-115450514D01*
X139798169Y-115212419D02*
X139321979Y-115212419D01*
X139321979Y-115212419D02*
X139274360Y-115688609D01*
X139274360Y-115688609D02*
X139321979Y-115640990D01*
X139321979Y-115640990D02*
X139417217Y-115593371D01*
X139417217Y-115593371D02*
X139655312Y-115593371D01*
X139655312Y-115593371D02*
X139750550Y-115640990D01*
X139750550Y-115640990D02*
X139798169Y-115688609D01*
X139798169Y-115688609D02*
X139845788Y-115783847D01*
X139845788Y-115783847D02*
X139845788Y-116021942D01*
X139845788Y-116021942D02*
X139798169Y-116117180D01*
X139798169Y-116117180D02*
X139750550Y-116164800D01*
X139750550Y-116164800D02*
X139655312Y-116212419D01*
X139655312Y-116212419D02*
X139417217Y-116212419D01*
X139417217Y-116212419D02*
X139321979Y-116164800D01*
X139321979Y-116164800D02*
X139274360Y-116117180D01*
X140131503Y-115212419D02*
X140464836Y-116212419D01*
X140464836Y-116212419D02*
X140798169Y-115212419D01*
X145807693Y-115260038D02*
X145712455Y-115212419D01*
X145712455Y-115212419D02*
X145569598Y-115212419D01*
X145569598Y-115212419D02*
X145426741Y-115260038D01*
X145426741Y-115260038D02*
X145331503Y-115355276D01*
X145331503Y-115355276D02*
X145283884Y-115450514D01*
X145283884Y-115450514D02*
X145236265Y-115640990D01*
X145236265Y-115640990D02*
X145236265Y-115783847D01*
X145236265Y-115783847D02*
X145283884Y-115974323D01*
X145283884Y-115974323D02*
X145331503Y-116069561D01*
X145331503Y-116069561D02*
X145426741Y-116164800D01*
X145426741Y-116164800D02*
X145569598Y-116212419D01*
X145569598Y-116212419D02*
X145664836Y-116212419D01*
X145664836Y-116212419D02*
X145807693Y-116164800D01*
X145807693Y-116164800D02*
X145855312Y-116117180D01*
X145855312Y-116117180D02*
X145855312Y-115783847D01*
X145855312Y-115783847D02*
X145664836Y-115783847D01*
X146283884Y-116212419D02*
X146283884Y-115212419D01*
X146283884Y-115212419D02*
X146855312Y-116212419D01*
X146855312Y-116212419D02*
X146855312Y-115212419D01*
X147331503Y-116212419D02*
X147331503Y-115212419D01*
X147331503Y-115212419D02*
X147569598Y-115212419D01*
X147569598Y-115212419D02*
X147712455Y-115260038D01*
X147712455Y-115260038D02*
X147807693Y-115355276D01*
X147807693Y-115355276D02*
X147855312Y-115450514D01*
X147855312Y-115450514D02*
X147902931Y-115640990D01*
X147902931Y-115640990D02*
X147902931Y-115783847D01*
X147902931Y-115783847D02*
X147855312Y-115974323D01*
X147855312Y-115974323D02*
X147807693Y-116069561D01*
X147807693Y-116069561D02*
X147712455Y-116164800D01*
X147712455Y-116164800D02*
X147569598Y-116212419D01*
X147569598Y-116212419D02*
X147331503Y-116212419D01*
X130971466Y-117980163D02*
X130971466Y-117218259D01*
X131352419Y-117599211D02*
X130590514Y-117599211D01*
X133034836Y-112137419D02*
X132558646Y-112137419D01*
X132558646Y-112137419D02*
X132511027Y-112613609D01*
X132511027Y-112613609D02*
X132558646Y-112565990D01*
X132558646Y-112565990D02*
X132653884Y-112518371D01*
X132653884Y-112518371D02*
X132891979Y-112518371D01*
X132891979Y-112518371D02*
X132987217Y-112565990D01*
X132987217Y-112565990D02*
X133034836Y-112613609D01*
X133034836Y-112613609D02*
X133082455Y-112708847D01*
X133082455Y-112708847D02*
X133082455Y-112946942D01*
X133082455Y-112946942D02*
X133034836Y-113042180D01*
X133034836Y-113042180D02*
X132987217Y-113089800D01*
X132987217Y-113089800D02*
X132891979Y-113137419D01*
X132891979Y-113137419D02*
X132653884Y-113137419D01*
X132653884Y-113137419D02*
X132558646Y-113089800D01*
X132558646Y-113089800D02*
X132511027Y-113042180D01*
X133368170Y-112137419D02*
X133701503Y-113137419D01*
X133701503Y-113137419D02*
X134034836Y-112137419D01*
X134368170Y-113137419D02*
X134368170Y-112470752D01*
X134368170Y-112137419D02*
X134320551Y-112185038D01*
X134320551Y-112185038D02*
X134368170Y-112232657D01*
X134368170Y-112232657D02*
X134415789Y-112185038D01*
X134415789Y-112185038D02*
X134368170Y-112137419D01*
X134368170Y-112137419D02*
X134368170Y-112232657D01*
X134844360Y-112470752D02*
X134844360Y-113137419D01*
X134844360Y-112565990D02*
X134891979Y-112518371D01*
X134891979Y-112518371D02*
X134987217Y-112470752D01*
X134987217Y-112470752D02*
X135130074Y-112470752D01*
X135130074Y-112470752D02*
X135225312Y-112518371D01*
X135225312Y-112518371D02*
X135272931Y-112613609D01*
X135272931Y-112613609D02*
X135272931Y-113137419D01*
X151583884Y-115831466D02*
X152345789Y-115831466D01*
X151964836Y-116212419D02*
X151964836Y-115450514D01*
X152726741Y-115212419D02*
X153345788Y-115212419D01*
X153345788Y-115212419D02*
X153012455Y-115593371D01*
X153012455Y-115593371D02*
X153155312Y-115593371D01*
X153155312Y-115593371D02*
X153250550Y-115640990D01*
X153250550Y-115640990D02*
X153298169Y-115688609D01*
X153298169Y-115688609D02*
X153345788Y-115783847D01*
X153345788Y-115783847D02*
X153345788Y-116021942D01*
X153345788Y-116021942D02*
X153298169Y-116117180D01*
X153298169Y-116117180D02*
X153250550Y-116164800D01*
X153250550Y-116164800D02*
X153155312Y-116212419D01*
X153155312Y-116212419D02*
X152869598Y-116212419D01*
X152869598Y-116212419D02*
X152774360Y-116164800D01*
X152774360Y-116164800D02*
X152726741Y-116117180D01*
X153774360Y-116117180D02*
X153821979Y-116164800D01*
X153821979Y-116164800D02*
X153774360Y-116212419D01*
X153774360Y-116212419D02*
X153726741Y-116164800D01*
X153726741Y-116164800D02*
X153774360Y-116117180D01*
X153774360Y-116117180D02*
X153774360Y-116212419D01*
X154155312Y-115212419D02*
X154774359Y-115212419D01*
X154774359Y-115212419D02*
X154441026Y-115593371D01*
X154441026Y-115593371D02*
X154583883Y-115593371D01*
X154583883Y-115593371D02*
X154679121Y-115640990D01*
X154679121Y-115640990D02*
X154726740Y-115688609D01*
X154726740Y-115688609D02*
X154774359Y-115783847D01*
X154774359Y-115783847D02*
X154774359Y-116021942D01*
X154774359Y-116021942D02*
X154726740Y-116117180D01*
X154726740Y-116117180D02*
X154679121Y-116164800D01*
X154679121Y-116164800D02*
X154583883Y-116212419D01*
X154583883Y-116212419D02*
X154298169Y-116212419D01*
X154298169Y-116212419D02*
X154202931Y-116164800D01*
X154202931Y-116164800D02*
X154155312Y-116117180D01*
X155060074Y-115212419D02*
X155393407Y-116212419D01*
X155393407Y-116212419D02*
X155726740Y-115212419D01*
X156949123Y-112137419D02*
X157568170Y-112137419D01*
X157568170Y-112137419D02*
X157234837Y-112518371D01*
X157234837Y-112518371D02*
X157377694Y-112518371D01*
X157377694Y-112518371D02*
X157472932Y-112565990D01*
X157472932Y-112565990D02*
X157520551Y-112613609D01*
X157520551Y-112613609D02*
X157568170Y-112708847D01*
X157568170Y-112708847D02*
X157568170Y-112946942D01*
X157568170Y-112946942D02*
X157520551Y-113042180D01*
X157520551Y-113042180D02*
X157472932Y-113089800D01*
X157472932Y-113089800D02*
X157377694Y-113137419D01*
X157377694Y-113137419D02*
X157091980Y-113137419D01*
X157091980Y-113137419D02*
X156996742Y-113089800D01*
X156996742Y-113089800D02*
X156949123Y-113042180D01*
X157996742Y-113042180D02*
X158044361Y-113089800D01*
X158044361Y-113089800D02*
X157996742Y-113137419D01*
X157996742Y-113137419D02*
X157949123Y-113089800D01*
X157949123Y-113089800D02*
X157996742Y-113042180D01*
X157996742Y-113042180D02*
X157996742Y-113137419D01*
X158377694Y-112137419D02*
X158996741Y-112137419D01*
X158996741Y-112137419D02*
X158663408Y-112518371D01*
X158663408Y-112518371D02*
X158806265Y-112518371D01*
X158806265Y-112518371D02*
X158901503Y-112565990D01*
X158901503Y-112565990D02*
X158949122Y-112613609D01*
X158949122Y-112613609D02*
X158996741Y-112708847D01*
X158996741Y-112708847D02*
X158996741Y-112946942D01*
X158996741Y-112946942D02*
X158949122Y-113042180D01*
X158949122Y-113042180D02*
X158901503Y-113089800D01*
X158901503Y-113089800D02*
X158806265Y-113137419D01*
X158806265Y-113137419D02*
X158520551Y-113137419D01*
X158520551Y-113137419D02*
X158425313Y-113089800D01*
X158425313Y-113089800D02*
X158377694Y-113042180D01*
X159282456Y-112137419D02*
X159615789Y-113137419D01*
X159615789Y-113137419D02*
X159949122Y-112137419D01*
X160282456Y-113137419D02*
X160282456Y-112470752D01*
X160282456Y-112137419D02*
X160234837Y-112185038D01*
X160234837Y-112185038D02*
X160282456Y-112232657D01*
X160282456Y-112232657D02*
X160330075Y-112185038D01*
X160330075Y-112185038D02*
X160282456Y-112137419D01*
X160282456Y-112137419D02*
X160282456Y-112232657D01*
X160758646Y-112470752D02*
X160758646Y-113137419D01*
X160758646Y-112565990D02*
X160806265Y-112518371D01*
X160806265Y-112518371D02*
X160901503Y-112470752D01*
X160901503Y-112470752D02*
X161044360Y-112470752D01*
X161044360Y-112470752D02*
X161139598Y-112518371D01*
X161139598Y-112518371D02*
X161187217Y-112613609D01*
X161187217Y-112613609D02*
X161187217Y-113137419D01*
X161571466Y-115440163D02*
X161571466Y-114678259D01*
X130971466Y-115440163D02*
X130971466Y-114678259D01*
X161571466Y-117980163D02*
X161571466Y-117218259D01*
X161952419Y-117599211D02*
X161190514Y-117599211D01*
D11*
X146809104Y-95202380D02*
X146809104Y-94726190D01*
X147094819Y-95297618D02*
X146094819Y-94964285D01*
X146094819Y-94964285D02*
X147094819Y-94630952D01*
X147094819Y-94297618D02*
X146428152Y-94297618D01*
X146618628Y-94297618D02*
X146523390Y-94249999D01*
X146523390Y-94249999D02*
X146475771Y-94202380D01*
X146475771Y-94202380D02*
X146428152Y-94107142D01*
X146428152Y-94107142D02*
X146428152Y-94011904D01*
X147094819Y-93249999D02*
X146094819Y-93249999D01*
X147047200Y-93249999D02*
X147094819Y-93345237D01*
X147094819Y-93345237D02*
X147094819Y-93535713D01*
X147094819Y-93535713D02*
X147047200Y-93630951D01*
X147047200Y-93630951D02*
X146999580Y-93678570D01*
X146999580Y-93678570D02*
X146904342Y-93726189D01*
X146904342Y-93726189D02*
X146618628Y-93726189D01*
X146618628Y-93726189D02*
X146523390Y-93678570D01*
X146523390Y-93678570D02*
X146475771Y-93630951D01*
X146475771Y-93630951D02*
X146428152Y-93535713D01*
X146428152Y-93535713D02*
X146428152Y-93345237D01*
X146428152Y-93345237D02*
X146475771Y-93249999D01*
X146428152Y-92345237D02*
X147094819Y-92345237D01*
X146428152Y-92773808D02*
X146951961Y-92773808D01*
X146951961Y-92773808D02*
X147047200Y-92726189D01*
X147047200Y-92726189D02*
X147094819Y-92630951D01*
X147094819Y-92630951D02*
X147094819Y-92488094D01*
X147094819Y-92488094D02*
X147047200Y-92392856D01*
X147047200Y-92392856D02*
X146999580Y-92345237D01*
X147094819Y-91869046D02*
X146428152Y-91869046D01*
X146094819Y-91869046D02*
X146142438Y-91916665D01*
X146142438Y-91916665D02*
X146190057Y-91869046D01*
X146190057Y-91869046D02*
X146142438Y-91821427D01*
X146142438Y-91821427D02*
X146094819Y-91869046D01*
X146094819Y-91869046D02*
X146190057Y-91869046D01*
X146428152Y-91392856D02*
X147094819Y-91392856D01*
X146523390Y-91392856D02*
X146475771Y-91345237D01*
X146475771Y-91345237D02*
X146428152Y-91249999D01*
X146428152Y-91249999D02*
X146428152Y-91107142D01*
X146428152Y-91107142D02*
X146475771Y-91011904D01*
X146475771Y-91011904D02*
X146571009Y-90964285D01*
X146571009Y-90964285D02*
X147094819Y-90964285D01*
X147094819Y-90345237D02*
X147047200Y-90440475D01*
X147047200Y-90440475D02*
X146999580Y-90488094D01*
X146999580Y-90488094D02*
X146904342Y-90535713D01*
X146904342Y-90535713D02*
X146618628Y-90535713D01*
X146618628Y-90535713D02*
X146523390Y-90488094D01*
X146523390Y-90488094D02*
X146475771Y-90440475D01*
X146475771Y-90440475D02*
X146428152Y-90345237D01*
X146428152Y-90345237D02*
X146428152Y-90202380D01*
X146428152Y-90202380D02*
X146475771Y-90107142D01*
X146475771Y-90107142D02*
X146523390Y-90059523D01*
X146523390Y-90059523D02*
X146618628Y-90011904D01*
X146618628Y-90011904D02*
X146904342Y-90011904D01*
X146904342Y-90011904D02*
X146999580Y-90059523D01*
X146999580Y-90059523D02*
X147047200Y-90107142D01*
X147047200Y-90107142D02*
X147094819Y-90202380D01*
X147094819Y-90202380D02*
X147094819Y-90345237D01*
X147094819Y-89583332D02*
X146094819Y-89583332D01*
X146094819Y-89583332D02*
X147094819Y-89011904D01*
X147094819Y-89011904D02*
X146094819Y-89011904D01*
X147094819Y-88107142D02*
X146571009Y-88107142D01*
X146571009Y-88107142D02*
X146475771Y-88154761D01*
X146475771Y-88154761D02*
X146428152Y-88249999D01*
X146428152Y-88249999D02*
X146428152Y-88440475D01*
X146428152Y-88440475D02*
X146475771Y-88535713D01*
X147047200Y-88107142D02*
X147094819Y-88202380D01*
X147094819Y-88202380D02*
X147094819Y-88440475D01*
X147094819Y-88440475D02*
X147047200Y-88535713D01*
X147047200Y-88535713D02*
X146951961Y-88583332D01*
X146951961Y-88583332D02*
X146856723Y-88583332D01*
X146856723Y-88583332D02*
X146761485Y-88535713D01*
X146761485Y-88535713D02*
X146713866Y-88440475D01*
X146713866Y-88440475D02*
X146713866Y-88202380D01*
X146713866Y-88202380D02*
X146666247Y-88107142D01*
X146428152Y-87630951D02*
X147094819Y-87630951D01*
X146523390Y-87630951D02*
X146475771Y-87583332D01*
X146475771Y-87583332D02*
X146428152Y-87488094D01*
X146428152Y-87488094D02*
X146428152Y-87345237D01*
X146428152Y-87345237D02*
X146475771Y-87249999D01*
X146475771Y-87249999D02*
X146571009Y-87202380D01*
X146571009Y-87202380D02*
X147094819Y-87202380D01*
X147094819Y-86583332D02*
X147047200Y-86678570D01*
X147047200Y-86678570D02*
X146999580Y-86726189D01*
X146999580Y-86726189D02*
X146904342Y-86773808D01*
X146904342Y-86773808D02*
X146618628Y-86773808D01*
X146618628Y-86773808D02*
X146523390Y-86726189D01*
X146523390Y-86726189D02*
X146475771Y-86678570D01*
X146475771Y-86678570D02*
X146428152Y-86583332D01*
X146428152Y-86583332D02*
X146428152Y-86440475D01*
X146428152Y-86440475D02*
X146475771Y-86345237D01*
X146475771Y-86345237D02*
X146523390Y-86297618D01*
X146523390Y-86297618D02*
X146618628Y-86249999D01*
X146618628Y-86249999D02*
X146904342Y-86249999D01*
X146904342Y-86249999D02*
X146999580Y-86297618D01*
X146999580Y-86297618D02*
X147047200Y-86345237D01*
X147047200Y-86345237D02*
X147094819Y-86440475D01*
X147094819Y-86440475D02*
X147094819Y-86583332D01*
X147094819Y-85297618D02*
X147094819Y-85869046D01*
X147094819Y-85583332D02*
X146094819Y-85583332D01*
X146094819Y-85583332D02*
X146237676Y-85678570D01*
X146237676Y-85678570D02*
X146332914Y-85773808D01*
X146332914Y-85773808D02*
X146380533Y-85869046D01*
X147891904Y-74285180D02*
X147891904Y-73475657D01*
X147891904Y-73475657D02*
X147844285Y-73380419D01*
X147844285Y-73380419D02*
X147796666Y-73332800D01*
X147796666Y-73332800D02*
X147701428Y-73285180D01*
X147701428Y-73285180D02*
X147510952Y-73285180D01*
X147510952Y-73285180D02*
X147415714Y-73332800D01*
X147415714Y-73332800D02*
X147368095Y-73380419D01*
X147368095Y-73380419D02*
X147320476Y-73475657D01*
X147320476Y-73475657D02*
X147320476Y-74285180D01*
X146891904Y-73332800D02*
X146749047Y-73285180D01*
X146749047Y-73285180D02*
X146510952Y-73285180D01*
X146510952Y-73285180D02*
X146415714Y-73332800D01*
X146415714Y-73332800D02*
X146368095Y-73380419D01*
X146368095Y-73380419D02*
X146320476Y-73475657D01*
X146320476Y-73475657D02*
X146320476Y-73570895D01*
X146320476Y-73570895D02*
X146368095Y-73666133D01*
X146368095Y-73666133D02*
X146415714Y-73713752D01*
X146415714Y-73713752D02*
X146510952Y-73761371D01*
X146510952Y-73761371D02*
X146701428Y-73808990D01*
X146701428Y-73808990D02*
X146796666Y-73856609D01*
X146796666Y-73856609D02*
X146844285Y-73904228D01*
X146844285Y-73904228D02*
X146891904Y-73999466D01*
X146891904Y-73999466D02*
X146891904Y-74094704D01*
X146891904Y-74094704D02*
X146844285Y-74189942D01*
X146844285Y-74189942D02*
X146796666Y-74237561D01*
X146796666Y-74237561D02*
X146701428Y-74285180D01*
X146701428Y-74285180D02*
X146463333Y-74285180D01*
X146463333Y-74285180D02*
X146320476Y-74237561D01*
X145558571Y-73808990D02*
X145415714Y-73761371D01*
X145415714Y-73761371D02*
X145368095Y-73713752D01*
X145368095Y-73713752D02*
X145320476Y-73618514D01*
X145320476Y-73618514D02*
X145320476Y-73475657D01*
X145320476Y-73475657D02*
X145368095Y-73380419D01*
X145368095Y-73380419D02*
X145415714Y-73332800D01*
X145415714Y-73332800D02*
X145510952Y-73285180D01*
X145510952Y-73285180D02*
X145891904Y-73285180D01*
X145891904Y-73285180D02*
X145891904Y-74285180D01*
X145891904Y-74285180D02*
X145558571Y-74285180D01*
X145558571Y-74285180D02*
X145463333Y-74237561D01*
X145463333Y-74237561D02*
X145415714Y-74189942D01*
X145415714Y-74189942D02*
X145368095Y-74094704D01*
X145368095Y-74094704D02*
X145368095Y-73999466D01*
X145368095Y-73999466D02*
X145415714Y-73904228D01*
X145415714Y-73904228D02*
X145463333Y-73856609D01*
X145463333Y-73856609D02*
X145558571Y-73808990D01*
X145558571Y-73808990D02*
X145891904Y-73808990D01*
D12*
%TO.C,3.3Vbar1*%
X151170000Y-116650000D02*
X152500000Y-116650000D01*
X151170000Y-117980000D02*
X151170000Y-116650000D01*
X151170000Y-119250000D02*
X151170000Y-129470000D01*
X151170000Y-119250000D02*
X153770000Y-119250000D01*
X151170000Y-129470000D02*
X156370000Y-129470000D01*
X153770000Y-116650000D02*
X156370000Y-116650000D01*
X153770000Y-119250000D02*
X153770000Y-116650000D01*
X156370000Y-116650000D02*
X156370000Y-129470000D01*
%TO.C,5Vbar1*%
X137170000Y-116650000D02*
X138500000Y-116650000D01*
X137170000Y-117980000D02*
X137170000Y-116650000D01*
X137170000Y-119250000D02*
X137170000Y-129470000D01*
X137170000Y-119250000D02*
X139770000Y-119250000D01*
X137170000Y-129470000D02*
X142370000Y-129470000D01*
X139770000Y-116650000D02*
X142370000Y-116650000D01*
X139770000Y-119250000D02*
X139770000Y-116650000D01*
X142370000Y-116650000D02*
X142370000Y-129470000D01*
%TO.C,Expansion1*%
X158050000Y-108020000D02*
X158050000Y-72400000D01*
X160710000Y-72400000D02*
X158050000Y-72400000D01*
X160710000Y-108020000D02*
X158050000Y-108020000D01*
X160710000Y-108020000D02*
X160710000Y-72400000D01*
X160710000Y-109290000D02*
X160710000Y-110620000D01*
X160710000Y-110620000D02*
X159380000Y-110620000D01*
%TO.C,5Vin1*%
X132570000Y-116345000D02*
X132570000Y-113745000D01*
X135230000Y-113745000D02*
X132570000Y-113745000D01*
X135230000Y-116345000D02*
X132570000Y-116345000D01*
X135230000Y-116345000D02*
X135230000Y-113745000D01*
X135230000Y-117615000D02*
X135230000Y-118945000D01*
X135230000Y-118945000D02*
X133900000Y-118945000D01*
%TO.C,powerIN2*%
X158050000Y-116345000D02*
X158050000Y-113745000D01*
X160710000Y-113745000D02*
X158050000Y-113745000D01*
X160710000Y-116345000D02*
X158050000Y-116345000D01*
X160710000Y-116345000D02*
X160710000Y-113745000D01*
X160710000Y-117615000D02*
X160710000Y-118945000D01*
X160710000Y-118945000D02*
X159380000Y-118945000D01*
%TO.C,GNDBar1*%
X144170000Y-116650000D02*
X145500000Y-116650000D01*
X144170000Y-117980000D02*
X144170000Y-116650000D01*
X144170000Y-119250000D02*
X144170000Y-129470000D01*
X144170000Y-119250000D02*
X146770000Y-119250000D01*
X144170000Y-129470000D02*
X149370000Y-129470000D01*
X146770000Y-116650000D02*
X149370000Y-116650000D01*
X146770000Y-119250000D02*
X146770000Y-116650000D01*
X149370000Y-116650000D02*
X149370000Y-129470000D01*
%TO.C,Expansion2*%
X132570000Y-72410000D02*
X133900000Y-72410000D01*
X132570000Y-73740000D02*
X132570000Y-72410000D01*
X132570000Y-75010000D02*
X132570000Y-110630000D01*
X132570000Y-75010000D02*
X135230000Y-75010000D01*
X132570000Y-110630000D02*
X135230000Y-110630000D01*
X135230000Y-75010000D02*
X135230000Y-110630000D01*
%TO.C,ArduinoNano1*%
X137610000Y-69800000D02*
X137610000Y-113240000D01*
X137610000Y-69800000D02*
X142690000Y-69800000D01*
X137610000Y-113240000D02*
X155650000Y-113240000D01*
X140280000Y-72470000D02*
X137610000Y-72470000D01*
X140280000Y-110570000D02*
X137610000Y-110570000D01*
X140280000Y-110570000D02*
X140280000Y-72470000D01*
X142690000Y-67260000D02*
X150570000Y-67260000D01*
X142690000Y-77680000D02*
X142690000Y-67260000D01*
X150570000Y-67260000D02*
X150570000Y-77680000D01*
X150570000Y-77680000D02*
X142690000Y-77680000D01*
X152980000Y-72470000D02*
X155650000Y-72470000D01*
X152980000Y-108030000D02*
X152980000Y-72470000D01*
X152980000Y-108030000D02*
X152980000Y-110570000D01*
X152980000Y-108030000D02*
X155650000Y-108030000D01*
X152980000Y-110570000D02*
X155650000Y-110570000D01*
X155650000Y-69800000D02*
X150570000Y-69800000D01*
X155650000Y-108030000D02*
X155650000Y-69800000D01*
X155650000Y-113240000D02*
X155650000Y-110570000D01*
%TD*%
D13*
X152500000Y-117980000D03*
X155040000Y-117980000D03*
X152500000Y-120520000D03*
X155040000Y-120520000D03*
X152500000Y-123060000D03*
X155040000Y-123060000D03*
X152500000Y-125600000D03*
X155040000Y-125600000D03*
X152500000Y-128140000D03*
X155040000Y-128140000D03*
X138500000Y-117980000D03*
X141040000Y-117980000D03*
X138500000Y-120520000D03*
X141040000Y-120520000D03*
X138500000Y-123060000D03*
X141040000Y-123060000D03*
X138500000Y-125600000D03*
X141040000Y-125600000D03*
X138500000Y-128140000D03*
X141040000Y-128140000D03*
X159380000Y-109290000D03*
X159380000Y-106750000D03*
X159380000Y-104210000D03*
X159380000Y-101670000D03*
X159380000Y-99130000D03*
X159380000Y-96590000D03*
X159380000Y-94050000D03*
X159380000Y-91510000D03*
X159380000Y-88970000D03*
X159380000Y-86430000D03*
X159380000Y-83890000D03*
X159380000Y-81350000D03*
X159380000Y-78810000D03*
X159380000Y-76270000D03*
X159380000Y-73730000D03*
X133900000Y-117615000D03*
X133900000Y-115075000D03*
X159380000Y-117615000D03*
X159380000Y-115075000D03*
X145500000Y-117980000D03*
X148040000Y-117980000D03*
X145500000Y-120520000D03*
X148040000Y-120520000D03*
X145500000Y-123060000D03*
X148040000Y-123060000D03*
X145500000Y-125600000D03*
X148040000Y-125600000D03*
X145500000Y-128140000D03*
X148040000Y-128140000D03*
X133900000Y-73740000D03*
X133900000Y-76280000D03*
X133900000Y-78820000D03*
X133900000Y-81360000D03*
X133900000Y-83900000D03*
X133900000Y-86440000D03*
X133900000Y-88980000D03*
X133900000Y-91520000D03*
X133900000Y-94060000D03*
X133900000Y-96600000D03*
X133900000Y-99140000D03*
X133900000Y-101680000D03*
X133900000Y-104220000D03*
X133900000Y-106760000D03*
X133900000Y-109300000D03*
X154250000Y-109300000D03*
X154250000Y-106760000D03*
X154250000Y-104220000D03*
X154250000Y-101680000D03*
X154250000Y-99140000D03*
X154250000Y-96600000D03*
X154250000Y-94060000D03*
X154250000Y-91520000D03*
X154250000Y-88980000D03*
X154250000Y-86440000D03*
X154250000Y-83900000D03*
X154250000Y-81360000D03*
X154250000Y-78820000D03*
X154250000Y-76280000D03*
X154250000Y-73740000D03*
X139010000Y-73740000D03*
X139010000Y-76280000D03*
X139010000Y-78820000D03*
X139010000Y-81360000D03*
X139010000Y-83900000D03*
X139010000Y-86440000D03*
X139010000Y-88980000D03*
X139010000Y-91520000D03*
X139010000Y-94060000D03*
X139010000Y-96600000D03*
X139010000Y-99140000D03*
X139010000Y-101680000D03*
X139010000Y-104220000D03*
X139010000Y-106760000D03*
X139010000Y-109300000D03*
M02*
