M48
; DRILL file {KiCad 8.0.5} date 2024-12-11T17:13:52+1000
; FORMAT={-:-/ absolute / metric / decimal}
; #@! TF.CreationDate,2024-12-11T17:13:52+10:00
; #@! TF.GenerationSoftware,Kicad,Pcbnew,8.0.5
; #@! TF.FileFunction,Plated,1,2,PTH
FMAT,2
METRIC
; #@! TA.AperFunction,Plated,PTH,ComponentDrill
T1C1.000
%
G90
G05
T1
X133.9Y-73.74
X133.9Y-76.28
X133.9Y-78.82
X133.9Y-81.36
X133.9Y-83.9
X133.9Y-86.44
X133.9Y-88.98
X133.9Y-91.52
X133.9Y-94.06
X133.9Y-96.6
X133.9Y-99.14
X133.9Y-101.68
X133.9Y-104.22
X133.9Y-106.76
X133.9Y-109.3
X133.9Y-115.075
X133.9Y-117.615
X138.5Y-117.98
X138.5Y-120.52
X138.5Y-123.06
X138.5Y-125.6
X138.5Y-128.14
X139.01Y-73.74
X139.01Y-76.28
X139.01Y-78.82
X139.01Y-81.36
X139.01Y-83.9
X139.01Y-86.44
X139.01Y-88.98
X139.01Y-91.52
X139.01Y-94.06
X139.01Y-96.6
X139.01Y-99.14
X139.01Y-101.68
X139.01Y-104.22
X139.01Y-106.76
X139.01Y-109.3
X141.04Y-117.98
X141.04Y-120.52
X141.04Y-123.06
X141.04Y-125.6
X141.04Y-128.14
X145.5Y-117.98
X145.5Y-120.52
X145.5Y-123.06
X145.5Y-125.6
X145.5Y-128.14
X148.04Y-117.98
X148.04Y-120.52
X148.04Y-123.06
X148.04Y-125.6
X148.04Y-128.14
X152.5Y-117.98
X152.5Y-120.52
X152.5Y-123.06
X152.5Y-125.6
X152.5Y-128.14
X154.25Y-73.74
X154.25Y-76.28
X154.25Y-78.82
X154.25Y-81.36
X154.25Y-83.9
X154.25Y-86.44
X154.25Y-88.98
X154.25Y-91.52
X154.25Y-94.06
X154.25Y-96.6
X154.25Y-99.14
X154.25Y-101.68
X154.25Y-104.22
X154.25Y-106.76
X154.25Y-109.3
X155.04Y-117.98
X155.04Y-120.52
X155.04Y-123.06
X155.04Y-125.6
X155.04Y-128.14
X159.38Y-73.73
X159.38Y-76.27
X159.38Y-78.81
X159.38Y-81.35
X159.38Y-83.89
X159.38Y-86.43
X159.38Y-88.97
X159.38Y-91.51
X159.38Y-94.05
X159.38Y-96.59
X159.38Y-99.13
X159.38Y-101.67
X159.38Y-104.21
X159.38Y-106.75
X159.38Y-109.29
X159.38Y-115.075
X159.38Y-117.615
M30
