%TF.GenerationSoftware,KiCad,Pcbnew,8.0.5*%
%TF.CreationDate,2024-12-11T17:13:52+10:00*%
%TF.ProjectId,arduino,61726475-696e-46f2-9e6b-696361645f70,rev?*%
%TF.SameCoordinates,Original*%
%TF.FileFunction,Profile,NP*%
%FSLAX46Y46*%
G04 Gerber Fmt 4.6, Leading zero omitted, Abs format (unit mm)*
G04 Created by KiCad (PCBNEW 8.0.5) date 2024-12-11 17:13:52*
%MOMM*%
%LPD*%
G01*
G04 APERTURE LIST*
%TA.AperFunction,Profile*%
%ADD10C,0.050000*%
%TD*%
%ADD11C,0.350000*%
G04 APERTURE END LIST*
D10*
X135900000Y-122490000D02*
G75*
G02*
X131900000Y-122490000I-2000000J0D01*
G01*
X131900000Y-122490000D02*
G75*
G02*
X135900000Y-122490000I2000000J0D01*
G01*
X161380000Y-122490000D02*
G75*
G02*
X157380000Y-122490000I-2000000J0D01*
G01*
X157380000Y-122490000D02*
G75*
G02*
X161380000Y-122490000I2000000J0D01*
G01*
X129140000Y-65911600D02*
X164140000Y-65911600D01*
X164140000Y-130911600D01*
X129140000Y-130911600D01*
X129140000Y-65911600D01*
X161100000Y-69140000D02*
G75*
G02*
X157100000Y-69140000I-2000000J0D01*
G01*
X157100000Y-69140000D02*
G75*
G02*
X161100000Y-69140000I2000000J0D01*
G01*
X135900000Y-69140000D02*
G75*
G02*
X131900000Y-69140000I-2000000J0D01*
G01*
X131900000Y-69140000D02*
G75*
G02*
X135900000Y-69140000I2000000J0D01*
G01*
D11*
X152500000Y-117980000D03*
X155040000Y-117980000D03*
X152500000Y-120520000D03*
X155040000Y-120520000D03*
X152500000Y-123060000D03*
X155040000Y-123060000D03*
X152500000Y-125600000D03*
X155040000Y-125600000D03*
X152500000Y-128140000D03*
X155040000Y-128140000D03*
X138500000Y-117980000D03*
X141040000Y-117980000D03*
X138500000Y-120520000D03*
X141040000Y-120520000D03*
X138500000Y-123060000D03*
X141040000Y-123060000D03*
X138500000Y-125600000D03*
X141040000Y-125600000D03*
X138500000Y-128140000D03*
X141040000Y-128140000D03*
X159380000Y-109290000D03*
X159380000Y-106750000D03*
X159380000Y-104210000D03*
X159380000Y-101670000D03*
X159380000Y-99130000D03*
X159380000Y-96590000D03*
X159380000Y-94050000D03*
X159380000Y-91510000D03*
X159380000Y-88970000D03*
X159380000Y-86430000D03*
X159380000Y-83890000D03*
X159380000Y-81350000D03*
X159380000Y-78810000D03*
X159380000Y-76270000D03*
X159380000Y-73730000D03*
X133900000Y-117615000D03*
X133900000Y-115075000D03*
X159380000Y-117615000D03*
X159380000Y-115075000D03*
X145500000Y-117980000D03*
X148040000Y-117980000D03*
X145500000Y-120520000D03*
X148040000Y-120520000D03*
X145500000Y-123060000D03*
X148040000Y-123060000D03*
X145500000Y-125600000D03*
X148040000Y-125600000D03*
X145500000Y-128140000D03*
X148040000Y-128140000D03*
X133900000Y-73740000D03*
X133900000Y-76280000D03*
X133900000Y-78820000D03*
X133900000Y-81360000D03*
X133900000Y-83900000D03*
X133900000Y-86440000D03*
X133900000Y-88980000D03*
X133900000Y-91520000D03*
X133900000Y-94060000D03*
X133900000Y-96600000D03*
X133900000Y-99140000D03*
X133900000Y-101680000D03*
X133900000Y-104220000D03*
X133900000Y-106760000D03*
X133900000Y-109300000D03*
X154250000Y-109300000D03*
X154250000Y-106760000D03*
X154250000Y-104220000D03*
X154250000Y-101680000D03*
X154250000Y-99140000D03*
X154250000Y-96600000D03*
X154250000Y-94060000D03*
X154250000Y-91520000D03*
X154250000Y-88980000D03*
X154250000Y-86440000D03*
X154250000Y-83900000D03*
X154250000Y-81360000D03*
X154250000Y-78820000D03*
X154250000Y-76280000D03*
X154250000Y-73740000D03*
X139010000Y-73740000D03*
X139010000Y-76280000D03*
X139010000Y-78820000D03*
X139010000Y-81360000D03*
X139010000Y-83900000D03*
X139010000Y-86440000D03*
X139010000Y-88980000D03*
X139010000Y-91520000D03*
X139010000Y-94060000D03*
X139010000Y-96600000D03*
X139010000Y-99140000D03*
X139010000Y-101680000D03*
X139010000Y-104220000D03*
X139010000Y-106760000D03*
X139010000Y-109300000D03*
M02*
