M48
METRIC,TZ
T1C0.300
T2C1.000
%
G90
G05
T1
X129000Y-93775
X130200Y-80975
X130200Y-81775
X130200Y-82575
X130200Y-83375
X130400Y-95175
X130400Y-98115
T2
X126600Y-77775
X126600Y-81755
X126600Y-84295
X126600Y-86835
X126600Y-89375
X126600Y-91915
X126600Y-94455
X126600Y-96995
X126600Y-99535
X126600Y-102075
X129140Y-77775
X131680Y-77775
X133450Y-101675
X133450Y-104215
X133450Y-106755
X133450Y-109295
X134200Y-81765
X134200Y-84305
X134200Y-86845
X134200Y-89385
X134200Y-91925
X134220Y-77775
M30
