%TF.GenerationSoftware,KiCad,Pcbnew,8.0.5*%
%TF.CreationDate,2024-12-11T17:42:57+10:00*%
%TF.ProjectId,solarRadiationShield,736f6c61-7252-4616-9469-6174696f6e53,rev?*%
%TF.SameCoordinates,Original*%
%TF.FileFunction,Copper,L1,Top*%
%TF.FilePolarity,Positive*%
%FSLAX46Y46*%
G04 Gerber Fmt 4.6, Leading zero omitted, Abs format (unit mm)*
G04 Created by KiCad (PCBNEW 8.0.5) date 2024-12-11 17:42:57*
%MOMM*%
%LPD*%
G01*
G04 APERTURE LIST*
%TA.AperFunction,ComponentPad*%
%ADD10R,1.700000X1.700000*%
%TD*%
%TA.AperFunction,ComponentPad*%
%ADD11O,1.700000X1.700000*%
%TD*%
%TA.AperFunction,ViaPad*%
%ADD12C,0.600000*%
%TD*%
%TA.AperFunction,Conductor*%
%ADD13C,0.200000*%
%TD*%
%ADD14C,0.300000*%
%ADD15C,0.350000*%
G04 APERTURE END LIST*
D10*
%TO.P,INSIG1,1,Pin_1*%
%TO.N,+3.3V*%
X126600000Y-77775000D03*
D11*
%TO.P,INSIG1,2,Pin_2*%
%TO.N,GND*%
X129140000Y-77775000D03*
%TO.P,INSIG1,3,Pin_3*%
%TO.N,SDA*%
X131680000Y-77775000D03*
%TO.P,INSIG1,4,Pin_4*%
%TO.N,SCL*%
X134220000Y-77775000D03*
%TD*%
D10*
%TO.P,AHT20,1,Pin_1*%
%TO.N,+3.3V*%
X133450000Y-101675000D03*
D11*
%TO.P,AHT20,2,Pin_2*%
%TO.N,GND*%
X133450000Y-104215000D03*
%TO.P,AHT20,3,Pin_3*%
%TO.N,SCL*%
X133450000Y-106755000D03*
%TO.P,AHT20,4,Pin_4*%
%TO.N,SDA*%
X133450000Y-109295000D03*
%TD*%
D10*
%TO.P,lpsExtraFunc1,1,Pin_1*%
%TO.N,VDD*%
X134200000Y-91925000D03*
D11*
%TO.P,lpsExtraFunc1,2,Pin_2*%
%TO.N,SDO{slash}SA0*%
X134200000Y-89385000D03*
%TO.P,lpsExtraFunc1,3,Pin_3*%
%TO.N,CS*%
X134200000Y-86845000D03*
%TO.P,lpsExtraFunc1,4,Pin_4*%
%TO.N,INT2*%
X134200000Y-84305000D03*
%TO.P,lpsExtraFunc1,5,Pin_5*%
%TO.N,INT1*%
X134200000Y-81765000D03*
%TD*%
D10*
%TO.P,LPS331AP1,1,Pin_1*%
%TO.N,VDD*%
X126600000Y-102075000D03*
D11*
%TO.P,LPS331AP1,2,Pin_2*%
%TO.N,+3.3V*%
X126600000Y-99535000D03*
%TO.P,LPS331AP1,3,Pin_3*%
%TO.N,GND*%
X126600000Y-96995000D03*
%TO.P,LPS331AP1,4,Pin_4*%
%TO.N,SDA*%
X126600000Y-94455000D03*
%TO.P,LPS331AP1,5,Pin_5*%
%TO.N,SCL*%
X126600000Y-91915000D03*
%TO.P,LPS331AP1,6,Pin_6*%
%TO.N,SDO{slash}SA0*%
X126600000Y-89375000D03*
%TO.P,LPS331AP1,7,Pin_7*%
%TO.N,CS*%
X126600000Y-86835000D03*
%TO.P,LPS331AP1,8,Pin_8*%
%TO.N,INT2*%
X126600000Y-84295000D03*
%TO.P,LPS331AP1,9,Pin_9*%
%TO.N,INT1*%
X126600000Y-81755000D03*
%TD*%
D12*
%TO.N,SDA*%
X130200000Y-80975000D03*
%TO.N,+3.3V*%
X130200000Y-83375000D03*
%TO.N,SCL*%
X129000000Y-93775000D03*
X130200000Y-81775000D03*
%TO.N,GND*%
X130400000Y-95175000D03*
X130400000Y-98115000D03*
X130200000Y-82575000D03*
%TD*%
D13*
%TO.N,SDA*%
X130200000Y-80975000D02*
X129000000Y-80975000D01*
X128600000Y-81375000D02*
X128600000Y-90175000D01*
X128400000Y-94175000D02*
X128120000Y-94455000D01*
X129000000Y-80975000D02*
X128600000Y-81375000D01*
X128600000Y-90175000D02*
X128400000Y-90375000D01*
X128400000Y-90375000D02*
X128400000Y-94175000D01*
X128120000Y-94455000D02*
X126600000Y-94455000D01*
%TO.N,+3.3V*%
X130200000Y-83375000D02*
X130200000Y-92575000D01*
X131500000Y-101675000D02*
X131300000Y-101475000D01*
X128400000Y-95575000D02*
X128200000Y-95775000D01*
X129200000Y-95575000D02*
X128400000Y-95575000D01*
X128040000Y-99535000D02*
X128200000Y-99375000D01*
X126600000Y-99535000D02*
X128040000Y-99535000D01*
X129600000Y-95175000D02*
X129600000Y-93175000D01*
X129200000Y-95575000D02*
X129400000Y-95775000D01*
X128200000Y-95775000D02*
X128200000Y-99375000D01*
X129200000Y-95575000D02*
X129600000Y-95175000D01*
X130600000Y-95775000D02*
X131300000Y-96475000D01*
X129600000Y-93175000D02*
X130200000Y-92575000D01*
X133450000Y-101675000D02*
X131500000Y-101675000D01*
X129400000Y-95775000D02*
X130600000Y-95775000D01*
X131300000Y-101475000D02*
X131300000Y-96475000D01*
%TO.N,SCL*%
X130151471Y-81775000D02*
X129375735Y-82550735D01*
X129375735Y-82550735D02*
X129000000Y-82926470D01*
X129000000Y-82926470D02*
X129000000Y-93775000D01*
X130200000Y-81775000D02*
X130151471Y-81775000D01*
%TO.N,GND*%
X130400000Y-92975000D02*
X130800000Y-92575000D01*
X130248529Y-82575000D02*
X130800000Y-83126471D01*
X130200000Y-82575000D02*
X130248529Y-82575000D01*
X130400000Y-95175000D02*
X130400000Y-92975000D01*
X130640000Y-104215000D02*
X130400000Y-103975000D01*
X133450000Y-104215000D02*
X130640000Y-104215000D01*
X130400000Y-98115000D02*
X130400000Y-103975000D01*
X130800000Y-83126471D02*
X130800000Y-92575000D01*
%TO.N,CS*%
X134190000Y-86835000D02*
X134200000Y-86845000D01*
%TO.N,INT1*%
X134190000Y-81755000D02*
X134200000Y-81765000D01*
%TO.N,SDO{slash}SA0*%
X134190000Y-89375000D02*
X134200000Y-89385000D01*
%TO.N,INT2*%
X134190000Y-84295000D02*
X134200000Y-84305000D01*
%TD*%
%TA.AperFunction,NonConductor*%
G36*
X136242539Y-75995185D02*
G01*
X136288294Y-76047989D01*
X136299500Y-76099500D01*
X136299500Y-111850500D01*
X136279815Y-111917539D01*
X136227011Y-111963294D01*
X136175500Y-111974500D01*
X124424500Y-111974500D01*
X124357461Y-111954815D01*
X124311706Y-111902011D01*
X124300500Y-111850500D01*
X124300500Y-108541586D01*
X124318955Y-108478737D01*
X124525538Y-108478737D01*
X124543477Y-108506651D01*
X124548255Y-108533800D01*
X124564310Y-108789004D01*
X124564311Y-108789011D01*
X124623270Y-109098083D01*
X124720497Y-109397316D01*
X124720499Y-109397321D01*
X124854461Y-109682003D01*
X124854464Y-109682009D01*
X125023051Y-109947661D01*
X125023054Y-109947665D01*
X125223606Y-110190090D01*
X125223608Y-110190092D01*
X125452968Y-110405476D01*
X125452978Y-110405484D01*
X125707504Y-110590408D01*
X125707509Y-110590410D01*
X125707516Y-110590416D01*
X125983234Y-110741994D01*
X125983239Y-110741996D01*
X125983241Y-110741997D01*
X125983242Y-110741998D01*
X126275771Y-110857818D01*
X126275774Y-110857819D01*
X126580523Y-110936065D01*
X126580527Y-110936066D01*
X126646010Y-110944338D01*
X126892670Y-110975499D01*
X126892679Y-110975499D01*
X126892682Y-110975500D01*
X126892684Y-110975500D01*
X127207316Y-110975500D01*
X127207318Y-110975500D01*
X127207321Y-110975499D01*
X127207329Y-110975499D01*
X127393593Y-110951968D01*
X127519473Y-110936066D01*
X127824225Y-110857819D01*
X127824228Y-110857818D01*
X128116757Y-110741998D01*
X128116758Y-110741997D01*
X128116756Y-110741997D01*
X128116766Y-110741994D01*
X128392484Y-110590416D01*
X128647030Y-110405478D01*
X128876390Y-110190094D01*
X129076947Y-109947663D01*
X129245537Y-109682007D01*
X129379503Y-109397315D01*
X129476731Y-109098079D01*
X129535688Y-108789015D01*
X129539916Y-108721810D01*
X129555444Y-108475005D01*
X129555444Y-108474994D01*
X129535689Y-108160995D01*
X129535688Y-108160988D01*
X129535688Y-108160985D01*
X129476731Y-107851921D01*
X129379503Y-107552685D01*
X129245537Y-107267993D01*
X129076947Y-107002337D01*
X129067083Y-106990413D01*
X128876393Y-106759909D01*
X128876391Y-106759907D01*
X128647031Y-106544523D01*
X128647021Y-106544515D01*
X128392495Y-106359591D01*
X128392488Y-106359586D01*
X128392484Y-106359584D01*
X128116766Y-106208006D01*
X128116763Y-106208004D01*
X128116758Y-106208002D01*
X128116757Y-106208001D01*
X127824228Y-106092181D01*
X127824225Y-106092180D01*
X127519476Y-106013934D01*
X127519463Y-106013932D01*
X127207329Y-105974500D01*
X127207318Y-105974500D01*
X126892682Y-105974500D01*
X126892670Y-105974500D01*
X126580536Y-106013932D01*
X126580523Y-106013934D01*
X126275774Y-106092180D01*
X126275771Y-106092181D01*
X125983242Y-106208001D01*
X125983241Y-106208002D01*
X125707516Y-106359584D01*
X125707504Y-106359591D01*
X125452978Y-106544515D01*
X125452968Y-106544523D01*
X125223608Y-106759907D01*
X125223606Y-106759909D01*
X125023054Y-107002334D01*
X125023051Y-107002338D01*
X124854464Y-107267990D01*
X124854461Y-107267996D01*
X124720499Y-107552678D01*
X124720497Y-107552683D01*
X124623270Y-107851916D01*
X124564311Y-108160988D01*
X124564310Y-108160995D01*
X124548255Y-108416199D01*
X124525538Y-108478737D01*
X124318955Y-108478737D01*
X124320185Y-108474547D01*
X124323533Y-108471645D01*
X124303564Y-108435808D01*
X124300500Y-108408413D01*
X124300500Y-81754999D01*
X125244341Y-81754999D01*
X125244341Y-81755000D01*
X125264936Y-81990403D01*
X125264938Y-81990413D01*
X125326094Y-82218655D01*
X125326096Y-82218659D01*
X125326097Y-82218663D01*
X125408670Y-82395741D01*
X125425965Y-82432830D01*
X125425967Y-82432834D01*
X125534281Y-82587521D01*
X125561501Y-82626396D01*
X125561506Y-82626402D01*
X125728597Y-82793493D01*
X125728603Y-82793498D01*
X125914158Y-82923425D01*
X125957783Y-82978002D01*
X125964977Y-83047500D01*
X125933454Y-83109855D01*
X125914158Y-83126575D01*
X125728597Y-83256505D01*
X125561505Y-83423597D01*
X125425965Y-83617169D01*
X125425964Y-83617171D01*
X125326098Y-83831335D01*
X125326094Y-83831344D01*
X125264938Y-84059586D01*
X125264936Y-84059596D01*
X125244341Y-84294999D01*
X125244341Y-84295000D01*
X125264936Y-84530403D01*
X125264938Y-84530413D01*
X125326094Y-84758655D01*
X125326096Y-84758659D01*
X125326097Y-84758663D01*
X125417040Y-84953691D01*
X125425965Y-84972830D01*
X125425967Y-84972834D01*
X125534281Y-85127521D01*
X125561501Y-85166396D01*
X125561506Y-85166402D01*
X125728597Y-85333493D01*
X125728603Y-85333498D01*
X125914158Y-85463425D01*
X125957783Y-85518002D01*
X125964977Y-85587500D01*
X125933454Y-85649855D01*
X125914158Y-85666575D01*
X125728597Y-85796505D01*
X125561505Y-85963597D01*
X125425965Y-86157169D01*
X125425964Y-86157171D01*
X125326098Y-86371335D01*
X125326094Y-86371344D01*
X125264938Y-86599586D01*
X125264936Y-86599596D01*
X125244341Y-86834999D01*
X125244341Y-86835000D01*
X125264936Y-87070403D01*
X125264938Y-87070413D01*
X125326094Y-87298655D01*
X125326096Y-87298659D01*
X125326097Y-87298663D01*
X125417040Y-87493691D01*
X125425965Y-87512830D01*
X125425967Y-87512834D01*
X125534281Y-87667521D01*
X125561501Y-87706396D01*
X125561506Y-87706402D01*
X125728597Y-87873493D01*
X125728603Y-87873498D01*
X125914158Y-88003425D01*
X125957783Y-88058002D01*
X125964977Y-88127500D01*
X125933454Y-88189855D01*
X125914158Y-88206575D01*
X125728597Y-88336505D01*
X125561505Y-88503597D01*
X125425965Y-88697169D01*
X125425964Y-88697171D01*
X125326098Y-88911335D01*
X125326094Y-88911344D01*
X125264938Y-89139586D01*
X125264936Y-89139596D01*
X125244341Y-89374999D01*
X125244341Y-89375000D01*
X125264936Y-89610403D01*
X125264938Y-89610413D01*
X125326094Y-89838655D01*
X125326096Y-89838659D01*
X125326097Y-89838663D01*
X125330761Y-89848664D01*
X125425965Y-90052830D01*
X125425967Y-90052834D01*
X125561501Y-90246395D01*
X125561506Y-90246402D01*
X125728597Y-90413493D01*
X125728603Y-90413498D01*
X125914158Y-90543425D01*
X125957783Y-90598002D01*
X125964977Y-90667500D01*
X125933454Y-90729855D01*
X125914158Y-90746575D01*
X125728597Y-90876505D01*
X125561505Y-91043597D01*
X125425965Y-91237169D01*
X125425964Y-91237171D01*
X125326098Y-91451335D01*
X125326094Y-91451344D01*
X125264938Y-91679586D01*
X125264936Y-91679596D01*
X125244341Y-91914999D01*
X125244341Y-91915000D01*
X125264936Y-92150403D01*
X125264938Y-92150413D01*
X125326094Y-92378655D01*
X125326096Y-92378659D01*
X125326097Y-92378663D01*
X125400500Y-92538220D01*
X125425965Y-92592830D01*
X125425967Y-92592834D01*
X125561501Y-92786395D01*
X125561506Y-92786402D01*
X125728597Y-92953493D01*
X125728603Y-92953498D01*
X125914158Y-93083425D01*
X125957783Y-93138002D01*
X125964977Y-93207500D01*
X125933454Y-93269855D01*
X125914158Y-93286575D01*
X125728597Y-93416505D01*
X125561505Y-93583597D01*
X125425965Y-93777169D01*
X125425964Y-93777171D01*
X125326098Y-93991335D01*
X125326094Y-93991344D01*
X125264938Y-94219586D01*
X125264936Y-94219596D01*
X125244341Y-94454999D01*
X125244341Y-94455000D01*
X125264936Y-94690403D01*
X125264938Y-94690413D01*
X125326094Y-94918655D01*
X125326096Y-94918659D01*
X125326097Y-94918663D01*
X125389906Y-95055501D01*
X125425965Y-95132830D01*
X125425967Y-95132834D01*
X125561501Y-95326395D01*
X125561506Y-95326402D01*
X125728597Y-95493493D01*
X125728603Y-95493498D01*
X125914158Y-95623425D01*
X125957783Y-95678002D01*
X125964977Y-95747500D01*
X125933454Y-95809855D01*
X125914158Y-95826575D01*
X125728597Y-95956505D01*
X125561505Y-96123597D01*
X125425965Y-96317169D01*
X125425964Y-96317171D01*
X125326098Y-96531335D01*
X125326094Y-96531344D01*
X125264938Y-96759586D01*
X125264936Y-96759596D01*
X125244341Y-96994999D01*
X125244341Y-96995000D01*
X125264936Y-97230403D01*
X125264938Y-97230413D01*
X125326094Y-97458655D01*
X125326096Y-97458659D01*
X125326097Y-97458663D01*
X125338464Y-97485184D01*
X125425965Y-97672830D01*
X125425967Y-97672834D01*
X125561501Y-97866395D01*
X125561506Y-97866402D01*
X125728597Y-98033493D01*
X125728603Y-98033498D01*
X125914158Y-98163425D01*
X125957783Y-98218002D01*
X125964977Y-98287500D01*
X125933454Y-98349855D01*
X125914158Y-98366575D01*
X125728597Y-98496505D01*
X125561505Y-98663597D01*
X125425965Y-98857169D01*
X125425964Y-98857171D01*
X125326098Y-99071335D01*
X125326094Y-99071344D01*
X125264938Y-99299586D01*
X125264936Y-99299596D01*
X125244341Y-99534999D01*
X125244341Y-99535000D01*
X125264936Y-99770403D01*
X125264938Y-99770413D01*
X125326094Y-99998655D01*
X125326096Y-99998659D01*
X125326097Y-99998663D01*
X125389906Y-100135501D01*
X125425965Y-100212830D01*
X125425967Y-100212834D01*
X125504157Y-100324500D01*
X125561501Y-100406396D01*
X125561506Y-100406402D01*
X125683430Y-100528326D01*
X125716915Y-100589649D01*
X125711931Y-100659341D01*
X125670059Y-100715274D01*
X125639083Y-100732189D01*
X125507669Y-100781203D01*
X125507664Y-100781206D01*
X125392455Y-100867452D01*
X125392452Y-100867455D01*
X125306206Y-100982664D01*
X125306202Y-100982671D01*
X125255908Y-101117517D01*
X125249501Y-101177116D01*
X125249501Y-101177123D01*
X125249500Y-101177135D01*
X125249500Y-102972870D01*
X125249501Y-102972876D01*
X125255908Y-103032483D01*
X125306202Y-103167328D01*
X125306206Y-103167335D01*
X125392452Y-103282544D01*
X125392455Y-103282547D01*
X125507664Y-103368793D01*
X125507671Y-103368797D01*
X125642517Y-103419091D01*
X125642516Y-103419091D01*
X125649444Y-103419835D01*
X125702127Y-103425500D01*
X127497872Y-103425499D01*
X127557483Y-103419091D01*
X127692331Y-103368796D01*
X127807546Y-103282546D01*
X127893796Y-103167331D01*
X127944091Y-103032483D01*
X127950500Y-102972873D01*
X127950499Y-101177128D01*
X127944091Y-101117517D01*
X127893796Y-100982669D01*
X127893795Y-100982668D01*
X127893793Y-100982664D01*
X127807547Y-100867455D01*
X127807544Y-100867452D01*
X127692335Y-100781206D01*
X127692328Y-100781202D01*
X127560917Y-100732189D01*
X127504983Y-100690318D01*
X127480566Y-100624853D01*
X127495418Y-100556580D01*
X127516563Y-100528332D01*
X127638495Y-100406401D01*
X127774035Y-100212830D01*
X127776707Y-100207097D01*
X127822878Y-100154658D01*
X127889091Y-100135500D01*
X127953331Y-100135500D01*
X127953347Y-100135501D01*
X127960943Y-100135501D01*
X128119054Y-100135501D01*
X128119057Y-100135501D01*
X128271785Y-100094577D01*
X128321904Y-100065639D01*
X128408716Y-100015520D01*
X128520520Y-99903716D01*
X128520520Y-99903714D01*
X128530728Y-99893507D01*
X128530730Y-99893504D01*
X128558506Y-99865728D01*
X128558511Y-99865724D01*
X128568714Y-99855520D01*
X128568716Y-99855520D01*
X128680520Y-99743716D01*
X128755375Y-99614063D01*
X128755378Y-99614058D01*
X128759575Y-99606788D01*
X128759577Y-99606785D01*
X128800500Y-99454057D01*
X128800500Y-99295943D01*
X128800500Y-96324098D01*
X128820185Y-96257059D01*
X128872989Y-96211304D01*
X128942147Y-96201360D01*
X129005703Y-96230385D01*
X129012181Y-96236417D01*
X129031284Y-96255520D01*
X129031286Y-96255521D01*
X129031290Y-96255524D01*
X129168209Y-96334573D01*
X129168216Y-96334577D01*
X129320943Y-96375501D01*
X129320945Y-96375501D01*
X129486654Y-96375501D01*
X129486670Y-96375500D01*
X130299903Y-96375500D01*
X130366942Y-96395185D01*
X130387584Y-96411819D01*
X130663181Y-96687416D01*
X130696666Y-96748739D01*
X130699500Y-96775097D01*
X130699500Y-97204424D01*
X130679815Y-97271463D01*
X130627011Y-97317218D01*
X130561617Y-97327644D01*
X130400004Y-97309435D01*
X130399996Y-97309435D01*
X130220750Y-97329630D01*
X130220745Y-97329631D01*
X130050476Y-97389211D01*
X129897737Y-97485184D01*
X129770184Y-97612737D01*
X129674211Y-97765476D01*
X129614631Y-97935745D01*
X129614630Y-97935750D01*
X129594435Y-98114996D01*
X129594435Y-98115003D01*
X129614630Y-98294249D01*
X129614631Y-98294254D01*
X129674211Y-98464523D01*
X129770185Y-98617263D01*
X129772445Y-98620097D01*
X129773334Y-98622275D01*
X129773889Y-98623158D01*
X129773734Y-98623255D01*
X129798855Y-98684783D01*
X129799500Y-98697412D01*
X129799500Y-103888330D01*
X129799499Y-103888348D01*
X129799499Y-104054054D01*
X129799498Y-104054054D01*
X129840423Y-104206785D01*
X129845166Y-104215000D01*
X129919477Y-104343712D01*
X129919481Y-104343717D01*
X130038349Y-104462585D01*
X130038355Y-104462590D01*
X130155139Y-104579374D01*
X130155149Y-104579385D01*
X130159479Y-104583715D01*
X130159480Y-104583716D01*
X130271284Y-104695520D01*
X130358095Y-104745639D01*
X130358097Y-104745641D01*
X130408213Y-104774576D01*
X130408215Y-104774577D01*
X130560942Y-104815500D01*
X130560943Y-104815500D01*
X132160909Y-104815500D01*
X132227948Y-104835185D01*
X132273292Y-104887097D01*
X132275965Y-104892830D01*
X132275966Y-104892831D01*
X132411501Y-105086395D01*
X132411506Y-105086402D01*
X132578597Y-105253493D01*
X132578603Y-105253498D01*
X132764158Y-105383425D01*
X132807783Y-105438002D01*
X132814977Y-105507500D01*
X132783454Y-105569855D01*
X132764158Y-105586575D01*
X132578597Y-105716505D01*
X132411505Y-105883597D01*
X132275965Y-106077169D01*
X132275964Y-106077171D01*
X132176098Y-106291335D01*
X132176094Y-106291344D01*
X132114938Y-106519586D01*
X132114936Y-106519596D01*
X132094341Y-106754999D01*
X132094341Y-106755000D01*
X132114936Y-106990403D01*
X132114938Y-106990413D01*
X132176094Y-107218655D01*
X132176096Y-107218659D01*
X132176097Y-107218663D01*
X132247498Y-107371782D01*
X132275965Y-107432830D01*
X132275967Y-107432834D01*
X132411501Y-107626395D01*
X132411506Y-107626402D01*
X132578597Y-107793493D01*
X132578603Y-107793498D01*
X132764158Y-107923425D01*
X132807783Y-107978002D01*
X132814977Y-108047500D01*
X132783454Y-108109855D01*
X132764158Y-108126575D01*
X132578597Y-108256505D01*
X132411505Y-108423597D01*
X132275965Y-108617169D01*
X132275964Y-108617171D01*
X132176098Y-108831335D01*
X132176094Y-108831344D01*
X132114938Y-109059586D01*
X132114936Y-109059596D01*
X132094341Y-109294999D01*
X132094341Y-109295000D01*
X132114936Y-109530403D01*
X132114938Y-109530413D01*
X132176094Y-109758655D01*
X132176096Y-109758659D01*
X132176097Y-109758663D01*
X132264229Y-109947663D01*
X132275965Y-109972830D01*
X132275967Y-109972834D01*
X132384281Y-110127521D01*
X132411505Y-110166401D01*
X132578599Y-110333495D01*
X132675384Y-110401265D01*
X132772165Y-110469032D01*
X132772167Y-110469033D01*
X132772170Y-110469035D01*
X132986337Y-110568903D01*
X133214592Y-110630063D01*
X133402918Y-110646539D01*
X133449999Y-110650659D01*
X133450000Y-110650659D01*
X133450001Y-110650659D01*
X133489234Y-110647226D01*
X133685408Y-110630063D01*
X133913663Y-110568903D01*
X134127830Y-110469035D01*
X134321401Y-110333495D01*
X134488495Y-110166401D01*
X134624035Y-109972830D01*
X134723903Y-109758663D01*
X134785063Y-109530408D01*
X134805659Y-109295000D01*
X134785063Y-109059592D01*
X134723903Y-108831337D01*
X134624035Y-108617171D01*
X134565659Y-108533800D01*
X134488494Y-108423597D01*
X134321402Y-108256506D01*
X134321396Y-108256501D01*
X134135842Y-108126575D01*
X134092217Y-108071998D01*
X134085023Y-108002500D01*
X134116546Y-107940145D01*
X134135842Y-107923425D01*
X134237967Y-107851916D01*
X134321401Y-107793495D01*
X134488495Y-107626401D01*
X134624035Y-107432830D01*
X134723903Y-107218663D01*
X134785063Y-106990408D01*
X134805659Y-106755000D01*
X134785063Y-106519592D01*
X134723903Y-106291337D01*
X134624035Y-106077171D01*
X134579757Y-106013934D01*
X134488494Y-105883597D01*
X134321402Y-105716506D01*
X134321396Y-105716501D01*
X134135842Y-105586575D01*
X134092217Y-105531998D01*
X134085023Y-105462500D01*
X134116546Y-105400145D01*
X134135842Y-105383425D01*
X134158026Y-105367891D01*
X134321401Y-105253495D01*
X134488495Y-105086401D01*
X134624035Y-104892830D01*
X134723903Y-104678663D01*
X134785063Y-104450408D01*
X134805659Y-104215000D01*
X134785063Y-103979592D01*
X134723903Y-103751337D01*
X134624035Y-103537171D01*
X134624034Y-103537169D01*
X134488496Y-103343600D01*
X134488495Y-103343599D01*
X134366567Y-103221671D01*
X134333084Y-103160351D01*
X134338068Y-103090659D01*
X134379939Y-103034725D01*
X134410915Y-103017810D01*
X134542331Y-102968796D01*
X134657546Y-102882546D01*
X134743796Y-102767331D01*
X134794091Y-102632483D01*
X134800500Y-102572873D01*
X134800499Y-100777128D01*
X134794091Y-100717517D01*
X134793254Y-100715274D01*
X134743797Y-100582671D01*
X134743793Y-100582664D01*
X134657547Y-100467455D01*
X134657544Y-100467452D01*
X134542335Y-100381206D01*
X134542328Y-100381202D01*
X134407482Y-100330908D01*
X134407483Y-100330908D01*
X134347883Y-100324501D01*
X134347881Y-100324500D01*
X134347873Y-100324500D01*
X134347864Y-100324500D01*
X132552129Y-100324500D01*
X132552123Y-100324501D01*
X132492516Y-100330908D01*
X132357671Y-100381202D01*
X132357664Y-100381206D01*
X132242455Y-100467452D01*
X132242452Y-100467455D01*
X132156206Y-100582664D01*
X132156202Y-100582671D01*
X132140682Y-100624284D01*
X132098811Y-100680218D01*
X132033346Y-100704635D01*
X131965073Y-100689783D01*
X131915668Y-100640378D01*
X131900500Y-100580951D01*
X131900500Y-96395945D01*
X131900500Y-96395943D01*
X131859577Y-96243216D01*
X131790516Y-96123597D01*
X131780524Y-96106290D01*
X131780521Y-96106286D01*
X131780520Y-96106284D01*
X131668716Y-95994480D01*
X131668715Y-95994479D01*
X131664385Y-95990149D01*
X131664374Y-95990139D01*
X131199796Y-95525561D01*
X131166311Y-95464238D01*
X131170435Y-95396928D01*
X131185368Y-95354255D01*
X131205565Y-95175000D01*
X131200814Y-95132834D01*
X131185369Y-94995750D01*
X131185368Y-94995745D01*
X131125788Y-94825476D01*
X131040922Y-94690413D01*
X131029816Y-94672738D01*
X131029814Y-94672736D01*
X131029813Y-94672734D01*
X131027550Y-94669896D01*
X131026659Y-94667715D01*
X131026111Y-94666842D01*
X131026264Y-94666745D01*
X131001144Y-94605209D01*
X131000500Y-94592587D01*
X131000500Y-93275097D01*
X131020185Y-93208058D01*
X131036814Y-93187420D01*
X131158506Y-93065727D01*
X131158510Y-93065725D01*
X131168714Y-93055520D01*
X131168716Y-93055520D01*
X131280520Y-92943716D01*
X131359577Y-92806784D01*
X131400500Y-92654057D01*
X131400500Y-83215531D01*
X131400501Y-83215518D01*
X131400501Y-83047415D01*
X131400501Y-83047414D01*
X131359577Y-82894687D01*
X131359573Y-82894680D01*
X131280524Y-82757761D01*
X131280518Y-82757753D01*
X131159160Y-82636395D01*
X131024537Y-82501773D01*
X130991053Y-82440451D01*
X130989000Y-82427990D01*
X130985368Y-82395745D01*
X130983134Y-82389362D01*
X130923489Y-82218905D01*
X130925637Y-82218153D01*
X130916035Y-82159872D01*
X130924392Y-82131411D01*
X130923489Y-82131095D01*
X130985366Y-81954262D01*
X130985369Y-81954249D01*
X131005565Y-81775003D01*
X131005565Y-81774996D01*
X131004439Y-81764999D01*
X132844341Y-81764999D01*
X132844341Y-81765000D01*
X132864936Y-82000403D01*
X132864938Y-82000413D01*
X132926094Y-82228655D01*
X132926096Y-82228659D01*
X132926097Y-82228663D01*
X133004007Y-82395741D01*
X133025965Y-82442830D01*
X133025967Y-82442834D01*
X133134281Y-82597521D01*
X133154499Y-82626396D01*
X133161501Y-82636395D01*
X133161506Y-82636402D01*
X133328597Y-82803493D01*
X133328603Y-82803498D01*
X133514158Y-82933425D01*
X133557783Y-82988002D01*
X133564977Y-83057500D01*
X133533454Y-83119855D01*
X133514158Y-83136575D01*
X133328597Y-83266505D01*
X133161505Y-83433597D01*
X133025965Y-83627169D01*
X133025964Y-83627171D01*
X132926098Y-83841335D01*
X132926094Y-83841344D01*
X132864938Y-84069586D01*
X132864936Y-84069596D01*
X132844341Y-84304999D01*
X132844341Y-84305000D01*
X132864936Y-84540403D01*
X132864938Y-84540413D01*
X132926094Y-84768655D01*
X132926096Y-84768659D01*
X132926097Y-84768663D01*
X133012377Y-84953691D01*
X133025965Y-84982830D01*
X133025967Y-84982834D01*
X133134281Y-85137521D01*
X133154499Y-85166396D01*
X133161501Y-85176395D01*
X133161506Y-85176402D01*
X133328597Y-85343493D01*
X133328603Y-85343498D01*
X133514158Y-85473425D01*
X133557783Y-85528002D01*
X133564977Y-85597500D01*
X133533454Y-85659855D01*
X133514158Y-85676575D01*
X133328597Y-85806505D01*
X133161505Y-85973597D01*
X133025965Y-86167169D01*
X133025964Y-86167171D01*
X132926098Y-86381335D01*
X132926094Y-86381344D01*
X132864938Y-86609586D01*
X132864936Y-86609596D01*
X132844341Y-86844999D01*
X132844341Y-86845000D01*
X132864936Y-87080403D01*
X132864938Y-87080413D01*
X132926094Y-87308655D01*
X132926096Y-87308659D01*
X132926097Y-87308663D01*
X133012377Y-87493691D01*
X133025965Y-87522830D01*
X133025967Y-87522834D01*
X133134281Y-87677521D01*
X133154499Y-87706396D01*
X133161501Y-87716395D01*
X133161506Y-87716402D01*
X133328597Y-87883493D01*
X133328603Y-87883498D01*
X133514158Y-88013425D01*
X133557783Y-88068002D01*
X133564977Y-88137500D01*
X133533454Y-88199855D01*
X133514158Y-88216575D01*
X133328597Y-88346505D01*
X133161505Y-88513597D01*
X133025965Y-88707169D01*
X133025964Y-88707171D01*
X132926098Y-88921335D01*
X132926094Y-88921344D01*
X132864938Y-89149586D01*
X132864936Y-89149596D01*
X132844341Y-89384999D01*
X132844341Y-89385000D01*
X132864936Y-89620403D01*
X132864938Y-89620413D01*
X132926094Y-89848655D01*
X132926096Y-89848659D01*
X132926097Y-89848663D01*
X132962283Y-89926264D01*
X133025965Y-90062830D01*
X133025967Y-90062834D01*
X133082251Y-90143215D01*
X133161501Y-90256396D01*
X133161506Y-90256402D01*
X133283430Y-90378326D01*
X133316915Y-90439649D01*
X133311931Y-90509341D01*
X133270059Y-90565274D01*
X133239083Y-90582189D01*
X133107669Y-90631203D01*
X133107664Y-90631206D01*
X132992455Y-90717452D01*
X132992452Y-90717455D01*
X132906206Y-90832664D01*
X132906202Y-90832671D01*
X132855908Y-90967517D01*
X132849501Y-91027116D01*
X132849501Y-91027123D01*
X132849500Y-91027135D01*
X132849500Y-92822870D01*
X132849501Y-92822876D01*
X132855908Y-92882483D01*
X132906202Y-93017328D01*
X132906206Y-93017335D01*
X132992452Y-93132544D01*
X132992455Y-93132547D01*
X133107664Y-93218793D01*
X133107671Y-93218797D01*
X133242517Y-93269091D01*
X133242516Y-93269091D01*
X133249444Y-93269835D01*
X133302127Y-93275500D01*
X135097872Y-93275499D01*
X135157483Y-93269091D01*
X135292331Y-93218796D01*
X135407546Y-93132546D01*
X135493796Y-93017331D01*
X135544091Y-92882483D01*
X135550500Y-92822873D01*
X135550499Y-91027128D01*
X135544091Y-90967517D01*
X135510144Y-90876501D01*
X135493797Y-90832671D01*
X135493793Y-90832664D01*
X135407547Y-90717455D01*
X135407544Y-90717452D01*
X135292335Y-90631206D01*
X135292328Y-90631202D01*
X135160917Y-90582189D01*
X135104983Y-90540318D01*
X135080566Y-90474853D01*
X135095418Y-90406580D01*
X135116563Y-90378332D01*
X135238495Y-90256401D01*
X135374035Y-90062830D01*
X135473903Y-89848663D01*
X135535063Y-89620408D01*
X135555659Y-89385000D01*
X135535063Y-89149592D01*
X135473903Y-88921337D01*
X135374035Y-88707171D01*
X135366923Y-88697013D01*
X135238494Y-88513597D01*
X135071402Y-88346506D01*
X135071396Y-88346501D01*
X134885842Y-88216575D01*
X134842217Y-88161998D01*
X134835023Y-88092500D01*
X134866546Y-88030145D01*
X134885842Y-88013425D01*
X134908026Y-87997891D01*
X135071401Y-87883495D01*
X135238495Y-87716401D01*
X135374035Y-87522830D01*
X135473903Y-87308663D01*
X135535063Y-87080408D01*
X135555659Y-86845000D01*
X135535063Y-86609592D01*
X135473903Y-86381337D01*
X135374035Y-86167171D01*
X135366923Y-86157013D01*
X135238494Y-85973597D01*
X135071402Y-85806506D01*
X135071396Y-85806501D01*
X134885842Y-85676575D01*
X134842217Y-85621998D01*
X134835023Y-85552500D01*
X134866546Y-85490145D01*
X134885842Y-85473425D01*
X134908026Y-85457891D01*
X135071401Y-85343495D01*
X135238495Y-85176401D01*
X135374035Y-84982830D01*
X135473903Y-84768663D01*
X135535063Y-84540408D01*
X135555659Y-84305000D01*
X135535063Y-84069592D01*
X135473903Y-83841337D01*
X135374035Y-83627171D01*
X135366923Y-83617013D01*
X135238494Y-83433597D01*
X135071402Y-83266506D01*
X135071396Y-83266501D01*
X134885842Y-83136575D01*
X134842217Y-83081998D01*
X134835023Y-83012500D01*
X134866546Y-82950145D01*
X134885842Y-82933425D01*
X134941175Y-82894680D01*
X135071401Y-82803495D01*
X135238495Y-82636401D01*
X135374035Y-82442830D01*
X135473903Y-82228663D01*
X135535063Y-82000408D01*
X135555659Y-81765000D01*
X135535063Y-81529592D01*
X135473903Y-81301337D01*
X135374035Y-81087171D01*
X135350850Y-81054058D01*
X135238494Y-80893597D01*
X135071402Y-80726506D01*
X135071395Y-80726501D01*
X135057119Y-80716505D01*
X134927120Y-80625478D01*
X134877834Y-80590967D01*
X134877830Y-80590965D01*
X134856383Y-80580964D01*
X134663663Y-80491097D01*
X134663659Y-80491096D01*
X134663655Y-80491094D01*
X134435413Y-80429938D01*
X134435403Y-80429936D01*
X134200001Y-80409341D01*
X134199999Y-80409341D01*
X133964596Y-80429936D01*
X133964586Y-80429938D01*
X133736344Y-80491094D01*
X133736335Y-80491098D01*
X133522171Y-80590964D01*
X133522169Y-80590965D01*
X133328597Y-80726505D01*
X133161505Y-80893597D01*
X133025965Y-81087169D01*
X133025964Y-81087171D01*
X132926098Y-81301335D01*
X132926094Y-81301344D01*
X132864938Y-81529586D01*
X132864936Y-81529596D01*
X132844341Y-81764999D01*
X131004439Y-81764999D01*
X130985369Y-81595750D01*
X130985366Y-81595737D01*
X130923489Y-81418905D01*
X130925637Y-81418153D01*
X130916035Y-81359872D01*
X130924392Y-81331411D01*
X130923489Y-81331095D01*
X130985366Y-81154262D01*
X130985369Y-81154249D01*
X131005565Y-80975003D01*
X131005565Y-80974996D01*
X130985369Y-80795750D01*
X130985368Y-80795745D01*
X130925788Y-80625476D01*
X130841352Y-80491098D01*
X130829816Y-80472738D01*
X130702262Y-80345184D01*
X130549523Y-80249211D01*
X130379254Y-80189631D01*
X130379249Y-80189630D01*
X130200004Y-80169435D01*
X130199996Y-80169435D01*
X130020750Y-80189630D01*
X130020745Y-80189631D01*
X129850476Y-80249211D01*
X129697736Y-80345185D01*
X129694903Y-80347445D01*
X129692724Y-80348334D01*
X129691842Y-80348889D01*
X129691744Y-80348734D01*
X129630217Y-80373855D01*
X129617588Y-80374500D01*
X128920940Y-80374500D01*
X128880019Y-80385464D01*
X128880019Y-80385465D01*
X128842751Y-80395451D01*
X128768214Y-80415423D01*
X128768209Y-80415426D01*
X128631290Y-80494475D01*
X128631282Y-80494481D01*
X128119479Y-81006284D01*
X128100092Y-81039864D01*
X128091898Y-81054058D01*
X128078555Y-81077169D01*
X128040422Y-81143215D01*
X128037442Y-81150412D01*
X127993602Y-81204816D01*
X127927308Y-81226882D01*
X127859608Y-81209604D01*
X127811997Y-81158467D01*
X127810498Y-81155366D01*
X127774035Y-81077171D01*
X127774034Y-81077169D01*
X127638494Y-80883597D01*
X127471402Y-80716506D01*
X127471395Y-80716501D01*
X127277834Y-80580967D01*
X127277830Y-80580965D01*
X127277828Y-80580964D01*
X127063663Y-80481097D01*
X127063659Y-80481096D01*
X127063655Y-80481094D01*
X126835413Y-80419938D01*
X126835403Y-80419936D01*
X126600001Y-80399341D01*
X126599999Y-80399341D01*
X126364596Y-80419936D01*
X126364586Y-80419938D01*
X126136344Y-80481094D01*
X126136335Y-80481098D01*
X125922171Y-80580964D01*
X125922169Y-80580965D01*
X125728597Y-80716505D01*
X125561505Y-80883597D01*
X125425965Y-81077169D01*
X125425964Y-81077171D01*
X125326098Y-81291335D01*
X125326094Y-81291344D01*
X125264938Y-81519586D01*
X125264936Y-81519596D01*
X125244341Y-81754999D01*
X124300500Y-81754999D01*
X124300500Y-76877135D01*
X125249500Y-76877135D01*
X125249500Y-78672870D01*
X125249501Y-78672876D01*
X125255908Y-78732483D01*
X125306202Y-78867328D01*
X125306206Y-78867335D01*
X125392452Y-78982544D01*
X125392455Y-78982547D01*
X125507664Y-79068793D01*
X125507671Y-79068797D01*
X125642517Y-79119091D01*
X125642516Y-79119091D01*
X125649444Y-79119835D01*
X125702127Y-79125500D01*
X127497872Y-79125499D01*
X127557483Y-79119091D01*
X127692331Y-79068796D01*
X127807546Y-78982546D01*
X127893796Y-78867331D01*
X127942810Y-78735916D01*
X127984681Y-78679984D01*
X128050145Y-78655566D01*
X128118418Y-78670417D01*
X128146673Y-78691569D01*
X128268599Y-78813495D01*
X128365384Y-78881265D01*
X128462165Y-78949032D01*
X128462167Y-78949033D01*
X128462170Y-78949035D01*
X128676337Y-79048903D01*
X128904592Y-79110063D01*
X129081034Y-79125500D01*
X129139999Y-79130659D01*
X129140000Y-79130659D01*
X129140001Y-79130659D01*
X129198966Y-79125500D01*
X129375408Y-79110063D01*
X129603663Y-79048903D01*
X129817830Y-78949035D01*
X130011401Y-78813495D01*
X130178495Y-78646401D01*
X130308425Y-78460842D01*
X130363002Y-78417217D01*
X130432500Y-78410023D01*
X130494855Y-78441546D01*
X130511575Y-78460842D01*
X130641500Y-78646395D01*
X130641505Y-78646401D01*
X130808599Y-78813495D01*
X130905384Y-78881265D01*
X131002165Y-78949032D01*
X131002167Y-78949033D01*
X131002170Y-78949035D01*
X131216337Y-79048903D01*
X131444592Y-79110063D01*
X131621034Y-79125500D01*
X131679999Y-79130659D01*
X131680000Y-79130659D01*
X131680001Y-79130659D01*
X131738966Y-79125500D01*
X131915408Y-79110063D01*
X132143663Y-79048903D01*
X132357830Y-78949035D01*
X132551401Y-78813495D01*
X132718495Y-78646401D01*
X132848425Y-78460842D01*
X132903002Y-78417217D01*
X132972500Y-78410023D01*
X133034855Y-78441546D01*
X133051575Y-78460842D01*
X133181500Y-78646395D01*
X133181505Y-78646401D01*
X133348599Y-78813495D01*
X133445384Y-78881265D01*
X133542165Y-78949032D01*
X133542167Y-78949033D01*
X133542170Y-78949035D01*
X133756337Y-79048903D01*
X133984592Y-79110063D01*
X134161034Y-79125500D01*
X134219999Y-79130659D01*
X134220000Y-79130659D01*
X134220001Y-79130659D01*
X134278966Y-79125500D01*
X134455408Y-79110063D01*
X134683663Y-79048903D01*
X134897830Y-78949035D01*
X135091401Y-78813495D01*
X135258495Y-78646401D01*
X135394035Y-78452830D01*
X135493903Y-78238663D01*
X135555063Y-78010408D01*
X135575659Y-77775000D01*
X135555063Y-77539592D01*
X135493903Y-77311337D01*
X135394035Y-77097171D01*
X135388425Y-77089158D01*
X135258494Y-76903597D01*
X135091402Y-76736506D01*
X135091395Y-76736501D01*
X134897834Y-76600967D01*
X134897830Y-76600965D01*
X134897828Y-76600964D01*
X134683663Y-76501097D01*
X134683659Y-76501096D01*
X134683655Y-76501094D01*
X134455413Y-76439938D01*
X134455403Y-76439936D01*
X134220001Y-76419341D01*
X134219999Y-76419341D01*
X133984596Y-76439936D01*
X133984586Y-76439938D01*
X133756344Y-76501094D01*
X133756335Y-76501098D01*
X133542171Y-76600964D01*
X133542169Y-76600965D01*
X133348597Y-76736505D01*
X133181505Y-76903597D01*
X133051575Y-77089158D01*
X132996998Y-77132783D01*
X132927500Y-77139977D01*
X132865145Y-77108454D01*
X132848425Y-77089158D01*
X132718494Y-76903597D01*
X132551402Y-76736506D01*
X132551395Y-76736501D01*
X132357834Y-76600967D01*
X132357830Y-76600965D01*
X132357828Y-76600964D01*
X132143663Y-76501097D01*
X132143659Y-76501096D01*
X132143655Y-76501094D01*
X131915413Y-76439938D01*
X131915403Y-76439936D01*
X131680001Y-76419341D01*
X131679999Y-76419341D01*
X131444596Y-76439936D01*
X131444586Y-76439938D01*
X131216344Y-76501094D01*
X131216335Y-76501098D01*
X131002171Y-76600964D01*
X131002169Y-76600965D01*
X130808597Y-76736505D01*
X130641505Y-76903597D01*
X130511575Y-77089158D01*
X130456998Y-77132783D01*
X130387500Y-77139977D01*
X130325145Y-77108454D01*
X130308425Y-77089158D01*
X130178494Y-76903597D01*
X130011402Y-76736506D01*
X130011395Y-76736501D01*
X129817834Y-76600967D01*
X129817830Y-76600965D01*
X129817828Y-76600964D01*
X129603663Y-76501097D01*
X129603659Y-76501096D01*
X129603655Y-76501094D01*
X129375413Y-76439938D01*
X129375403Y-76439936D01*
X129140001Y-76419341D01*
X129139999Y-76419341D01*
X128904596Y-76439936D01*
X128904586Y-76439938D01*
X128676344Y-76501094D01*
X128676335Y-76501098D01*
X128462171Y-76600964D01*
X128462169Y-76600965D01*
X128268600Y-76736503D01*
X128146673Y-76858430D01*
X128085350Y-76891914D01*
X128015658Y-76886930D01*
X127959725Y-76845058D01*
X127942810Y-76814081D01*
X127893797Y-76682671D01*
X127893793Y-76682664D01*
X127807547Y-76567455D01*
X127807544Y-76567452D01*
X127692335Y-76481206D01*
X127692328Y-76481202D01*
X127557482Y-76430908D01*
X127557483Y-76430908D01*
X127497883Y-76424501D01*
X127497881Y-76424500D01*
X127497873Y-76424500D01*
X127497864Y-76424500D01*
X125702129Y-76424500D01*
X125702123Y-76424501D01*
X125642516Y-76430908D01*
X125507671Y-76481202D01*
X125507664Y-76481206D01*
X125392455Y-76567452D01*
X125392452Y-76567455D01*
X125306206Y-76682664D01*
X125306202Y-76682671D01*
X125255908Y-76817517D01*
X125249501Y-76877116D01*
X125249500Y-76877135D01*
X124300500Y-76877135D01*
X124300500Y-76099500D01*
X124320185Y-76032461D01*
X124372989Y-75986706D01*
X124424500Y-75975500D01*
X136175500Y-75975500D01*
X136242539Y-75995185D01*
G37*
%TD.AperFunction*%
%TA.AperFunction,NonConductor*%
G36*
X127960355Y-82413691D02*
G01*
X127995769Y-82473921D01*
X127999500Y-82504110D01*
X127999500Y-83545890D01*
X127979815Y-83612929D01*
X127927011Y-83658684D01*
X127857853Y-83668628D01*
X127794297Y-83639603D01*
X127773925Y-83617013D01*
X127638494Y-83423597D01*
X127471402Y-83256506D01*
X127471396Y-83256501D01*
X127285842Y-83126575D01*
X127242217Y-83071998D01*
X127235023Y-83002500D01*
X127266546Y-82940145D01*
X127285842Y-82923425D01*
X127457115Y-82803498D01*
X127471401Y-82793495D01*
X127638495Y-82626401D01*
X127773925Y-82432986D01*
X127828502Y-82389362D01*
X127898000Y-82382168D01*
X127960355Y-82413691D01*
G37*
%TD.AperFunction*%
%TA.AperFunction,NonConductor*%
G36*
X127960355Y-84953691D02*
G01*
X127995769Y-85013921D01*
X127999500Y-85044110D01*
X127999500Y-86085890D01*
X127979815Y-86152929D01*
X127927011Y-86198684D01*
X127857853Y-86208628D01*
X127794297Y-86179603D01*
X127773925Y-86157013D01*
X127638494Y-85963597D01*
X127471402Y-85796506D01*
X127471396Y-85796501D01*
X127285842Y-85666575D01*
X127242217Y-85611998D01*
X127235023Y-85542500D01*
X127266546Y-85480145D01*
X127285842Y-85463425D01*
X127457115Y-85343498D01*
X127471401Y-85333495D01*
X127638495Y-85166401D01*
X127773925Y-84972986D01*
X127828502Y-84929362D01*
X127898000Y-84922168D01*
X127960355Y-84953691D01*
G37*
%TD.AperFunction*%
%TA.AperFunction,NonConductor*%
G36*
X127960355Y-87493691D02*
G01*
X127995769Y-87553921D01*
X127999500Y-87584110D01*
X127999500Y-88625890D01*
X127979815Y-88692929D01*
X127927011Y-88738684D01*
X127857853Y-88748628D01*
X127794297Y-88719603D01*
X127773925Y-88697013D01*
X127638494Y-88503597D01*
X127471402Y-88336506D01*
X127471396Y-88336501D01*
X127285842Y-88206575D01*
X127242217Y-88151998D01*
X127235023Y-88082500D01*
X127266546Y-88020145D01*
X127285842Y-88003425D01*
X127457115Y-87883498D01*
X127471401Y-87873495D01*
X127638495Y-87706401D01*
X127773925Y-87512986D01*
X127828502Y-87469362D01*
X127898000Y-87462168D01*
X127960355Y-87493691D01*
G37*
%TD.AperFunction*%
%TA.AperFunction,NonConductor*%
G36*
X127718833Y-90268577D02*
G01*
X127774766Y-90310449D01*
X127799183Y-90375913D01*
X127799499Y-90384759D01*
X127799499Y-90464046D01*
X127799500Y-90464059D01*
X127799500Y-90905241D01*
X127779815Y-90972280D01*
X127727011Y-91018035D01*
X127657853Y-91027979D01*
X127594297Y-90998954D01*
X127587819Y-90992923D01*
X127562412Y-90967516D01*
X127471401Y-90876505D01*
X127471397Y-90876502D01*
X127471396Y-90876501D01*
X127285842Y-90746575D01*
X127242217Y-90691998D01*
X127235023Y-90622500D01*
X127266546Y-90560145D01*
X127285842Y-90543425D01*
X127334519Y-90509341D01*
X127471401Y-90413495D01*
X127587818Y-90297078D01*
X127649141Y-90263593D01*
X127718833Y-90268577D01*
G37*
%TD.AperFunction*%
%TA.AperFunction,NonConductor*%
G36*
X127718834Y-92808576D02*
G01*
X127774767Y-92850448D01*
X127799184Y-92915912D01*
X127799500Y-92924758D01*
X127799500Y-93445241D01*
X127779815Y-93512280D01*
X127727011Y-93558035D01*
X127657853Y-93567979D01*
X127594297Y-93538954D01*
X127587819Y-93532923D01*
X127567176Y-93512280D01*
X127471401Y-93416505D01*
X127471397Y-93416502D01*
X127471396Y-93416501D01*
X127285842Y-93286575D01*
X127242217Y-93231998D01*
X127235023Y-93162500D01*
X127266546Y-93100145D01*
X127285842Y-93083425D01*
X127380238Y-93017328D01*
X127471401Y-92953495D01*
X127587819Y-92837077D01*
X127649142Y-92803592D01*
X127718834Y-92808576D01*
G37*
%TD.AperFunction*%
%TA.AperFunction,NonConductor*%
G36*
X131186497Y-102187396D02*
G01*
X131268216Y-102234577D01*
X131420943Y-102275501D01*
X131420945Y-102275501D01*
X131586654Y-102275501D01*
X131586670Y-102275500D01*
X131975501Y-102275500D01*
X132042540Y-102295185D01*
X132088295Y-102347989D01*
X132099501Y-102399500D01*
X132099501Y-102572876D01*
X132105908Y-102632483D01*
X132156202Y-102767328D01*
X132156206Y-102767335D01*
X132242452Y-102882544D01*
X132242455Y-102882547D01*
X132357664Y-102968793D01*
X132357671Y-102968797D01*
X132489081Y-103017810D01*
X132545015Y-103059681D01*
X132569432Y-103125145D01*
X132554580Y-103193418D01*
X132533430Y-103221673D01*
X132411503Y-103343600D01*
X132275965Y-103537170D01*
X132275962Y-103537175D01*
X132273289Y-103542909D01*
X132227115Y-103595346D01*
X132160909Y-103614500D01*
X131124500Y-103614500D01*
X131057461Y-103594815D01*
X131011706Y-103542011D01*
X131000500Y-103490500D01*
X131000500Y-102294785D01*
X131020185Y-102227746D01*
X131072989Y-102181991D01*
X131142147Y-102172047D01*
X131186497Y-102187396D01*
G37*
%TD.AperFunction*%
D14*
X130200000Y-80975000D03*
X130200000Y-83375000D03*
X129000000Y-93775000D03*
X130200000Y-81775000D03*
X130400000Y-95175000D03*
X130400000Y-98115000D03*
X130200000Y-82575000D03*
D15*
X126600000Y-77775000D03*
X129140000Y-77775000D03*
X131680000Y-77775000D03*
X134220000Y-77775000D03*
X133450000Y-101675000D03*
X133450000Y-104215000D03*
X133450000Y-106755000D03*
X133450000Y-109295000D03*
X134200000Y-91925000D03*
X134200000Y-89385000D03*
X134200000Y-86845000D03*
X134200000Y-84305000D03*
X134200000Y-81765000D03*
X126600000Y-102075000D03*
X126600000Y-99535000D03*
X126600000Y-96995000D03*
X126600000Y-94455000D03*
X126600000Y-91915000D03*
X126600000Y-89375000D03*
X126600000Y-86835000D03*
X126600000Y-84295000D03*
X126600000Y-81755000D03*
M02*
