%TF.GenerationSoftware,KiCad,Pcbnew,8.0.5*%
%TF.CreationDate,2024-12-11T17:00:50+10:00*%
%TF.ProjectId,windVane,77696e64-5661-46e6-952e-6b696361645f,rev?*%
%TF.SameCoordinates,Original*%
%TF.FileFunction,Profile,NP*%
%FSLAX46Y46*%
G04 Gerber Fmt 4.6, Leading zero omitted, Abs format (unit mm)*
G04 Created by KiCad (PCBNEW 8.0.5) date 2024-12-11 17:00:50*
%MOMM*%
%LPD*%
G01*
G04 APERTURE LIST*
%TA.AperFunction,Profile*%
%ADD10C,0.050000*%
%TD*%
%ADD11C,0.350000*%
G04 APERTURE END LIST*
D10*
X157000000Y-99000000D02*
X161000000Y-99000000D01*
X161000000Y-103000000D01*
X157000000Y-103000000D01*
X157000000Y-99000000D01*
X170000000Y-101000000D02*
G75*
G02*
X130000000Y-101000000I-20000000J0D01*
G01*
X130000000Y-101000000D02*
G75*
G02*
X170000000Y-101000000I20000000J0D01*
G01*
X139000000Y-99000000D02*
X143000000Y-99000000D01*
X143000000Y-103000000D01*
X139000000Y-103000000D01*
X139000000Y-99000000D01*
D11*
X147475000Y-117000000D03*
X150015000Y-117000000D03*
X152555000Y-117000000D03*
X160203949Y-114796051D03*
X162000000Y-113000000D03*
X163796051Y-111203949D03*
X163750000Y-90750000D03*
X161953949Y-88953949D03*
X160157898Y-87157898D03*
X134000000Y-98475000D03*
X134000000Y-101015000D03*
X134000000Y-103555000D03*
X146200000Y-89125000D03*
X146200000Y-91665000D03*
X146200000Y-94205000D03*
X146200000Y-96745000D03*
X146200000Y-99285000D03*
X146200000Y-101825000D03*
X146200000Y-104365000D03*
X146200000Y-106905000D03*
X153820000Y-106905000D03*
X153820000Y-104365000D03*
X153820000Y-101825000D03*
X153820000Y-99285000D03*
X153820000Y-96745000D03*
X153820000Y-94205000D03*
X153820000Y-91665000D03*
X153820000Y-89125000D03*
X143000000Y-106000000D03*
X136203949Y-111203949D03*
X138000000Y-113000000D03*
X139796051Y-114796051D03*
X152525000Y-85000000D03*
X149985000Y-85000000D03*
X147445000Y-85000000D03*
X157000000Y-106000000D03*
X166000000Y-103525000D03*
X166000000Y-100985000D03*
X166000000Y-98445000D03*
X139796051Y-87203949D03*
X138000000Y-89000000D03*
X136203949Y-90796051D03*
X143650000Y-111000000D03*
X146190000Y-111000000D03*
X148730000Y-111000000D03*
X151270000Y-111000000D03*
X153810000Y-111000000D03*
X156350000Y-111000000D03*
M02*
