M48
; DRILL file {KiCad 8.0.5} date 2024-12-11T17:00:50+1000
; FORMAT={-:-/ absolute / metric / decimal}
; #@! TF.CreationDate,2024-12-11T17:00:50+10:00
; #@! TF.GenerationSoftware,Kicad,Pcbnew,8.0.5
; #@! TF.FileFunction,Plated,1,2,PTH
FMAT,2
METRIC
; #@! TA.AperFunction,Plated,PTH,ComponentDrill
T1C0.800
; #@! TA.AperFunction,Plated,PTH,ComponentDrill
T2C1.000
%
G90
G05
T1
X146.2Y-89.125
X146.2Y-91.665
X146.2Y-94.205
X146.2Y-96.745
X146.2Y-99.285
X146.2Y-101.825
X146.2Y-104.365
X146.2Y-106.905
X153.82Y-89.125
X153.82Y-91.665
X153.82Y-94.205
X153.82Y-96.745
X153.82Y-99.285
X153.82Y-101.825
X153.82Y-104.365
X153.82Y-106.905
T2
X134.0Y-98.475
X134.0Y-101.015
X134.0Y-103.555
X136.204Y-90.796
X136.204Y-111.204
X138.0Y-89.0
X138.0Y-113.0
X139.796Y-87.204
X139.796Y-114.796
X143.0Y-106.0
X143.65Y-111.0
X146.19Y-111.0
X147.445Y-85.0
X147.475Y-117.0
X148.73Y-111.0
X149.985Y-85.0
X150.015Y-117.0
X151.27Y-111.0
X152.525Y-85.0
X152.555Y-117.0
X153.81Y-111.0
X156.35Y-111.0
X157.0Y-106.0
X160.158Y-87.158
X160.204Y-114.796
X161.954Y-88.954
X162.0Y-113.0
X163.75Y-90.75
X163.796Y-111.204
X166.0Y-98.445
X166.0Y-100.985
X166.0Y-103.525
M30
