%TF.GenerationSoftware,KiCad,Pcbnew,8.0.5*%
%TF.CreationDate,2024-12-11T18:44:50+10:00*%
%TF.ProjectId,powerSystem,706f7765-7253-4797-9374-656d2e6b6963,rev?*%
%TF.SameCoordinates,Original*%
%TF.FileFunction,Copper,L2,Bot*%
%TF.FilePolarity,Positive*%
%FSLAX46Y46*%
G04 Gerber Fmt 4.6, Leading zero omitted, Abs format (unit mm)*
G04 Created by KiCad (PCBNEW 8.0.5) date 2024-12-11 18:44:50*
%MOMM*%
%LPD*%
G01*
G04 APERTURE LIST*
%TA.AperFunction,ComponentPad*%
%ADD10O,1.700000X1.700000*%
%TD*%
%TA.AperFunction,ComponentPad*%
%ADD11R,1.700000X1.700000*%
%TD*%
%TA.AperFunction,Conductor*%
%ADD12C,0.200000*%
%TD*%
%ADD13C,0.350000*%
G04 APERTURE END LIST*
D10*
%TO.P,P3,2,Pin_2*%
%TO.N,/GND*%
X155700000Y-99361000D03*
D11*
%TO.P,P3,1,Pin_1*%
%TO.N,/0~10V*%
X155700000Y-96821000D03*
%TD*%
D10*
%TO.P,P2,2,Pin_2*%
%TO.N,/GND*%
X151200000Y-99361000D03*
D11*
%TO.P,P2,1,Pin_1*%
%TO.N,/0~10V*%
X151200000Y-96821000D03*
%TD*%
D10*
%TO.P,SIGOUT1,3,Pin_3*%
%TO.N,/+3_3V*%
X169780000Y-99121000D03*
%TO.P,SIGOUT1,2,Pin_2*%
%TO.N,/+5V*%
X167240000Y-99121000D03*
D11*
%TO.P,SIGOUT1,1,Pin_1*%
%TO.N,/GND*%
X164700000Y-99121000D03*
%TD*%
D10*
%TO.P,P4,2,Pin_2*%
%TO.N,/GND*%
X160200000Y-99361000D03*
D11*
%TO.P,P4,1,Pin_1*%
%TO.N,/0~10V*%
X160200000Y-96821000D03*
%TD*%
D10*
%TO.P,SDI1,2,Pin_2*%
%TO.N,/GND*%
X155700000Y-91161000D03*
D11*
%TO.P,SDI1,1,Pin_1*%
%TO.N,/0~10V*%
X155700000Y-88621000D03*
%TD*%
D10*
%TO.P,SDO2,2,Pin_2*%
%TO.N,/GND*%
X178200000Y-91161000D03*
D11*
%TO.P,SDO2,1,Pin_1*%
%TO.N,/+3_3V*%
X178200000Y-88621000D03*
%TD*%
D10*
%TO.P,PMI1,2,Pin_2*%
%TO.N,/GND*%
X164700000Y-91161000D03*
D11*
%TO.P,PMI1,1,Pin_1*%
%TO.N,/+5.5V*%
X164700000Y-88621000D03*
%TD*%
D10*
%TO.P,P1,2,Pin_2*%
%TO.N,/GND*%
X146700000Y-99361000D03*
D11*
%TO.P,P1,1,Pin_1*%
%TO.N,/0~10V*%
X146700000Y-96821000D03*
%TD*%
D10*
%TO.P,SDI2,2,Pin_2*%
%TO.N,/GND*%
X173700000Y-91161000D03*
D11*
%TO.P,SDI2,1,Pin_1*%
%TO.N,/+5V*%
X173700000Y-88621000D03*
%TD*%
D10*
%TO.P,PMO1,2,Pin_2*%
%TO.N,/GND*%
X169200000Y-91161000D03*
D11*
%TO.P,PMO1,1,Pin_1*%
%TO.N,/+5V*%
X169200000Y-88621000D03*
%TD*%
D10*
%TO.P,SDO1,2,Pin_2*%
%TO.N,/GND*%
X160200000Y-91161000D03*
D11*
%TO.P,SDO1,1,Pin_1*%
%TO.N,/+5.5V*%
X160200000Y-88621000D03*
%TD*%
D12*
%TO.N,/GND*%
X157950000Y-91661000D02*
X157450000Y-91161000D01*
X158450000Y-91161000D02*
X178200000Y-91161000D01*
X157950000Y-98861000D02*
X157450000Y-99361000D01*
X160440000Y-99121000D02*
X160200000Y-99361000D01*
X164700000Y-99121000D02*
X160440000Y-99121000D01*
X155700000Y-91161000D02*
X157450000Y-91161000D01*
X146700000Y-99361000D02*
X157450000Y-99361000D01*
X157950000Y-91821000D02*
X157950000Y-91661000D01*
X157950000Y-91661000D02*
X158450000Y-91161000D01*
X158450000Y-99361000D02*
X160200000Y-99361000D01*
X157950000Y-98861000D02*
X158450000Y-99361000D01*
X157950000Y-91821000D02*
X157950000Y-98861000D01*
%TD*%
%TA.AperFunction,NonConductor*%
G36*
X145782005Y-83720185D02*
G01*
X145827760Y-83772989D01*
X145837704Y-83842147D01*
X145808679Y-83905703D01*
X145787851Y-83924818D01*
X145588692Y-84069515D01*
X145588682Y-84069523D01*
X145359322Y-84284907D01*
X145359320Y-84284909D01*
X145158768Y-84527334D01*
X145158765Y-84527338D01*
X144990178Y-84792990D01*
X144990175Y-84792996D01*
X144856213Y-85077678D01*
X144856211Y-85077683D01*
X144758984Y-85376916D01*
X144700025Y-85685988D01*
X144700024Y-85685995D01*
X144680270Y-85999994D01*
X144680270Y-86000005D01*
X144700024Y-86314004D01*
X144700025Y-86314011D01*
X144758984Y-86623083D01*
X144856211Y-86922316D01*
X144856213Y-86922321D01*
X144990175Y-87207003D01*
X144990178Y-87207009D01*
X145158765Y-87472661D01*
X145158768Y-87472665D01*
X145359320Y-87715090D01*
X145359322Y-87715092D01*
X145359324Y-87715094D01*
X145367881Y-87723129D01*
X145588682Y-87930476D01*
X145588692Y-87930484D01*
X145843218Y-88115408D01*
X145843223Y-88115410D01*
X145843230Y-88115416D01*
X146118948Y-88266994D01*
X146118953Y-88266996D01*
X146118955Y-88266997D01*
X146118956Y-88266998D01*
X146411485Y-88382818D01*
X146411488Y-88382819D01*
X146716237Y-88461065D01*
X146716241Y-88461066D01*
X146781724Y-88469338D01*
X147028384Y-88500499D01*
X147028393Y-88500499D01*
X147028396Y-88500500D01*
X147028398Y-88500500D01*
X147343030Y-88500500D01*
X147343032Y-88500500D01*
X147343035Y-88500499D01*
X147343043Y-88500499D01*
X147529307Y-88476968D01*
X147655187Y-88461066D01*
X147959939Y-88382819D01*
X147959942Y-88382818D01*
X148252471Y-88266998D01*
X148252472Y-88266997D01*
X148252470Y-88266997D01*
X148252480Y-88266994D01*
X148528198Y-88115416D01*
X148782744Y-87930478D01*
X149012104Y-87715094D01*
X149212661Y-87472663D01*
X149381251Y-87207007D01*
X149515217Y-86922315D01*
X149612445Y-86623079D01*
X149671402Y-86314015D01*
X149691158Y-86000000D01*
X149675630Y-85753190D01*
X149671403Y-85685995D01*
X149671402Y-85685988D01*
X149671402Y-85685985D01*
X149612445Y-85376921D01*
X149515217Y-85077685D01*
X149381251Y-84792993D01*
X149212661Y-84527337D01*
X149194697Y-84505622D01*
X149012107Y-84284909D01*
X149012105Y-84284907D01*
X148782745Y-84069523D01*
X148782735Y-84069515D01*
X148583577Y-83924818D01*
X148540911Y-83869488D01*
X148534932Y-83799875D01*
X148567538Y-83738080D01*
X148628376Y-83703723D01*
X148656462Y-83700500D01*
X182761214Y-83700500D01*
X182828253Y-83720185D01*
X182874008Y-83772989D01*
X182885214Y-83824500D01*
X182885214Y-102575500D01*
X182865529Y-102642539D01*
X182812725Y-102688294D01*
X182761214Y-102699500D01*
X178056462Y-102699500D01*
X177989423Y-102679815D01*
X177943668Y-102627011D01*
X177933724Y-102557853D01*
X177962749Y-102494297D01*
X177983577Y-102475182D01*
X178116893Y-102378320D01*
X178182744Y-102330478D01*
X178412104Y-102115094D01*
X178612661Y-101872663D01*
X178781251Y-101607007D01*
X178915217Y-101322315D01*
X179012445Y-101023079D01*
X179071402Y-100714015D01*
X179071403Y-100714004D01*
X179091158Y-100400005D01*
X179091158Y-100399994D01*
X179071403Y-100085995D01*
X179071402Y-100085988D01*
X179071402Y-100085985D01*
X179012445Y-99776921D01*
X178915217Y-99477685D01*
X178781251Y-99192993D01*
X178612661Y-98927337D01*
X178587843Y-98897337D01*
X178412107Y-98684909D01*
X178412105Y-98684907D01*
X178382754Y-98657344D01*
X178182744Y-98469522D01*
X178182741Y-98469520D01*
X178182735Y-98469515D01*
X177928209Y-98284591D01*
X177928202Y-98284586D01*
X177928198Y-98284584D01*
X177652480Y-98133006D01*
X177652477Y-98133004D01*
X177652472Y-98133002D01*
X177652471Y-98133001D01*
X177359942Y-98017181D01*
X177359939Y-98017180D01*
X177055190Y-97938934D01*
X177055177Y-97938932D01*
X176743043Y-97899500D01*
X176743032Y-97899500D01*
X176428396Y-97899500D01*
X176428384Y-97899500D01*
X176116250Y-97938932D01*
X176116237Y-97938934D01*
X175811488Y-98017180D01*
X175811485Y-98017181D01*
X175518956Y-98133001D01*
X175518955Y-98133002D01*
X175243230Y-98284584D01*
X175243218Y-98284591D01*
X174988692Y-98469515D01*
X174988682Y-98469523D01*
X174759322Y-98684907D01*
X174759320Y-98684909D01*
X174558768Y-98927334D01*
X174558765Y-98927338D01*
X174390178Y-99192990D01*
X174390175Y-99192996D01*
X174256213Y-99477678D01*
X174256211Y-99477683D01*
X174158984Y-99776916D01*
X174100025Y-100085988D01*
X174100024Y-100085995D01*
X174080270Y-100399994D01*
X174080270Y-100400005D01*
X174100024Y-100714004D01*
X174100025Y-100714011D01*
X174158984Y-101023083D01*
X174256211Y-101322316D01*
X174256213Y-101322321D01*
X174390175Y-101607003D01*
X174390178Y-101607009D01*
X174558765Y-101872661D01*
X174558768Y-101872665D01*
X174759320Y-102115090D01*
X174759322Y-102115092D01*
X174988682Y-102330476D01*
X174988692Y-102330484D01*
X175187851Y-102475182D01*
X175230517Y-102530512D01*
X175236496Y-102600125D01*
X175203890Y-102661920D01*
X175143052Y-102696277D01*
X175114966Y-102699500D01*
X141010214Y-102699500D01*
X140943175Y-102679815D01*
X140897420Y-102627011D01*
X140886214Y-102575500D01*
X140886214Y-99360999D01*
X145344341Y-99360999D01*
X145344341Y-99361000D01*
X145364936Y-99596403D01*
X145364938Y-99596413D01*
X145426094Y-99824655D01*
X145426096Y-99824659D01*
X145426097Y-99824663D01*
X145515514Y-100016417D01*
X145525965Y-100038830D01*
X145525967Y-100038834D01*
X145610458Y-100159498D01*
X145661505Y-100232401D01*
X145828599Y-100399495D01*
X145922280Y-100465091D01*
X146022165Y-100535032D01*
X146022167Y-100535033D01*
X146022170Y-100535035D01*
X146236337Y-100634903D01*
X146464592Y-100696063D01*
X146652918Y-100712539D01*
X146699999Y-100716659D01*
X146700000Y-100716659D01*
X146700001Y-100716659D01*
X146739234Y-100713226D01*
X146935408Y-100696063D01*
X147163663Y-100634903D01*
X147377830Y-100535035D01*
X147571401Y-100399495D01*
X147738495Y-100232401D01*
X147874035Y-100038830D01*
X147876707Y-100033097D01*
X147922878Y-99980658D01*
X147989091Y-99961500D01*
X149910909Y-99961500D01*
X149977948Y-99981185D01*
X150023292Y-100033097D01*
X150025965Y-100038830D01*
X150161505Y-100232401D01*
X150328599Y-100399495D01*
X150422280Y-100465091D01*
X150522165Y-100535032D01*
X150522167Y-100535033D01*
X150522170Y-100535035D01*
X150736337Y-100634903D01*
X150964592Y-100696063D01*
X151152918Y-100712539D01*
X151199999Y-100716659D01*
X151200000Y-100716659D01*
X151200001Y-100716659D01*
X151239234Y-100713226D01*
X151435408Y-100696063D01*
X151663663Y-100634903D01*
X151877830Y-100535035D01*
X152071401Y-100399495D01*
X152238495Y-100232401D01*
X152374035Y-100038830D01*
X152376707Y-100033097D01*
X152422878Y-99980658D01*
X152489091Y-99961500D01*
X154410909Y-99961500D01*
X154477948Y-99981185D01*
X154523292Y-100033097D01*
X154525965Y-100038830D01*
X154661505Y-100232401D01*
X154828599Y-100399495D01*
X154922280Y-100465091D01*
X155022165Y-100535032D01*
X155022167Y-100535033D01*
X155022170Y-100535035D01*
X155236337Y-100634903D01*
X155464592Y-100696063D01*
X155652918Y-100712539D01*
X155699999Y-100716659D01*
X155700000Y-100716659D01*
X155700001Y-100716659D01*
X155739234Y-100713226D01*
X155935408Y-100696063D01*
X156163663Y-100634903D01*
X156377830Y-100535035D01*
X156571401Y-100399495D01*
X156738495Y-100232401D01*
X156874035Y-100038830D01*
X156876707Y-100033097D01*
X156922878Y-99980658D01*
X156989091Y-99961500D01*
X157363331Y-99961500D01*
X157363347Y-99961501D01*
X157370943Y-99961501D01*
X157529054Y-99961501D01*
X157529057Y-99961501D01*
X157681785Y-99920577D01*
X157731904Y-99891639D01*
X157818716Y-99841520D01*
X157862318Y-99797918D01*
X157923641Y-99764432D01*
X157993332Y-99769416D01*
X158037681Y-99797917D01*
X158081284Y-99841520D01*
X158081286Y-99841521D01*
X158081290Y-99841524D01*
X158205288Y-99913113D01*
X158218216Y-99920577D01*
X158370943Y-99961501D01*
X158370945Y-99961501D01*
X158536654Y-99961501D01*
X158536670Y-99961500D01*
X158910909Y-99961500D01*
X158977948Y-99981185D01*
X159023292Y-100033097D01*
X159025965Y-100038830D01*
X159161505Y-100232401D01*
X159328599Y-100399495D01*
X159422280Y-100465091D01*
X159522165Y-100535032D01*
X159522167Y-100535033D01*
X159522170Y-100535035D01*
X159736337Y-100634903D01*
X159964592Y-100696063D01*
X160152918Y-100712539D01*
X160199999Y-100716659D01*
X160200000Y-100716659D01*
X160200001Y-100716659D01*
X160239234Y-100713226D01*
X160435408Y-100696063D01*
X160663663Y-100634903D01*
X160877830Y-100535035D01*
X161071401Y-100399495D01*
X161238495Y-100232401D01*
X161374035Y-100038830D01*
X161473903Y-99824663D01*
X161476918Y-99813407D01*
X161513282Y-99753748D01*
X161576128Y-99723217D01*
X161596694Y-99721500D01*
X163225501Y-99721500D01*
X163292540Y-99741185D01*
X163338295Y-99793989D01*
X163349501Y-99845500D01*
X163349501Y-100018876D01*
X163355908Y-100078483D01*
X163406202Y-100213328D01*
X163406206Y-100213335D01*
X163492452Y-100328544D01*
X163492455Y-100328547D01*
X163607664Y-100414793D01*
X163607671Y-100414797D01*
X163742517Y-100465091D01*
X163742516Y-100465091D01*
X163749444Y-100465835D01*
X163802127Y-100471500D01*
X165597872Y-100471499D01*
X165657483Y-100465091D01*
X165792331Y-100414796D01*
X165907546Y-100328546D01*
X165993796Y-100213331D01*
X166042810Y-100081916D01*
X166084681Y-100025984D01*
X166150145Y-100001566D01*
X166218418Y-100016417D01*
X166246673Y-100037569D01*
X166368599Y-100159495D01*
X166465384Y-100227265D01*
X166562165Y-100295032D01*
X166562167Y-100295033D01*
X166562170Y-100295035D01*
X166776337Y-100394903D01*
X166776343Y-100394904D01*
X166776344Y-100394905D01*
X166793486Y-100399498D01*
X167004592Y-100456063D01*
X167181034Y-100471500D01*
X167239999Y-100476659D01*
X167240000Y-100476659D01*
X167240001Y-100476659D01*
X167298966Y-100471500D01*
X167475408Y-100456063D01*
X167703663Y-100394903D01*
X167917830Y-100295035D01*
X168111401Y-100159495D01*
X168278495Y-99992401D01*
X168408425Y-99806842D01*
X168463002Y-99763217D01*
X168532500Y-99756023D01*
X168594855Y-99787546D01*
X168611575Y-99806842D01*
X168741500Y-99992395D01*
X168741505Y-99992401D01*
X168908599Y-100159495D01*
X169005384Y-100227265D01*
X169102165Y-100295032D01*
X169102167Y-100295033D01*
X169102170Y-100295035D01*
X169316337Y-100394903D01*
X169316343Y-100394904D01*
X169316344Y-100394905D01*
X169333486Y-100399498D01*
X169544592Y-100456063D01*
X169721034Y-100471500D01*
X169779999Y-100476659D01*
X169780000Y-100476659D01*
X169780001Y-100476659D01*
X169838966Y-100471500D01*
X170015408Y-100456063D01*
X170243663Y-100394903D01*
X170457830Y-100295035D01*
X170651401Y-100159495D01*
X170818495Y-99992401D01*
X170954035Y-99798830D01*
X171053903Y-99584663D01*
X171115063Y-99356408D01*
X171135659Y-99121000D01*
X171115063Y-98885592D01*
X171053903Y-98657337D01*
X170954035Y-98443171D01*
X170948425Y-98435158D01*
X170818494Y-98249597D01*
X170651402Y-98082506D01*
X170651395Y-98082501D01*
X170457834Y-97946967D01*
X170457830Y-97946965D01*
X170457828Y-97946964D01*
X170243663Y-97847097D01*
X170243659Y-97847096D01*
X170243655Y-97847094D01*
X170015413Y-97785938D01*
X170015403Y-97785936D01*
X169780001Y-97765341D01*
X169779999Y-97765341D01*
X169544596Y-97785936D01*
X169544586Y-97785938D01*
X169316344Y-97847094D01*
X169316335Y-97847098D01*
X169102171Y-97946964D01*
X169102169Y-97946965D01*
X168908597Y-98082505D01*
X168741505Y-98249597D01*
X168611575Y-98435158D01*
X168556998Y-98478783D01*
X168487500Y-98485977D01*
X168425145Y-98454454D01*
X168408425Y-98435158D01*
X168278494Y-98249597D01*
X168111402Y-98082506D01*
X168111395Y-98082501D01*
X167917834Y-97946967D01*
X167917830Y-97946965D01*
X167917828Y-97946964D01*
X167703663Y-97847097D01*
X167703659Y-97847096D01*
X167703655Y-97847094D01*
X167475413Y-97785938D01*
X167475403Y-97785936D01*
X167240001Y-97765341D01*
X167239999Y-97765341D01*
X167004596Y-97785936D01*
X167004586Y-97785938D01*
X166776344Y-97847094D01*
X166776335Y-97847098D01*
X166562171Y-97946964D01*
X166562169Y-97946965D01*
X166368600Y-98082503D01*
X166246673Y-98204430D01*
X166185350Y-98237914D01*
X166115658Y-98232930D01*
X166059725Y-98191058D01*
X166042810Y-98160081D01*
X165993797Y-98028671D01*
X165993793Y-98028664D01*
X165907547Y-97913455D01*
X165907544Y-97913452D01*
X165792335Y-97827206D01*
X165792328Y-97827202D01*
X165657482Y-97776908D01*
X165657483Y-97776908D01*
X165597883Y-97770501D01*
X165597881Y-97770500D01*
X165597873Y-97770500D01*
X165597864Y-97770500D01*
X163802129Y-97770500D01*
X163802123Y-97770501D01*
X163742516Y-97776908D01*
X163607671Y-97827202D01*
X163607664Y-97827206D01*
X163492455Y-97913452D01*
X163492452Y-97913455D01*
X163406206Y-98028664D01*
X163406202Y-98028671D01*
X163355908Y-98163517D01*
X163349501Y-98223116D01*
X163349500Y-98223135D01*
X163349500Y-98396500D01*
X163329815Y-98463539D01*
X163277011Y-98509294D01*
X163225500Y-98520500D01*
X161320759Y-98520500D01*
X161253720Y-98500815D01*
X161233078Y-98484182D01*
X161184054Y-98435158D01*
X161116567Y-98367671D01*
X161083084Y-98306351D01*
X161088068Y-98236659D01*
X161129939Y-98180725D01*
X161160915Y-98163810D01*
X161292331Y-98114796D01*
X161407546Y-98028546D01*
X161493796Y-97913331D01*
X161544091Y-97778483D01*
X161550500Y-97718873D01*
X161550499Y-95923128D01*
X161544091Y-95863517D01*
X161493796Y-95728669D01*
X161493795Y-95728668D01*
X161493793Y-95728664D01*
X161407547Y-95613455D01*
X161407544Y-95613452D01*
X161292335Y-95527206D01*
X161292328Y-95527202D01*
X161157482Y-95476908D01*
X161157483Y-95476908D01*
X161097883Y-95470501D01*
X161097881Y-95470500D01*
X161097873Y-95470500D01*
X161097864Y-95470500D01*
X159302129Y-95470500D01*
X159302123Y-95470501D01*
X159242516Y-95476908D01*
X159107671Y-95527202D01*
X159107664Y-95527206D01*
X158992455Y-95613452D01*
X158992452Y-95613455D01*
X158906206Y-95728664D01*
X158906202Y-95728671D01*
X158855908Y-95863517D01*
X158849501Y-95923116D01*
X158849501Y-95923123D01*
X158849500Y-95923135D01*
X158849500Y-97718870D01*
X158849501Y-97718876D01*
X158855908Y-97778483D01*
X158906202Y-97913328D01*
X158906206Y-97913335D01*
X158992452Y-98028544D01*
X158992455Y-98028547D01*
X159107664Y-98114793D01*
X159107671Y-98114797D01*
X159239081Y-98163810D01*
X159295015Y-98205681D01*
X159319432Y-98271145D01*
X159304580Y-98339418D01*
X159283430Y-98367673D01*
X159161503Y-98489600D01*
X159025965Y-98683170D01*
X159025962Y-98683175D01*
X159023289Y-98688909D01*
X158977115Y-98741346D01*
X158910909Y-98760500D01*
X158750098Y-98760500D01*
X158683059Y-98740815D01*
X158662417Y-98724181D01*
X158586819Y-98648583D01*
X158553334Y-98587260D01*
X158550500Y-98560902D01*
X158550500Y-91961098D01*
X158570185Y-91894059D01*
X158586819Y-91873416D01*
X158662418Y-91797818D01*
X158723742Y-91764334D01*
X158750099Y-91761500D01*
X158910909Y-91761500D01*
X158977948Y-91781185D01*
X159023292Y-91833097D01*
X159025965Y-91838830D01*
X159161505Y-92032401D01*
X159328599Y-92199495D01*
X159425384Y-92267265D01*
X159522165Y-92335032D01*
X159522167Y-92335033D01*
X159522170Y-92335035D01*
X159736337Y-92434903D01*
X159964592Y-92496063D01*
X160152918Y-92512539D01*
X160199999Y-92516659D01*
X160200000Y-92516659D01*
X160200001Y-92516659D01*
X160239234Y-92513226D01*
X160435408Y-92496063D01*
X160663663Y-92434903D01*
X160877830Y-92335035D01*
X161071401Y-92199495D01*
X161238495Y-92032401D01*
X161374035Y-91838830D01*
X161376707Y-91833097D01*
X161422878Y-91780658D01*
X161489091Y-91761500D01*
X163410909Y-91761500D01*
X163477948Y-91781185D01*
X163523292Y-91833097D01*
X163525965Y-91838830D01*
X163661505Y-92032401D01*
X163828599Y-92199495D01*
X163925384Y-92267265D01*
X164022165Y-92335032D01*
X164022167Y-92335033D01*
X164022170Y-92335035D01*
X164236337Y-92434903D01*
X164464592Y-92496063D01*
X164652918Y-92512539D01*
X164699999Y-92516659D01*
X164700000Y-92516659D01*
X164700001Y-92516659D01*
X164739234Y-92513226D01*
X164935408Y-92496063D01*
X165163663Y-92434903D01*
X165377830Y-92335035D01*
X165571401Y-92199495D01*
X165738495Y-92032401D01*
X165874035Y-91838830D01*
X165876707Y-91833097D01*
X165922878Y-91780658D01*
X165989091Y-91761500D01*
X167910909Y-91761500D01*
X167977948Y-91781185D01*
X168023292Y-91833097D01*
X168025965Y-91838830D01*
X168161505Y-92032401D01*
X168328599Y-92199495D01*
X168425384Y-92267265D01*
X168522165Y-92335032D01*
X168522167Y-92335033D01*
X168522170Y-92335035D01*
X168736337Y-92434903D01*
X168964592Y-92496063D01*
X169152918Y-92512539D01*
X169199999Y-92516659D01*
X169200000Y-92516659D01*
X169200001Y-92516659D01*
X169239234Y-92513226D01*
X169435408Y-92496063D01*
X169663663Y-92434903D01*
X169877830Y-92335035D01*
X170071401Y-92199495D01*
X170238495Y-92032401D01*
X170374035Y-91838830D01*
X170376707Y-91833097D01*
X170422878Y-91780658D01*
X170489091Y-91761500D01*
X172410909Y-91761500D01*
X172477948Y-91781185D01*
X172523292Y-91833097D01*
X172525965Y-91838830D01*
X172661505Y-92032401D01*
X172828599Y-92199495D01*
X172925384Y-92267265D01*
X173022165Y-92335032D01*
X173022167Y-92335033D01*
X173022170Y-92335035D01*
X173236337Y-92434903D01*
X173464592Y-92496063D01*
X173652918Y-92512539D01*
X173699999Y-92516659D01*
X173700000Y-92516659D01*
X173700001Y-92516659D01*
X173739234Y-92513226D01*
X173935408Y-92496063D01*
X174163663Y-92434903D01*
X174377830Y-92335035D01*
X174571401Y-92199495D01*
X174738495Y-92032401D01*
X174874035Y-91838830D01*
X174876707Y-91833097D01*
X174922878Y-91780658D01*
X174989091Y-91761500D01*
X176910909Y-91761500D01*
X176977948Y-91781185D01*
X177023292Y-91833097D01*
X177025965Y-91838830D01*
X177161505Y-92032401D01*
X177328599Y-92199495D01*
X177425384Y-92267265D01*
X177522165Y-92335032D01*
X177522167Y-92335033D01*
X177522170Y-92335035D01*
X177736337Y-92434903D01*
X177964592Y-92496063D01*
X178152918Y-92512539D01*
X178199999Y-92516659D01*
X178200000Y-92516659D01*
X178200001Y-92516659D01*
X178239234Y-92513226D01*
X178435408Y-92496063D01*
X178663663Y-92434903D01*
X178877830Y-92335035D01*
X179071401Y-92199495D01*
X179238495Y-92032401D01*
X179374035Y-91838830D01*
X179473903Y-91624663D01*
X179535063Y-91396408D01*
X179555659Y-91161000D01*
X179535063Y-90925592D01*
X179473903Y-90697337D01*
X179374035Y-90483171D01*
X179374034Y-90483169D01*
X179238496Y-90289600D01*
X179238495Y-90289599D01*
X179116567Y-90167671D01*
X179083084Y-90106351D01*
X179088068Y-90036659D01*
X179129939Y-89980725D01*
X179160915Y-89963810D01*
X179292331Y-89914796D01*
X179407546Y-89828546D01*
X179493796Y-89713331D01*
X179544091Y-89578483D01*
X179550500Y-89518873D01*
X179550499Y-87723128D01*
X179544091Y-87663517D01*
X179493796Y-87528669D01*
X179493795Y-87528668D01*
X179493793Y-87528664D01*
X179407547Y-87413455D01*
X179407544Y-87413452D01*
X179292335Y-87327206D01*
X179292328Y-87327202D01*
X179157482Y-87276908D01*
X179157483Y-87276908D01*
X179097883Y-87270501D01*
X179097881Y-87270500D01*
X179097873Y-87270500D01*
X179097864Y-87270500D01*
X177302129Y-87270500D01*
X177302123Y-87270501D01*
X177242516Y-87276908D01*
X177107671Y-87327202D01*
X177107664Y-87327206D01*
X176992455Y-87413452D01*
X176992452Y-87413455D01*
X176906206Y-87528664D01*
X176906202Y-87528671D01*
X176855908Y-87663517D01*
X176849501Y-87723116D01*
X176849501Y-87723123D01*
X176849500Y-87723135D01*
X176849500Y-89518870D01*
X176849501Y-89518876D01*
X176855908Y-89578483D01*
X176906202Y-89713328D01*
X176906206Y-89713335D01*
X176992452Y-89828544D01*
X176992455Y-89828547D01*
X177107664Y-89914793D01*
X177107671Y-89914797D01*
X177239081Y-89963810D01*
X177295015Y-90005681D01*
X177319432Y-90071145D01*
X177304580Y-90139418D01*
X177283430Y-90167673D01*
X177161503Y-90289600D01*
X177025965Y-90483170D01*
X177025962Y-90483175D01*
X177023289Y-90488909D01*
X176977115Y-90541346D01*
X176910909Y-90560500D01*
X174989091Y-90560500D01*
X174922052Y-90540815D01*
X174876711Y-90488909D01*
X174874037Y-90483175D01*
X174874034Y-90483170D01*
X174874033Y-90483169D01*
X174738495Y-90289599D01*
X174616567Y-90167671D01*
X174583084Y-90106351D01*
X174588068Y-90036659D01*
X174629939Y-89980725D01*
X174660915Y-89963810D01*
X174792331Y-89914796D01*
X174907546Y-89828546D01*
X174993796Y-89713331D01*
X175044091Y-89578483D01*
X175050500Y-89518873D01*
X175050499Y-87723128D01*
X175044091Y-87663517D01*
X174993796Y-87528669D01*
X174993795Y-87528668D01*
X174993793Y-87528664D01*
X174907547Y-87413455D01*
X174907544Y-87413452D01*
X174792335Y-87327206D01*
X174792328Y-87327202D01*
X174657482Y-87276908D01*
X174657483Y-87276908D01*
X174597883Y-87270501D01*
X174597881Y-87270500D01*
X174597873Y-87270500D01*
X174597864Y-87270500D01*
X172802129Y-87270500D01*
X172802123Y-87270501D01*
X172742516Y-87276908D01*
X172607671Y-87327202D01*
X172607664Y-87327206D01*
X172492455Y-87413452D01*
X172492452Y-87413455D01*
X172406206Y-87528664D01*
X172406202Y-87528671D01*
X172355908Y-87663517D01*
X172349501Y-87723116D01*
X172349501Y-87723123D01*
X172349500Y-87723135D01*
X172349500Y-89518870D01*
X172349501Y-89518876D01*
X172355908Y-89578483D01*
X172406202Y-89713328D01*
X172406206Y-89713335D01*
X172492452Y-89828544D01*
X172492455Y-89828547D01*
X172607664Y-89914793D01*
X172607671Y-89914797D01*
X172739081Y-89963810D01*
X172795015Y-90005681D01*
X172819432Y-90071145D01*
X172804580Y-90139418D01*
X172783430Y-90167673D01*
X172661503Y-90289600D01*
X172525965Y-90483170D01*
X172525962Y-90483175D01*
X172523289Y-90488909D01*
X172477115Y-90541346D01*
X172410909Y-90560500D01*
X170489091Y-90560500D01*
X170422052Y-90540815D01*
X170376711Y-90488909D01*
X170374037Y-90483175D01*
X170374034Y-90483170D01*
X170374033Y-90483169D01*
X170238495Y-90289599D01*
X170116567Y-90167671D01*
X170083084Y-90106351D01*
X170088068Y-90036659D01*
X170129939Y-89980725D01*
X170160915Y-89963810D01*
X170292331Y-89914796D01*
X170407546Y-89828546D01*
X170493796Y-89713331D01*
X170544091Y-89578483D01*
X170550500Y-89518873D01*
X170550499Y-87723128D01*
X170544091Y-87663517D01*
X170493796Y-87528669D01*
X170493795Y-87528668D01*
X170493793Y-87528664D01*
X170407547Y-87413455D01*
X170407544Y-87413452D01*
X170292335Y-87327206D01*
X170292328Y-87327202D01*
X170157482Y-87276908D01*
X170157483Y-87276908D01*
X170097883Y-87270501D01*
X170097881Y-87270500D01*
X170097873Y-87270500D01*
X170097864Y-87270500D01*
X168302129Y-87270500D01*
X168302123Y-87270501D01*
X168242516Y-87276908D01*
X168107671Y-87327202D01*
X168107664Y-87327206D01*
X167992455Y-87413452D01*
X167992452Y-87413455D01*
X167906206Y-87528664D01*
X167906202Y-87528671D01*
X167855908Y-87663517D01*
X167849501Y-87723116D01*
X167849501Y-87723123D01*
X167849500Y-87723135D01*
X167849500Y-89518870D01*
X167849501Y-89518876D01*
X167855908Y-89578483D01*
X167906202Y-89713328D01*
X167906206Y-89713335D01*
X167992452Y-89828544D01*
X167992455Y-89828547D01*
X168107664Y-89914793D01*
X168107671Y-89914797D01*
X168239081Y-89963810D01*
X168295015Y-90005681D01*
X168319432Y-90071145D01*
X168304580Y-90139418D01*
X168283430Y-90167673D01*
X168161503Y-90289600D01*
X168025965Y-90483170D01*
X168025962Y-90483175D01*
X168023289Y-90488909D01*
X167977115Y-90541346D01*
X167910909Y-90560500D01*
X165989091Y-90560500D01*
X165922052Y-90540815D01*
X165876711Y-90488909D01*
X165874037Y-90483175D01*
X165874034Y-90483170D01*
X165874033Y-90483169D01*
X165738495Y-90289599D01*
X165616567Y-90167671D01*
X165583084Y-90106351D01*
X165588068Y-90036659D01*
X165629939Y-89980725D01*
X165660915Y-89963810D01*
X165792331Y-89914796D01*
X165907546Y-89828546D01*
X165993796Y-89713331D01*
X166044091Y-89578483D01*
X166050500Y-89518873D01*
X166050499Y-87723128D01*
X166044091Y-87663517D01*
X165993796Y-87528669D01*
X165993795Y-87528668D01*
X165993793Y-87528664D01*
X165907547Y-87413455D01*
X165907544Y-87413452D01*
X165792335Y-87327206D01*
X165792328Y-87327202D01*
X165657482Y-87276908D01*
X165657483Y-87276908D01*
X165597883Y-87270501D01*
X165597881Y-87270500D01*
X165597873Y-87270500D01*
X165597864Y-87270500D01*
X163802129Y-87270500D01*
X163802123Y-87270501D01*
X163742516Y-87276908D01*
X163607671Y-87327202D01*
X163607664Y-87327206D01*
X163492455Y-87413452D01*
X163492452Y-87413455D01*
X163406206Y-87528664D01*
X163406202Y-87528671D01*
X163355908Y-87663517D01*
X163349501Y-87723116D01*
X163349501Y-87723123D01*
X163349500Y-87723135D01*
X163349500Y-89518870D01*
X163349501Y-89518876D01*
X163355908Y-89578483D01*
X163406202Y-89713328D01*
X163406206Y-89713335D01*
X163492452Y-89828544D01*
X163492455Y-89828547D01*
X163607664Y-89914793D01*
X163607671Y-89914797D01*
X163739081Y-89963810D01*
X163795015Y-90005681D01*
X163819432Y-90071145D01*
X163804580Y-90139418D01*
X163783430Y-90167673D01*
X163661503Y-90289600D01*
X163525965Y-90483170D01*
X163525962Y-90483175D01*
X163523289Y-90488909D01*
X163477115Y-90541346D01*
X163410909Y-90560500D01*
X161489091Y-90560500D01*
X161422052Y-90540815D01*
X161376711Y-90488909D01*
X161374037Y-90483175D01*
X161374034Y-90483170D01*
X161374033Y-90483169D01*
X161238495Y-90289599D01*
X161116567Y-90167671D01*
X161083084Y-90106351D01*
X161088068Y-90036659D01*
X161129939Y-89980725D01*
X161160915Y-89963810D01*
X161292331Y-89914796D01*
X161407546Y-89828546D01*
X161493796Y-89713331D01*
X161544091Y-89578483D01*
X161550500Y-89518873D01*
X161550499Y-87723128D01*
X161544091Y-87663517D01*
X161493796Y-87528669D01*
X161493795Y-87528668D01*
X161493793Y-87528664D01*
X161407547Y-87413455D01*
X161407544Y-87413452D01*
X161292335Y-87327206D01*
X161292328Y-87327202D01*
X161157482Y-87276908D01*
X161157483Y-87276908D01*
X161097883Y-87270501D01*
X161097881Y-87270500D01*
X161097873Y-87270500D01*
X161097864Y-87270500D01*
X159302129Y-87270500D01*
X159302123Y-87270501D01*
X159242516Y-87276908D01*
X159107671Y-87327202D01*
X159107664Y-87327206D01*
X158992455Y-87413452D01*
X158992452Y-87413455D01*
X158906206Y-87528664D01*
X158906202Y-87528671D01*
X158855908Y-87663517D01*
X158849501Y-87723116D01*
X158849501Y-87723123D01*
X158849500Y-87723135D01*
X158849500Y-89518870D01*
X158849501Y-89518876D01*
X158855908Y-89578483D01*
X158906202Y-89713328D01*
X158906206Y-89713335D01*
X158992452Y-89828544D01*
X158992455Y-89828547D01*
X159107664Y-89914793D01*
X159107671Y-89914797D01*
X159239081Y-89963810D01*
X159295015Y-90005681D01*
X159319432Y-90071145D01*
X159304580Y-90139418D01*
X159283430Y-90167673D01*
X159161503Y-90289600D01*
X159025965Y-90483170D01*
X159025962Y-90483175D01*
X159023289Y-90488909D01*
X158977115Y-90541346D01*
X158910909Y-90560500D01*
X158536670Y-90560500D01*
X158536654Y-90560499D01*
X158529058Y-90560499D01*
X158370943Y-90560499D01*
X158294579Y-90580961D01*
X158218214Y-90601423D01*
X158218209Y-90601426D01*
X158081290Y-90680475D01*
X158081281Y-90680482D01*
X158037678Y-90724084D01*
X157976355Y-90757568D01*
X157906663Y-90752582D01*
X157862318Y-90724082D01*
X157818717Y-90680481D01*
X157818716Y-90680480D01*
X157731904Y-90630360D01*
X157731904Y-90630359D01*
X157731900Y-90630358D01*
X157681785Y-90601423D01*
X157529057Y-90560499D01*
X157370943Y-90560499D01*
X157363347Y-90560499D01*
X157363331Y-90560500D01*
X156989091Y-90560500D01*
X156922052Y-90540815D01*
X156876711Y-90488909D01*
X156874037Y-90483175D01*
X156874034Y-90483170D01*
X156874033Y-90483169D01*
X156738495Y-90289599D01*
X156616567Y-90167671D01*
X156583084Y-90106351D01*
X156588068Y-90036659D01*
X156629939Y-89980725D01*
X156660915Y-89963810D01*
X156792331Y-89914796D01*
X156907546Y-89828546D01*
X156993796Y-89713331D01*
X157044091Y-89578483D01*
X157050500Y-89518873D01*
X157050499Y-87723128D01*
X157044091Y-87663517D01*
X156993796Y-87528669D01*
X156993795Y-87528668D01*
X156993793Y-87528664D01*
X156907547Y-87413455D01*
X156907544Y-87413452D01*
X156792335Y-87327206D01*
X156792328Y-87327202D01*
X156657482Y-87276908D01*
X156657483Y-87276908D01*
X156597883Y-87270501D01*
X156597881Y-87270500D01*
X156597873Y-87270500D01*
X156597864Y-87270500D01*
X154802129Y-87270500D01*
X154802123Y-87270501D01*
X154742516Y-87276908D01*
X154607671Y-87327202D01*
X154607664Y-87327206D01*
X154492455Y-87413452D01*
X154492452Y-87413455D01*
X154406206Y-87528664D01*
X154406202Y-87528671D01*
X154355908Y-87663517D01*
X154349501Y-87723116D01*
X154349501Y-87723123D01*
X154349500Y-87723135D01*
X154349500Y-89518870D01*
X154349501Y-89518876D01*
X154355908Y-89578483D01*
X154406202Y-89713328D01*
X154406206Y-89713335D01*
X154492452Y-89828544D01*
X154492455Y-89828547D01*
X154607664Y-89914793D01*
X154607671Y-89914797D01*
X154739081Y-89963810D01*
X154795015Y-90005681D01*
X154819432Y-90071145D01*
X154804580Y-90139418D01*
X154783430Y-90167673D01*
X154661503Y-90289600D01*
X154525965Y-90483169D01*
X154525964Y-90483171D01*
X154426098Y-90697335D01*
X154426094Y-90697344D01*
X154364938Y-90925586D01*
X154364936Y-90925596D01*
X154344341Y-91160999D01*
X154344341Y-91161000D01*
X154364936Y-91396403D01*
X154364938Y-91396413D01*
X154426094Y-91624655D01*
X154426096Y-91624659D01*
X154426097Y-91624663D01*
X154491227Y-91764334D01*
X154525965Y-91838830D01*
X154525967Y-91838834D01*
X154575613Y-91909735D01*
X154661505Y-92032401D01*
X154828599Y-92199495D01*
X154925384Y-92267265D01*
X155022165Y-92335032D01*
X155022167Y-92335033D01*
X155022170Y-92335035D01*
X155236337Y-92434903D01*
X155464592Y-92496063D01*
X155652918Y-92512539D01*
X155699999Y-92516659D01*
X155700000Y-92516659D01*
X155700001Y-92516659D01*
X155739234Y-92513226D01*
X155935408Y-92496063D01*
X156163663Y-92434903D01*
X156377830Y-92335035D01*
X156571401Y-92199495D01*
X156738495Y-92032401D01*
X156874035Y-91838830D01*
X156876707Y-91833097D01*
X156922878Y-91780658D01*
X156989091Y-91761500D01*
X157149903Y-91761500D01*
X157216942Y-91781185D01*
X157237584Y-91797819D01*
X157313181Y-91873416D01*
X157346666Y-91934739D01*
X157349500Y-91961097D01*
X157349500Y-98560901D01*
X157329815Y-98627940D01*
X157313182Y-98648582D01*
X157237584Y-98724181D01*
X157176261Y-98757666D01*
X157149902Y-98760500D01*
X156989091Y-98760500D01*
X156922052Y-98740815D01*
X156876711Y-98688909D01*
X156874037Y-98683175D01*
X156874034Y-98683170D01*
X156874033Y-98683169D01*
X156752286Y-98509294D01*
X156738496Y-98489600D01*
X156684054Y-98435158D01*
X156616567Y-98367671D01*
X156583084Y-98306351D01*
X156588068Y-98236659D01*
X156629939Y-98180725D01*
X156660915Y-98163810D01*
X156792331Y-98114796D01*
X156907546Y-98028546D01*
X156993796Y-97913331D01*
X157044091Y-97778483D01*
X157050500Y-97718873D01*
X157050499Y-95923128D01*
X157044091Y-95863517D01*
X156993796Y-95728669D01*
X156993795Y-95728668D01*
X156993793Y-95728664D01*
X156907547Y-95613455D01*
X156907544Y-95613452D01*
X156792335Y-95527206D01*
X156792328Y-95527202D01*
X156657482Y-95476908D01*
X156657483Y-95476908D01*
X156597883Y-95470501D01*
X156597881Y-95470500D01*
X156597873Y-95470500D01*
X156597864Y-95470500D01*
X154802129Y-95470500D01*
X154802123Y-95470501D01*
X154742516Y-95476908D01*
X154607671Y-95527202D01*
X154607664Y-95527206D01*
X154492455Y-95613452D01*
X154492452Y-95613455D01*
X154406206Y-95728664D01*
X154406202Y-95728671D01*
X154355908Y-95863517D01*
X154349501Y-95923116D01*
X154349501Y-95923123D01*
X154349500Y-95923135D01*
X154349500Y-97718870D01*
X154349501Y-97718876D01*
X154355908Y-97778483D01*
X154406202Y-97913328D01*
X154406206Y-97913335D01*
X154492452Y-98028544D01*
X154492455Y-98028547D01*
X154607664Y-98114793D01*
X154607671Y-98114797D01*
X154739081Y-98163810D01*
X154795015Y-98205681D01*
X154819432Y-98271145D01*
X154804580Y-98339418D01*
X154783430Y-98367673D01*
X154661503Y-98489600D01*
X154525965Y-98683170D01*
X154525962Y-98683175D01*
X154523289Y-98688909D01*
X154477115Y-98741346D01*
X154410909Y-98760500D01*
X152489091Y-98760500D01*
X152422052Y-98740815D01*
X152376711Y-98688909D01*
X152374037Y-98683175D01*
X152374034Y-98683170D01*
X152374033Y-98683169D01*
X152252286Y-98509294D01*
X152238496Y-98489600D01*
X152184054Y-98435158D01*
X152116567Y-98367671D01*
X152083084Y-98306351D01*
X152088068Y-98236659D01*
X152129939Y-98180725D01*
X152160915Y-98163810D01*
X152292331Y-98114796D01*
X152407546Y-98028546D01*
X152493796Y-97913331D01*
X152544091Y-97778483D01*
X152550500Y-97718873D01*
X152550499Y-95923128D01*
X152544091Y-95863517D01*
X152493796Y-95728669D01*
X152493795Y-95728668D01*
X152493793Y-95728664D01*
X152407547Y-95613455D01*
X152407544Y-95613452D01*
X152292335Y-95527206D01*
X152292328Y-95527202D01*
X152157482Y-95476908D01*
X152157483Y-95476908D01*
X152097883Y-95470501D01*
X152097881Y-95470500D01*
X152097873Y-95470500D01*
X152097864Y-95470500D01*
X150302129Y-95470500D01*
X150302123Y-95470501D01*
X150242516Y-95476908D01*
X150107671Y-95527202D01*
X150107664Y-95527206D01*
X149992455Y-95613452D01*
X149992452Y-95613455D01*
X149906206Y-95728664D01*
X149906202Y-95728671D01*
X149855908Y-95863517D01*
X149849501Y-95923116D01*
X149849501Y-95923123D01*
X149849500Y-95923135D01*
X149849500Y-97718870D01*
X149849501Y-97718876D01*
X149855908Y-97778483D01*
X149906202Y-97913328D01*
X149906206Y-97913335D01*
X149992452Y-98028544D01*
X149992455Y-98028547D01*
X150107664Y-98114793D01*
X150107671Y-98114797D01*
X150239081Y-98163810D01*
X150295015Y-98205681D01*
X150319432Y-98271145D01*
X150304580Y-98339418D01*
X150283430Y-98367673D01*
X150161503Y-98489600D01*
X150025965Y-98683170D01*
X150025962Y-98683175D01*
X150023289Y-98688909D01*
X149977115Y-98741346D01*
X149910909Y-98760500D01*
X147989091Y-98760500D01*
X147922052Y-98740815D01*
X147876711Y-98688909D01*
X147874037Y-98683175D01*
X147874034Y-98683170D01*
X147874033Y-98683169D01*
X147752286Y-98509294D01*
X147738496Y-98489600D01*
X147684054Y-98435158D01*
X147616567Y-98367671D01*
X147583084Y-98306351D01*
X147588068Y-98236659D01*
X147629939Y-98180725D01*
X147660915Y-98163810D01*
X147792331Y-98114796D01*
X147907546Y-98028546D01*
X147993796Y-97913331D01*
X148044091Y-97778483D01*
X148050500Y-97718873D01*
X148050499Y-95923128D01*
X148044091Y-95863517D01*
X147993796Y-95728669D01*
X147993795Y-95728668D01*
X147993793Y-95728664D01*
X147907547Y-95613455D01*
X147907544Y-95613452D01*
X147792335Y-95527206D01*
X147792328Y-95527202D01*
X147657482Y-95476908D01*
X147657483Y-95476908D01*
X147597883Y-95470501D01*
X147597881Y-95470500D01*
X147597873Y-95470500D01*
X147597864Y-95470500D01*
X145802129Y-95470500D01*
X145802123Y-95470501D01*
X145742516Y-95476908D01*
X145607671Y-95527202D01*
X145607664Y-95527206D01*
X145492455Y-95613452D01*
X145492452Y-95613455D01*
X145406206Y-95728664D01*
X145406202Y-95728671D01*
X145355908Y-95863517D01*
X145349501Y-95923116D01*
X145349501Y-95923123D01*
X145349500Y-95923135D01*
X145349500Y-97718870D01*
X145349501Y-97718876D01*
X145355908Y-97778483D01*
X145406202Y-97913328D01*
X145406206Y-97913335D01*
X145492452Y-98028544D01*
X145492455Y-98028547D01*
X145607664Y-98114793D01*
X145607671Y-98114797D01*
X145739081Y-98163810D01*
X145795015Y-98205681D01*
X145819432Y-98271145D01*
X145804580Y-98339418D01*
X145783430Y-98367673D01*
X145661503Y-98489600D01*
X145525965Y-98683169D01*
X145525964Y-98683171D01*
X145426098Y-98897335D01*
X145426094Y-98897344D01*
X145364938Y-99125586D01*
X145364936Y-99125596D01*
X145344341Y-99360999D01*
X140886214Y-99360999D01*
X140886214Y-83824500D01*
X140905899Y-83757461D01*
X140958703Y-83711706D01*
X141010214Y-83700500D01*
X145714966Y-83700500D01*
X145782005Y-83720185D01*
G37*
%TD.AperFunction*%
D13*
X155700000Y-99361000D03*
X155700000Y-96821000D03*
X151200000Y-99361000D03*
X151200000Y-96821000D03*
X169780000Y-99121000D03*
X167240000Y-99121000D03*
X164700000Y-99121000D03*
X160200000Y-99361000D03*
X160200000Y-96821000D03*
X155700000Y-91161000D03*
X155700000Y-88621000D03*
X178200000Y-91161000D03*
X178200000Y-88621000D03*
X164700000Y-91161000D03*
X164700000Y-88621000D03*
X146700000Y-99361000D03*
X146700000Y-96821000D03*
X173700000Y-91161000D03*
X173700000Y-88621000D03*
X169200000Y-91161000D03*
X169200000Y-88621000D03*
X160200000Y-91161000D03*
X160200000Y-88621000D03*
M02*
