%TF.GenerationSoftware,KiCad,Pcbnew,8.0.5*%
%TF.CreationDate,2024-12-11T17:58:03+10:00*%
%TF.ProjectId,anemometer,616e656d-6f6d-4657-9465-722e6b696361,rev?*%
%TF.SameCoordinates,Original*%
%TF.FileFunction,Legend,Top*%
%TF.FilePolarity,Positive*%
%FSLAX46Y46*%
G04 Gerber Fmt 4.6, Leading zero omitted, Abs format (unit mm)*
G04 Created by KiCad (PCBNEW 8.0.5) date 2024-12-11 17:58:03*
%MOMM*%
%LPD*%
G01*
G04 APERTURE LIST*
%ADD10C,0.150000*%
%ADD11C,0.120000*%
%ADD12C,0.350000*%
G04 APERTURE END LIST*
D10*
X105454819Y-69666666D02*
X106264342Y-69666666D01*
X106264342Y-69666666D02*
X106359580Y-69619047D01*
X106359580Y-69619047D02*
X106407200Y-69571428D01*
X106407200Y-69571428D02*
X106454819Y-69476190D01*
X106454819Y-69476190D02*
X106454819Y-69285714D01*
X106454819Y-69285714D02*
X106407200Y-69190476D01*
X106407200Y-69190476D02*
X106359580Y-69142857D01*
X106359580Y-69142857D02*
X106264342Y-69095238D01*
X106264342Y-69095238D02*
X105454819Y-69095238D01*
X106407200Y-68666666D02*
X106454819Y-68523809D01*
X106454819Y-68523809D02*
X106454819Y-68285714D01*
X106454819Y-68285714D02*
X106407200Y-68190476D01*
X106407200Y-68190476D02*
X106359580Y-68142857D01*
X106359580Y-68142857D02*
X106264342Y-68095238D01*
X106264342Y-68095238D02*
X106169104Y-68095238D01*
X106169104Y-68095238D02*
X106073866Y-68142857D01*
X106073866Y-68142857D02*
X106026247Y-68190476D01*
X106026247Y-68190476D02*
X105978628Y-68285714D01*
X105978628Y-68285714D02*
X105931009Y-68476190D01*
X105931009Y-68476190D02*
X105883390Y-68571428D01*
X105883390Y-68571428D02*
X105835771Y-68619047D01*
X105835771Y-68619047D02*
X105740533Y-68666666D01*
X105740533Y-68666666D02*
X105645295Y-68666666D01*
X105645295Y-68666666D02*
X105550057Y-68619047D01*
X105550057Y-68619047D02*
X105502438Y-68571428D01*
X105502438Y-68571428D02*
X105454819Y-68476190D01*
X105454819Y-68476190D02*
X105454819Y-68238095D01*
X105454819Y-68238095D02*
X105502438Y-68095238D01*
X106454819Y-67142857D02*
X106454819Y-67714285D01*
X106454819Y-67428571D02*
X105454819Y-67428571D01*
X105454819Y-67428571D02*
X105597676Y-67523809D01*
X105597676Y-67523809D02*
X105692914Y-67619047D01*
X105692914Y-67619047D02*
X105740533Y-67714285D01*
X105883390Y-66571428D02*
X105835771Y-66666666D01*
X105835771Y-66666666D02*
X105788152Y-66714285D01*
X105788152Y-66714285D02*
X105692914Y-66761904D01*
X105692914Y-66761904D02*
X105645295Y-66761904D01*
X105645295Y-66761904D02*
X105550057Y-66714285D01*
X105550057Y-66714285D02*
X105502438Y-66666666D01*
X105502438Y-66666666D02*
X105454819Y-66571428D01*
X105454819Y-66571428D02*
X105454819Y-66380952D01*
X105454819Y-66380952D02*
X105502438Y-66285714D01*
X105502438Y-66285714D02*
X105550057Y-66238095D01*
X105550057Y-66238095D02*
X105645295Y-66190476D01*
X105645295Y-66190476D02*
X105692914Y-66190476D01*
X105692914Y-66190476D02*
X105788152Y-66238095D01*
X105788152Y-66238095D02*
X105835771Y-66285714D01*
X105835771Y-66285714D02*
X105883390Y-66380952D01*
X105883390Y-66380952D02*
X105883390Y-66571428D01*
X105883390Y-66571428D02*
X105931009Y-66666666D01*
X105931009Y-66666666D02*
X105978628Y-66714285D01*
X105978628Y-66714285D02*
X106073866Y-66761904D01*
X106073866Y-66761904D02*
X106264342Y-66761904D01*
X106264342Y-66761904D02*
X106359580Y-66714285D01*
X106359580Y-66714285D02*
X106407200Y-66666666D01*
X106407200Y-66666666D02*
X106454819Y-66571428D01*
X106454819Y-66571428D02*
X106454819Y-66380952D01*
X106454819Y-66380952D02*
X106407200Y-66285714D01*
X106407200Y-66285714D02*
X106359580Y-66238095D01*
X106359580Y-66238095D02*
X106264342Y-66190476D01*
X106264342Y-66190476D02*
X106073866Y-66190476D01*
X106073866Y-66190476D02*
X105978628Y-66238095D01*
X105978628Y-66238095D02*
X105931009Y-66285714D01*
X105931009Y-66285714D02*
X105883390Y-66380952D01*
X105883390Y-65619047D02*
X105835771Y-65714285D01*
X105835771Y-65714285D02*
X105788152Y-65761904D01*
X105788152Y-65761904D02*
X105692914Y-65809523D01*
X105692914Y-65809523D02*
X105645295Y-65809523D01*
X105645295Y-65809523D02*
X105550057Y-65761904D01*
X105550057Y-65761904D02*
X105502438Y-65714285D01*
X105502438Y-65714285D02*
X105454819Y-65619047D01*
X105454819Y-65619047D02*
X105454819Y-65428571D01*
X105454819Y-65428571D02*
X105502438Y-65333333D01*
X105502438Y-65333333D02*
X105550057Y-65285714D01*
X105550057Y-65285714D02*
X105645295Y-65238095D01*
X105645295Y-65238095D02*
X105692914Y-65238095D01*
X105692914Y-65238095D02*
X105788152Y-65285714D01*
X105788152Y-65285714D02*
X105835771Y-65333333D01*
X105835771Y-65333333D02*
X105883390Y-65428571D01*
X105883390Y-65428571D02*
X105883390Y-65619047D01*
X105883390Y-65619047D02*
X105931009Y-65714285D01*
X105931009Y-65714285D02*
X105978628Y-65761904D01*
X105978628Y-65761904D02*
X106073866Y-65809523D01*
X106073866Y-65809523D02*
X106264342Y-65809523D01*
X106264342Y-65809523D02*
X106359580Y-65761904D01*
X106359580Y-65761904D02*
X106407200Y-65714285D01*
X106407200Y-65714285D02*
X106454819Y-65619047D01*
X106454819Y-65619047D02*
X106454819Y-65428571D01*
X106454819Y-65428571D02*
X106407200Y-65333333D01*
X106407200Y-65333333D02*
X106359580Y-65285714D01*
X106359580Y-65285714D02*
X106264342Y-65238095D01*
X106264342Y-65238095D02*
X106073866Y-65238095D01*
X106073866Y-65238095D02*
X105978628Y-65285714D01*
X105978628Y-65285714D02*
X105931009Y-65333333D01*
X105931009Y-65333333D02*
X105883390Y-65428571D01*
X106454819Y-64285714D02*
X106454819Y-64857142D01*
X106454819Y-64571428D02*
X105454819Y-64571428D01*
X105454819Y-64571428D02*
X105597676Y-64666666D01*
X105597676Y-64666666D02*
X105692914Y-64761904D01*
X105692914Y-64761904D02*
X105740533Y-64857142D01*
X122407200Y-74261903D02*
X122454819Y-74119046D01*
X122454819Y-74119046D02*
X122454819Y-73880951D01*
X122454819Y-73880951D02*
X122407200Y-73785713D01*
X122407200Y-73785713D02*
X122359580Y-73738094D01*
X122359580Y-73738094D02*
X122264342Y-73690475D01*
X122264342Y-73690475D02*
X122169104Y-73690475D01*
X122169104Y-73690475D02*
X122073866Y-73738094D01*
X122073866Y-73738094D02*
X122026247Y-73785713D01*
X122026247Y-73785713D02*
X121978628Y-73880951D01*
X121978628Y-73880951D02*
X121931009Y-74071427D01*
X121931009Y-74071427D02*
X121883390Y-74166665D01*
X121883390Y-74166665D02*
X121835771Y-74214284D01*
X121835771Y-74214284D02*
X121740533Y-74261903D01*
X121740533Y-74261903D02*
X121645295Y-74261903D01*
X121645295Y-74261903D02*
X121550057Y-74214284D01*
X121550057Y-74214284D02*
X121502438Y-74166665D01*
X121502438Y-74166665D02*
X121454819Y-74071427D01*
X121454819Y-74071427D02*
X121454819Y-73833332D01*
X121454819Y-73833332D02*
X121502438Y-73690475D01*
X122454819Y-73261903D02*
X121454819Y-73261903D01*
X121502438Y-72261904D02*
X121454819Y-72357142D01*
X121454819Y-72357142D02*
X121454819Y-72499999D01*
X121454819Y-72499999D02*
X121502438Y-72642856D01*
X121502438Y-72642856D02*
X121597676Y-72738094D01*
X121597676Y-72738094D02*
X121692914Y-72785713D01*
X121692914Y-72785713D02*
X121883390Y-72833332D01*
X121883390Y-72833332D02*
X122026247Y-72833332D01*
X122026247Y-72833332D02*
X122216723Y-72785713D01*
X122216723Y-72785713D02*
X122311961Y-72738094D01*
X122311961Y-72738094D02*
X122407200Y-72642856D01*
X122407200Y-72642856D02*
X122454819Y-72499999D01*
X122454819Y-72499999D02*
X122454819Y-72404761D01*
X122454819Y-72404761D02*
X122407200Y-72261904D01*
X122407200Y-72261904D02*
X122359580Y-72214285D01*
X122359580Y-72214285D02*
X122026247Y-72214285D01*
X122026247Y-72214285D02*
X122026247Y-72404761D01*
X122454819Y-71785713D02*
X121454819Y-71785713D01*
X122454819Y-71309523D02*
X121454819Y-71309523D01*
X121454819Y-71309523D02*
X122454819Y-70738095D01*
X122454819Y-70738095D02*
X121454819Y-70738095D01*
X122454819Y-69738095D02*
X122454819Y-70309523D01*
X122454819Y-70023809D02*
X121454819Y-70023809D01*
X121454819Y-70023809D02*
X121597676Y-70119047D01*
X121597676Y-70119047D02*
X121692914Y-70214285D01*
X121692914Y-70214285D02*
X121740533Y-70309523D01*
D11*
%TO.C,US1881*%
X107670000Y-66145000D02*
X109000000Y-66145000D01*
X107670000Y-67475000D02*
X107670000Y-66145000D01*
X107670000Y-68745000D02*
X107670000Y-73885000D01*
X107670000Y-68745000D02*
X110330000Y-68745000D01*
X107670000Y-73885000D02*
X110330000Y-73885000D01*
X110330000Y-68745000D02*
X110330000Y-73885000D01*
%TO.C,SIGIN1*%
X117670000Y-66145000D02*
X119000000Y-66145000D01*
X117670000Y-67475000D02*
X117670000Y-66145000D01*
X117670000Y-68745000D02*
X117670000Y-73885000D01*
X117670000Y-68745000D02*
X120330000Y-68745000D01*
X117670000Y-73885000D02*
X120330000Y-73885000D01*
X120330000Y-68745000D02*
X120330000Y-73885000D01*
%TO.C,R1*%
X115500000Y-67130000D02*
X115500000Y-68080000D01*
X116420000Y-68080000D02*
X114580000Y-68080000D01*
X114580000Y-68080000D02*
X114580000Y-71920000D01*
X116420000Y-71920000D02*
X116420000Y-68080000D01*
X114580000Y-71920000D02*
X116420000Y-71920000D01*
X115500000Y-72870000D02*
X115500000Y-71920000D01*
%TO.C,C1*%
X113555000Y-67730000D02*
X113570000Y-67730000D01*
X111430000Y-67730000D02*
X111445000Y-67730000D01*
X113570000Y-72270000D02*
X113570000Y-67730000D01*
X113555000Y-72270000D02*
X113570000Y-72270000D01*
X111430000Y-72270000D02*
X111430000Y-67730000D01*
X111430000Y-72270000D02*
X111445000Y-72270000D01*
%TD*%
D12*
X109000000Y-67475000D03*
X109000000Y-70015000D03*
X109000000Y-72555000D03*
X119000000Y-67475000D03*
X119000000Y-70015000D03*
X119000000Y-72555000D03*
X115500000Y-66190000D03*
X115500000Y-73810000D03*
X112500000Y-67500000D03*
X112500000Y-72500000D03*
M02*
