%TF.GenerationSoftware,KiCad,Pcbnew,8.0.5*%
%TF.CreationDate,2024-12-11T18:44:50+10:00*%
%TF.ProjectId,powerSystem,706f7765-7253-4797-9374-656d2e6b6963,rev?*%
%TF.SameCoordinates,Original*%
%TF.FileFunction,Legend,Top*%
%TF.FilePolarity,Positive*%
%FSLAX46Y46*%
G04 Gerber Fmt 4.6, Leading zero omitted, Abs format (unit mm)*
G04 Created by KiCad (PCBNEW 8.0.5) date 2024-12-11 18:44:50*
%MOMM*%
%LPD*%
G01*
G04 APERTURE LIST*
%ADD10C,0.150000*%
%ADD11C,0.120000*%
%ADD12C,0.350000*%
G04 APERTURE END LIST*
D10*
X169870616Y-97234220D02*
X169870616Y-96472316D01*
X170251569Y-96853268D02*
X169489664Y-96853268D01*
X169251569Y-96091363D02*
X169251569Y-95472316D01*
X169251569Y-95472316D02*
X169632521Y-95805649D01*
X169632521Y-95805649D02*
X169632521Y-95662792D01*
X169632521Y-95662792D02*
X169680140Y-95567554D01*
X169680140Y-95567554D02*
X169727759Y-95519935D01*
X169727759Y-95519935D02*
X169822997Y-95472316D01*
X169822997Y-95472316D02*
X170061092Y-95472316D01*
X170061092Y-95472316D02*
X170156330Y-95519935D01*
X170156330Y-95519935D02*
X170203950Y-95567554D01*
X170203950Y-95567554D02*
X170251569Y-95662792D01*
X170251569Y-95662792D02*
X170251569Y-95948506D01*
X170251569Y-95948506D02*
X170203950Y-96043744D01*
X170203950Y-96043744D02*
X170156330Y-96091363D01*
X170156330Y-95043744D02*
X170203950Y-94996125D01*
X170203950Y-94996125D02*
X170251569Y-95043744D01*
X170251569Y-95043744D02*
X170203950Y-95091363D01*
X170203950Y-95091363D02*
X170156330Y-95043744D01*
X170156330Y-95043744D02*
X170251569Y-95043744D01*
X169251569Y-94662792D02*
X169251569Y-94043745D01*
X169251569Y-94043745D02*
X169632521Y-94377078D01*
X169632521Y-94377078D02*
X169632521Y-94234221D01*
X169632521Y-94234221D02*
X169680140Y-94138983D01*
X169680140Y-94138983D02*
X169727759Y-94091364D01*
X169727759Y-94091364D02*
X169822997Y-94043745D01*
X169822997Y-94043745D02*
X170061092Y-94043745D01*
X170061092Y-94043745D02*
X170156330Y-94091364D01*
X170156330Y-94091364D02*
X170203950Y-94138983D01*
X170203950Y-94138983D02*
X170251569Y-94234221D01*
X170251569Y-94234221D02*
X170251569Y-94519935D01*
X170251569Y-94519935D02*
X170203950Y-94615173D01*
X170203950Y-94615173D02*
X170156330Y-94662792D01*
X169251569Y-93758030D02*
X170251569Y-93424697D01*
X170251569Y-93424697D02*
X169251569Y-93091364D01*
X164219188Y-96710411D02*
X164171569Y-96805649D01*
X164171569Y-96805649D02*
X164171569Y-96948506D01*
X164171569Y-96948506D02*
X164219188Y-97091363D01*
X164219188Y-97091363D02*
X164314426Y-97186601D01*
X164314426Y-97186601D02*
X164409664Y-97234220D01*
X164409664Y-97234220D02*
X164600140Y-97281839D01*
X164600140Y-97281839D02*
X164742997Y-97281839D01*
X164742997Y-97281839D02*
X164933473Y-97234220D01*
X164933473Y-97234220D02*
X165028711Y-97186601D01*
X165028711Y-97186601D02*
X165123950Y-97091363D01*
X165123950Y-97091363D02*
X165171569Y-96948506D01*
X165171569Y-96948506D02*
X165171569Y-96853268D01*
X165171569Y-96853268D02*
X165123950Y-96710411D01*
X165123950Y-96710411D02*
X165076330Y-96662792D01*
X165076330Y-96662792D02*
X164742997Y-96662792D01*
X164742997Y-96662792D02*
X164742997Y-96853268D01*
X165171569Y-96234220D02*
X164171569Y-96234220D01*
X164171569Y-96234220D02*
X165171569Y-95662792D01*
X165171569Y-95662792D02*
X164171569Y-95662792D01*
X165171569Y-95186601D02*
X164171569Y-95186601D01*
X164171569Y-95186601D02*
X164171569Y-94948506D01*
X164171569Y-94948506D02*
X164219188Y-94805649D01*
X164219188Y-94805649D02*
X164314426Y-94710411D01*
X164314426Y-94710411D02*
X164409664Y-94662792D01*
X164409664Y-94662792D02*
X164600140Y-94615173D01*
X164600140Y-94615173D02*
X164742997Y-94615173D01*
X164742997Y-94615173D02*
X164933473Y-94662792D01*
X164933473Y-94662792D02*
X165028711Y-94710411D01*
X165028711Y-94710411D02*
X165123950Y-94805649D01*
X165123950Y-94805649D02*
X165171569Y-94948506D01*
X165171569Y-94948506D02*
X165171569Y-95186601D01*
X167330616Y-97234220D02*
X167330616Y-96472316D01*
X167711569Y-96853268D02*
X166949664Y-96853268D01*
X166711569Y-95519935D02*
X166711569Y-95996125D01*
X166711569Y-95996125D02*
X167187759Y-96043744D01*
X167187759Y-96043744D02*
X167140140Y-95996125D01*
X167140140Y-95996125D02*
X167092521Y-95900887D01*
X167092521Y-95900887D02*
X167092521Y-95662792D01*
X167092521Y-95662792D02*
X167140140Y-95567554D01*
X167140140Y-95567554D02*
X167187759Y-95519935D01*
X167187759Y-95519935D02*
X167282997Y-95472316D01*
X167282997Y-95472316D02*
X167521092Y-95472316D01*
X167521092Y-95472316D02*
X167616330Y-95519935D01*
X167616330Y-95519935D02*
X167663950Y-95567554D01*
X167663950Y-95567554D02*
X167711569Y-95662792D01*
X167711569Y-95662792D02*
X167711569Y-95900887D01*
X167711569Y-95900887D02*
X167663950Y-95996125D01*
X167663950Y-95996125D02*
X167616330Y-96043744D01*
X166711569Y-95186601D02*
X167711569Y-94853268D01*
X167711569Y-94853268D02*
X166711569Y-94519935D01*
X154961905Y-94707069D02*
X154961905Y-93707069D01*
X154961905Y-93707069D02*
X155342857Y-93707069D01*
X155342857Y-93707069D02*
X155438095Y-93754688D01*
X155438095Y-93754688D02*
X155485714Y-93802307D01*
X155485714Y-93802307D02*
X155533333Y-93897545D01*
X155533333Y-93897545D02*
X155533333Y-94040402D01*
X155533333Y-94040402D02*
X155485714Y-94135640D01*
X155485714Y-94135640D02*
X155438095Y-94183259D01*
X155438095Y-94183259D02*
X155342857Y-94230878D01*
X155342857Y-94230878D02*
X154961905Y-94230878D01*
X155866667Y-93707069D02*
X156485714Y-93707069D01*
X156485714Y-93707069D02*
X156152381Y-94088021D01*
X156152381Y-94088021D02*
X156295238Y-94088021D01*
X156295238Y-94088021D02*
X156390476Y-94135640D01*
X156390476Y-94135640D02*
X156438095Y-94183259D01*
X156438095Y-94183259D02*
X156485714Y-94278497D01*
X156485714Y-94278497D02*
X156485714Y-94516592D01*
X156485714Y-94516592D02*
X156438095Y-94611830D01*
X156438095Y-94611830D02*
X156390476Y-94659450D01*
X156390476Y-94659450D02*
X156295238Y-94707069D01*
X156295238Y-94707069D02*
X156009524Y-94707069D01*
X156009524Y-94707069D02*
X155914286Y-94659450D01*
X155914286Y-94659450D02*
X155866667Y-94611830D01*
X150461905Y-94945819D02*
X150461905Y-93945819D01*
X150461905Y-93945819D02*
X150842857Y-93945819D01*
X150842857Y-93945819D02*
X150938095Y-93993438D01*
X150938095Y-93993438D02*
X150985714Y-94041057D01*
X150985714Y-94041057D02*
X151033333Y-94136295D01*
X151033333Y-94136295D02*
X151033333Y-94279152D01*
X151033333Y-94279152D02*
X150985714Y-94374390D01*
X150985714Y-94374390D02*
X150938095Y-94422009D01*
X150938095Y-94422009D02*
X150842857Y-94469628D01*
X150842857Y-94469628D02*
X150461905Y-94469628D01*
X151414286Y-94041057D02*
X151461905Y-93993438D01*
X151461905Y-93993438D02*
X151557143Y-93945819D01*
X151557143Y-93945819D02*
X151795238Y-93945819D01*
X151795238Y-93945819D02*
X151890476Y-93993438D01*
X151890476Y-93993438D02*
X151938095Y-94041057D01*
X151938095Y-94041057D02*
X151985714Y-94136295D01*
X151985714Y-94136295D02*
X151985714Y-94231533D01*
X151985714Y-94231533D02*
X151938095Y-94374390D01*
X151938095Y-94374390D02*
X151366667Y-94945819D01*
X151366667Y-94945819D02*
X151985714Y-94945819D01*
X159461905Y-94707069D02*
X159461905Y-93707069D01*
X159461905Y-93707069D02*
X159842857Y-93707069D01*
X159842857Y-93707069D02*
X159938095Y-93754688D01*
X159938095Y-93754688D02*
X159985714Y-93802307D01*
X159985714Y-93802307D02*
X160033333Y-93897545D01*
X160033333Y-93897545D02*
X160033333Y-94040402D01*
X160033333Y-94040402D02*
X159985714Y-94135640D01*
X159985714Y-94135640D02*
X159938095Y-94183259D01*
X159938095Y-94183259D02*
X159842857Y-94230878D01*
X159842857Y-94230878D02*
X159461905Y-94230878D01*
X160890476Y-94040402D02*
X160890476Y-94707069D01*
X160652381Y-93659450D02*
X160414286Y-94373735D01*
X160414286Y-94373735D02*
X161033333Y-94373735D01*
X154200000Y-86698200D02*
X154342857Y-86745819D01*
X154342857Y-86745819D02*
X154580952Y-86745819D01*
X154580952Y-86745819D02*
X154676190Y-86698200D01*
X154676190Y-86698200D02*
X154723809Y-86650580D01*
X154723809Y-86650580D02*
X154771428Y-86555342D01*
X154771428Y-86555342D02*
X154771428Y-86460104D01*
X154771428Y-86460104D02*
X154723809Y-86364866D01*
X154723809Y-86364866D02*
X154676190Y-86317247D01*
X154676190Y-86317247D02*
X154580952Y-86269628D01*
X154580952Y-86269628D02*
X154390476Y-86222009D01*
X154390476Y-86222009D02*
X154295238Y-86174390D01*
X154295238Y-86174390D02*
X154247619Y-86126771D01*
X154247619Y-86126771D02*
X154200000Y-86031533D01*
X154200000Y-86031533D02*
X154200000Y-85936295D01*
X154200000Y-85936295D02*
X154247619Y-85841057D01*
X154247619Y-85841057D02*
X154295238Y-85793438D01*
X154295238Y-85793438D02*
X154390476Y-85745819D01*
X154390476Y-85745819D02*
X154628571Y-85745819D01*
X154628571Y-85745819D02*
X154771428Y-85793438D01*
X155200000Y-86745819D02*
X155200000Y-85745819D01*
X155200000Y-85745819D02*
X155438095Y-85745819D01*
X155438095Y-85745819D02*
X155580952Y-85793438D01*
X155580952Y-85793438D02*
X155676190Y-85888676D01*
X155676190Y-85888676D02*
X155723809Y-85983914D01*
X155723809Y-85983914D02*
X155771428Y-86174390D01*
X155771428Y-86174390D02*
X155771428Y-86317247D01*
X155771428Y-86317247D02*
X155723809Y-86507723D01*
X155723809Y-86507723D02*
X155676190Y-86602961D01*
X155676190Y-86602961D02*
X155580952Y-86698200D01*
X155580952Y-86698200D02*
X155438095Y-86745819D01*
X155438095Y-86745819D02*
X155200000Y-86745819D01*
X156200000Y-86745819D02*
X156200000Y-85745819D01*
X157199999Y-86745819D02*
X156628571Y-86745819D01*
X156914285Y-86745819D02*
X156914285Y-85745819D01*
X156914285Y-85745819D02*
X156819047Y-85888676D01*
X156819047Y-85888676D02*
X156723809Y-85983914D01*
X156723809Y-85983914D02*
X156628571Y-86031533D01*
X176414286Y-86459450D02*
X176557143Y-86507069D01*
X176557143Y-86507069D02*
X176795238Y-86507069D01*
X176795238Y-86507069D02*
X176890476Y-86459450D01*
X176890476Y-86459450D02*
X176938095Y-86411830D01*
X176938095Y-86411830D02*
X176985714Y-86316592D01*
X176985714Y-86316592D02*
X176985714Y-86221354D01*
X176985714Y-86221354D02*
X176938095Y-86126116D01*
X176938095Y-86126116D02*
X176890476Y-86078497D01*
X176890476Y-86078497D02*
X176795238Y-86030878D01*
X176795238Y-86030878D02*
X176604762Y-85983259D01*
X176604762Y-85983259D02*
X176509524Y-85935640D01*
X176509524Y-85935640D02*
X176461905Y-85888021D01*
X176461905Y-85888021D02*
X176414286Y-85792783D01*
X176414286Y-85792783D02*
X176414286Y-85697545D01*
X176414286Y-85697545D02*
X176461905Y-85602307D01*
X176461905Y-85602307D02*
X176509524Y-85554688D01*
X176509524Y-85554688D02*
X176604762Y-85507069D01*
X176604762Y-85507069D02*
X176842857Y-85507069D01*
X176842857Y-85507069D02*
X176985714Y-85554688D01*
X177414286Y-86507069D02*
X177414286Y-85507069D01*
X177414286Y-85507069D02*
X177652381Y-85507069D01*
X177652381Y-85507069D02*
X177795238Y-85554688D01*
X177795238Y-85554688D02*
X177890476Y-85649926D01*
X177890476Y-85649926D02*
X177938095Y-85745164D01*
X177938095Y-85745164D02*
X177985714Y-85935640D01*
X177985714Y-85935640D02*
X177985714Y-86078497D01*
X177985714Y-86078497D02*
X177938095Y-86268973D01*
X177938095Y-86268973D02*
X177890476Y-86364211D01*
X177890476Y-86364211D02*
X177795238Y-86459450D01*
X177795238Y-86459450D02*
X177652381Y-86507069D01*
X177652381Y-86507069D02*
X177414286Y-86507069D01*
X178604762Y-85507069D02*
X178795238Y-85507069D01*
X178795238Y-85507069D02*
X178890476Y-85554688D01*
X178890476Y-85554688D02*
X178985714Y-85649926D01*
X178985714Y-85649926D02*
X179033333Y-85840402D01*
X179033333Y-85840402D02*
X179033333Y-86173735D01*
X179033333Y-86173735D02*
X178985714Y-86364211D01*
X178985714Y-86364211D02*
X178890476Y-86459450D01*
X178890476Y-86459450D02*
X178795238Y-86507069D01*
X178795238Y-86507069D02*
X178604762Y-86507069D01*
X178604762Y-86507069D02*
X178509524Y-86459450D01*
X178509524Y-86459450D02*
X178414286Y-86364211D01*
X178414286Y-86364211D02*
X178366667Y-86173735D01*
X178366667Y-86173735D02*
X178366667Y-85840402D01*
X178366667Y-85840402D02*
X178414286Y-85649926D01*
X178414286Y-85649926D02*
X178509524Y-85554688D01*
X178509524Y-85554688D02*
X178604762Y-85507069D01*
X179414286Y-85602307D02*
X179461905Y-85554688D01*
X179461905Y-85554688D02*
X179557143Y-85507069D01*
X179557143Y-85507069D02*
X179795238Y-85507069D01*
X179795238Y-85507069D02*
X179890476Y-85554688D01*
X179890476Y-85554688D02*
X179938095Y-85602307D01*
X179938095Y-85602307D02*
X179985714Y-85697545D01*
X179985714Y-85697545D02*
X179985714Y-85792783D01*
X179985714Y-85792783D02*
X179938095Y-85935640D01*
X179938095Y-85935640D02*
X179366667Y-86507069D01*
X179366667Y-86507069D02*
X179985714Y-86507069D01*
X163152381Y-86745819D02*
X163152381Y-85745819D01*
X163152381Y-85745819D02*
X163533333Y-85745819D01*
X163533333Y-85745819D02*
X163628571Y-85793438D01*
X163628571Y-85793438D02*
X163676190Y-85841057D01*
X163676190Y-85841057D02*
X163723809Y-85936295D01*
X163723809Y-85936295D02*
X163723809Y-86079152D01*
X163723809Y-86079152D02*
X163676190Y-86174390D01*
X163676190Y-86174390D02*
X163628571Y-86222009D01*
X163628571Y-86222009D02*
X163533333Y-86269628D01*
X163533333Y-86269628D02*
X163152381Y-86269628D01*
X164152381Y-86745819D02*
X164152381Y-85745819D01*
X164152381Y-85745819D02*
X164485714Y-86460104D01*
X164485714Y-86460104D02*
X164819047Y-85745819D01*
X164819047Y-85745819D02*
X164819047Y-86745819D01*
X165295238Y-86745819D02*
X165295238Y-85745819D01*
X166295237Y-86745819D02*
X165723809Y-86745819D01*
X166009523Y-86745819D02*
X166009523Y-85745819D01*
X166009523Y-85745819D02*
X165914285Y-85888676D01*
X165914285Y-85888676D02*
X165819047Y-85983914D01*
X165819047Y-85983914D02*
X165723809Y-86031533D01*
X145961905Y-94945819D02*
X145961905Y-93945819D01*
X145961905Y-93945819D02*
X146342857Y-93945819D01*
X146342857Y-93945819D02*
X146438095Y-93993438D01*
X146438095Y-93993438D02*
X146485714Y-94041057D01*
X146485714Y-94041057D02*
X146533333Y-94136295D01*
X146533333Y-94136295D02*
X146533333Y-94279152D01*
X146533333Y-94279152D02*
X146485714Y-94374390D01*
X146485714Y-94374390D02*
X146438095Y-94422009D01*
X146438095Y-94422009D02*
X146342857Y-94469628D01*
X146342857Y-94469628D02*
X145961905Y-94469628D01*
X147485714Y-94945819D02*
X146914286Y-94945819D01*
X147200000Y-94945819D02*
X147200000Y-93945819D01*
X147200000Y-93945819D02*
X147104762Y-94088676D01*
X147104762Y-94088676D02*
X147009524Y-94183914D01*
X147009524Y-94183914D02*
X146914286Y-94231533D01*
X172200000Y-86459450D02*
X172342857Y-86507069D01*
X172342857Y-86507069D02*
X172580952Y-86507069D01*
X172580952Y-86507069D02*
X172676190Y-86459450D01*
X172676190Y-86459450D02*
X172723809Y-86411830D01*
X172723809Y-86411830D02*
X172771428Y-86316592D01*
X172771428Y-86316592D02*
X172771428Y-86221354D01*
X172771428Y-86221354D02*
X172723809Y-86126116D01*
X172723809Y-86126116D02*
X172676190Y-86078497D01*
X172676190Y-86078497D02*
X172580952Y-86030878D01*
X172580952Y-86030878D02*
X172390476Y-85983259D01*
X172390476Y-85983259D02*
X172295238Y-85935640D01*
X172295238Y-85935640D02*
X172247619Y-85888021D01*
X172247619Y-85888021D02*
X172200000Y-85792783D01*
X172200000Y-85792783D02*
X172200000Y-85697545D01*
X172200000Y-85697545D02*
X172247619Y-85602307D01*
X172247619Y-85602307D02*
X172295238Y-85554688D01*
X172295238Y-85554688D02*
X172390476Y-85507069D01*
X172390476Y-85507069D02*
X172628571Y-85507069D01*
X172628571Y-85507069D02*
X172771428Y-85554688D01*
X173200000Y-86507069D02*
X173200000Y-85507069D01*
X173200000Y-85507069D02*
X173438095Y-85507069D01*
X173438095Y-85507069D02*
X173580952Y-85554688D01*
X173580952Y-85554688D02*
X173676190Y-85649926D01*
X173676190Y-85649926D02*
X173723809Y-85745164D01*
X173723809Y-85745164D02*
X173771428Y-85935640D01*
X173771428Y-85935640D02*
X173771428Y-86078497D01*
X173771428Y-86078497D02*
X173723809Y-86268973D01*
X173723809Y-86268973D02*
X173676190Y-86364211D01*
X173676190Y-86364211D02*
X173580952Y-86459450D01*
X173580952Y-86459450D02*
X173438095Y-86507069D01*
X173438095Y-86507069D02*
X173200000Y-86507069D01*
X174200000Y-86507069D02*
X174200000Y-85507069D01*
X174628571Y-85602307D02*
X174676190Y-85554688D01*
X174676190Y-85554688D02*
X174771428Y-85507069D01*
X174771428Y-85507069D02*
X175009523Y-85507069D01*
X175009523Y-85507069D02*
X175104761Y-85554688D01*
X175104761Y-85554688D02*
X175152380Y-85602307D01*
X175152380Y-85602307D02*
X175199999Y-85697545D01*
X175199999Y-85697545D02*
X175199999Y-85792783D01*
X175199999Y-85792783D02*
X175152380Y-85935640D01*
X175152380Y-85935640D02*
X174580952Y-86507069D01*
X174580952Y-86507069D02*
X175199999Y-86507069D01*
X167366667Y-86745819D02*
X167366667Y-85745819D01*
X167366667Y-85745819D02*
X167747619Y-85745819D01*
X167747619Y-85745819D02*
X167842857Y-85793438D01*
X167842857Y-85793438D02*
X167890476Y-85841057D01*
X167890476Y-85841057D02*
X167938095Y-85936295D01*
X167938095Y-85936295D02*
X167938095Y-86079152D01*
X167938095Y-86079152D02*
X167890476Y-86174390D01*
X167890476Y-86174390D02*
X167842857Y-86222009D01*
X167842857Y-86222009D02*
X167747619Y-86269628D01*
X167747619Y-86269628D02*
X167366667Y-86269628D01*
X168366667Y-86745819D02*
X168366667Y-85745819D01*
X168366667Y-85745819D02*
X168700000Y-86460104D01*
X168700000Y-86460104D02*
X169033333Y-85745819D01*
X169033333Y-85745819D02*
X169033333Y-86745819D01*
X169700000Y-85745819D02*
X169890476Y-85745819D01*
X169890476Y-85745819D02*
X169985714Y-85793438D01*
X169985714Y-85793438D02*
X170080952Y-85888676D01*
X170080952Y-85888676D02*
X170128571Y-86079152D01*
X170128571Y-86079152D02*
X170128571Y-86412485D01*
X170128571Y-86412485D02*
X170080952Y-86602961D01*
X170080952Y-86602961D02*
X169985714Y-86698200D01*
X169985714Y-86698200D02*
X169890476Y-86745819D01*
X169890476Y-86745819D02*
X169700000Y-86745819D01*
X169700000Y-86745819D02*
X169604762Y-86698200D01*
X169604762Y-86698200D02*
X169509524Y-86602961D01*
X169509524Y-86602961D02*
X169461905Y-86412485D01*
X169461905Y-86412485D02*
X169461905Y-86079152D01*
X169461905Y-86079152D02*
X169509524Y-85888676D01*
X169509524Y-85888676D02*
X169604762Y-85793438D01*
X169604762Y-85793438D02*
X169700000Y-85745819D01*
X171080952Y-86745819D02*
X170509524Y-86745819D01*
X170795238Y-86745819D02*
X170795238Y-85745819D01*
X170795238Y-85745819D02*
X170700000Y-85888676D01*
X170700000Y-85888676D02*
X170604762Y-85983914D01*
X170604762Y-85983914D02*
X170509524Y-86031533D01*
X158414286Y-86698200D02*
X158557143Y-86745819D01*
X158557143Y-86745819D02*
X158795238Y-86745819D01*
X158795238Y-86745819D02*
X158890476Y-86698200D01*
X158890476Y-86698200D02*
X158938095Y-86650580D01*
X158938095Y-86650580D02*
X158985714Y-86555342D01*
X158985714Y-86555342D02*
X158985714Y-86460104D01*
X158985714Y-86460104D02*
X158938095Y-86364866D01*
X158938095Y-86364866D02*
X158890476Y-86317247D01*
X158890476Y-86317247D02*
X158795238Y-86269628D01*
X158795238Y-86269628D02*
X158604762Y-86222009D01*
X158604762Y-86222009D02*
X158509524Y-86174390D01*
X158509524Y-86174390D02*
X158461905Y-86126771D01*
X158461905Y-86126771D02*
X158414286Y-86031533D01*
X158414286Y-86031533D02*
X158414286Y-85936295D01*
X158414286Y-85936295D02*
X158461905Y-85841057D01*
X158461905Y-85841057D02*
X158509524Y-85793438D01*
X158509524Y-85793438D02*
X158604762Y-85745819D01*
X158604762Y-85745819D02*
X158842857Y-85745819D01*
X158842857Y-85745819D02*
X158985714Y-85793438D01*
X159414286Y-86745819D02*
X159414286Y-85745819D01*
X159414286Y-85745819D02*
X159652381Y-85745819D01*
X159652381Y-85745819D02*
X159795238Y-85793438D01*
X159795238Y-85793438D02*
X159890476Y-85888676D01*
X159890476Y-85888676D02*
X159938095Y-85983914D01*
X159938095Y-85983914D02*
X159985714Y-86174390D01*
X159985714Y-86174390D02*
X159985714Y-86317247D01*
X159985714Y-86317247D02*
X159938095Y-86507723D01*
X159938095Y-86507723D02*
X159890476Y-86602961D01*
X159890476Y-86602961D02*
X159795238Y-86698200D01*
X159795238Y-86698200D02*
X159652381Y-86745819D01*
X159652381Y-86745819D02*
X159414286Y-86745819D01*
X160604762Y-85745819D02*
X160795238Y-85745819D01*
X160795238Y-85745819D02*
X160890476Y-85793438D01*
X160890476Y-85793438D02*
X160985714Y-85888676D01*
X160985714Y-85888676D02*
X161033333Y-86079152D01*
X161033333Y-86079152D02*
X161033333Y-86412485D01*
X161033333Y-86412485D02*
X160985714Y-86602961D01*
X160985714Y-86602961D02*
X160890476Y-86698200D01*
X160890476Y-86698200D02*
X160795238Y-86745819D01*
X160795238Y-86745819D02*
X160604762Y-86745819D01*
X160604762Y-86745819D02*
X160509524Y-86698200D01*
X160509524Y-86698200D02*
X160414286Y-86602961D01*
X160414286Y-86602961D02*
X160366667Y-86412485D01*
X160366667Y-86412485D02*
X160366667Y-86079152D01*
X160366667Y-86079152D02*
X160414286Y-85888676D01*
X160414286Y-85888676D02*
X160509524Y-85793438D01*
X160509524Y-85793438D02*
X160604762Y-85745819D01*
X161985714Y-86745819D02*
X161414286Y-86745819D01*
X161700000Y-86745819D02*
X161700000Y-85745819D01*
X161700000Y-85745819D02*
X161604762Y-85888676D01*
X161604762Y-85888676D02*
X161509524Y-85983914D01*
X161509524Y-85983914D02*
X161414286Y-86031533D01*
D11*
%TO.C,P3*%
X157030000Y-98091000D02*
X157030000Y-100691000D01*
X154370000Y-100691000D02*
X157030000Y-100691000D01*
X154370000Y-98091000D02*
X157030000Y-98091000D01*
X154370000Y-98091000D02*
X154370000Y-100691000D01*
X154370000Y-96821000D02*
X154370000Y-95491000D01*
X154370000Y-95491000D02*
X155700000Y-95491000D01*
%TO.C,P2*%
X152530000Y-98091000D02*
X152530000Y-100691000D01*
X149870000Y-100691000D02*
X152530000Y-100691000D01*
X149870000Y-98091000D02*
X152530000Y-98091000D01*
X149870000Y-98091000D02*
X149870000Y-100691000D01*
X149870000Y-96821000D02*
X149870000Y-95491000D01*
X149870000Y-95491000D02*
X151200000Y-95491000D01*
%TO.C,SIGOUT1*%
X171110000Y-100451000D02*
X171110000Y-97791000D01*
X165970000Y-100451000D02*
X171110000Y-100451000D01*
X165970000Y-100451000D02*
X165970000Y-97791000D01*
X165970000Y-97791000D02*
X171110000Y-97791000D01*
X164700000Y-100451000D02*
X163370000Y-100451000D01*
X163370000Y-100451000D02*
X163370000Y-99121000D01*
%TO.C,P4*%
X161530000Y-98091000D02*
X161530000Y-100691000D01*
X158870000Y-100691000D02*
X161530000Y-100691000D01*
X158870000Y-98091000D02*
X161530000Y-98091000D01*
X158870000Y-98091000D02*
X158870000Y-100691000D01*
X158870000Y-96821000D02*
X158870000Y-95491000D01*
X158870000Y-95491000D02*
X160200000Y-95491000D01*
%TO.C,SDI1*%
X157030000Y-89891000D02*
X157030000Y-92491000D01*
X154370000Y-92491000D02*
X157030000Y-92491000D01*
X154370000Y-89891000D02*
X157030000Y-89891000D01*
X154370000Y-89891000D02*
X154370000Y-92491000D01*
X154370000Y-88621000D02*
X154370000Y-87291000D01*
X154370000Y-87291000D02*
X155700000Y-87291000D01*
%TO.C,SDO2*%
X179530000Y-89891000D02*
X179530000Y-92491000D01*
X176870000Y-92491000D02*
X179530000Y-92491000D01*
X176870000Y-89891000D02*
X179530000Y-89891000D01*
X176870000Y-89891000D02*
X176870000Y-92491000D01*
X176870000Y-88621000D02*
X176870000Y-87291000D01*
X176870000Y-87291000D02*
X178200000Y-87291000D01*
%TO.C,PMI1*%
X166030000Y-89891000D02*
X166030000Y-92491000D01*
X163370000Y-92491000D02*
X166030000Y-92491000D01*
X163370000Y-89891000D02*
X166030000Y-89891000D01*
X163370000Y-89891000D02*
X163370000Y-92491000D01*
X163370000Y-88621000D02*
X163370000Y-87291000D01*
X163370000Y-87291000D02*
X164700000Y-87291000D01*
%TO.C,P1*%
X148030000Y-98091000D02*
X148030000Y-100691000D01*
X145370000Y-100691000D02*
X148030000Y-100691000D01*
X145370000Y-98091000D02*
X148030000Y-98091000D01*
X145370000Y-98091000D02*
X145370000Y-100691000D01*
X145370000Y-96821000D02*
X145370000Y-95491000D01*
X145370000Y-95491000D02*
X146700000Y-95491000D01*
%TO.C,SDI2*%
X175030000Y-89891000D02*
X175030000Y-92491000D01*
X172370000Y-92491000D02*
X175030000Y-92491000D01*
X172370000Y-89891000D02*
X175030000Y-89891000D01*
X172370000Y-89891000D02*
X172370000Y-92491000D01*
X172370000Y-88621000D02*
X172370000Y-87291000D01*
X172370000Y-87291000D02*
X173700000Y-87291000D01*
%TO.C,PMO1*%
X170530000Y-89891000D02*
X170530000Y-92491000D01*
X167870000Y-92491000D02*
X170530000Y-92491000D01*
X167870000Y-89891000D02*
X170530000Y-89891000D01*
X167870000Y-89891000D02*
X167870000Y-92491000D01*
X167870000Y-88621000D02*
X167870000Y-87291000D01*
X167870000Y-87291000D02*
X169200000Y-87291000D01*
%TO.C,SDO1*%
X161530000Y-89891000D02*
X161530000Y-92491000D01*
X158870000Y-92491000D02*
X161530000Y-92491000D01*
X158870000Y-89891000D02*
X161530000Y-89891000D01*
X158870000Y-89891000D02*
X158870000Y-92491000D01*
X158870000Y-88621000D02*
X158870000Y-87291000D01*
X158870000Y-87291000D02*
X160200000Y-87291000D01*
%TD*%
D12*
X155700000Y-99361000D03*
X155700000Y-96821000D03*
X151200000Y-99361000D03*
X151200000Y-96821000D03*
X169780000Y-99121000D03*
X167240000Y-99121000D03*
X164700000Y-99121000D03*
X160200000Y-99361000D03*
X160200000Y-96821000D03*
X155700000Y-91161000D03*
X155700000Y-88621000D03*
X178200000Y-91161000D03*
X178200000Y-88621000D03*
X164700000Y-91161000D03*
X164700000Y-88621000D03*
X146700000Y-99361000D03*
X146700000Y-96821000D03*
X173700000Y-91161000D03*
X173700000Y-88621000D03*
X169200000Y-91161000D03*
X169200000Y-88621000D03*
X160200000Y-91161000D03*
X160200000Y-88621000D03*
M02*
