M48
METRIC,TZ
T1C1.000
%
G90
G05
T1
X146700Y-96821
X146700Y-99361
X151200Y-96821
X151200Y-99361
X155700Y-88621
X155700Y-91161
X155700Y-96821
X155700Y-99361
X160200Y-88621
X160200Y-91161
X160200Y-96821
X160200Y-99361
X164700Y-88621
X164700Y-91161
X164700Y-99121
X167240Y-99121
X169200Y-88621
X169200Y-91161
X169780Y-99121
X173700Y-88621
X173700Y-91161
X178200Y-88621
X178200Y-91161
M30
