M48
INCH
T1C0.0315
T2C0.0394
%
G90
G05
T1
X5.7559Y-3.5089
X5.7559Y-3.6089
X5.7559Y-3.7089
X5.7559Y-3.8089
X5.7559Y-3.9089
X5.7559Y-4.0089
X5.7559Y-4.1089
X5.7559Y-4.2089
X6.0559Y-3.5089
X6.0559Y-3.6089
X6.0559Y-3.7089
X6.0559Y-3.8089
X6.0559Y-3.9089
X6.0559Y-4.0089
X6.0559Y-4.1089
X6.0559Y-4.2089
T2
X5.2756Y-3.877
X5.2756Y-3.977
X5.2756Y-4.077
X5.3624Y-3.5746
X5.3624Y-4.3781
X5.4331Y-3.5039
X5.4331Y-4.4488
X5.5038Y-3.4332
X5.5038Y-4.5195
X5.6299Y-4.1732
X5.6555Y-4.3701
X5.7555Y-4.3701
X5.8049Y-3.3465
X5.8061Y-4.6063
X5.8555Y-4.3701
X5.9049Y-3.3465
X5.9061Y-4.6063
X5.9555Y-4.3701
X6.0049Y-3.3465
X6.0061Y-4.6063
X6.0555Y-4.3701
X6.1555Y-4.3701
X6.1811Y-4.1732
X6.3054Y-3.4314
X6.3072Y-4.5195
X6.3761Y-3.5021
X6.378Y-4.4488
X6.4469Y-3.5728
X6.4487Y-4.3781
X6.5354Y-3.8758
X6.5354Y-3.9758
X6.5354Y-4.0758
M30
