%TF.GenerationSoftware,KiCad,Pcbnew,8.0.5*%
%TF.CreationDate,2024-12-11T17:13:52+10:00*%
%TF.ProjectId,arduino,61726475-696e-46f2-9e6b-696361645f70,rev?*%
%TF.SameCoordinates,Original*%
%TF.FileFunction,Soldermask,Bot*%
%TF.FilePolarity,Negative*%
%FSLAX46Y46*%
G04 Gerber Fmt 4.6, Leading zero omitted, Abs format (unit mm)*
G04 Created by KiCad (PCBNEW 8.0.5) date 2024-12-11 17:13:52*
%MOMM*%
%LPD*%
G01*
G04 APERTURE LIST*
%ADD10R,1.700000X1.700000*%
%ADD11O,1.700000X1.700000*%
%ADD12R,1.600000X1.600000*%
%ADD13O,1.600000X1.600000*%
G04 APERTURE END LIST*
D10*
%TO.C,3.3Vbar1*%
X152500000Y-117980000D03*
D11*
X155040000Y-117980000D03*
X152500000Y-120520000D03*
X155040000Y-120520000D03*
X152500000Y-123060000D03*
X155040000Y-123060000D03*
X152500000Y-125600000D03*
X155040000Y-125600000D03*
X152500000Y-128140000D03*
X155040000Y-128140000D03*
%TD*%
D10*
%TO.C,5Vbar1*%
X138500000Y-117980000D03*
D11*
X141040000Y-117980000D03*
X138500000Y-120520000D03*
X141040000Y-120520000D03*
X138500000Y-123060000D03*
X141040000Y-123060000D03*
X138500000Y-125600000D03*
X141040000Y-125600000D03*
X138500000Y-128140000D03*
X141040000Y-128140000D03*
%TD*%
D10*
%TO.C,Expansion1*%
X159380000Y-109290000D03*
D11*
X159380000Y-106750000D03*
X159380000Y-104210000D03*
X159380000Y-101670000D03*
X159380000Y-99130000D03*
X159380000Y-96590000D03*
X159380000Y-94050000D03*
X159380000Y-91510000D03*
X159380000Y-88970000D03*
X159380000Y-86430000D03*
X159380000Y-83890000D03*
X159380000Y-81350000D03*
X159380000Y-78810000D03*
X159380000Y-76270000D03*
X159380000Y-73730000D03*
%TD*%
D10*
%TO.C,5Vin1*%
X133900000Y-117615000D03*
D11*
X133900000Y-115075000D03*
%TD*%
D10*
%TO.C,powerIN2*%
X159380000Y-117615000D03*
D11*
X159380000Y-115075000D03*
%TD*%
D10*
%TO.C,GNDBar1*%
X145500000Y-117980000D03*
D11*
X148040000Y-117980000D03*
X145500000Y-120520000D03*
X148040000Y-120520000D03*
X145500000Y-123060000D03*
X148040000Y-123060000D03*
X145500000Y-125600000D03*
X148040000Y-125600000D03*
X145500000Y-128140000D03*
X148040000Y-128140000D03*
%TD*%
D10*
%TO.C,Expansion2*%
X133900000Y-73740000D03*
D11*
X133900000Y-76280000D03*
X133900000Y-78820000D03*
X133900000Y-81360000D03*
X133900000Y-83900000D03*
X133900000Y-86440000D03*
X133900000Y-88980000D03*
X133900000Y-91520000D03*
X133900000Y-94060000D03*
X133900000Y-96600000D03*
X133900000Y-99140000D03*
X133900000Y-101680000D03*
X133900000Y-104220000D03*
X133900000Y-106760000D03*
X133900000Y-109300000D03*
%TD*%
D12*
%TO.C,ArduinoNano1*%
X154250000Y-109300000D03*
D13*
X154250000Y-106760000D03*
X154250000Y-104220000D03*
X154250000Y-101680000D03*
X154250000Y-99140000D03*
X154250000Y-96600000D03*
X154250000Y-94060000D03*
X154250000Y-91520000D03*
X154250000Y-88980000D03*
X154250000Y-86440000D03*
X154250000Y-83900000D03*
X154250000Y-81360000D03*
X154250000Y-78820000D03*
X154250000Y-76280000D03*
X154250000Y-73740000D03*
X139010000Y-73740000D03*
X139010000Y-76280000D03*
X139010000Y-78820000D03*
X139010000Y-81360000D03*
X139010000Y-83900000D03*
X139010000Y-86440000D03*
X139010000Y-88980000D03*
X139010000Y-91520000D03*
X139010000Y-94060000D03*
X139010000Y-96600000D03*
X139010000Y-99140000D03*
X139010000Y-101680000D03*
X139010000Y-104220000D03*
X139010000Y-106760000D03*
X139010000Y-109300000D03*
%TD*%
M02*
