%TF.GenerationSoftware,KiCad,Pcbnew,8.0.5*%
%TF.CreationDate,2024-12-11T17:13:52+10:00*%
%TF.ProjectId,arduino,61726475-696e-46f2-9e6b-696361645f70,rev?*%
%TF.SameCoordinates,Original*%
%TF.FileFunction,Copper,L2,Bot*%
%TF.FilePolarity,Positive*%
%FSLAX46Y46*%
G04 Gerber Fmt 4.6, Leading zero omitted, Abs format (unit mm)*
G04 Created by KiCad (PCBNEW 8.0.5) date 2024-12-11 17:13:52*
%MOMM*%
%LPD*%
G01*
G04 APERTURE LIST*
%TA.AperFunction,ComponentPad*%
%ADD10R,1.700000X1.700000*%
%TD*%
%TA.AperFunction,ComponentPad*%
%ADD11O,1.700000X1.700000*%
%TD*%
%TA.AperFunction,ComponentPad*%
%ADD12R,1.600000X1.600000*%
%TD*%
%TA.AperFunction,ComponentPad*%
%ADD13O,1.600000X1.600000*%
%TD*%
%TA.AperFunction,Conductor*%
%ADD14C,0.200000*%
%TD*%
%ADD15C,0.350000*%
G04 APERTURE END LIST*
D10*
%TO.P,3.3Vbar1,1,Pin_1*%
%TO.N,+3.3V*%
X152500000Y-117980000D03*
D11*
%TO.P,3.3Vbar1,2,Pin_2*%
X155040000Y-117980000D03*
%TO.P,3.3Vbar1,3,Pin_3*%
X152500000Y-120520000D03*
%TO.P,3.3Vbar1,4,Pin_4*%
X155040000Y-120520000D03*
%TO.P,3.3Vbar1,5,Pin_5*%
X152500000Y-123060000D03*
%TO.P,3.3Vbar1,6,Pin_6*%
X155040000Y-123060000D03*
%TO.P,3.3Vbar1,7,Pin_7*%
X152500000Y-125600000D03*
%TO.P,3.3Vbar1,8,Pin_8*%
X155040000Y-125600000D03*
%TO.P,3.3Vbar1,9,Pin_9*%
X152500000Y-128140000D03*
%TO.P,3.3Vbar1,10,Pin_10*%
X155040000Y-128140000D03*
%TD*%
D10*
%TO.P,5Vbar1,1,Pin_1*%
%TO.N,+5V*%
X138500000Y-117980000D03*
D11*
%TO.P,5Vbar1,2,Pin_2*%
X141040000Y-117980000D03*
%TO.P,5Vbar1,3,Pin_3*%
X138500000Y-120520000D03*
%TO.P,5Vbar1,4,Pin_4*%
X141040000Y-120520000D03*
%TO.P,5Vbar1,5,Pin_5*%
X138500000Y-123060000D03*
%TO.P,5Vbar1,6,Pin_6*%
X141040000Y-123060000D03*
%TO.P,5Vbar1,7,Pin_7*%
X138500000Y-125600000D03*
%TO.P,5Vbar1,8,Pin_8*%
X141040000Y-125600000D03*
%TO.P,5Vbar1,9,Pin_9*%
X138500000Y-128140000D03*
%TO.P,5Vbar1,10,Pin_10*%
X141040000Y-128140000D03*
%TD*%
D10*
%TO.P,Expansion1,1,Pin_1*%
%TO.N,D1*%
X159380000Y-109290000D03*
D11*
%TO.P,Expansion1,2,Pin_2*%
%TO.N,D0*%
X159380000Y-106750000D03*
%TO.P,Expansion1,3,Pin_3*%
%TO.N,RST*%
X159380000Y-104210000D03*
%TO.P,Expansion1,4,Pin_4*%
%TO.N,GND*%
X159380000Y-101670000D03*
%TO.P,Expansion1,5,Pin_5*%
%TO.N,D2*%
X159380000Y-99130000D03*
%TO.P,Expansion1,6,Pin_6*%
%TO.N,D3*%
X159380000Y-96590000D03*
%TO.P,Expansion1,7,Pin_7*%
%TO.N,D4*%
X159380000Y-94050000D03*
%TO.P,Expansion1,8,Pin_8*%
%TO.N,D5*%
X159380000Y-91510000D03*
%TO.P,Expansion1,9,Pin_9*%
%TO.N,D6*%
X159380000Y-88970000D03*
%TO.P,Expansion1,10,Pin_10*%
%TO.N,D7*%
X159380000Y-86430000D03*
%TO.P,Expansion1,11,Pin_11*%
%TO.N,D8*%
X159380000Y-83890000D03*
%TO.P,Expansion1,12,Pin_12*%
%TO.N,D9*%
X159380000Y-81350000D03*
%TO.P,Expansion1,13,Pin_13*%
%TO.N,D10*%
X159380000Y-78810000D03*
%TO.P,Expansion1,14,Pin_14*%
%TO.N,D11*%
X159380000Y-76270000D03*
%TO.P,Expansion1,15,Pin_15*%
%TO.N,D12*%
X159380000Y-73730000D03*
%TD*%
D10*
%TO.P,5Vin1,1,Pin_1*%
%TO.N,+5V*%
X133900000Y-117615000D03*
D11*
%TO.P,5Vin1,2,Pin_2*%
%TO.N,GND*%
X133900000Y-115075000D03*
%TD*%
D10*
%TO.P,powerIN2,1,Pin_1*%
%TO.N,+3.3V*%
X159380000Y-117615000D03*
D11*
%TO.P,powerIN2,2,Pin_2*%
%TO.N,GND*%
X159380000Y-115075000D03*
%TD*%
D10*
%TO.P,GNDBar1,1,Pin_1*%
%TO.N,GND*%
X145500000Y-117980000D03*
D11*
%TO.P,GNDBar1,2,Pin_2*%
X148040000Y-117980000D03*
%TO.P,GNDBar1,3,Pin_3*%
X145500000Y-120520000D03*
%TO.P,GNDBar1,4,Pin_4*%
X148040000Y-120520000D03*
%TO.P,GNDBar1,5,Pin_5*%
X145500000Y-123060000D03*
%TO.P,GNDBar1,6,Pin_6*%
X148040000Y-123060000D03*
%TO.P,GNDBar1,7,Pin_7*%
X145500000Y-125600000D03*
%TO.P,GNDBar1,8,Pin_8*%
X148040000Y-125600000D03*
%TO.P,GNDBar1,9,Pin_9*%
X145500000Y-128140000D03*
%TO.P,GNDBar1,10,Pin_10*%
X148040000Y-128140000D03*
%TD*%
D10*
%TO.P,Expansion2,1,Pin_1*%
%TO.N,D13*%
X133900000Y-73740000D03*
D11*
%TO.P,Expansion2,2,Pin_2*%
%TO.N,nano3.3V*%
X133900000Y-76280000D03*
%TO.P,Expansion2,3,Pin_3*%
%TO.N,AREF*%
X133900000Y-78820000D03*
%TO.P,Expansion2,4,Pin_4*%
%TO.N,A0*%
X133900000Y-81360000D03*
%TO.P,Expansion2,5,Pin_5*%
%TO.N,A1*%
X133900000Y-83900000D03*
%TO.P,Expansion2,6,Pin_6*%
%TO.N,A2*%
X133900000Y-86440000D03*
%TO.P,Expansion2,7,Pin_7*%
%TO.N,A3*%
X133900000Y-88980000D03*
%TO.P,Expansion2,8,Pin_8*%
%TO.N,A4*%
X133900000Y-91520000D03*
%TO.P,Expansion2,9,Pin_9*%
%TO.N,A5*%
X133900000Y-94060000D03*
%TO.P,Expansion2,10,Pin_10*%
%TO.N,A6*%
X133900000Y-96600000D03*
%TO.P,Expansion2,11,Pin_11*%
%TO.N,A7*%
X133900000Y-99140000D03*
%TO.P,Expansion2,12,Pin_12*%
%TO.N,nano5V*%
X133900000Y-101680000D03*
%TO.P,Expansion2,13,Pin_13*%
%TO.N,RST*%
X133900000Y-104220000D03*
%TO.P,Expansion2,14,Pin_14*%
%TO.N,GND*%
X133900000Y-106760000D03*
%TO.P,Expansion2,15,Pin_15*%
%TO.N,+5V*%
X133900000Y-109300000D03*
%TD*%
D12*
%TO.P,ArduinoNano1,1,D1/TX*%
%TO.N,D1*%
X154250000Y-109300000D03*
D13*
%TO.P,ArduinoNano1,2,D0/RX*%
%TO.N,D0*%
X154250000Y-106760000D03*
%TO.P,ArduinoNano1,3,~{RESET}*%
%TO.N,RST*%
X154250000Y-104220000D03*
%TO.P,ArduinoNano1,4,GND*%
%TO.N,GND*%
X154250000Y-101680000D03*
%TO.P,ArduinoNano1,5,D2*%
%TO.N,D2*%
X154250000Y-99140000D03*
%TO.P,ArduinoNano1,6,D3*%
%TO.N,D3*%
X154250000Y-96600000D03*
%TO.P,ArduinoNano1,7,D4*%
%TO.N,D4*%
X154250000Y-94060000D03*
%TO.P,ArduinoNano1,8,D5*%
%TO.N,D5*%
X154250000Y-91520000D03*
%TO.P,ArduinoNano1,9,D6*%
%TO.N,D6*%
X154250000Y-88980000D03*
%TO.P,ArduinoNano1,10,D7*%
%TO.N,D7*%
X154250000Y-86440000D03*
%TO.P,ArduinoNano1,11,D8*%
%TO.N,D8*%
X154250000Y-83900000D03*
%TO.P,ArduinoNano1,12,D9*%
%TO.N,D9*%
X154250000Y-81360000D03*
%TO.P,ArduinoNano1,13,D10*%
%TO.N,D10*%
X154250000Y-78820000D03*
%TO.P,ArduinoNano1,14,D11*%
%TO.N,D11*%
X154250000Y-76280000D03*
%TO.P,ArduinoNano1,15,D12*%
%TO.N,D12*%
X154250000Y-73740000D03*
%TO.P,ArduinoNano1,16,D13*%
%TO.N,D13*%
X139010000Y-73740000D03*
%TO.P,ArduinoNano1,17,3V3*%
%TO.N,nano3.3V*%
X139010000Y-76280000D03*
%TO.P,ArduinoNano1,18,AREF*%
%TO.N,AREF*%
X139010000Y-78820000D03*
%TO.P,ArduinoNano1,19,A0*%
%TO.N,A0*%
X139010000Y-81360000D03*
%TO.P,ArduinoNano1,20,A1*%
%TO.N,A1*%
X139010000Y-83900000D03*
%TO.P,ArduinoNano1,21,A2*%
%TO.N,A2*%
X139010000Y-86440000D03*
%TO.P,ArduinoNano1,22,A3*%
%TO.N,A3*%
X139010000Y-88980000D03*
%TO.P,ArduinoNano1,23,A4*%
%TO.N,A4*%
X139010000Y-91520000D03*
%TO.P,ArduinoNano1,24,A5*%
%TO.N,A5*%
X139010000Y-94060000D03*
%TO.P,ArduinoNano1,25,A6*%
%TO.N,A6*%
X139010000Y-96600000D03*
%TO.P,ArduinoNano1,26,A7*%
%TO.N,A7*%
X139010000Y-99140000D03*
%TO.P,ArduinoNano1,27,+5V*%
%TO.N,nano5V*%
X139010000Y-101680000D03*
%TO.P,ArduinoNano1,28,~{RESET}*%
%TO.N,RST*%
X139010000Y-104220000D03*
%TO.P,ArduinoNano1,29,GND*%
%TO.N,GND*%
X139010000Y-106760000D03*
%TO.P,ArduinoNano1,30,VIN*%
%TO.N,+5V*%
X139010000Y-109300000D03*
%TD*%
D14*
%TO.N,GND*%
X148040000Y-117980000D02*
X148040000Y-115342500D01*
X148040000Y-128140000D02*
X148040000Y-117980000D01*
X148040000Y-125600000D02*
X145500000Y-125600000D01*
X145500000Y-123060000D02*
X148040000Y-123060000D01*
X145500000Y-115322500D02*
X144980000Y-114802500D01*
X145500000Y-128140000D02*
X148040000Y-128140000D01*
X154260000Y-101670000D02*
X154250000Y-101680000D01*
X157130000Y-101670000D02*
X159380000Y-101670000D01*
X136245000Y-106760000D02*
X136600000Y-107115000D01*
X159100000Y-115075000D02*
X156952500Y-115075000D01*
X145500000Y-117980000D02*
X148040000Y-117980000D01*
X156680000Y-102120000D02*
X157130000Y-101670000D01*
X136600000Y-114802500D02*
X144980000Y-114802500D01*
X136600000Y-114802500D02*
X136600000Y-107115000D01*
X148040000Y-120520000D02*
X145500000Y-120520000D01*
X156680000Y-114802500D02*
X156680000Y-102120000D01*
X133900000Y-106760000D02*
X136245000Y-106760000D01*
X145500000Y-117980000D02*
X145500000Y-115322500D01*
X148040000Y-115342500D02*
X148580000Y-114802500D01*
X133900000Y-115075000D02*
X136327500Y-115075000D01*
X136327500Y-115075000D02*
X136600000Y-114802500D01*
X145500000Y-117980000D02*
X145500000Y-128140000D01*
X148580000Y-114802500D02*
X156680000Y-114802500D01*
X156952500Y-115075000D02*
X156680000Y-114802500D01*
%TO.N,RST*%
X139010000Y-104220000D02*
X154250000Y-104220000D01*
%TD*%
%TA.AperFunction,NonConductor*%
G36*
X133638851Y-66431785D02*
G01*
X133684606Y-66484589D01*
X133694550Y-66553747D01*
X133665525Y-66617303D01*
X133606747Y-66655077D01*
X133587353Y-66659122D01*
X133430536Y-66678932D01*
X133430523Y-66678934D01*
X133125774Y-66757180D01*
X133125771Y-66757181D01*
X132833242Y-66873001D01*
X132833241Y-66873002D01*
X132557516Y-67024584D01*
X132557504Y-67024591D01*
X132302978Y-67209515D01*
X132302968Y-67209523D01*
X132073608Y-67424907D01*
X132073606Y-67424909D01*
X131873054Y-67667334D01*
X131873051Y-67667338D01*
X131704464Y-67932990D01*
X131704461Y-67932996D01*
X131570499Y-68217678D01*
X131570497Y-68217683D01*
X131473270Y-68516916D01*
X131414311Y-68825988D01*
X131414310Y-68825995D01*
X131394556Y-69139994D01*
X131394556Y-69140005D01*
X131414310Y-69454004D01*
X131414311Y-69454011D01*
X131473270Y-69763083D01*
X131570497Y-70062316D01*
X131570499Y-70062321D01*
X131704461Y-70347003D01*
X131704464Y-70347009D01*
X131873051Y-70612661D01*
X131873054Y-70612665D01*
X132073606Y-70855090D01*
X132073608Y-70855092D01*
X132302968Y-71070476D01*
X132302978Y-71070484D01*
X132557504Y-71255408D01*
X132557509Y-71255410D01*
X132557516Y-71255416D01*
X132833234Y-71406994D01*
X132833239Y-71406996D01*
X132833241Y-71406997D01*
X132833242Y-71406998D01*
X133125771Y-71522818D01*
X133125774Y-71522819D01*
X133430523Y-71601065D01*
X133430527Y-71601066D01*
X133496010Y-71609338D01*
X133742670Y-71640499D01*
X133742679Y-71640499D01*
X133742682Y-71640500D01*
X133742684Y-71640500D01*
X134057316Y-71640500D01*
X134057318Y-71640500D01*
X134057321Y-71640499D01*
X134057329Y-71640499D01*
X134243593Y-71616968D01*
X134369473Y-71601066D01*
X134674225Y-71522819D01*
X134674228Y-71522818D01*
X134966757Y-71406998D01*
X134966758Y-71406997D01*
X134966756Y-71406997D01*
X134966766Y-71406994D01*
X135242484Y-71255416D01*
X135497030Y-71070478D01*
X135726390Y-70855094D01*
X135926947Y-70612663D01*
X136095537Y-70347007D01*
X136229503Y-70062315D01*
X136326731Y-69763079D01*
X136385688Y-69454015D01*
X136405444Y-69140000D01*
X136389916Y-68893190D01*
X136385689Y-68825995D01*
X136385688Y-68825988D01*
X136385688Y-68825985D01*
X136326731Y-68516921D01*
X136229503Y-68217685D01*
X136095537Y-67932993D01*
X135926947Y-67667337D01*
X135908983Y-67645622D01*
X135726393Y-67424909D01*
X135726391Y-67424907D01*
X135497031Y-67209523D01*
X135497021Y-67209515D01*
X135242495Y-67024591D01*
X135242488Y-67024586D01*
X135242484Y-67024584D01*
X134966766Y-66873006D01*
X134966763Y-66873004D01*
X134966758Y-66873002D01*
X134966757Y-66873001D01*
X134674228Y-66757181D01*
X134674225Y-66757180D01*
X134369476Y-66678934D01*
X134369463Y-66678932D01*
X134212647Y-66659122D01*
X134148603Y-66631191D01*
X134109827Y-66573068D01*
X134108630Y-66503209D01*
X134145391Y-66443792D01*
X134208440Y-66413683D01*
X134228188Y-66412100D01*
X158771812Y-66412100D01*
X158838851Y-66431785D01*
X158884606Y-66484589D01*
X158894550Y-66553747D01*
X158865525Y-66617303D01*
X158806747Y-66655077D01*
X158787353Y-66659122D01*
X158630536Y-66678932D01*
X158630523Y-66678934D01*
X158325774Y-66757180D01*
X158325771Y-66757181D01*
X158033242Y-66873001D01*
X158033241Y-66873002D01*
X157757516Y-67024584D01*
X157757504Y-67024591D01*
X157502978Y-67209515D01*
X157502968Y-67209523D01*
X157273608Y-67424907D01*
X157273606Y-67424909D01*
X157073054Y-67667334D01*
X157073051Y-67667338D01*
X156904464Y-67932990D01*
X156904461Y-67932996D01*
X156770499Y-68217678D01*
X156770497Y-68217683D01*
X156673270Y-68516916D01*
X156614311Y-68825988D01*
X156614310Y-68825995D01*
X156594556Y-69139994D01*
X156594556Y-69140005D01*
X156614310Y-69454004D01*
X156614311Y-69454011D01*
X156673270Y-69763083D01*
X156770497Y-70062316D01*
X156770499Y-70062321D01*
X156904461Y-70347003D01*
X156904464Y-70347009D01*
X157073051Y-70612661D01*
X157073054Y-70612665D01*
X157273606Y-70855090D01*
X157273608Y-70855092D01*
X157502968Y-71070476D01*
X157502978Y-71070484D01*
X157757504Y-71255408D01*
X157757509Y-71255410D01*
X157757516Y-71255416D01*
X158033234Y-71406994D01*
X158033239Y-71406996D01*
X158033241Y-71406997D01*
X158033242Y-71406998D01*
X158325771Y-71522818D01*
X158325774Y-71522819D01*
X158630523Y-71601065D01*
X158630527Y-71601066D01*
X158696010Y-71609338D01*
X158942670Y-71640499D01*
X158942679Y-71640499D01*
X158942682Y-71640500D01*
X158942684Y-71640500D01*
X159257316Y-71640500D01*
X159257318Y-71640500D01*
X159257321Y-71640499D01*
X159257329Y-71640499D01*
X159443593Y-71616968D01*
X159569473Y-71601066D01*
X159874225Y-71522819D01*
X159874228Y-71522818D01*
X160166757Y-71406998D01*
X160166758Y-71406997D01*
X160166756Y-71406997D01*
X160166766Y-71406994D01*
X160442484Y-71255416D01*
X160697030Y-71070478D01*
X160926390Y-70855094D01*
X161126947Y-70612663D01*
X161295537Y-70347007D01*
X161429503Y-70062315D01*
X161526731Y-69763079D01*
X161585688Y-69454015D01*
X161605444Y-69140000D01*
X161589916Y-68893190D01*
X161585689Y-68825995D01*
X161585688Y-68825988D01*
X161585688Y-68825985D01*
X161526731Y-68516921D01*
X161429503Y-68217685D01*
X161295537Y-67932993D01*
X161126947Y-67667337D01*
X161108983Y-67645622D01*
X160926393Y-67424909D01*
X160926391Y-67424907D01*
X160697031Y-67209523D01*
X160697021Y-67209515D01*
X160442495Y-67024591D01*
X160442488Y-67024586D01*
X160442484Y-67024584D01*
X160166766Y-66873006D01*
X160166763Y-66873004D01*
X160166758Y-66873002D01*
X160166757Y-66873001D01*
X159874228Y-66757181D01*
X159874225Y-66757180D01*
X159569476Y-66678934D01*
X159569463Y-66678932D01*
X159412647Y-66659122D01*
X159348603Y-66631191D01*
X159309827Y-66573068D01*
X159308630Y-66503209D01*
X159345391Y-66443792D01*
X159408440Y-66413683D01*
X159428188Y-66412100D01*
X163515500Y-66412100D01*
X163582539Y-66431785D01*
X163628294Y-66484589D01*
X163639500Y-66536100D01*
X163639500Y-130287100D01*
X163619815Y-130354139D01*
X163567011Y-130399894D01*
X163515500Y-130411100D01*
X129764500Y-130411100D01*
X129697461Y-130391415D01*
X129651706Y-130338611D01*
X129640500Y-130287100D01*
X129640500Y-122489994D01*
X131394556Y-122489994D01*
X131394556Y-122490005D01*
X131414310Y-122804004D01*
X131414311Y-122804011D01*
X131414312Y-122804015D01*
X131463143Y-123059999D01*
X131473270Y-123113083D01*
X131570497Y-123412316D01*
X131570499Y-123412321D01*
X131704461Y-123697003D01*
X131704464Y-123697009D01*
X131873051Y-123962661D01*
X131873054Y-123962665D01*
X132073606Y-124205090D01*
X132073608Y-124205092D01*
X132302968Y-124420476D01*
X132302978Y-124420484D01*
X132557504Y-124605408D01*
X132557509Y-124605410D01*
X132557516Y-124605416D01*
X132833234Y-124756994D01*
X132833239Y-124756996D01*
X132833241Y-124756997D01*
X132833242Y-124756998D01*
X133125771Y-124872818D01*
X133125774Y-124872819D01*
X133430523Y-124951065D01*
X133430527Y-124951066D01*
X133483698Y-124957783D01*
X133742670Y-124990499D01*
X133742679Y-124990499D01*
X133742682Y-124990500D01*
X133742684Y-124990500D01*
X134057316Y-124990500D01*
X134057318Y-124990500D01*
X134057321Y-124990499D01*
X134057329Y-124990499D01*
X134259355Y-124964977D01*
X134369473Y-124951066D01*
X134674225Y-124872819D01*
X134674228Y-124872818D01*
X134966757Y-124756998D01*
X134966758Y-124756997D01*
X134966756Y-124756997D01*
X134966766Y-124756994D01*
X135242484Y-124605416D01*
X135497030Y-124420478D01*
X135726390Y-124205094D01*
X135926947Y-123962663D01*
X136095537Y-123697007D01*
X136229503Y-123412315D01*
X136326731Y-123113079D01*
X136385688Y-122804015D01*
X136389916Y-122736810D01*
X136405444Y-122490005D01*
X136405444Y-122489994D01*
X136385689Y-122175995D01*
X136385688Y-122175988D01*
X136385688Y-122175985D01*
X136326731Y-121866921D01*
X136229503Y-121567685D01*
X136095537Y-121282993D01*
X136034330Y-121186546D01*
X135926948Y-121017338D01*
X135926945Y-121017334D01*
X135726393Y-120774909D01*
X135726391Y-120774907D01*
X135497031Y-120559523D01*
X135497021Y-120559515D01*
X135442632Y-120519999D01*
X137144341Y-120519999D01*
X137144341Y-120520000D01*
X137164936Y-120755403D01*
X137164938Y-120755413D01*
X137226094Y-120983655D01*
X137226096Y-120983659D01*
X137226097Y-120983663D01*
X137306004Y-121155023D01*
X137325965Y-121197830D01*
X137325967Y-121197834D01*
X137385599Y-121282996D01*
X137461501Y-121391396D01*
X137461506Y-121391402D01*
X137628597Y-121558493D01*
X137628603Y-121558498D01*
X137814158Y-121688425D01*
X137857783Y-121743002D01*
X137864977Y-121812500D01*
X137833454Y-121874855D01*
X137814158Y-121891575D01*
X137628597Y-122021505D01*
X137461505Y-122188597D01*
X137325965Y-122382169D01*
X137325964Y-122382171D01*
X137226098Y-122596335D01*
X137226094Y-122596344D01*
X137164938Y-122824586D01*
X137164936Y-122824596D01*
X137144341Y-123059999D01*
X137144341Y-123060000D01*
X137164936Y-123295403D01*
X137164938Y-123295413D01*
X137226094Y-123523655D01*
X137226096Y-123523659D01*
X137226097Y-123523663D01*
X137306004Y-123695023D01*
X137325965Y-123737830D01*
X137325967Y-123737834D01*
X137434281Y-123892521D01*
X137461501Y-123931396D01*
X137461506Y-123931402D01*
X137628597Y-124098493D01*
X137628603Y-124098498D01*
X137814158Y-124228425D01*
X137857783Y-124283002D01*
X137864977Y-124352500D01*
X137833454Y-124414855D01*
X137814158Y-124431575D01*
X137628597Y-124561505D01*
X137461505Y-124728597D01*
X137325965Y-124922169D01*
X137325964Y-124922171D01*
X137226098Y-125136335D01*
X137226094Y-125136344D01*
X137164938Y-125364586D01*
X137164936Y-125364596D01*
X137144341Y-125599999D01*
X137144341Y-125600000D01*
X137164936Y-125835403D01*
X137164938Y-125835413D01*
X137226094Y-126063655D01*
X137226096Y-126063659D01*
X137226097Y-126063663D01*
X137306004Y-126235023D01*
X137325965Y-126277830D01*
X137325967Y-126277834D01*
X137434281Y-126432521D01*
X137461501Y-126471396D01*
X137461506Y-126471402D01*
X137628597Y-126638493D01*
X137628603Y-126638498D01*
X137814158Y-126768425D01*
X137857783Y-126823002D01*
X137864977Y-126892500D01*
X137833454Y-126954855D01*
X137814158Y-126971575D01*
X137628597Y-127101505D01*
X137461505Y-127268597D01*
X137325965Y-127462169D01*
X137325964Y-127462171D01*
X137226098Y-127676335D01*
X137226094Y-127676344D01*
X137164938Y-127904586D01*
X137164936Y-127904596D01*
X137144341Y-128139999D01*
X137144341Y-128140000D01*
X137164936Y-128375403D01*
X137164938Y-128375413D01*
X137226094Y-128603655D01*
X137226096Y-128603659D01*
X137226097Y-128603663D01*
X137306004Y-128775023D01*
X137325965Y-128817830D01*
X137325967Y-128817834D01*
X137434281Y-128972521D01*
X137461505Y-129011401D01*
X137628599Y-129178495D01*
X137725384Y-129246265D01*
X137822165Y-129314032D01*
X137822167Y-129314033D01*
X137822170Y-129314035D01*
X138036337Y-129413903D01*
X138264592Y-129475063D01*
X138452918Y-129491539D01*
X138499999Y-129495659D01*
X138500000Y-129495659D01*
X138500001Y-129495659D01*
X138539234Y-129492226D01*
X138735408Y-129475063D01*
X138963663Y-129413903D01*
X139177830Y-129314035D01*
X139371401Y-129178495D01*
X139538495Y-129011401D01*
X139668425Y-128825842D01*
X139723002Y-128782217D01*
X139792500Y-128775023D01*
X139854855Y-128806546D01*
X139871575Y-128825842D01*
X140001500Y-129011395D01*
X140001505Y-129011401D01*
X140168599Y-129178495D01*
X140265384Y-129246265D01*
X140362165Y-129314032D01*
X140362167Y-129314033D01*
X140362170Y-129314035D01*
X140576337Y-129413903D01*
X140804592Y-129475063D01*
X140992918Y-129491539D01*
X141039999Y-129495659D01*
X141040000Y-129495659D01*
X141040001Y-129495659D01*
X141079234Y-129492226D01*
X141275408Y-129475063D01*
X141503663Y-129413903D01*
X141717830Y-129314035D01*
X141911401Y-129178495D01*
X142078495Y-129011401D01*
X142214035Y-128817830D01*
X142313903Y-128603663D01*
X142375063Y-128375408D01*
X142395659Y-128140000D01*
X142375063Y-127904592D01*
X142313903Y-127676337D01*
X142214035Y-127462171D01*
X142208425Y-127454158D01*
X142078494Y-127268597D01*
X141911402Y-127101506D01*
X141911396Y-127101501D01*
X141725842Y-126971575D01*
X141682217Y-126916998D01*
X141675023Y-126847500D01*
X141706546Y-126785145D01*
X141725842Y-126768425D01*
X141748026Y-126752891D01*
X141911401Y-126638495D01*
X142078495Y-126471401D01*
X142214035Y-126277830D01*
X142313903Y-126063663D01*
X142375063Y-125835408D01*
X142395659Y-125600000D01*
X142375063Y-125364592D01*
X142313903Y-125136337D01*
X142214035Y-124922171D01*
X142208425Y-124914158D01*
X142078494Y-124728597D01*
X141911402Y-124561506D01*
X141911396Y-124561501D01*
X141725842Y-124431575D01*
X141682217Y-124376998D01*
X141675023Y-124307500D01*
X141706546Y-124245145D01*
X141725842Y-124228425D01*
X141759168Y-124205090D01*
X141911401Y-124098495D01*
X142078495Y-123931401D01*
X142214035Y-123737830D01*
X142313903Y-123523663D01*
X142375063Y-123295408D01*
X142395659Y-123060000D01*
X142375063Y-122824592D01*
X142313903Y-122596337D01*
X142214035Y-122382171D01*
X142208425Y-122374158D01*
X142078494Y-122188597D01*
X141911402Y-122021506D01*
X141911396Y-122021501D01*
X141725842Y-121891575D01*
X141682217Y-121836998D01*
X141675023Y-121767500D01*
X141706546Y-121705145D01*
X141725842Y-121688425D01*
X141898286Y-121567678D01*
X141911401Y-121558495D01*
X142078495Y-121391401D01*
X142214035Y-121197830D01*
X142313903Y-120983663D01*
X142375063Y-120755408D01*
X142395659Y-120520000D01*
X142375063Y-120284592D01*
X142313903Y-120056337D01*
X142214035Y-119842171D01*
X142208425Y-119834158D01*
X142078494Y-119648597D01*
X141911402Y-119481506D01*
X141911396Y-119481501D01*
X141725842Y-119351575D01*
X141682217Y-119296998D01*
X141675023Y-119227500D01*
X141706546Y-119165145D01*
X141725842Y-119148425D01*
X141748026Y-119132891D01*
X141911401Y-119018495D01*
X142078495Y-118851401D01*
X142214035Y-118657830D01*
X142313903Y-118443663D01*
X142375063Y-118215408D01*
X142395659Y-117980000D01*
X142375063Y-117744592D01*
X142313903Y-117516337D01*
X142214035Y-117302171D01*
X142078495Y-117108599D01*
X142078494Y-117108597D01*
X141911402Y-116941506D01*
X141911395Y-116941501D01*
X141717834Y-116805967D01*
X141717830Y-116805965D01*
X141712085Y-116803286D01*
X141503663Y-116706097D01*
X141503659Y-116706096D01*
X141503655Y-116706094D01*
X141275413Y-116644938D01*
X141275403Y-116644936D01*
X141040001Y-116624341D01*
X141039999Y-116624341D01*
X140804596Y-116644936D01*
X140804586Y-116644938D01*
X140576344Y-116706094D01*
X140576335Y-116706098D01*
X140362171Y-116805964D01*
X140362169Y-116805965D01*
X140168600Y-116941503D01*
X140046673Y-117063430D01*
X139985350Y-117096914D01*
X139915658Y-117091930D01*
X139859725Y-117050058D01*
X139842810Y-117019081D01*
X139793797Y-116887671D01*
X139793793Y-116887664D01*
X139707547Y-116772455D01*
X139707544Y-116772452D01*
X139592335Y-116686206D01*
X139592328Y-116686202D01*
X139457482Y-116635908D01*
X139457483Y-116635908D01*
X139397883Y-116629501D01*
X139397881Y-116629500D01*
X139397873Y-116629500D01*
X139397864Y-116629500D01*
X137602129Y-116629500D01*
X137602123Y-116629501D01*
X137542516Y-116635908D01*
X137407671Y-116686202D01*
X137407664Y-116686206D01*
X137292455Y-116772452D01*
X137292452Y-116772455D01*
X137206206Y-116887664D01*
X137206202Y-116887671D01*
X137155908Y-117022517D01*
X137149501Y-117082116D01*
X137149500Y-117082135D01*
X137149500Y-118877870D01*
X137149501Y-118877876D01*
X137155908Y-118937483D01*
X137206202Y-119072328D01*
X137206206Y-119072335D01*
X137292452Y-119187544D01*
X137292455Y-119187547D01*
X137407664Y-119273793D01*
X137407671Y-119273797D01*
X137539081Y-119322810D01*
X137595015Y-119364681D01*
X137619432Y-119430145D01*
X137604580Y-119498418D01*
X137583430Y-119526673D01*
X137461503Y-119648600D01*
X137325965Y-119842169D01*
X137325964Y-119842171D01*
X137226098Y-120056335D01*
X137226094Y-120056344D01*
X137164938Y-120284586D01*
X137164936Y-120284596D01*
X137144341Y-120519999D01*
X135442632Y-120519999D01*
X135242495Y-120374591D01*
X135242488Y-120374586D01*
X135242484Y-120374584D01*
X134966766Y-120223006D01*
X134966763Y-120223004D01*
X134966758Y-120223002D01*
X134966757Y-120223001D01*
X134674228Y-120107181D01*
X134674225Y-120107180D01*
X134369476Y-120028934D01*
X134369463Y-120028932D01*
X134057329Y-119989500D01*
X134057318Y-119989500D01*
X133742682Y-119989500D01*
X133742670Y-119989500D01*
X133430536Y-120028932D01*
X133430523Y-120028934D01*
X133125774Y-120107180D01*
X133125771Y-120107181D01*
X132833242Y-120223001D01*
X132833241Y-120223002D01*
X132557516Y-120374584D01*
X132557504Y-120374591D01*
X132302978Y-120559515D01*
X132302968Y-120559523D01*
X132073608Y-120774907D01*
X132073606Y-120774909D01*
X131873054Y-121017334D01*
X131873051Y-121017338D01*
X131704464Y-121282990D01*
X131704461Y-121282996D01*
X131570499Y-121567678D01*
X131570497Y-121567683D01*
X131473270Y-121866916D01*
X131414311Y-122175988D01*
X131414310Y-122175995D01*
X131394556Y-122489994D01*
X129640500Y-122489994D01*
X129640500Y-76279999D01*
X132544341Y-76279999D01*
X132544341Y-76280000D01*
X132564936Y-76515403D01*
X132564938Y-76515413D01*
X132626094Y-76743655D01*
X132626096Y-76743659D01*
X132626097Y-76743663D01*
X132714262Y-76932732D01*
X132725965Y-76957830D01*
X132725967Y-76957834D01*
X132861501Y-77151395D01*
X132861506Y-77151402D01*
X133028597Y-77318493D01*
X133028603Y-77318498D01*
X133214158Y-77448425D01*
X133257783Y-77503002D01*
X133264977Y-77572500D01*
X133233454Y-77634855D01*
X133214158Y-77651575D01*
X133028597Y-77781505D01*
X132861505Y-77948597D01*
X132725965Y-78142169D01*
X132725964Y-78142171D01*
X132626098Y-78356335D01*
X132626094Y-78356344D01*
X132564938Y-78584586D01*
X132564936Y-78584596D01*
X132544341Y-78819999D01*
X132544341Y-78820000D01*
X132564936Y-79055403D01*
X132564938Y-79055413D01*
X132626094Y-79283655D01*
X132626096Y-79283659D01*
X132626097Y-79283663D01*
X132714262Y-79472732D01*
X132725965Y-79497830D01*
X132725967Y-79497834D01*
X132861501Y-79691395D01*
X132861506Y-79691402D01*
X133028597Y-79858493D01*
X133028603Y-79858498D01*
X133214158Y-79988425D01*
X133257783Y-80043002D01*
X133264977Y-80112500D01*
X133233454Y-80174855D01*
X133214158Y-80191575D01*
X133028597Y-80321505D01*
X132861505Y-80488597D01*
X132725965Y-80682169D01*
X132725964Y-80682171D01*
X132626098Y-80896335D01*
X132626094Y-80896344D01*
X132564938Y-81124586D01*
X132564936Y-81124596D01*
X132544341Y-81359999D01*
X132544341Y-81360000D01*
X132564936Y-81595403D01*
X132564938Y-81595413D01*
X132626094Y-81823655D01*
X132626096Y-81823659D01*
X132626097Y-81823663D01*
X132714262Y-82012732D01*
X132725965Y-82037830D01*
X132725967Y-82037834D01*
X132861501Y-82231395D01*
X132861506Y-82231402D01*
X133028597Y-82398493D01*
X133028603Y-82398498D01*
X133214158Y-82528425D01*
X133257783Y-82583002D01*
X133264977Y-82652500D01*
X133233454Y-82714855D01*
X133214158Y-82731575D01*
X133028597Y-82861505D01*
X132861505Y-83028597D01*
X132725965Y-83222169D01*
X132725964Y-83222171D01*
X132626098Y-83436335D01*
X132626094Y-83436344D01*
X132564938Y-83664586D01*
X132564936Y-83664596D01*
X132544341Y-83899999D01*
X132544341Y-83900000D01*
X132564936Y-84135403D01*
X132564938Y-84135413D01*
X132626094Y-84363655D01*
X132626096Y-84363659D01*
X132626097Y-84363663D01*
X132714262Y-84552732D01*
X132725965Y-84577830D01*
X132725967Y-84577834D01*
X132861501Y-84771395D01*
X132861506Y-84771402D01*
X133028597Y-84938493D01*
X133028603Y-84938498D01*
X133214158Y-85068425D01*
X133257783Y-85123002D01*
X133264977Y-85192500D01*
X133233454Y-85254855D01*
X133214158Y-85271575D01*
X133028597Y-85401505D01*
X132861505Y-85568597D01*
X132725965Y-85762169D01*
X132725964Y-85762171D01*
X132626098Y-85976335D01*
X132626094Y-85976344D01*
X132564938Y-86204586D01*
X132564936Y-86204596D01*
X132544341Y-86439999D01*
X132544341Y-86440000D01*
X132564936Y-86675403D01*
X132564938Y-86675413D01*
X132626094Y-86903655D01*
X132626096Y-86903659D01*
X132626097Y-86903663D01*
X132714262Y-87092732D01*
X132725965Y-87117830D01*
X132725967Y-87117834D01*
X132861501Y-87311395D01*
X132861506Y-87311402D01*
X133028597Y-87478493D01*
X133028603Y-87478498D01*
X133214158Y-87608425D01*
X133257783Y-87663002D01*
X133264977Y-87732500D01*
X133233454Y-87794855D01*
X133214158Y-87811575D01*
X133028597Y-87941505D01*
X132861505Y-88108597D01*
X132725965Y-88302169D01*
X132725964Y-88302171D01*
X132626098Y-88516335D01*
X132626094Y-88516344D01*
X132564938Y-88744586D01*
X132564936Y-88744596D01*
X132544341Y-88979999D01*
X132544341Y-88980000D01*
X132564936Y-89215403D01*
X132564938Y-89215413D01*
X132626094Y-89443655D01*
X132626096Y-89443659D01*
X132626097Y-89443663D01*
X132714262Y-89632732D01*
X132725965Y-89657830D01*
X132725967Y-89657834D01*
X132861501Y-89851395D01*
X132861506Y-89851402D01*
X133028597Y-90018493D01*
X133028603Y-90018498D01*
X133214158Y-90148425D01*
X133257783Y-90203002D01*
X133264977Y-90272500D01*
X133233454Y-90334855D01*
X133214158Y-90351575D01*
X133028597Y-90481505D01*
X132861505Y-90648597D01*
X132725965Y-90842169D01*
X132725964Y-90842171D01*
X132626098Y-91056335D01*
X132626094Y-91056344D01*
X132564938Y-91284586D01*
X132564936Y-91284596D01*
X132544341Y-91519999D01*
X132544341Y-91520000D01*
X132564936Y-91755403D01*
X132564938Y-91755413D01*
X132626094Y-91983655D01*
X132626096Y-91983659D01*
X132626097Y-91983663D01*
X132714262Y-92172732D01*
X132725965Y-92197830D01*
X132725967Y-92197834D01*
X132861501Y-92391395D01*
X132861506Y-92391402D01*
X133028597Y-92558493D01*
X133028603Y-92558498D01*
X133214158Y-92688425D01*
X133257783Y-92743002D01*
X133264977Y-92812500D01*
X133233454Y-92874855D01*
X133214158Y-92891575D01*
X133028597Y-93021505D01*
X132861505Y-93188597D01*
X132725965Y-93382169D01*
X132725964Y-93382171D01*
X132626098Y-93596335D01*
X132626094Y-93596344D01*
X132564938Y-93824586D01*
X132564936Y-93824596D01*
X132544341Y-94059999D01*
X132544341Y-94060000D01*
X132564936Y-94295403D01*
X132564938Y-94295413D01*
X132626094Y-94523655D01*
X132626096Y-94523659D01*
X132626097Y-94523663D01*
X132714262Y-94712732D01*
X132725965Y-94737830D01*
X132725967Y-94737834D01*
X132861501Y-94931395D01*
X132861506Y-94931402D01*
X133028597Y-95098493D01*
X133028603Y-95098498D01*
X133214158Y-95228425D01*
X133257783Y-95283002D01*
X133264977Y-95352500D01*
X133233454Y-95414855D01*
X133214158Y-95431575D01*
X133028597Y-95561505D01*
X132861505Y-95728597D01*
X132725965Y-95922169D01*
X132725964Y-95922171D01*
X132626098Y-96136335D01*
X132626094Y-96136344D01*
X132564938Y-96364586D01*
X132564936Y-96364596D01*
X132544341Y-96599999D01*
X132544341Y-96600000D01*
X132564936Y-96835403D01*
X132564938Y-96835413D01*
X132626094Y-97063655D01*
X132626096Y-97063659D01*
X132626097Y-97063663D01*
X132714262Y-97252732D01*
X132725965Y-97277830D01*
X132725967Y-97277834D01*
X132861501Y-97471395D01*
X132861506Y-97471402D01*
X133028597Y-97638493D01*
X133028603Y-97638498D01*
X133214158Y-97768425D01*
X133257783Y-97823002D01*
X133264977Y-97892500D01*
X133233454Y-97954855D01*
X133214158Y-97971575D01*
X133028597Y-98101505D01*
X132861505Y-98268597D01*
X132725965Y-98462169D01*
X132725964Y-98462171D01*
X132626098Y-98676335D01*
X132626094Y-98676344D01*
X132564938Y-98904586D01*
X132564936Y-98904596D01*
X132544341Y-99139999D01*
X132544341Y-99140000D01*
X132564936Y-99375403D01*
X132564938Y-99375413D01*
X132626094Y-99603655D01*
X132626096Y-99603659D01*
X132626097Y-99603663D01*
X132714262Y-99792732D01*
X132725965Y-99817830D01*
X132725967Y-99817834D01*
X132861501Y-100011395D01*
X132861506Y-100011402D01*
X133028597Y-100178493D01*
X133028603Y-100178498D01*
X133214158Y-100308425D01*
X133257783Y-100363002D01*
X133264977Y-100432500D01*
X133233454Y-100494855D01*
X133214158Y-100511575D01*
X133028597Y-100641505D01*
X132861505Y-100808597D01*
X132725965Y-101002169D01*
X132725964Y-101002171D01*
X132626098Y-101216335D01*
X132626094Y-101216344D01*
X132564938Y-101444586D01*
X132564936Y-101444596D01*
X132544341Y-101679999D01*
X132544341Y-101680000D01*
X132564936Y-101915403D01*
X132564938Y-101915413D01*
X132626094Y-102143655D01*
X132626096Y-102143659D01*
X132626097Y-102143663D01*
X132721302Y-102347830D01*
X132725965Y-102357830D01*
X132725967Y-102357834D01*
X132861501Y-102551395D01*
X132861506Y-102551402D01*
X133028597Y-102718493D01*
X133028603Y-102718498D01*
X133214158Y-102848425D01*
X133257783Y-102903002D01*
X133264977Y-102972500D01*
X133233454Y-103034855D01*
X133214158Y-103051575D01*
X133028597Y-103181505D01*
X132861505Y-103348597D01*
X132725965Y-103542169D01*
X132725964Y-103542171D01*
X132626098Y-103756335D01*
X132626094Y-103756344D01*
X132564938Y-103984586D01*
X132564936Y-103984596D01*
X132544341Y-104219999D01*
X132544341Y-104220000D01*
X132564936Y-104455403D01*
X132564938Y-104455413D01*
X132626094Y-104683655D01*
X132626096Y-104683659D01*
X132626097Y-104683663D01*
X132694220Y-104829752D01*
X132725965Y-104897830D01*
X132725967Y-104897834D01*
X132861501Y-105091395D01*
X132861506Y-105091402D01*
X133028597Y-105258493D01*
X133028603Y-105258498D01*
X133214158Y-105388425D01*
X133257783Y-105443002D01*
X133264977Y-105512500D01*
X133233454Y-105574855D01*
X133214158Y-105591575D01*
X133028597Y-105721505D01*
X132861505Y-105888597D01*
X132725965Y-106082169D01*
X132725964Y-106082171D01*
X132626098Y-106296335D01*
X132626094Y-106296344D01*
X132564938Y-106524586D01*
X132564936Y-106524596D01*
X132544341Y-106759999D01*
X132544341Y-106760000D01*
X132564936Y-106995403D01*
X132564938Y-106995413D01*
X132626094Y-107223655D01*
X132626096Y-107223659D01*
X132626097Y-107223663D01*
X132691414Y-107363735D01*
X132725965Y-107437830D01*
X132725967Y-107437834D01*
X132834281Y-107592521D01*
X132854499Y-107621396D01*
X132861501Y-107631395D01*
X132861506Y-107631402D01*
X133028597Y-107798493D01*
X133028603Y-107798498D01*
X133214158Y-107928425D01*
X133257783Y-107983002D01*
X133264977Y-108052500D01*
X133233454Y-108114855D01*
X133214158Y-108131575D01*
X133028597Y-108261505D01*
X132861505Y-108428597D01*
X132725965Y-108622169D01*
X132725964Y-108622171D01*
X132626098Y-108836335D01*
X132626094Y-108836344D01*
X132564938Y-109064586D01*
X132564936Y-109064596D01*
X132544341Y-109299999D01*
X132544341Y-109300000D01*
X132564936Y-109535403D01*
X132564938Y-109535413D01*
X132626094Y-109763655D01*
X132626096Y-109763659D01*
X132626097Y-109763663D01*
X132714262Y-109952732D01*
X132725965Y-109977830D01*
X132725967Y-109977834D01*
X132834281Y-110132521D01*
X132861505Y-110171401D01*
X133028599Y-110338495D01*
X133091199Y-110382328D01*
X133222165Y-110474032D01*
X133222167Y-110474033D01*
X133222170Y-110474035D01*
X133436337Y-110573903D01*
X133436343Y-110573904D01*
X133436344Y-110573905D01*
X133473262Y-110583797D01*
X133664592Y-110635063D01*
X133852918Y-110651539D01*
X133899999Y-110655659D01*
X133900000Y-110655659D01*
X133900001Y-110655659D01*
X133939234Y-110652226D01*
X134135408Y-110635063D01*
X134363663Y-110573903D01*
X134577830Y-110474035D01*
X134771401Y-110338495D01*
X134938495Y-110171401D01*
X135074035Y-109977830D01*
X135173903Y-109763663D01*
X135235063Y-109535408D01*
X135255659Y-109300000D01*
X135235063Y-109064592D01*
X135173903Y-108836337D01*
X135074035Y-108622171D01*
X134954971Y-108452128D01*
X134938494Y-108428597D01*
X134771402Y-108261506D01*
X134771396Y-108261501D01*
X134585842Y-108131575D01*
X134542217Y-108076998D01*
X134535023Y-108007500D01*
X134566546Y-107945145D01*
X134585842Y-107928425D01*
X134700442Y-107848181D01*
X134771401Y-107798495D01*
X134938495Y-107631401D01*
X135074035Y-107437830D01*
X135076707Y-107432097D01*
X135122878Y-107379658D01*
X135189091Y-107360500D01*
X135875500Y-107360500D01*
X135942539Y-107380185D01*
X135988294Y-107432989D01*
X135999500Y-107484500D01*
X135999500Y-114350500D01*
X135979815Y-114417539D01*
X135927011Y-114463294D01*
X135875500Y-114474500D01*
X135189091Y-114474500D01*
X135122052Y-114454815D01*
X135076711Y-114402909D01*
X135074037Y-114397175D01*
X135074034Y-114397170D01*
X135074033Y-114397169D01*
X135016002Y-114314290D01*
X134938494Y-114203597D01*
X134771402Y-114036506D01*
X134771395Y-114036501D01*
X134577834Y-113900967D01*
X134577830Y-113900965D01*
X134577828Y-113900964D01*
X134363663Y-113801097D01*
X134363659Y-113801096D01*
X134363655Y-113801094D01*
X134135413Y-113739938D01*
X134135403Y-113739936D01*
X133900001Y-113719341D01*
X133899999Y-113719341D01*
X133664596Y-113739936D01*
X133664586Y-113739938D01*
X133436344Y-113801094D01*
X133436335Y-113801098D01*
X133222171Y-113900964D01*
X133222169Y-113900965D01*
X133028597Y-114036505D01*
X132861505Y-114203597D01*
X132725965Y-114397169D01*
X132725964Y-114397171D01*
X132626098Y-114611335D01*
X132626094Y-114611344D01*
X132564938Y-114839586D01*
X132564936Y-114839596D01*
X132544341Y-115074999D01*
X132544341Y-115075000D01*
X132564936Y-115310403D01*
X132564938Y-115310413D01*
X132626094Y-115538655D01*
X132626096Y-115538659D01*
X132626097Y-115538663D01*
X132689906Y-115675501D01*
X132725965Y-115752830D01*
X132725967Y-115752834D01*
X132834281Y-115907521D01*
X132861501Y-115946396D01*
X132861506Y-115946402D01*
X132983430Y-116068326D01*
X133016915Y-116129649D01*
X133011931Y-116199341D01*
X132970059Y-116255274D01*
X132939083Y-116272189D01*
X132807669Y-116321203D01*
X132807664Y-116321206D01*
X132692455Y-116407452D01*
X132692452Y-116407455D01*
X132606206Y-116522664D01*
X132606202Y-116522671D01*
X132555908Y-116657517D01*
X132549501Y-116717116D01*
X132549501Y-116717123D01*
X132549500Y-116717135D01*
X132549500Y-118512870D01*
X132549501Y-118512876D01*
X132555908Y-118572483D01*
X132606202Y-118707328D01*
X132606206Y-118707335D01*
X132692452Y-118822544D01*
X132692455Y-118822547D01*
X132807664Y-118908793D01*
X132807671Y-118908797D01*
X132942517Y-118959091D01*
X132942516Y-118959091D01*
X132949444Y-118959835D01*
X133002127Y-118965500D01*
X134797872Y-118965499D01*
X134857483Y-118959091D01*
X134992331Y-118908796D01*
X135107546Y-118822546D01*
X135193796Y-118707331D01*
X135244091Y-118572483D01*
X135250500Y-118512873D01*
X135250499Y-116717128D01*
X135244091Y-116657517D01*
X135239399Y-116644938D01*
X135193797Y-116522671D01*
X135193793Y-116522664D01*
X135107547Y-116407455D01*
X135107544Y-116407452D01*
X134992335Y-116321206D01*
X134992328Y-116321202D01*
X134860917Y-116272189D01*
X134804983Y-116230318D01*
X134780566Y-116164853D01*
X134795418Y-116096580D01*
X134816563Y-116068332D01*
X134938495Y-115946401D01*
X135074035Y-115752830D01*
X135076707Y-115747097D01*
X135122878Y-115694658D01*
X135189091Y-115675500D01*
X136240831Y-115675500D01*
X136240847Y-115675501D01*
X136248443Y-115675501D01*
X136406554Y-115675501D01*
X136406557Y-115675501D01*
X136559285Y-115634577D01*
X136609404Y-115605639D01*
X136696216Y-115555520D01*
X136808020Y-115443716D01*
X136808020Y-115443714D01*
X136812416Y-115439319D01*
X136873739Y-115405834D01*
X136900098Y-115403000D01*
X144679903Y-115403000D01*
X144746942Y-115422685D01*
X144767584Y-115439319D01*
X144863181Y-115534916D01*
X144896666Y-115596239D01*
X144899500Y-115622597D01*
X144899500Y-116505500D01*
X144879815Y-116572539D01*
X144827011Y-116618294D01*
X144775501Y-116629500D01*
X144602130Y-116629500D01*
X144602123Y-116629501D01*
X144542516Y-116635908D01*
X144407671Y-116686202D01*
X144407664Y-116686206D01*
X144292455Y-116772452D01*
X144292452Y-116772455D01*
X144206206Y-116887664D01*
X144206202Y-116887671D01*
X144155908Y-117022517D01*
X144149501Y-117082116D01*
X144149500Y-117082135D01*
X144149500Y-118877870D01*
X144149501Y-118877876D01*
X144155908Y-118937483D01*
X144206202Y-119072328D01*
X144206206Y-119072335D01*
X144292452Y-119187544D01*
X144292455Y-119187547D01*
X144407664Y-119273793D01*
X144407671Y-119273797D01*
X144539081Y-119322810D01*
X144595015Y-119364681D01*
X144619432Y-119430145D01*
X144604580Y-119498418D01*
X144583430Y-119526673D01*
X144461503Y-119648600D01*
X144325965Y-119842169D01*
X144325964Y-119842171D01*
X144226098Y-120056335D01*
X144226094Y-120056344D01*
X144164938Y-120284586D01*
X144164936Y-120284596D01*
X144144341Y-120519999D01*
X144144341Y-120520000D01*
X144164936Y-120755403D01*
X144164938Y-120755413D01*
X144226094Y-120983655D01*
X144226096Y-120983659D01*
X144226097Y-120983663D01*
X144306004Y-121155023D01*
X144325965Y-121197830D01*
X144325967Y-121197834D01*
X144385599Y-121282996D01*
X144461501Y-121391396D01*
X144461506Y-121391402D01*
X144628597Y-121558493D01*
X144628603Y-121558498D01*
X144814158Y-121688425D01*
X144857783Y-121743002D01*
X144864977Y-121812500D01*
X144833454Y-121874855D01*
X144814158Y-121891575D01*
X144628597Y-122021505D01*
X144461505Y-122188597D01*
X144325965Y-122382169D01*
X144325964Y-122382171D01*
X144226098Y-122596335D01*
X144226094Y-122596344D01*
X144164938Y-122824586D01*
X144164936Y-122824596D01*
X144144341Y-123059999D01*
X144144341Y-123060000D01*
X144164936Y-123295403D01*
X144164938Y-123295413D01*
X144226094Y-123523655D01*
X144226096Y-123523659D01*
X144226097Y-123523663D01*
X144306004Y-123695023D01*
X144325965Y-123737830D01*
X144325967Y-123737834D01*
X144434281Y-123892521D01*
X144461501Y-123931396D01*
X144461506Y-123931402D01*
X144628597Y-124098493D01*
X144628603Y-124098498D01*
X144814158Y-124228425D01*
X144857783Y-124283002D01*
X144864977Y-124352500D01*
X144833454Y-124414855D01*
X144814158Y-124431575D01*
X144628597Y-124561505D01*
X144461505Y-124728597D01*
X144325965Y-124922169D01*
X144325964Y-124922171D01*
X144226098Y-125136335D01*
X144226094Y-125136344D01*
X144164938Y-125364586D01*
X144164936Y-125364596D01*
X144144341Y-125599999D01*
X144144341Y-125600000D01*
X144164936Y-125835403D01*
X144164938Y-125835413D01*
X144226094Y-126063655D01*
X144226096Y-126063659D01*
X144226097Y-126063663D01*
X144306004Y-126235023D01*
X144325965Y-126277830D01*
X144325967Y-126277834D01*
X144434281Y-126432521D01*
X144461501Y-126471396D01*
X144461506Y-126471402D01*
X144628597Y-126638493D01*
X144628603Y-126638498D01*
X144814158Y-126768425D01*
X144857783Y-126823002D01*
X144864977Y-126892500D01*
X144833454Y-126954855D01*
X144814158Y-126971575D01*
X144628597Y-127101505D01*
X144461505Y-127268597D01*
X144325965Y-127462169D01*
X144325964Y-127462171D01*
X144226098Y-127676335D01*
X144226094Y-127676344D01*
X144164938Y-127904586D01*
X144164936Y-127904596D01*
X144144341Y-128139999D01*
X144144341Y-128140000D01*
X144164936Y-128375403D01*
X144164938Y-128375413D01*
X144226094Y-128603655D01*
X144226096Y-128603659D01*
X144226097Y-128603663D01*
X144306004Y-128775023D01*
X144325965Y-128817830D01*
X144325967Y-128817834D01*
X144434281Y-128972521D01*
X144461505Y-129011401D01*
X144628599Y-129178495D01*
X144725384Y-129246265D01*
X144822165Y-129314032D01*
X144822167Y-129314033D01*
X144822170Y-129314035D01*
X145036337Y-129413903D01*
X145264592Y-129475063D01*
X145452918Y-129491539D01*
X145499999Y-129495659D01*
X145500000Y-129495659D01*
X145500001Y-129495659D01*
X145539234Y-129492226D01*
X145735408Y-129475063D01*
X145963663Y-129413903D01*
X146177830Y-129314035D01*
X146371401Y-129178495D01*
X146538495Y-129011401D01*
X146668425Y-128825842D01*
X146723002Y-128782217D01*
X146792500Y-128775023D01*
X146854855Y-128806546D01*
X146871575Y-128825842D01*
X147001500Y-129011395D01*
X147001505Y-129011401D01*
X147168599Y-129178495D01*
X147265384Y-129246265D01*
X147362165Y-129314032D01*
X147362167Y-129314033D01*
X147362170Y-129314035D01*
X147576337Y-129413903D01*
X147804592Y-129475063D01*
X147992918Y-129491539D01*
X148039999Y-129495659D01*
X148040000Y-129495659D01*
X148040001Y-129495659D01*
X148079234Y-129492226D01*
X148275408Y-129475063D01*
X148503663Y-129413903D01*
X148717830Y-129314035D01*
X148911401Y-129178495D01*
X149078495Y-129011401D01*
X149214035Y-128817830D01*
X149313903Y-128603663D01*
X149375063Y-128375408D01*
X149395659Y-128140000D01*
X149375063Y-127904592D01*
X149313903Y-127676337D01*
X149214035Y-127462171D01*
X149208425Y-127454158D01*
X149078494Y-127268597D01*
X148911402Y-127101506D01*
X148911396Y-127101501D01*
X148725842Y-126971575D01*
X148682217Y-126916998D01*
X148675023Y-126847500D01*
X148706546Y-126785145D01*
X148725842Y-126768425D01*
X148748026Y-126752891D01*
X148911401Y-126638495D01*
X149078495Y-126471401D01*
X149214035Y-126277830D01*
X149313903Y-126063663D01*
X149375063Y-125835408D01*
X149395659Y-125600000D01*
X149375063Y-125364592D01*
X149313903Y-125136337D01*
X149214035Y-124922171D01*
X149208425Y-124914158D01*
X149078494Y-124728597D01*
X148911402Y-124561506D01*
X148911396Y-124561501D01*
X148725842Y-124431575D01*
X148682217Y-124376998D01*
X148675023Y-124307500D01*
X148706546Y-124245145D01*
X148725842Y-124228425D01*
X148759168Y-124205090D01*
X148911401Y-124098495D01*
X149078495Y-123931401D01*
X149214035Y-123737830D01*
X149313903Y-123523663D01*
X149375063Y-123295408D01*
X149395659Y-123060000D01*
X149375063Y-122824592D01*
X149313903Y-122596337D01*
X149214035Y-122382171D01*
X149208425Y-122374158D01*
X149078494Y-122188597D01*
X148911402Y-122021506D01*
X148911396Y-122021501D01*
X148725842Y-121891575D01*
X148682217Y-121836998D01*
X148675023Y-121767500D01*
X148706546Y-121705145D01*
X148725842Y-121688425D01*
X148898286Y-121567678D01*
X148911401Y-121558495D01*
X149078495Y-121391401D01*
X149214035Y-121197830D01*
X149313903Y-120983663D01*
X149375063Y-120755408D01*
X149395659Y-120520000D01*
X149395659Y-120519999D01*
X151144341Y-120519999D01*
X151144341Y-120520000D01*
X151164936Y-120755403D01*
X151164938Y-120755413D01*
X151226094Y-120983655D01*
X151226096Y-120983659D01*
X151226097Y-120983663D01*
X151306004Y-121155023D01*
X151325965Y-121197830D01*
X151325967Y-121197834D01*
X151385599Y-121282996D01*
X151461501Y-121391396D01*
X151461506Y-121391402D01*
X151628597Y-121558493D01*
X151628603Y-121558498D01*
X151814158Y-121688425D01*
X151857783Y-121743002D01*
X151864977Y-121812500D01*
X151833454Y-121874855D01*
X151814158Y-121891575D01*
X151628597Y-122021505D01*
X151461505Y-122188597D01*
X151325965Y-122382169D01*
X151325964Y-122382171D01*
X151226098Y-122596335D01*
X151226094Y-122596344D01*
X151164938Y-122824586D01*
X151164936Y-122824596D01*
X151144341Y-123059999D01*
X151144341Y-123060000D01*
X151164936Y-123295403D01*
X151164938Y-123295413D01*
X151226094Y-123523655D01*
X151226096Y-123523659D01*
X151226097Y-123523663D01*
X151306004Y-123695023D01*
X151325965Y-123737830D01*
X151325967Y-123737834D01*
X151434281Y-123892521D01*
X151461501Y-123931396D01*
X151461506Y-123931402D01*
X151628597Y-124098493D01*
X151628603Y-124098498D01*
X151814158Y-124228425D01*
X151857783Y-124283002D01*
X151864977Y-124352500D01*
X151833454Y-124414855D01*
X151814158Y-124431575D01*
X151628597Y-124561505D01*
X151461505Y-124728597D01*
X151325965Y-124922169D01*
X151325964Y-124922171D01*
X151226098Y-125136335D01*
X151226094Y-125136344D01*
X151164938Y-125364586D01*
X151164936Y-125364596D01*
X151144341Y-125599999D01*
X151144341Y-125600000D01*
X151164936Y-125835403D01*
X151164938Y-125835413D01*
X151226094Y-126063655D01*
X151226096Y-126063659D01*
X151226097Y-126063663D01*
X151306004Y-126235023D01*
X151325965Y-126277830D01*
X151325967Y-126277834D01*
X151434281Y-126432521D01*
X151461501Y-126471396D01*
X151461506Y-126471402D01*
X151628597Y-126638493D01*
X151628603Y-126638498D01*
X151814158Y-126768425D01*
X151857783Y-126823002D01*
X151864977Y-126892500D01*
X151833454Y-126954855D01*
X151814158Y-126971575D01*
X151628597Y-127101505D01*
X151461505Y-127268597D01*
X151325965Y-127462169D01*
X151325964Y-127462171D01*
X151226098Y-127676335D01*
X151226094Y-127676344D01*
X151164938Y-127904586D01*
X151164936Y-127904596D01*
X151144341Y-128139999D01*
X151144341Y-128140000D01*
X151164936Y-128375403D01*
X151164938Y-128375413D01*
X151226094Y-128603655D01*
X151226096Y-128603659D01*
X151226097Y-128603663D01*
X151306004Y-128775023D01*
X151325965Y-128817830D01*
X151325967Y-128817834D01*
X151434281Y-128972521D01*
X151461505Y-129011401D01*
X151628599Y-129178495D01*
X151725384Y-129246265D01*
X151822165Y-129314032D01*
X151822167Y-129314033D01*
X151822170Y-129314035D01*
X152036337Y-129413903D01*
X152264592Y-129475063D01*
X152452918Y-129491539D01*
X152499999Y-129495659D01*
X152500000Y-129495659D01*
X152500001Y-129495659D01*
X152539234Y-129492226D01*
X152735408Y-129475063D01*
X152963663Y-129413903D01*
X153177830Y-129314035D01*
X153371401Y-129178495D01*
X153538495Y-129011401D01*
X153668425Y-128825842D01*
X153723002Y-128782217D01*
X153792500Y-128775023D01*
X153854855Y-128806546D01*
X153871575Y-128825842D01*
X154001500Y-129011395D01*
X154001505Y-129011401D01*
X154168599Y-129178495D01*
X154265384Y-129246265D01*
X154362165Y-129314032D01*
X154362167Y-129314033D01*
X154362170Y-129314035D01*
X154576337Y-129413903D01*
X154804592Y-129475063D01*
X154992918Y-129491539D01*
X155039999Y-129495659D01*
X155040000Y-129495659D01*
X155040001Y-129495659D01*
X155079234Y-129492226D01*
X155275408Y-129475063D01*
X155503663Y-129413903D01*
X155717830Y-129314035D01*
X155911401Y-129178495D01*
X156078495Y-129011401D01*
X156214035Y-128817830D01*
X156313903Y-128603663D01*
X156375063Y-128375408D01*
X156395659Y-128140000D01*
X156375063Y-127904592D01*
X156313903Y-127676337D01*
X156214035Y-127462171D01*
X156208425Y-127454158D01*
X156078494Y-127268597D01*
X155911402Y-127101506D01*
X155911396Y-127101501D01*
X155725842Y-126971575D01*
X155682217Y-126916998D01*
X155675023Y-126847500D01*
X155706546Y-126785145D01*
X155725842Y-126768425D01*
X155748026Y-126752891D01*
X155911401Y-126638495D01*
X156078495Y-126471401D01*
X156214035Y-126277830D01*
X156313903Y-126063663D01*
X156375063Y-125835408D01*
X156395659Y-125600000D01*
X156375063Y-125364592D01*
X156313903Y-125136337D01*
X156214035Y-124922171D01*
X156208425Y-124914158D01*
X156078494Y-124728597D01*
X155911402Y-124561506D01*
X155911396Y-124561501D01*
X155725842Y-124431575D01*
X155682217Y-124376998D01*
X155675023Y-124307500D01*
X155706546Y-124245145D01*
X155725842Y-124228425D01*
X155759168Y-124205090D01*
X155911401Y-124098495D01*
X156078495Y-123931401D01*
X156214035Y-123737830D01*
X156313903Y-123523663D01*
X156375063Y-123295408D01*
X156395659Y-123060000D01*
X156375063Y-122824592D01*
X156313903Y-122596337D01*
X156264314Y-122489994D01*
X156874556Y-122489994D01*
X156874556Y-122490005D01*
X156894310Y-122804004D01*
X156894311Y-122804011D01*
X156894312Y-122804015D01*
X156943143Y-123059999D01*
X156953270Y-123113083D01*
X157050497Y-123412316D01*
X157050499Y-123412321D01*
X157184461Y-123697003D01*
X157184464Y-123697009D01*
X157353051Y-123962661D01*
X157353054Y-123962665D01*
X157553606Y-124205090D01*
X157553608Y-124205092D01*
X157782968Y-124420476D01*
X157782978Y-124420484D01*
X158037504Y-124605408D01*
X158037509Y-124605410D01*
X158037516Y-124605416D01*
X158313234Y-124756994D01*
X158313239Y-124756996D01*
X158313241Y-124756997D01*
X158313242Y-124756998D01*
X158605771Y-124872818D01*
X158605774Y-124872819D01*
X158910523Y-124951065D01*
X158910527Y-124951066D01*
X158963698Y-124957783D01*
X159222670Y-124990499D01*
X159222679Y-124990499D01*
X159222682Y-124990500D01*
X159222684Y-124990500D01*
X159537316Y-124990500D01*
X159537318Y-124990500D01*
X159537321Y-124990499D01*
X159537329Y-124990499D01*
X159739355Y-124964977D01*
X159849473Y-124951066D01*
X160154225Y-124872819D01*
X160154228Y-124872818D01*
X160446757Y-124756998D01*
X160446758Y-124756997D01*
X160446756Y-124756997D01*
X160446766Y-124756994D01*
X160722484Y-124605416D01*
X160977030Y-124420478D01*
X161206390Y-124205094D01*
X161406947Y-123962663D01*
X161575537Y-123697007D01*
X161709503Y-123412315D01*
X161806731Y-123113079D01*
X161865688Y-122804015D01*
X161869916Y-122736810D01*
X161885444Y-122490005D01*
X161885444Y-122489994D01*
X161865689Y-122175995D01*
X161865688Y-122175988D01*
X161865688Y-122175985D01*
X161806731Y-121866921D01*
X161709503Y-121567685D01*
X161575537Y-121282993D01*
X161514330Y-121186546D01*
X161406948Y-121017338D01*
X161406945Y-121017334D01*
X161206393Y-120774909D01*
X161206391Y-120774907D01*
X160977031Y-120559523D01*
X160977021Y-120559515D01*
X160722495Y-120374591D01*
X160722488Y-120374586D01*
X160722484Y-120374584D01*
X160446766Y-120223006D01*
X160446763Y-120223004D01*
X160446758Y-120223002D01*
X160446757Y-120223001D01*
X160154228Y-120107181D01*
X160154225Y-120107180D01*
X159849476Y-120028934D01*
X159849463Y-120028932D01*
X159537329Y-119989500D01*
X159537318Y-119989500D01*
X159222682Y-119989500D01*
X159222670Y-119989500D01*
X158910536Y-120028932D01*
X158910523Y-120028934D01*
X158605774Y-120107180D01*
X158605771Y-120107181D01*
X158313242Y-120223001D01*
X158313241Y-120223002D01*
X158037516Y-120374584D01*
X158037504Y-120374591D01*
X157782978Y-120559515D01*
X157782968Y-120559523D01*
X157553608Y-120774907D01*
X157553606Y-120774909D01*
X157353054Y-121017334D01*
X157353051Y-121017338D01*
X157184464Y-121282990D01*
X157184461Y-121282996D01*
X157050499Y-121567678D01*
X157050497Y-121567683D01*
X156953270Y-121866916D01*
X156894311Y-122175988D01*
X156894310Y-122175995D01*
X156874556Y-122489994D01*
X156264314Y-122489994D01*
X156214035Y-122382171D01*
X156208425Y-122374158D01*
X156078494Y-122188597D01*
X155911402Y-122021506D01*
X155911396Y-122021501D01*
X155725842Y-121891575D01*
X155682217Y-121836998D01*
X155675023Y-121767500D01*
X155706546Y-121705145D01*
X155725842Y-121688425D01*
X155898286Y-121567678D01*
X155911401Y-121558495D01*
X156078495Y-121391401D01*
X156214035Y-121197830D01*
X156313903Y-120983663D01*
X156375063Y-120755408D01*
X156395659Y-120520000D01*
X156375063Y-120284592D01*
X156313903Y-120056337D01*
X156214035Y-119842171D01*
X156208425Y-119834158D01*
X156078494Y-119648597D01*
X155911402Y-119481506D01*
X155911396Y-119481501D01*
X155725842Y-119351575D01*
X155682217Y-119296998D01*
X155675023Y-119227500D01*
X155706546Y-119165145D01*
X155725842Y-119148425D01*
X155748026Y-119132891D01*
X155911401Y-119018495D01*
X156078495Y-118851401D01*
X156214035Y-118657830D01*
X156313903Y-118443663D01*
X156375063Y-118215408D01*
X156395659Y-117980000D01*
X156375063Y-117744592D01*
X156313903Y-117516337D01*
X156214035Y-117302171D01*
X156078495Y-117108599D01*
X156078494Y-117108597D01*
X155911402Y-116941506D01*
X155911395Y-116941501D01*
X155717834Y-116805967D01*
X155717830Y-116805965D01*
X155712085Y-116803286D01*
X155503663Y-116706097D01*
X155503659Y-116706096D01*
X155503655Y-116706094D01*
X155275413Y-116644938D01*
X155275403Y-116644936D01*
X155040001Y-116624341D01*
X155039999Y-116624341D01*
X154804596Y-116644936D01*
X154804586Y-116644938D01*
X154576344Y-116706094D01*
X154576335Y-116706098D01*
X154362171Y-116805964D01*
X154362169Y-116805965D01*
X154168600Y-116941503D01*
X154046673Y-117063430D01*
X153985350Y-117096914D01*
X153915658Y-117091930D01*
X153859725Y-117050058D01*
X153842810Y-117019081D01*
X153793797Y-116887671D01*
X153793793Y-116887664D01*
X153707547Y-116772455D01*
X153707544Y-116772452D01*
X153592335Y-116686206D01*
X153592328Y-116686202D01*
X153457482Y-116635908D01*
X153457483Y-116635908D01*
X153397883Y-116629501D01*
X153397881Y-116629500D01*
X153397873Y-116629500D01*
X153397864Y-116629500D01*
X151602129Y-116629500D01*
X151602123Y-116629501D01*
X151542516Y-116635908D01*
X151407671Y-116686202D01*
X151407664Y-116686206D01*
X151292455Y-116772452D01*
X151292452Y-116772455D01*
X151206206Y-116887664D01*
X151206202Y-116887671D01*
X151155908Y-117022517D01*
X151149501Y-117082116D01*
X151149500Y-117082135D01*
X151149500Y-118877870D01*
X151149501Y-118877876D01*
X151155908Y-118937483D01*
X151206202Y-119072328D01*
X151206206Y-119072335D01*
X151292452Y-119187544D01*
X151292455Y-119187547D01*
X151407664Y-119273793D01*
X151407671Y-119273797D01*
X151539081Y-119322810D01*
X151595015Y-119364681D01*
X151619432Y-119430145D01*
X151604580Y-119498418D01*
X151583430Y-119526673D01*
X151461503Y-119648600D01*
X151325965Y-119842169D01*
X151325964Y-119842171D01*
X151226098Y-120056335D01*
X151226094Y-120056344D01*
X151164938Y-120284586D01*
X151164936Y-120284596D01*
X151144341Y-120519999D01*
X149395659Y-120519999D01*
X149375063Y-120284592D01*
X149313903Y-120056337D01*
X149214035Y-119842171D01*
X149208425Y-119834158D01*
X149078494Y-119648597D01*
X148911402Y-119481506D01*
X148911396Y-119481501D01*
X148725842Y-119351575D01*
X148682217Y-119296998D01*
X148675023Y-119227500D01*
X148706546Y-119165145D01*
X148725842Y-119148425D01*
X148748026Y-119132891D01*
X148911401Y-119018495D01*
X149078495Y-118851401D01*
X149214035Y-118657830D01*
X149313903Y-118443663D01*
X149375063Y-118215408D01*
X149395659Y-117980000D01*
X149375063Y-117744592D01*
X149313903Y-117516337D01*
X149214035Y-117302171D01*
X149078495Y-117108599D01*
X149078494Y-117108597D01*
X148911402Y-116941506D01*
X148911395Y-116941501D01*
X148717831Y-116805965D01*
X148717826Y-116805962D01*
X148712091Y-116803288D01*
X148659653Y-116757113D01*
X148640500Y-116690908D01*
X148640500Y-115642597D01*
X148660185Y-115575558D01*
X148676819Y-115554916D01*
X148792416Y-115439319D01*
X148853739Y-115405834D01*
X148880097Y-115403000D01*
X156379903Y-115403000D01*
X156446942Y-115422685D01*
X156467584Y-115439319D01*
X156467639Y-115439374D01*
X156467649Y-115439385D01*
X156471979Y-115443715D01*
X156471980Y-115443716D01*
X156583784Y-115555520D01*
X156618492Y-115575558D01*
X156670595Y-115605639D01*
X156670597Y-115605641D01*
X156720713Y-115634576D01*
X156720715Y-115634577D01*
X156873442Y-115675500D01*
X156873443Y-115675500D01*
X158090909Y-115675500D01*
X158157948Y-115695185D01*
X158203292Y-115747097D01*
X158205965Y-115752830D01*
X158341501Y-115946396D01*
X158341506Y-115946402D01*
X158463430Y-116068326D01*
X158496915Y-116129649D01*
X158491931Y-116199341D01*
X158450059Y-116255274D01*
X158419083Y-116272189D01*
X158287669Y-116321203D01*
X158287664Y-116321206D01*
X158172455Y-116407452D01*
X158172452Y-116407455D01*
X158086206Y-116522664D01*
X158086202Y-116522671D01*
X158035908Y-116657517D01*
X158029501Y-116717116D01*
X158029501Y-116717123D01*
X158029500Y-116717135D01*
X158029500Y-118512870D01*
X158029501Y-118512876D01*
X158035908Y-118572483D01*
X158086202Y-118707328D01*
X158086206Y-118707335D01*
X158172452Y-118822544D01*
X158172455Y-118822547D01*
X158287664Y-118908793D01*
X158287671Y-118908797D01*
X158422517Y-118959091D01*
X158422516Y-118959091D01*
X158429444Y-118959835D01*
X158482127Y-118965500D01*
X160277872Y-118965499D01*
X160337483Y-118959091D01*
X160472331Y-118908796D01*
X160587546Y-118822546D01*
X160673796Y-118707331D01*
X160724091Y-118572483D01*
X160730500Y-118512873D01*
X160730499Y-116717128D01*
X160724091Y-116657517D01*
X160719399Y-116644938D01*
X160673797Y-116522671D01*
X160673793Y-116522664D01*
X160587547Y-116407455D01*
X160587544Y-116407452D01*
X160472335Y-116321206D01*
X160472328Y-116321202D01*
X160340917Y-116272189D01*
X160284983Y-116230318D01*
X160260566Y-116164853D01*
X160275418Y-116096580D01*
X160296563Y-116068332D01*
X160418495Y-115946401D01*
X160554035Y-115752830D01*
X160653903Y-115538663D01*
X160715063Y-115310408D01*
X160735659Y-115075000D01*
X160715063Y-114839592D01*
X160653903Y-114611337D01*
X160554035Y-114397171D01*
X160554034Y-114397169D01*
X160418494Y-114203597D01*
X160251402Y-114036506D01*
X160251395Y-114036501D01*
X160057834Y-113900967D01*
X160057830Y-113900965D01*
X160057828Y-113900964D01*
X159843663Y-113801097D01*
X159843659Y-113801096D01*
X159843655Y-113801094D01*
X159615413Y-113739938D01*
X159615403Y-113739936D01*
X159380001Y-113719341D01*
X159379999Y-113719341D01*
X159144596Y-113739936D01*
X159144586Y-113739938D01*
X158916344Y-113801094D01*
X158916335Y-113801098D01*
X158702171Y-113900964D01*
X158702169Y-113900965D01*
X158508597Y-114036505D01*
X158341506Y-114203596D01*
X158205965Y-114397170D01*
X158205962Y-114397175D01*
X158203289Y-114402909D01*
X158157115Y-114455346D01*
X158090909Y-114474500D01*
X157404500Y-114474500D01*
X157337461Y-114454815D01*
X157291706Y-114402011D01*
X157280500Y-114350500D01*
X157280500Y-102420097D01*
X157300185Y-102353058D01*
X157316819Y-102332416D01*
X157342416Y-102306819D01*
X157403739Y-102273334D01*
X157430097Y-102270500D01*
X158090909Y-102270500D01*
X158157948Y-102290185D01*
X158203292Y-102342097D01*
X158205965Y-102347830D01*
X158341501Y-102541395D01*
X158341506Y-102541402D01*
X158508597Y-102708493D01*
X158508603Y-102708498D01*
X158694158Y-102838425D01*
X158737783Y-102893002D01*
X158744977Y-102962500D01*
X158713454Y-103024855D01*
X158694158Y-103041575D01*
X158508597Y-103171505D01*
X158341505Y-103338597D01*
X158205965Y-103532169D01*
X158205964Y-103532171D01*
X158106098Y-103746335D01*
X158106094Y-103746344D01*
X158044938Y-103974586D01*
X158044936Y-103974596D01*
X158024341Y-104209999D01*
X158024341Y-104210000D01*
X158044936Y-104445403D01*
X158044938Y-104445413D01*
X158106094Y-104673655D01*
X158106096Y-104673659D01*
X158106097Y-104673663D01*
X158178883Y-104829752D01*
X158205965Y-104887830D01*
X158205967Y-104887834D01*
X158341501Y-105081395D01*
X158341506Y-105081402D01*
X158508597Y-105248493D01*
X158508603Y-105248498D01*
X158694158Y-105378425D01*
X158737783Y-105433002D01*
X158744977Y-105502500D01*
X158713454Y-105564855D01*
X158694158Y-105581575D01*
X158508597Y-105711505D01*
X158341505Y-105878597D01*
X158205965Y-106072169D01*
X158205964Y-106072171D01*
X158132667Y-106229358D01*
X158109295Y-106279480D01*
X158106098Y-106286335D01*
X158106094Y-106286344D01*
X158044938Y-106514586D01*
X158044936Y-106514596D01*
X158024341Y-106749999D01*
X158024341Y-106750000D01*
X158044936Y-106985403D01*
X158044938Y-106985413D01*
X158106094Y-107213655D01*
X158106096Y-107213659D01*
X158106097Y-107213663D01*
X158176077Y-107363735D01*
X158205965Y-107427830D01*
X158205967Y-107427834D01*
X158314281Y-107582521D01*
X158341501Y-107621396D01*
X158341506Y-107621402D01*
X158463430Y-107743326D01*
X158496915Y-107804649D01*
X158491931Y-107874341D01*
X158450059Y-107930274D01*
X158419083Y-107947189D01*
X158287669Y-107996203D01*
X158287664Y-107996206D01*
X158172455Y-108082452D01*
X158172452Y-108082455D01*
X158086206Y-108197664D01*
X158086202Y-108197671D01*
X158035908Y-108332517D01*
X158029501Y-108392116D01*
X158029501Y-108392123D01*
X158029500Y-108392135D01*
X158029500Y-110187870D01*
X158029501Y-110187876D01*
X158035908Y-110247483D01*
X158086202Y-110382328D01*
X158086206Y-110382335D01*
X158172452Y-110497544D01*
X158172455Y-110497547D01*
X158287664Y-110583793D01*
X158287671Y-110583797D01*
X158422517Y-110634091D01*
X158422516Y-110634091D01*
X158429444Y-110634835D01*
X158482127Y-110640500D01*
X160277872Y-110640499D01*
X160337483Y-110634091D01*
X160472331Y-110583796D01*
X160587546Y-110497546D01*
X160673796Y-110382331D01*
X160724091Y-110247483D01*
X160730500Y-110187873D01*
X160730499Y-108392128D01*
X160724091Y-108332517D01*
X160711945Y-108299953D01*
X160673797Y-108197671D01*
X160673793Y-108197664D01*
X160587547Y-108082455D01*
X160587544Y-108082452D01*
X160472335Y-107996206D01*
X160472328Y-107996202D01*
X160340917Y-107947189D01*
X160284983Y-107905318D01*
X160260566Y-107839853D01*
X160275418Y-107771580D01*
X160296563Y-107743332D01*
X160418495Y-107621401D01*
X160554035Y-107427830D01*
X160653903Y-107213663D01*
X160715063Y-106985408D01*
X160735659Y-106750000D01*
X160715063Y-106514592D01*
X160656584Y-106296344D01*
X160653905Y-106286344D01*
X160653904Y-106286343D01*
X160653903Y-106286337D01*
X160554035Y-106072171D01*
X160418495Y-105878599D01*
X160418494Y-105878597D01*
X160251402Y-105711506D01*
X160251396Y-105711501D01*
X160065842Y-105581575D01*
X160022217Y-105526998D01*
X160015023Y-105457500D01*
X160046546Y-105395145D01*
X160065842Y-105378425D01*
X160237115Y-105258498D01*
X160251401Y-105248495D01*
X160418495Y-105081401D01*
X160554035Y-104887830D01*
X160653903Y-104673663D01*
X160715063Y-104445408D01*
X160735659Y-104210000D01*
X160715063Y-103974592D01*
X160656584Y-103756344D01*
X160653905Y-103746344D01*
X160653904Y-103746343D01*
X160653903Y-103746337D01*
X160554035Y-103532171D01*
X160418495Y-103338599D01*
X160418494Y-103338597D01*
X160251402Y-103171506D01*
X160251396Y-103171501D01*
X160065842Y-103041575D01*
X160022217Y-102986998D01*
X160015023Y-102917500D01*
X160046546Y-102855145D01*
X160065842Y-102838425D01*
X160237115Y-102718498D01*
X160251401Y-102708495D01*
X160418495Y-102541401D01*
X160554035Y-102347830D01*
X160653903Y-102133663D01*
X160715063Y-101905408D01*
X160735659Y-101670000D01*
X160715063Y-101434592D01*
X160656584Y-101216344D01*
X160653905Y-101206344D01*
X160653904Y-101206343D01*
X160653903Y-101206337D01*
X160554035Y-100992171D01*
X160554034Y-100992169D01*
X160418494Y-100798597D01*
X160251402Y-100631506D01*
X160251396Y-100631501D01*
X160065842Y-100501575D01*
X160022217Y-100446998D01*
X160015023Y-100377500D01*
X160046546Y-100315145D01*
X160065842Y-100298425D01*
X160237115Y-100178498D01*
X160251401Y-100168495D01*
X160418495Y-100001401D01*
X160554035Y-99807830D01*
X160653903Y-99593663D01*
X160715063Y-99365408D01*
X160735659Y-99130000D01*
X160715063Y-98894592D01*
X160656584Y-98676344D01*
X160653905Y-98666344D01*
X160653904Y-98666343D01*
X160653903Y-98666337D01*
X160554035Y-98452171D01*
X160418495Y-98258599D01*
X160418494Y-98258597D01*
X160251402Y-98091506D01*
X160251396Y-98091501D01*
X160065842Y-97961575D01*
X160022217Y-97906998D01*
X160015023Y-97837500D01*
X160046546Y-97775145D01*
X160065842Y-97758425D01*
X160237115Y-97638498D01*
X160251401Y-97628495D01*
X160418495Y-97461401D01*
X160554035Y-97267830D01*
X160653903Y-97053663D01*
X160715063Y-96825408D01*
X160735659Y-96590000D01*
X160715063Y-96354592D01*
X160656584Y-96136344D01*
X160653905Y-96126344D01*
X160653904Y-96126343D01*
X160653903Y-96126337D01*
X160554035Y-95912171D01*
X160418495Y-95718599D01*
X160418494Y-95718597D01*
X160251402Y-95551506D01*
X160251396Y-95551501D01*
X160065842Y-95421575D01*
X160022217Y-95366998D01*
X160015023Y-95297500D01*
X160046546Y-95235145D01*
X160065842Y-95218425D01*
X160237115Y-95098498D01*
X160251401Y-95088495D01*
X160418495Y-94921401D01*
X160554035Y-94727830D01*
X160653903Y-94513663D01*
X160715063Y-94285408D01*
X160735659Y-94050000D01*
X160715063Y-93814592D01*
X160656584Y-93596344D01*
X160653905Y-93586344D01*
X160653904Y-93586343D01*
X160653903Y-93586337D01*
X160554035Y-93372171D01*
X160418495Y-93178599D01*
X160418494Y-93178597D01*
X160251402Y-93011506D01*
X160251396Y-93011501D01*
X160065842Y-92881575D01*
X160022217Y-92826998D01*
X160015023Y-92757500D01*
X160046546Y-92695145D01*
X160065842Y-92678425D01*
X160237115Y-92558498D01*
X160251401Y-92548495D01*
X160418495Y-92381401D01*
X160554035Y-92187830D01*
X160653903Y-91973663D01*
X160715063Y-91745408D01*
X160735659Y-91510000D01*
X160715063Y-91274592D01*
X160656584Y-91056344D01*
X160653905Y-91046344D01*
X160653904Y-91046343D01*
X160653903Y-91046337D01*
X160554035Y-90832171D01*
X160418495Y-90638599D01*
X160418494Y-90638597D01*
X160251402Y-90471506D01*
X160251396Y-90471501D01*
X160065842Y-90341575D01*
X160022217Y-90286998D01*
X160015023Y-90217500D01*
X160046546Y-90155145D01*
X160065842Y-90138425D01*
X160237115Y-90018498D01*
X160251401Y-90008495D01*
X160418495Y-89841401D01*
X160554035Y-89647830D01*
X160653903Y-89433663D01*
X160715063Y-89205408D01*
X160735659Y-88970000D01*
X160715063Y-88734592D01*
X160656584Y-88516344D01*
X160653905Y-88506344D01*
X160653904Y-88506343D01*
X160653903Y-88506337D01*
X160554035Y-88292171D01*
X160418495Y-88098599D01*
X160418494Y-88098597D01*
X160251402Y-87931506D01*
X160251396Y-87931501D01*
X160065842Y-87801575D01*
X160022217Y-87746998D01*
X160015023Y-87677500D01*
X160046546Y-87615145D01*
X160065842Y-87598425D01*
X160237115Y-87478498D01*
X160251401Y-87468495D01*
X160418495Y-87301401D01*
X160554035Y-87107830D01*
X160653903Y-86893663D01*
X160715063Y-86665408D01*
X160735659Y-86430000D01*
X160715063Y-86194592D01*
X160656584Y-85976344D01*
X160653905Y-85966344D01*
X160653904Y-85966343D01*
X160653903Y-85966337D01*
X160554035Y-85752171D01*
X160418495Y-85558599D01*
X160418494Y-85558597D01*
X160251402Y-85391506D01*
X160251396Y-85391501D01*
X160065842Y-85261575D01*
X160022217Y-85206998D01*
X160015023Y-85137500D01*
X160046546Y-85075145D01*
X160065842Y-85058425D01*
X160237115Y-84938498D01*
X160251401Y-84928495D01*
X160418495Y-84761401D01*
X160554035Y-84567830D01*
X160653903Y-84353663D01*
X160715063Y-84125408D01*
X160735659Y-83890000D01*
X160715063Y-83654592D01*
X160656584Y-83436344D01*
X160653905Y-83426344D01*
X160653904Y-83426343D01*
X160653903Y-83426337D01*
X160554035Y-83212171D01*
X160418495Y-83018599D01*
X160418494Y-83018597D01*
X160251402Y-82851506D01*
X160251396Y-82851501D01*
X160065842Y-82721575D01*
X160022217Y-82666998D01*
X160015023Y-82597500D01*
X160046546Y-82535145D01*
X160065842Y-82518425D01*
X160237115Y-82398498D01*
X160251401Y-82388495D01*
X160418495Y-82221401D01*
X160554035Y-82027830D01*
X160653903Y-81813663D01*
X160715063Y-81585408D01*
X160735659Y-81350000D01*
X160715063Y-81114592D01*
X160656584Y-80896344D01*
X160653905Y-80886344D01*
X160653904Y-80886343D01*
X160653903Y-80886337D01*
X160554035Y-80672171D01*
X160418495Y-80478599D01*
X160418494Y-80478597D01*
X160251402Y-80311506D01*
X160251396Y-80311501D01*
X160065842Y-80181575D01*
X160022217Y-80126998D01*
X160015023Y-80057500D01*
X160046546Y-79995145D01*
X160065842Y-79978425D01*
X160237115Y-79858498D01*
X160251401Y-79848495D01*
X160418495Y-79681401D01*
X160554035Y-79487830D01*
X160653903Y-79273663D01*
X160715063Y-79045408D01*
X160735659Y-78810000D01*
X160715063Y-78574592D01*
X160656584Y-78356344D01*
X160653905Y-78346344D01*
X160653904Y-78346343D01*
X160653903Y-78346337D01*
X160554035Y-78132171D01*
X160418495Y-77938599D01*
X160418494Y-77938597D01*
X160251402Y-77771506D01*
X160251396Y-77771501D01*
X160065842Y-77641575D01*
X160022217Y-77586998D01*
X160015023Y-77517500D01*
X160046546Y-77455145D01*
X160065842Y-77438425D01*
X160237115Y-77318498D01*
X160251401Y-77308495D01*
X160418495Y-77141401D01*
X160554035Y-76947830D01*
X160653903Y-76733663D01*
X160715063Y-76505408D01*
X160735659Y-76270000D01*
X160715063Y-76034592D01*
X160656584Y-75816344D01*
X160653905Y-75806344D01*
X160653904Y-75806343D01*
X160653903Y-75806337D01*
X160554035Y-75592171D01*
X160418495Y-75398599D01*
X160418494Y-75398597D01*
X160251402Y-75231506D01*
X160251396Y-75231501D01*
X160065842Y-75101575D01*
X160022217Y-75046998D01*
X160015023Y-74977500D01*
X160046546Y-74915145D01*
X160065842Y-74898425D01*
X160160238Y-74832328D01*
X160251401Y-74768495D01*
X160418495Y-74601401D01*
X160554035Y-74407830D01*
X160653903Y-74193663D01*
X160715063Y-73965408D01*
X160735659Y-73730000D01*
X160715063Y-73494592D01*
X160653903Y-73266337D01*
X160554035Y-73052171D01*
X160418495Y-72858599D01*
X160418494Y-72858597D01*
X160251402Y-72691506D01*
X160251395Y-72691501D01*
X160057834Y-72555967D01*
X160057830Y-72555965D01*
X160007413Y-72532455D01*
X159843663Y-72456097D01*
X159843659Y-72456096D01*
X159843655Y-72456094D01*
X159615413Y-72394938D01*
X159615403Y-72394936D01*
X159380001Y-72374341D01*
X159379999Y-72374341D01*
X159144596Y-72394936D01*
X159144586Y-72394938D01*
X158916344Y-72456094D01*
X158916335Y-72456098D01*
X158702171Y-72555964D01*
X158702169Y-72555965D01*
X158508597Y-72691505D01*
X158341505Y-72858597D01*
X158205965Y-73052169D01*
X158205964Y-73052171D01*
X158106098Y-73266335D01*
X158106094Y-73266344D01*
X158044938Y-73494586D01*
X158044936Y-73494596D01*
X158024341Y-73729999D01*
X158024341Y-73730000D01*
X158044936Y-73965403D01*
X158044938Y-73965413D01*
X158106094Y-74193655D01*
X158106096Y-74193659D01*
X158106097Y-74193663D01*
X158198925Y-74392732D01*
X158205965Y-74407830D01*
X158205967Y-74407834D01*
X158341501Y-74601395D01*
X158341506Y-74601402D01*
X158508597Y-74768493D01*
X158508603Y-74768498D01*
X158694158Y-74898425D01*
X158737783Y-74953002D01*
X158744977Y-75022500D01*
X158713454Y-75084855D01*
X158694158Y-75101575D01*
X158508597Y-75231505D01*
X158341505Y-75398597D01*
X158205965Y-75592169D01*
X158205964Y-75592171D01*
X158106098Y-75806335D01*
X158106094Y-75806344D01*
X158044938Y-76034586D01*
X158044936Y-76034596D01*
X158024341Y-76269999D01*
X158024341Y-76270000D01*
X158044936Y-76505403D01*
X158044938Y-76505413D01*
X158106094Y-76733655D01*
X158106096Y-76733659D01*
X158106097Y-76733663D01*
X158110761Y-76743664D01*
X158205965Y-76947830D01*
X158205967Y-76947834D01*
X158341501Y-77141395D01*
X158341506Y-77141402D01*
X158508597Y-77308493D01*
X158508603Y-77308498D01*
X158694158Y-77438425D01*
X158737783Y-77493002D01*
X158744977Y-77562500D01*
X158713454Y-77624855D01*
X158694158Y-77641575D01*
X158508597Y-77771505D01*
X158341505Y-77938597D01*
X158205965Y-78132169D01*
X158205964Y-78132171D01*
X158106098Y-78346335D01*
X158106094Y-78346344D01*
X158044938Y-78574586D01*
X158044936Y-78574596D01*
X158024341Y-78809999D01*
X158024341Y-78810000D01*
X158044936Y-79045403D01*
X158044938Y-79045413D01*
X158106094Y-79273655D01*
X158106096Y-79273659D01*
X158106097Y-79273663D01*
X158110761Y-79283664D01*
X158205965Y-79487830D01*
X158205967Y-79487834D01*
X158341501Y-79681395D01*
X158341506Y-79681402D01*
X158508597Y-79848493D01*
X158508603Y-79848498D01*
X158694158Y-79978425D01*
X158737783Y-80033002D01*
X158744977Y-80102500D01*
X158713454Y-80164855D01*
X158694158Y-80181575D01*
X158508597Y-80311505D01*
X158341505Y-80478597D01*
X158205965Y-80672169D01*
X158205964Y-80672171D01*
X158106098Y-80886335D01*
X158106094Y-80886344D01*
X158044938Y-81114586D01*
X158044936Y-81114596D01*
X158024341Y-81349999D01*
X158024341Y-81350000D01*
X158044936Y-81585403D01*
X158044938Y-81585413D01*
X158106094Y-81813655D01*
X158106096Y-81813659D01*
X158106097Y-81813663D01*
X158110761Y-81823664D01*
X158205965Y-82027830D01*
X158205967Y-82027834D01*
X158341501Y-82221395D01*
X158341506Y-82221402D01*
X158508597Y-82388493D01*
X158508603Y-82388498D01*
X158694158Y-82518425D01*
X158737783Y-82573002D01*
X158744977Y-82642500D01*
X158713454Y-82704855D01*
X158694158Y-82721575D01*
X158508597Y-82851505D01*
X158341505Y-83018597D01*
X158205965Y-83212169D01*
X158205964Y-83212171D01*
X158106098Y-83426335D01*
X158106094Y-83426344D01*
X158044938Y-83654586D01*
X158044936Y-83654596D01*
X158024341Y-83889999D01*
X158024341Y-83890000D01*
X158044936Y-84125403D01*
X158044938Y-84125413D01*
X158106094Y-84353655D01*
X158106096Y-84353659D01*
X158106097Y-84353663D01*
X158110761Y-84363664D01*
X158205965Y-84567830D01*
X158205967Y-84567834D01*
X158341501Y-84761395D01*
X158341506Y-84761402D01*
X158508597Y-84928493D01*
X158508603Y-84928498D01*
X158694158Y-85058425D01*
X158737783Y-85113002D01*
X158744977Y-85182500D01*
X158713454Y-85244855D01*
X158694158Y-85261575D01*
X158508597Y-85391505D01*
X158341505Y-85558597D01*
X158205965Y-85752169D01*
X158205964Y-85752171D01*
X158106098Y-85966335D01*
X158106094Y-85966344D01*
X158044938Y-86194586D01*
X158044936Y-86194596D01*
X158024341Y-86429999D01*
X158024341Y-86430000D01*
X158044936Y-86665403D01*
X158044938Y-86665413D01*
X158106094Y-86893655D01*
X158106096Y-86893659D01*
X158106097Y-86893663D01*
X158110761Y-86903664D01*
X158205965Y-87107830D01*
X158205967Y-87107834D01*
X158341501Y-87301395D01*
X158341506Y-87301402D01*
X158508597Y-87468493D01*
X158508603Y-87468498D01*
X158694158Y-87598425D01*
X158737783Y-87653002D01*
X158744977Y-87722500D01*
X158713454Y-87784855D01*
X158694158Y-87801575D01*
X158508597Y-87931505D01*
X158341505Y-88098597D01*
X158205965Y-88292169D01*
X158205964Y-88292171D01*
X158106098Y-88506335D01*
X158106094Y-88506344D01*
X158044938Y-88734586D01*
X158044936Y-88734596D01*
X158024341Y-88969999D01*
X158024341Y-88970000D01*
X158044936Y-89205403D01*
X158044938Y-89205413D01*
X158106094Y-89433655D01*
X158106096Y-89433659D01*
X158106097Y-89433663D01*
X158110761Y-89443664D01*
X158205965Y-89647830D01*
X158205967Y-89647834D01*
X158341501Y-89841395D01*
X158341506Y-89841402D01*
X158508597Y-90008493D01*
X158508603Y-90008498D01*
X158694158Y-90138425D01*
X158737783Y-90193002D01*
X158744977Y-90262500D01*
X158713454Y-90324855D01*
X158694158Y-90341575D01*
X158508597Y-90471505D01*
X158341505Y-90638597D01*
X158205965Y-90832169D01*
X158205964Y-90832171D01*
X158106098Y-91046335D01*
X158106094Y-91046344D01*
X158044938Y-91274586D01*
X158044936Y-91274596D01*
X158024341Y-91509999D01*
X158024341Y-91510000D01*
X158044936Y-91745403D01*
X158044938Y-91745413D01*
X158106094Y-91973655D01*
X158106096Y-91973659D01*
X158106097Y-91973663D01*
X158110761Y-91983664D01*
X158205965Y-92187830D01*
X158205967Y-92187834D01*
X158341501Y-92381395D01*
X158341506Y-92381402D01*
X158508597Y-92548493D01*
X158508603Y-92548498D01*
X158694158Y-92678425D01*
X158737783Y-92733002D01*
X158744977Y-92802500D01*
X158713454Y-92864855D01*
X158694158Y-92881575D01*
X158508597Y-93011505D01*
X158341505Y-93178597D01*
X158205965Y-93372169D01*
X158205964Y-93372171D01*
X158106098Y-93586335D01*
X158106094Y-93586344D01*
X158044938Y-93814586D01*
X158044936Y-93814596D01*
X158024341Y-94049999D01*
X158024341Y-94050000D01*
X158044936Y-94285403D01*
X158044938Y-94285413D01*
X158106094Y-94513655D01*
X158106096Y-94513659D01*
X158106097Y-94513663D01*
X158110761Y-94523664D01*
X158205965Y-94727830D01*
X158205967Y-94727834D01*
X158341501Y-94921395D01*
X158341506Y-94921402D01*
X158508597Y-95088493D01*
X158508603Y-95088498D01*
X158694158Y-95218425D01*
X158737783Y-95273002D01*
X158744977Y-95342500D01*
X158713454Y-95404855D01*
X158694158Y-95421575D01*
X158508597Y-95551505D01*
X158341505Y-95718597D01*
X158205965Y-95912169D01*
X158205964Y-95912171D01*
X158106098Y-96126335D01*
X158106094Y-96126344D01*
X158044938Y-96354586D01*
X158044936Y-96354596D01*
X158024341Y-96589999D01*
X158024341Y-96590000D01*
X158044936Y-96825403D01*
X158044938Y-96825413D01*
X158106094Y-97053655D01*
X158106096Y-97053659D01*
X158106097Y-97053663D01*
X158110761Y-97063664D01*
X158205965Y-97267830D01*
X158205967Y-97267834D01*
X158341501Y-97461395D01*
X158341506Y-97461402D01*
X158508597Y-97628493D01*
X158508603Y-97628498D01*
X158694158Y-97758425D01*
X158737783Y-97813002D01*
X158744977Y-97882500D01*
X158713454Y-97944855D01*
X158694158Y-97961575D01*
X158508597Y-98091505D01*
X158341505Y-98258597D01*
X158205965Y-98452169D01*
X158205964Y-98452171D01*
X158106098Y-98666335D01*
X158106094Y-98666344D01*
X158044938Y-98894586D01*
X158044936Y-98894596D01*
X158024341Y-99129999D01*
X158024341Y-99130000D01*
X158044936Y-99365403D01*
X158044938Y-99365413D01*
X158106094Y-99593655D01*
X158106096Y-99593659D01*
X158106097Y-99593663D01*
X158110761Y-99603664D01*
X158205965Y-99807830D01*
X158205967Y-99807834D01*
X158341501Y-100001395D01*
X158341506Y-100001402D01*
X158508597Y-100168493D01*
X158508603Y-100168498D01*
X158694158Y-100298425D01*
X158737783Y-100353002D01*
X158744977Y-100422500D01*
X158713454Y-100484855D01*
X158694158Y-100501575D01*
X158508597Y-100631505D01*
X158341506Y-100798596D01*
X158205965Y-100992170D01*
X158205962Y-100992175D01*
X158203289Y-100997909D01*
X158157115Y-101050346D01*
X158090909Y-101069500D01*
X157209057Y-101069500D01*
X157050943Y-101069500D01*
X156898215Y-101110423D01*
X156898214Y-101110423D01*
X156898212Y-101110424D01*
X156898209Y-101110425D01*
X156848096Y-101139359D01*
X156848095Y-101139360D01*
X156804689Y-101164420D01*
X156761285Y-101189479D01*
X156761282Y-101189481D01*
X156199481Y-101751282D01*
X156199479Y-101751285D01*
X156149361Y-101838094D01*
X156149359Y-101838096D01*
X156120425Y-101888209D01*
X156120424Y-101888210D01*
X156113135Y-101915413D01*
X156079499Y-102040943D01*
X156079499Y-102040945D01*
X156079499Y-102209046D01*
X156079500Y-102209059D01*
X156079500Y-114078000D01*
X156059815Y-114145039D01*
X156007011Y-114190794D01*
X155955500Y-114202000D01*
X148659057Y-114202000D01*
X148500942Y-114202000D01*
X148348215Y-114242923D01*
X148348214Y-114242923D01*
X148348212Y-114242924D01*
X148348209Y-114242925D01*
X148298096Y-114271859D01*
X148298095Y-114271860D01*
X148254689Y-114296920D01*
X148211285Y-114321979D01*
X148211282Y-114321981D01*
X147921929Y-114611335D01*
X147671286Y-114861978D01*
X147671284Y-114861980D01*
X147615382Y-114917881D01*
X147559481Y-114973782D01*
X147559480Y-114973784D01*
X147546687Y-114995943D01*
X147480423Y-115110715D01*
X147439499Y-115263443D01*
X147439499Y-115263445D01*
X147439499Y-115431546D01*
X147439500Y-115431559D01*
X147439500Y-116690908D01*
X147419815Y-116757947D01*
X147367914Y-116803286D01*
X147362173Y-116805963D01*
X147362169Y-116805965D01*
X147168600Y-116941503D01*
X147046673Y-117063430D01*
X146985350Y-117096914D01*
X146915658Y-117091930D01*
X146859725Y-117050058D01*
X146842810Y-117019081D01*
X146793797Y-116887671D01*
X146793793Y-116887664D01*
X146707547Y-116772455D01*
X146707544Y-116772452D01*
X146592335Y-116686206D01*
X146592328Y-116686202D01*
X146457482Y-116635908D01*
X146457483Y-116635908D01*
X146397883Y-116629501D01*
X146397881Y-116629500D01*
X146397873Y-116629500D01*
X146397865Y-116629500D01*
X146224500Y-116629500D01*
X146157461Y-116609815D01*
X146111706Y-116557011D01*
X146100500Y-116505500D01*
X146100500Y-115243445D01*
X146100500Y-115243443D01*
X146059577Y-115090716D01*
X146059577Y-115090715D01*
X146004860Y-114995943D01*
X145980520Y-114953784D01*
X145868716Y-114841980D01*
X145868715Y-114841979D01*
X145864385Y-114837649D01*
X145864374Y-114837639D01*
X145467590Y-114440855D01*
X145467588Y-114440852D01*
X145348717Y-114321981D01*
X145348716Y-114321980D01*
X145261904Y-114271860D01*
X145261904Y-114271859D01*
X145261900Y-114271858D01*
X145211785Y-114242923D01*
X145059057Y-114201999D01*
X144900943Y-114201999D01*
X144893347Y-114201999D01*
X144893331Y-114202000D01*
X137324500Y-114202000D01*
X137257461Y-114182315D01*
X137211706Y-114129511D01*
X137200500Y-114078000D01*
X137200500Y-107204059D01*
X137200501Y-107204046D01*
X137200501Y-107035945D01*
X137200501Y-107035943D01*
X137159577Y-106883215D01*
X137130639Y-106833095D01*
X137080520Y-106746284D01*
X136968716Y-106634480D01*
X136968715Y-106634479D01*
X136964385Y-106630149D01*
X136964374Y-106630139D01*
X136732590Y-106398355D01*
X136732588Y-106398352D01*
X136613717Y-106279481D01*
X136613716Y-106279480D01*
X136526904Y-106229360D01*
X136526904Y-106229359D01*
X136526900Y-106229358D01*
X136476785Y-106200423D01*
X136324057Y-106159499D01*
X136165943Y-106159499D01*
X136158347Y-106159499D01*
X136158331Y-106159500D01*
X135189091Y-106159500D01*
X135122052Y-106139815D01*
X135076711Y-106087909D01*
X135074037Y-106082175D01*
X135074034Y-106082170D01*
X135074033Y-106082169D01*
X134938495Y-105888599D01*
X134938494Y-105888597D01*
X134771402Y-105721506D01*
X134771396Y-105721501D01*
X134585842Y-105591575D01*
X134542217Y-105536998D01*
X134535023Y-105467500D01*
X134566546Y-105405145D01*
X134585842Y-105388425D01*
X134639909Y-105350567D01*
X134771401Y-105258495D01*
X134938495Y-105091401D01*
X135074035Y-104897830D01*
X135173903Y-104683663D01*
X135235063Y-104455408D01*
X135255659Y-104220000D01*
X135235063Y-103984592D01*
X135173903Y-103756337D01*
X135074035Y-103542171D01*
X134938495Y-103348599D01*
X134938494Y-103348597D01*
X134771402Y-103181506D01*
X134771396Y-103181501D01*
X134585842Y-103051575D01*
X134542217Y-102996998D01*
X134535023Y-102927500D01*
X134566546Y-102865145D01*
X134585842Y-102848425D01*
X134639909Y-102810567D01*
X134771401Y-102718495D01*
X134938495Y-102551401D01*
X135074035Y-102357830D01*
X135173903Y-102143663D01*
X135235063Y-101915408D01*
X135255659Y-101680000D01*
X135235063Y-101444592D01*
X135173903Y-101216337D01*
X135074035Y-101002171D01*
X135067033Y-100992170D01*
X134938494Y-100808597D01*
X134771402Y-100641506D01*
X134771396Y-100641501D01*
X134585842Y-100511575D01*
X134542217Y-100456998D01*
X134535023Y-100387500D01*
X134566546Y-100325145D01*
X134585842Y-100308425D01*
X134639909Y-100270567D01*
X134771401Y-100178495D01*
X134938495Y-100011401D01*
X135074035Y-99817830D01*
X135173903Y-99603663D01*
X135235063Y-99375408D01*
X135255659Y-99140000D01*
X135235063Y-98904592D01*
X135173903Y-98676337D01*
X135074035Y-98462171D01*
X134938495Y-98268599D01*
X134938494Y-98268597D01*
X134771402Y-98101506D01*
X134771396Y-98101501D01*
X134585842Y-97971575D01*
X134542217Y-97916998D01*
X134535023Y-97847500D01*
X134566546Y-97785145D01*
X134585842Y-97768425D01*
X134639909Y-97730567D01*
X134771401Y-97638495D01*
X134938495Y-97471401D01*
X135074035Y-97277830D01*
X135173903Y-97063663D01*
X135235063Y-96835408D01*
X135255659Y-96600000D01*
X135235063Y-96364592D01*
X135173903Y-96136337D01*
X135074035Y-95922171D01*
X134938495Y-95728599D01*
X134938494Y-95728597D01*
X134771402Y-95561506D01*
X134771396Y-95561501D01*
X134585842Y-95431575D01*
X134542217Y-95376998D01*
X134535023Y-95307500D01*
X134566546Y-95245145D01*
X134585842Y-95228425D01*
X134639909Y-95190567D01*
X134771401Y-95098495D01*
X134938495Y-94931401D01*
X135074035Y-94737830D01*
X135173903Y-94523663D01*
X135235063Y-94295408D01*
X135255659Y-94060000D01*
X135235063Y-93824592D01*
X135173903Y-93596337D01*
X135074035Y-93382171D01*
X134938495Y-93188599D01*
X134938494Y-93188597D01*
X134771402Y-93021506D01*
X134771396Y-93021501D01*
X134585842Y-92891575D01*
X134542217Y-92836998D01*
X134535023Y-92767500D01*
X134566546Y-92705145D01*
X134585842Y-92688425D01*
X134639909Y-92650567D01*
X134771401Y-92558495D01*
X134938495Y-92391401D01*
X135074035Y-92197830D01*
X135173903Y-91983663D01*
X135235063Y-91755408D01*
X135255659Y-91520000D01*
X135235063Y-91284592D01*
X135173903Y-91056337D01*
X135074035Y-90842171D01*
X134938495Y-90648599D01*
X134938494Y-90648597D01*
X134771402Y-90481506D01*
X134771396Y-90481501D01*
X134585842Y-90351575D01*
X134542217Y-90296998D01*
X134535023Y-90227500D01*
X134566546Y-90165145D01*
X134585842Y-90148425D01*
X134639909Y-90110567D01*
X134771401Y-90018495D01*
X134938495Y-89851401D01*
X135074035Y-89657830D01*
X135173903Y-89443663D01*
X135235063Y-89215408D01*
X135255659Y-88980000D01*
X135235063Y-88744592D01*
X135173903Y-88516337D01*
X135074035Y-88302171D01*
X134938495Y-88108599D01*
X134938494Y-88108597D01*
X134771402Y-87941506D01*
X134771396Y-87941501D01*
X134585842Y-87811575D01*
X134542217Y-87756998D01*
X134535023Y-87687500D01*
X134566546Y-87625145D01*
X134585842Y-87608425D01*
X134639909Y-87570567D01*
X134771401Y-87478495D01*
X134938495Y-87311401D01*
X135074035Y-87117830D01*
X135173903Y-86903663D01*
X135235063Y-86675408D01*
X135255659Y-86440000D01*
X135235063Y-86204592D01*
X135173903Y-85976337D01*
X135074035Y-85762171D01*
X134938495Y-85568599D01*
X134938494Y-85568597D01*
X134771402Y-85401506D01*
X134771396Y-85401501D01*
X134585842Y-85271575D01*
X134542217Y-85216998D01*
X134535023Y-85147500D01*
X134566546Y-85085145D01*
X134585842Y-85068425D01*
X134639909Y-85030567D01*
X134771401Y-84938495D01*
X134938495Y-84771401D01*
X135074035Y-84577830D01*
X135173903Y-84363663D01*
X135235063Y-84135408D01*
X135255659Y-83900000D01*
X135235063Y-83664592D01*
X135173903Y-83436337D01*
X135074035Y-83222171D01*
X134938495Y-83028599D01*
X134938494Y-83028597D01*
X134771402Y-82861506D01*
X134771396Y-82861501D01*
X134585842Y-82731575D01*
X134542217Y-82676998D01*
X134535023Y-82607500D01*
X134566546Y-82545145D01*
X134585842Y-82528425D01*
X134639909Y-82490567D01*
X134771401Y-82398495D01*
X134938495Y-82231401D01*
X135074035Y-82037830D01*
X135173903Y-81823663D01*
X135235063Y-81595408D01*
X135255659Y-81360000D01*
X135235063Y-81124592D01*
X135173903Y-80896337D01*
X135074035Y-80682171D01*
X134938495Y-80488599D01*
X134938494Y-80488597D01*
X134771402Y-80321506D01*
X134771396Y-80321501D01*
X134585842Y-80191575D01*
X134542217Y-80136998D01*
X134535023Y-80067500D01*
X134566546Y-80005145D01*
X134585842Y-79988425D01*
X134639909Y-79950567D01*
X134771401Y-79858495D01*
X134938495Y-79691401D01*
X135074035Y-79497830D01*
X135173903Y-79283663D01*
X135235063Y-79055408D01*
X135255659Y-78820000D01*
X135235063Y-78584592D01*
X135173903Y-78356337D01*
X135074035Y-78142171D01*
X134938495Y-77948599D01*
X134938494Y-77948597D01*
X134771402Y-77781506D01*
X134771396Y-77781501D01*
X134585842Y-77651575D01*
X134542217Y-77596998D01*
X134535023Y-77527500D01*
X134566546Y-77465145D01*
X134585842Y-77448425D01*
X134639909Y-77410567D01*
X134771401Y-77318495D01*
X134938495Y-77151401D01*
X135074035Y-76957830D01*
X135173903Y-76743663D01*
X135235063Y-76515408D01*
X135255659Y-76280000D01*
X135235063Y-76044592D01*
X135173903Y-75816337D01*
X135074035Y-75602171D01*
X134938495Y-75408599D01*
X134816567Y-75286671D01*
X134783084Y-75225351D01*
X134788068Y-75155659D01*
X134829939Y-75099725D01*
X134860915Y-75082810D01*
X134992331Y-75033796D01*
X135107546Y-74947546D01*
X135193796Y-74832331D01*
X135244091Y-74697483D01*
X135250500Y-74637873D01*
X135250499Y-73739998D01*
X137704532Y-73739998D01*
X137704532Y-73740001D01*
X137724364Y-73966686D01*
X137724366Y-73966697D01*
X137783258Y-74186488D01*
X137783261Y-74186497D01*
X137879431Y-74392732D01*
X137879432Y-74392734D01*
X138009954Y-74579141D01*
X138170858Y-74740045D01*
X138170861Y-74740047D01*
X138357266Y-74870568D01*
X138415275Y-74897618D01*
X138467714Y-74943791D01*
X138486866Y-75010984D01*
X138466650Y-75077865D01*
X138415275Y-75122381D01*
X138398272Y-75130310D01*
X138357267Y-75149431D01*
X138357265Y-75149432D01*
X138170858Y-75279954D01*
X138009954Y-75440858D01*
X137879432Y-75627265D01*
X137879431Y-75627267D01*
X137783261Y-75833502D01*
X137783258Y-75833511D01*
X137724366Y-76053302D01*
X137724364Y-76053313D01*
X137704532Y-76279998D01*
X137704532Y-76280001D01*
X137724364Y-76506686D01*
X137724366Y-76506697D01*
X137783258Y-76726488D01*
X137783261Y-76726497D01*
X137879431Y-76932732D01*
X137879432Y-76932734D01*
X138009954Y-77119141D01*
X138170858Y-77280045D01*
X138170861Y-77280047D01*
X138357266Y-77410568D01*
X138415275Y-77437618D01*
X138467714Y-77483791D01*
X138486866Y-77550984D01*
X138466650Y-77617865D01*
X138415275Y-77662382D01*
X138357267Y-77689431D01*
X138357265Y-77689432D01*
X138170858Y-77819954D01*
X138009954Y-77980858D01*
X137879432Y-78167265D01*
X137879431Y-78167267D01*
X137783261Y-78373502D01*
X137783258Y-78373511D01*
X137724366Y-78593302D01*
X137724364Y-78593313D01*
X137704532Y-78819998D01*
X137704532Y-78820001D01*
X137724364Y-79046686D01*
X137724366Y-79046697D01*
X137783258Y-79266488D01*
X137783261Y-79266497D01*
X137879431Y-79472732D01*
X137879432Y-79472734D01*
X138009954Y-79659141D01*
X138170858Y-79820045D01*
X138170861Y-79820047D01*
X138357266Y-79950568D01*
X138415275Y-79977618D01*
X138467714Y-80023791D01*
X138486866Y-80090984D01*
X138466650Y-80157865D01*
X138415275Y-80202382D01*
X138357267Y-80229431D01*
X138357265Y-80229432D01*
X138170858Y-80359954D01*
X138009954Y-80520858D01*
X137879432Y-80707265D01*
X137879431Y-80707267D01*
X137783261Y-80913502D01*
X137783258Y-80913511D01*
X137724366Y-81133302D01*
X137724364Y-81133313D01*
X137704532Y-81359998D01*
X137704532Y-81360001D01*
X137724364Y-81586686D01*
X137724366Y-81586697D01*
X137783258Y-81806488D01*
X137783261Y-81806497D01*
X137879431Y-82012732D01*
X137879432Y-82012734D01*
X138009954Y-82199141D01*
X138170858Y-82360045D01*
X138170861Y-82360047D01*
X138357266Y-82490568D01*
X138415275Y-82517618D01*
X138467714Y-82563791D01*
X138486866Y-82630984D01*
X138466650Y-82697865D01*
X138415275Y-82742382D01*
X138357267Y-82769431D01*
X138357265Y-82769432D01*
X138170858Y-82899954D01*
X138009954Y-83060858D01*
X137879432Y-83247265D01*
X137879431Y-83247267D01*
X137783261Y-83453502D01*
X137783258Y-83453511D01*
X137724366Y-83673302D01*
X137724364Y-83673313D01*
X137704532Y-83899998D01*
X137704532Y-83900001D01*
X137724364Y-84126686D01*
X137724366Y-84126697D01*
X137783258Y-84346488D01*
X137783261Y-84346497D01*
X137879431Y-84552732D01*
X137879432Y-84552734D01*
X138009954Y-84739141D01*
X138170858Y-84900045D01*
X138170861Y-84900047D01*
X138357266Y-85030568D01*
X138415275Y-85057618D01*
X138467714Y-85103791D01*
X138486866Y-85170984D01*
X138466650Y-85237865D01*
X138415275Y-85282382D01*
X138357267Y-85309431D01*
X138357265Y-85309432D01*
X138170858Y-85439954D01*
X138009954Y-85600858D01*
X137879432Y-85787265D01*
X137879431Y-85787267D01*
X137783261Y-85993502D01*
X137783258Y-85993511D01*
X137724366Y-86213302D01*
X137724364Y-86213313D01*
X137704532Y-86439998D01*
X137704532Y-86440001D01*
X137724364Y-86666686D01*
X137724366Y-86666697D01*
X137783258Y-86886488D01*
X137783261Y-86886497D01*
X137879431Y-87092732D01*
X137879432Y-87092734D01*
X138009954Y-87279141D01*
X138170858Y-87440045D01*
X138170861Y-87440047D01*
X138357266Y-87570568D01*
X138415275Y-87597618D01*
X138467714Y-87643791D01*
X138486866Y-87710984D01*
X138466650Y-87777865D01*
X138415275Y-87822382D01*
X138357267Y-87849431D01*
X138357265Y-87849432D01*
X138170858Y-87979954D01*
X138009954Y-88140858D01*
X137879432Y-88327265D01*
X137879431Y-88327267D01*
X137783261Y-88533502D01*
X137783258Y-88533511D01*
X137724366Y-88753302D01*
X137724364Y-88753313D01*
X137704532Y-88979998D01*
X137704532Y-88980001D01*
X137724364Y-89206686D01*
X137724366Y-89206697D01*
X137783258Y-89426488D01*
X137783261Y-89426497D01*
X137879431Y-89632732D01*
X137879432Y-89632734D01*
X138009954Y-89819141D01*
X138170858Y-89980045D01*
X138170861Y-89980047D01*
X138357266Y-90110568D01*
X138415275Y-90137618D01*
X138467714Y-90183791D01*
X138486866Y-90250984D01*
X138466650Y-90317865D01*
X138415275Y-90362382D01*
X138357267Y-90389431D01*
X138357265Y-90389432D01*
X138170858Y-90519954D01*
X138009954Y-90680858D01*
X137879432Y-90867265D01*
X137879431Y-90867267D01*
X137783261Y-91073502D01*
X137783258Y-91073511D01*
X137724366Y-91293302D01*
X137724364Y-91293313D01*
X137704532Y-91519998D01*
X137704532Y-91520001D01*
X137724364Y-91746686D01*
X137724366Y-91746697D01*
X137783258Y-91966488D01*
X137783261Y-91966497D01*
X137879431Y-92172732D01*
X137879432Y-92172734D01*
X138009954Y-92359141D01*
X138170858Y-92520045D01*
X138170861Y-92520047D01*
X138357266Y-92650568D01*
X138415275Y-92677618D01*
X138467714Y-92723791D01*
X138486866Y-92790984D01*
X138466650Y-92857865D01*
X138415275Y-92902382D01*
X138357267Y-92929431D01*
X138357265Y-92929432D01*
X138170858Y-93059954D01*
X138009954Y-93220858D01*
X137879432Y-93407265D01*
X137879431Y-93407267D01*
X137783261Y-93613502D01*
X137783258Y-93613511D01*
X137724366Y-93833302D01*
X137724364Y-93833313D01*
X137704532Y-94059998D01*
X137704532Y-94060001D01*
X137724364Y-94286686D01*
X137724366Y-94286697D01*
X137783258Y-94506488D01*
X137783261Y-94506497D01*
X137879431Y-94712732D01*
X137879432Y-94712734D01*
X138009954Y-94899141D01*
X138170858Y-95060045D01*
X138170861Y-95060047D01*
X138357266Y-95190568D01*
X138415275Y-95217618D01*
X138467714Y-95263791D01*
X138486866Y-95330984D01*
X138466650Y-95397865D01*
X138415275Y-95442382D01*
X138357267Y-95469431D01*
X138357265Y-95469432D01*
X138170858Y-95599954D01*
X138009954Y-95760858D01*
X137879432Y-95947265D01*
X137879431Y-95947267D01*
X137783261Y-96153502D01*
X137783258Y-96153511D01*
X137724366Y-96373302D01*
X137724364Y-96373313D01*
X137704532Y-96599998D01*
X137704532Y-96600001D01*
X137724364Y-96826686D01*
X137724366Y-96826697D01*
X137783258Y-97046488D01*
X137783261Y-97046497D01*
X137879431Y-97252732D01*
X137879432Y-97252734D01*
X138009954Y-97439141D01*
X138170858Y-97600045D01*
X138170861Y-97600047D01*
X138357266Y-97730568D01*
X138415275Y-97757618D01*
X138467714Y-97803791D01*
X138486866Y-97870984D01*
X138466650Y-97937865D01*
X138415275Y-97982382D01*
X138357267Y-98009431D01*
X138357265Y-98009432D01*
X138170858Y-98139954D01*
X138009954Y-98300858D01*
X137879432Y-98487265D01*
X137879431Y-98487267D01*
X137783261Y-98693502D01*
X137783258Y-98693511D01*
X137724366Y-98913302D01*
X137724364Y-98913313D01*
X137704532Y-99139998D01*
X137704532Y-99140001D01*
X137724364Y-99366686D01*
X137724366Y-99366697D01*
X137783258Y-99586488D01*
X137783261Y-99586497D01*
X137879431Y-99792732D01*
X137879432Y-99792734D01*
X138009954Y-99979141D01*
X138170858Y-100140045D01*
X138170861Y-100140047D01*
X138357266Y-100270568D01*
X138415275Y-100297618D01*
X138467714Y-100343791D01*
X138486866Y-100410984D01*
X138466650Y-100477865D01*
X138415275Y-100522382D01*
X138357267Y-100549431D01*
X138357265Y-100549432D01*
X138170858Y-100679954D01*
X138009954Y-100840858D01*
X137879432Y-101027265D01*
X137879431Y-101027267D01*
X137783261Y-101233502D01*
X137783258Y-101233511D01*
X137724366Y-101453302D01*
X137724364Y-101453313D01*
X137704532Y-101679998D01*
X137704532Y-101680001D01*
X137724364Y-101906686D01*
X137724366Y-101906697D01*
X137783258Y-102126488D01*
X137783261Y-102126497D01*
X137879431Y-102332732D01*
X137879432Y-102332734D01*
X138009954Y-102519141D01*
X138170858Y-102680045D01*
X138170861Y-102680047D01*
X138357266Y-102810568D01*
X138415275Y-102837618D01*
X138467714Y-102883791D01*
X138486866Y-102950984D01*
X138466650Y-103017865D01*
X138415275Y-103062382D01*
X138357267Y-103089431D01*
X138357265Y-103089432D01*
X138170858Y-103219954D01*
X138009954Y-103380858D01*
X137879432Y-103567265D01*
X137879431Y-103567267D01*
X137783261Y-103773502D01*
X137783258Y-103773511D01*
X137724366Y-103993302D01*
X137724364Y-103993313D01*
X137704532Y-104219998D01*
X137704532Y-104220001D01*
X137724364Y-104446686D01*
X137724366Y-104446697D01*
X137783258Y-104666488D01*
X137783261Y-104666497D01*
X137879431Y-104872732D01*
X137879432Y-104872734D01*
X138009954Y-105059141D01*
X138170858Y-105220045D01*
X138170861Y-105220047D01*
X138357266Y-105350568D01*
X138415275Y-105377618D01*
X138467714Y-105423791D01*
X138486866Y-105490984D01*
X138466650Y-105557865D01*
X138415275Y-105602382D01*
X138357267Y-105629431D01*
X138357265Y-105629432D01*
X138170858Y-105759954D01*
X138009954Y-105920858D01*
X137879432Y-106107265D01*
X137879431Y-106107267D01*
X137783261Y-106313502D01*
X137783258Y-106313511D01*
X137724366Y-106533302D01*
X137724364Y-106533313D01*
X137704532Y-106759998D01*
X137704532Y-106760001D01*
X137724364Y-106986686D01*
X137724366Y-106986697D01*
X137783258Y-107206488D01*
X137783261Y-107206497D01*
X137879431Y-107412732D01*
X137879432Y-107412734D01*
X138009954Y-107599141D01*
X138170858Y-107760045D01*
X138210914Y-107788092D01*
X138357266Y-107890568D01*
X138415275Y-107917618D01*
X138467714Y-107963791D01*
X138486866Y-108030984D01*
X138466650Y-108097865D01*
X138415275Y-108142381D01*
X138415118Y-108142455D01*
X138357267Y-108169431D01*
X138357265Y-108169432D01*
X138170858Y-108299954D01*
X138009954Y-108460858D01*
X137879432Y-108647265D01*
X137879431Y-108647267D01*
X137783261Y-108853502D01*
X137783258Y-108853511D01*
X137724366Y-109073302D01*
X137724364Y-109073313D01*
X137704532Y-109299998D01*
X137704532Y-109300001D01*
X137724364Y-109526686D01*
X137724366Y-109526697D01*
X137783258Y-109746488D01*
X137783261Y-109746497D01*
X137879431Y-109952732D01*
X137879432Y-109952734D01*
X138009954Y-110139141D01*
X138170858Y-110300045D01*
X138170861Y-110300047D01*
X138357266Y-110430568D01*
X138563504Y-110526739D01*
X138783308Y-110585635D01*
X138945230Y-110599801D01*
X139009998Y-110605468D01*
X139010000Y-110605468D01*
X139010002Y-110605468D01*
X139066807Y-110600498D01*
X139236692Y-110585635D01*
X139456496Y-110526739D01*
X139662734Y-110430568D01*
X139849139Y-110300047D01*
X140010047Y-110139139D01*
X140140568Y-109952734D01*
X140236739Y-109746496D01*
X140295635Y-109526692D01*
X140315468Y-109300000D01*
X140295635Y-109073308D01*
X140236739Y-108853504D01*
X140140568Y-108647266D01*
X140010047Y-108460861D01*
X140010045Y-108460858D01*
X139849141Y-108299954D01*
X139662734Y-108169432D01*
X139662728Y-108169429D01*
X139604882Y-108142455D01*
X139604724Y-108142381D01*
X139552285Y-108096210D01*
X139533133Y-108029017D01*
X139553348Y-107962135D01*
X139604725Y-107917618D01*
X139662734Y-107890568D01*
X139849139Y-107760047D01*
X140010047Y-107599139D01*
X140140568Y-107412734D01*
X140236739Y-107206496D01*
X140295635Y-106986692D01*
X140315468Y-106760000D01*
X140295635Y-106533308D01*
X140236739Y-106313504D01*
X140140568Y-106107266D01*
X140010047Y-105920861D01*
X140010045Y-105920858D01*
X139849141Y-105759954D01*
X139662734Y-105629432D01*
X139662728Y-105629429D01*
X139604725Y-105602382D01*
X139552285Y-105556210D01*
X139533133Y-105489017D01*
X139553348Y-105422135D01*
X139604725Y-105377618D01*
X139662734Y-105350568D01*
X139849139Y-105220047D01*
X140010047Y-105059139D01*
X140140118Y-104873375D01*
X140194693Y-104829752D01*
X140241692Y-104820500D01*
X153018308Y-104820500D01*
X153085347Y-104840185D01*
X153119880Y-104873374D01*
X153205480Y-104995624D01*
X153249954Y-105059141D01*
X153410858Y-105220045D01*
X153410861Y-105220047D01*
X153597266Y-105350568D01*
X153655275Y-105377618D01*
X153707714Y-105423791D01*
X153726866Y-105490984D01*
X153706650Y-105557865D01*
X153655275Y-105602382D01*
X153597267Y-105629431D01*
X153597265Y-105629432D01*
X153410858Y-105759954D01*
X153249954Y-105920858D01*
X153119432Y-106107265D01*
X153119431Y-106107267D01*
X153023261Y-106313502D01*
X153023258Y-106313511D01*
X152964366Y-106533302D01*
X152964364Y-106533313D01*
X152944532Y-106759998D01*
X152944532Y-106760001D01*
X152964364Y-106986686D01*
X152964366Y-106986697D01*
X153023258Y-107206488D01*
X153023261Y-107206497D01*
X153119431Y-107412732D01*
X153119432Y-107412734D01*
X153249954Y-107599141D01*
X153410858Y-107760045D01*
X153435462Y-107777273D01*
X153479087Y-107831849D01*
X153486281Y-107901348D01*
X153454758Y-107963703D01*
X153394529Y-107999117D01*
X153377593Y-108002138D01*
X153342516Y-108005908D01*
X153207671Y-108056202D01*
X153207664Y-108056206D01*
X153092455Y-108142452D01*
X153092452Y-108142455D01*
X153006206Y-108257664D01*
X153006202Y-108257671D01*
X152955908Y-108392517D01*
X152949501Y-108452116D01*
X152949501Y-108452123D01*
X152949500Y-108452135D01*
X152949500Y-110147870D01*
X152949501Y-110147876D01*
X152955908Y-110207483D01*
X153006202Y-110342328D01*
X153006206Y-110342335D01*
X153092452Y-110457544D01*
X153092455Y-110457547D01*
X153207664Y-110543793D01*
X153207671Y-110543797D01*
X153342517Y-110594091D01*
X153342516Y-110594091D01*
X153349444Y-110594835D01*
X153402127Y-110600500D01*
X155097872Y-110600499D01*
X155157483Y-110594091D01*
X155292331Y-110543796D01*
X155407546Y-110457546D01*
X155493796Y-110342331D01*
X155544091Y-110207483D01*
X155550500Y-110147873D01*
X155550499Y-108452128D01*
X155544091Y-108392517D01*
X155543946Y-108392129D01*
X155493797Y-108257671D01*
X155493793Y-108257664D01*
X155407547Y-108142455D01*
X155407544Y-108142452D01*
X155292335Y-108056206D01*
X155292328Y-108056202D01*
X155157482Y-108005908D01*
X155157483Y-108005908D01*
X155122404Y-108002137D01*
X155057853Y-107975399D01*
X155018005Y-107918006D01*
X155015512Y-107848181D01*
X155051165Y-107788092D01*
X155064539Y-107777272D01*
X155089140Y-107760046D01*
X155250045Y-107599141D01*
X155250047Y-107599139D01*
X155380568Y-107412734D01*
X155476739Y-107206496D01*
X155535635Y-106986692D01*
X155555468Y-106760000D01*
X155535635Y-106533308D01*
X155476739Y-106313504D01*
X155380568Y-106107266D01*
X155250047Y-105920861D01*
X155250045Y-105920858D01*
X155089141Y-105759954D01*
X154902734Y-105629432D01*
X154902728Y-105629429D01*
X154844725Y-105602382D01*
X154792285Y-105556210D01*
X154773133Y-105489017D01*
X154793348Y-105422135D01*
X154844725Y-105377618D01*
X154902734Y-105350568D01*
X155089139Y-105220047D01*
X155250047Y-105059139D01*
X155380568Y-104872734D01*
X155476739Y-104666496D01*
X155535635Y-104446692D01*
X155555468Y-104220000D01*
X155535635Y-103993308D01*
X155476739Y-103773504D01*
X155380568Y-103567266D01*
X155250047Y-103380861D01*
X155250045Y-103380858D01*
X155089141Y-103219954D01*
X154902734Y-103089432D01*
X154902728Y-103089429D01*
X154844725Y-103062382D01*
X154792285Y-103016210D01*
X154773133Y-102949017D01*
X154793348Y-102882135D01*
X154844725Y-102837618D01*
X154902734Y-102810568D01*
X155089139Y-102680047D01*
X155250047Y-102519139D01*
X155380568Y-102332734D01*
X155476739Y-102126496D01*
X155535635Y-101906692D01*
X155555468Y-101680000D01*
X155535635Y-101453308D01*
X155476739Y-101233504D01*
X155380568Y-101027266D01*
X155250047Y-100840861D01*
X155250045Y-100840858D01*
X155089141Y-100679954D01*
X154902734Y-100549432D01*
X154902728Y-100549429D01*
X154844725Y-100522382D01*
X154792285Y-100476210D01*
X154773133Y-100409017D01*
X154793348Y-100342135D01*
X154844725Y-100297618D01*
X154902734Y-100270568D01*
X155089139Y-100140047D01*
X155250047Y-99979139D01*
X155380568Y-99792734D01*
X155476739Y-99586496D01*
X155535635Y-99366692D01*
X155555468Y-99140000D01*
X155535635Y-98913308D01*
X155476739Y-98693504D01*
X155380568Y-98487266D01*
X155250047Y-98300861D01*
X155250045Y-98300858D01*
X155089141Y-98139954D01*
X154902734Y-98009432D01*
X154902728Y-98009429D01*
X154844725Y-97982382D01*
X154792285Y-97936210D01*
X154773133Y-97869017D01*
X154793348Y-97802135D01*
X154844725Y-97757618D01*
X154902734Y-97730568D01*
X155089139Y-97600047D01*
X155250047Y-97439139D01*
X155380568Y-97252734D01*
X155476739Y-97046496D01*
X155535635Y-96826692D01*
X155555468Y-96600000D01*
X155535635Y-96373308D01*
X155476739Y-96153504D01*
X155380568Y-95947266D01*
X155250047Y-95760861D01*
X155250045Y-95760858D01*
X155089141Y-95599954D01*
X154902734Y-95469432D01*
X154902728Y-95469429D01*
X154844725Y-95442382D01*
X154792285Y-95396210D01*
X154773133Y-95329017D01*
X154793348Y-95262135D01*
X154844725Y-95217618D01*
X154902734Y-95190568D01*
X155089139Y-95060047D01*
X155250047Y-94899139D01*
X155380568Y-94712734D01*
X155476739Y-94506496D01*
X155535635Y-94286692D01*
X155555468Y-94060000D01*
X155535635Y-93833308D01*
X155476739Y-93613504D01*
X155380568Y-93407266D01*
X155250047Y-93220861D01*
X155250045Y-93220858D01*
X155089141Y-93059954D01*
X154902734Y-92929432D01*
X154902728Y-92929429D01*
X154844725Y-92902382D01*
X154792285Y-92856210D01*
X154773133Y-92789017D01*
X154793348Y-92722135D01*
X154844725Y-92677618D01*
X154902734Y-92650568D01*
X155089139Y-92520047D01*
X155250047Y-92359139D01*
X155380568Y-92172734D01*
X155476739Y-91966496D01*
X155535635Y-91746692D01*
X155555468Y-91520000D01*
X155535635Y-91293308D01*
X155476739Y-91073504D01*
X155380568Y-90867266D01*
X155250047Y-90680861D01*
X155250045Y-90680858D01*
X155089141Y-90519954D01*
X154902734Y-90389432D01*
X154902728Y-90389429D01*
X154844725Y-90362382D01*
X154792285Y-90316210D01*
X154773133Y-90249017D01*
X154793348Y-90182135D01*
X154844725Y-90137618D01*
X154902734Y-90110568D01*
X155089139Y-89980047D01*
X155250047Y-89819139D01*
X155380568Y-89632734D01*
X155476739Y-89426496D01*
X155535635Y-89206692D01*
X155555468Y-88980000D01*
X155535635Y-88753308D01*
X155476739Y-88533504D01*
X155380568Y-88327266D01*
X155250047Y-88140861D01*
X155250045Y-88140858D01*
X155089141Y-87979954D01*
X154902734Y-87849432D01*
X154902728Y-87849429D01*
X154844725Y-87822382D01*
X154792285Y-87776210D01*
X154773133Y-87709017D01*
X154793348Y-87642135D01*
X154844725Y-87597618D01*
X154902734Y-87570568D01*
X155089139Y-87440047D01*
X155250047Y-87279139D01*
X155380568Y-87092734D01*
X155476739Y-86886496D01*
X155535635Y-86666692D01*
X155555468Y-86440000D01*
X155535635Y-86213308D01*
X155476739Y-85993504D01*
X155380568Y-85787266D01*
X155250047Y-85600861D01*
X155250045Y-85600858D01*
X155089141Y-85439954D01*
X154902734Y-85309432D01*
X154902728Y-85309429D01*
X154844725Y-85282382D01*
X154792285Y-85236210D01*
X154773133Y-85169017D01*
X154793348Y-85102135D01*
X154844725Y-85057618D01*
X154902734Y-85030568D01*
X155089139Y-84900047D01*
X155250047Y-84739139D01*
X155380568Y-84552734D01*
X155476739Y-84346496D01*
X155535635Y-84126692D01*
X155555468Y-83900000D01*
X155535635Y-83673308D01*
X155476739Y-83453504D01*
X155380568Y-83247266D01*
X155250047Y-83060861D01*
X155250045Y-83060858D01*
X155089141Y-82899954D01*
X154902734Y-82769432D01*
X154902728Y-82769429D01*
X154844725Y-82742382D01*
X154792285Y-82696210D01*
X154773133Y-82629017D01*
X154793348Y-82562135D01*
X154844725Y-82517618D01*
X154902734Y-82490568D01*
X155089139Y-82360047D01*
X155250047Y-82199139D01*
X155380568Y-82012734D01*
X155476739Y-81806496D01*
X155535635Y-81586692D01*
X155555468Y-81360000D01*
X155535635Y-81133308D01*
X155476739Y-80913504D01*
X155380568Y-80707266D01*
X155250047Y-80520861D01*
X155250045Y-80520858D01*
X155089141Y-80359954D01*
X154902734Y-80229432D01*
X154902728Y-80229429D01*
X154844725Y-80202382D01*
X154792285Y-80156210D01*
X154773133Y-80089017D01*
X154793348Y-80022135D01*
X154844725Y-79977618D01*
X154902734Y-79950568D01*
X155089139Y-79820047D01*
X155250047Y-79659139D01*
X155380568Y-79472734D01*
X155476739Y-79266496D01*
X155535635Y-79046692D01*
X155555468Y-78820000D01*
X155535635Y-78593308D01*
X155476739Y-78373504D01*
X155380568Y-78167266D01*
X155250047Y-77980861D01*
X155250045Y-77980858D01*
X155089141Y-77819954D01*
X154902734Y-77689432D01*
X154902728Y-77689429D01*
X154844725Y-77662382D01*
X154792285Y-77616210D01*
X154773133Y-77549017D01*
X154793348Y-77482135D01*
X154844725Y-77437618D01*
X154902734Y-77410568D01*
X155089139Y-77280047D01*
X155250047Y-77119139D01*
X155380568Y-76932734D01*
X155476739Y-76726496D01*
X155535635Y-76506692D01*
X155555468Y-76280000D01*
X155535635Y-76053308D01*
X155476739Y-75833504D01*
X155380568Y-75627266D01*
X155250047Y-75440861D01*
X155250045Y-75440858D01*
X155089141Y-75279954D01*
X154902734Y-75149432D01*
X154902728Y-75149429D01*
X154875038Y-75136517D01*
X154844724Y-75122381D01*
X154792285Y-75076210D01*
X154773133Y-75009017D01*
X154793348Y-74942135D01*
X154844725Y-74897618D01*
X154902734Y-74870568D01*
X155089139Y-74740047D01*
X155250047Y-74579139D01*
X155380568Y-74392734D01*
X155476739Y-74186496D01*
X155535635Y-73966692D01*
X155555468Y-73740000D01*
X155535635Y-73513308D01*
X155476739Y-73293504D01*
X155380568Y-73087266D01*
X155250047Y-72900861D01*
X155250045Y-72900858D01*
X155089141Y-72739954D01*
X154902734Y-72609432D01*
X154902732Y-72609431D01*
X154696497Y-72513261D01*
X154696488Y-72513258D01*
X154476697Y-72454366D01*
X154476693Y-72454365D01*
X154476692Y-72454365D01*
X154476691Y-72454364D01*
X154476686Y-72454364D01*
X154250002Y-72434532D01*
X154249998Y-72434532D01*
X154023313Y-72454364D01*
X154023302Y-72454366D01*
X153803511Y-72513258D01*
X153803502Y-72513261D01*
X153597267Y-72609431D01*
X153597265Y-72609432D01*
X153410858Y-72739954D01*
X153249954Y-72900858D01*
X153119432Y-73087265D01*
X153119431Y-73087267D01*
X153023261Y-73293502D01*
X153023258Y-73293511D01*
X152964366Y-73513302D01*
X152964364Y-73513313D01*
X152944532Y-73739998D01*
X152944532Y-73740001D01*
X152964364Y-73966686D01*
X152964366Y-73966697D01*
X153023258Y-74186488D01*
X153023261Y-74186497D01*
X153119431Y-74392732D01*
X153119432Y-74392734D01*
X153249954Y-74579141D01*
X153410858Y-74740045D01*
X153410861Y-74740047D01*
X153597266Y-74870568D01*
X153655275Y-74897618D01*
X153707714Y-74943791D01*
X153726866Y-75010984D01*
X153706650Y-75077865D01*
X153655275Y-75122381D01*
X153638272Y-75130310D01*
X153597267Y-75149431D01*
X153597265Y-75149432D01*
X153410858Y-75279954D01*
X153249954Y-75440858D01*
X153119432Y-75627265D01*
X153119431Y-75627267D01*
X153023261Y-75833502D01*
X153023258Y-75833511D01*
X152964366Y-76053302D01*
X152964364Y-76053313D01*
X152944532Y-76279998D01*
X152944532Y-76280001D01*
X152964364Y-76506686D01*
X152964366Y-76506697D01*
X153023258Y-76726488D01*
X153023261Y-76726497D01*
X153119431Y-76932732D01*
X153119432Y-76932734D01*
X153249954Y-77119141D01*
X153410858Y-77280045D01*
X153410861Y-77280047D01*
X153597266Y-77410568D01*
X153655275Y-77437618D01*
X153707714Y-77483791D01*
X153726866Y-77550984D01*
X153706650Y-77617865D01*
X153655275Y-77662382D01*
X153597267Y-77689431D01*
X153597265Y-77689432D01*
X153410858Y-77819954D01*
X153249954Y-77980858D01*
X153119432Y-78167265D01*
X153119431Y-78167267D01*
X153023261Y-78373502D01*
X153023258Y-78373511D01*
X152964366Y-78593302D01*
X152964364Y-78593313D01*
X152944532Y-78819998D01*
X152944532Y-78820001D01*
X152964364Y-79046686D01*
X152964366Y-79046697D01*
X153023258Y-79266488D01*
X153023261Y-79266497D01*
X153119431Y-79472732D01*
X153119432Y-79472734D01*
X153249954Y-79659141D01*
X153410858Y-79820045D01*
X153410861Y-79820047D01*
X153597266Y-79950568D01*
X153655275Y-79977618D01*
X153707714Y-80023791D01*
X153726866Y-80090984D01*
X153706650Y-80157865D01*
X153655275Y-80202382D01*
X153597267Y-80229431D01*
X153597265Y-80229432D01*
X153410858Y-80359954D01*
X153249954Y-80520858D01*
X153119432Y-80707265D01*
X153119431Y-80707267D01*
X153023261Y-80913502D01*
X153023258Y-80913511D01*
X152964366Y-81133302D01*
X152964364Y-81133313D01*
X152944532Y-81359998D01*
X152944532Y-81360001D01*
X152964364Y-81586686D01*
X152964366Y-81586697D01*
X153023258Y-81806488D01*
X153023261Y-81806497D01*
X153119431Y-82012732D01*
X153119432Y-82012734D01*
X153249954Y-82199141D01*
X153410858Y-82360045D01*
X153410861Y-82360047D01*
X153597266Y-82490568D01*
X153655275Y-82517618D01*
X153707714Y-82563791D01*
X153726866Y-82630984D01*
X153706650Y-82697865D01*
X153655275Y-82742382D01*
X153597267Y-82769431D01*
X153597265Y-82769432D01*
X153410858Y-82899954D01*
X153249954Y-83060858D01*
X153119432Y-83247265D01*
X153119431Y-83247267D01*
X153023261Y-83453502D01*
X153023258Y-83453511D01*
X152964366Y-83673302D01*
X152964364Y-83673313D01*
X152944532Y-83899998D01*
X152944532Y-83900001D01*
X152964364Y-84126686D01*
X152964366Y-84126697D01*
X153023258Y-84346488D01*
X153023261Y-84346497D01*
X153119431Y-84552732D01*
X153119432Y-84552734D01*
X153249954Y-84739141D01*
X153410858Y-84900045D01*
X153410861Y-84900047D01*
X153597266Y-85030568D01*
X153655275Y-85057618D01*
X153707714Y-85103791D01*
X153726866Y-85170984D01*
X153706650Y-85237865D01*
X153655275Y-85282382D01*
X153597267Y-85309431D01*
X153597265Y-85309432D01*
X153410858Y-85439954D01*
X153249954Y-85600858D01*
X153119432Y-85787265D01*
X153119431Y-85787267D01*
X153023261Y-85993502D01*
X153023258Y-85993511D01*
X152964366Y-86213302D01*
X152964364Y-86213313D01*
X152944532Y-86439998D01*
X152944532Y-86440001D01*
X152964364Y-86666686D01*
X152964366Y-86666697D01*
X153023258Y-86886488D01*
X153023261Y-86886497D01*
X153119431Y-87092732D01*
X153119432Y-87092734D01*
X153249954Y-87279141D01*
X153410858Y-87440045D01*
X153410861Y-87440047D01*
X153597266Y-87570568D01*
X153655275Y-87597618D01*
X153707714Y-87643791D01*
X153726866Y-87710984D01*
X153706650Y-87777865D01*
X153655275Y-87822382D01*
X153597267Y-87849431D01*
X153597265Y-87849432D01*
X153410858Y-87979954D01*
X153249954Y-88140858D01*
X153119432Y-88327265D01*
X153119431Y-88327267D01*
X153023261Y-88533502D01*
X153023258Y-88533511D01*
X152964366Y-88753302D01*
X152964364Y-88753313D01*
X152944532Y-88979998D01*
X152944532Y-88980001D01*
X152964364Y-89206686D01*
X152964366Y-89206697D01*
X153023258Y-89426488D01*
X153023261Y-89426497D01*
X153119431Y-89632732D01*
X153119432Y-89632734D01*
X153249954Y-89819141D01*
X153410858Y-89980045D01*
X153410861Y-89980047D01*
X153597266Y-90110568D01*
X153655275Y-90137618D01*
X153707714Y-90183791D01*
X153726866Y-90250984D01*
X153706650Y-90317865D01*
X153655275Y-90362382D01*
X153597267Y-90389431D01*
X153597265Y-90389432D01*
X153410858Y-90519954D01*
X153249954Y-90680858D01*
X153119432Y-90867265D01*
X153119431Y-90867267D01*
X153023261Y-91073502D01*
X153023258Y-91073511D01*
X152964366Y-91293302D01*
X152964364Y-91293313D01*
X152944532Y-91519998D01*
X152944532Y-91520001D01*
X152964364Y-91746686D01*
X152964366Y-91746697D01*
X153023258Y-91966488D01*
X153023261Y-91966497D01*
X153119431Y-92172732D01*
X153119432Y-92172734D01*
X153249954Y-92359141D01*
X153410858Y-92520045D01*
X153410861Y-92520047D01*
X153597266Y-92650568D01*
X153655275Y-92677618D01*
X153707714Y-92723791D01*
X153726866Y-92790984D01*
X153706650Y-92857865D01*
X153655275Y-92902382D01*
X153597267Y-92929431D01*
X153597265Y-92929432D01*
X153410858Y-93059954D01*
X153249954Y-93220858D01*
X153119432Y-93407265D01*
X153119431Y-93407267D01*
X153023261Y-93613502D01*
X153023258Y-93613511D01*
X152964366Y-93833302D01*
X152964364Y-93833313D01*
X152944532Y-94059998D01*
X152944532Y-94060001D01*
X152964364Y-94286686D01*
X152964366Y-94286697D01*
X153023258Y-94506488D01*
X153023261Y-94506497D01*
X153119431Y-94712732D01*
X153119432Y-94712734D01*
X153249954Y-94899141D01*
X153410858Y-95060045D01*
X153410861Y-95060047D01*
X153597266Y-95190568D01*
X153655275Y-95217618D01*
X153707714Y-95263791D01*
X153726866Y-95330984D01*
X153706650Y-95397865D01*
X153655275Y-95442382D01*
X153597267Y-95469431D01*
X153597265Y-95469432D01*
X153410858Y-95599954D01*
X153249954Y-95760858D01*
X153119432Y-95947265D01*
X153119431Y-95947267D01*
X153023261Y-96153502D01*
X153023258Y-96153511D01*
X152964366Y-96373302D01*
X152964364Y-96373313D01*
X152944532Y-96599998D01*
X152944532Y-96600001D01*
X152964364Y-96826686D01*
X152964366Y-96826697D01*
X153023258Y-97046488D01*
X153023261Y-97046497D01*
X153119431Y-97252732D01*
X153119432Y-97252734D01*
X153249954Y-97439141D01*
X153410858Y-97600045D01*
X153410861Y-97600047D01*
X153597266Y-97730568D01*
X153655275Y-97757618D01*
X153707714Y-97803791D01*
X153726866Y-97870984D01*
X153706650Y-97937865D01*
X153655275Y-97982382D01*
X153597267Y-98009431D01*
X153597265Y-98009432D01*
X153410858Y-98139954D01*
X153249954Y-98300858D01*
X153119432Y-98487265D01*
X153119431Y-98487267D01*
X153023261Y-98693502D01*
X153023258Y-98693511D01*
X152964366Y-98913302D01*
X152964364Y-98913313D01*
X152944532Y-99139998D01*
X152944532Y-99140001D01*
X152964364Y-99366686D01*
X152964366Y-99366697D01*
X153023258Y-99586488D01*
X153023261Y-99586497D01*
X153119431Y-99792732D01*
X153119432Y-99792734D01*
X153249954Y-99979141D01*
X153410858Y-100140045D01*
X153410861Y-100140047D01*
X153597266Y-100270568D01*
X153655275Y-100297618D01*
X153707714Y-100343791D01*
X153726866Y-100410984D01*
X153706650Y-100477865D01*
X153655275Y-100522382D01*
X153597267Y-100549431D01*
X153597265Y-100549432D01*
X153410858Y-100679954D01*
X153249954Y-100840858D01*
X153119432Y-101027265D01*
X153119431Y-101027267D01*
X153023261Y-101233502D01*
X153023258Y-101233511D01*
X152964366Y-101453302D01*
X152964364Y-101453313D01*
X152944532Y-101679998D01*
X152944532Y-101680001D01*
X152964364Y-101906686D01*
X152964366Y-101906697D01*
X153023258Y-102126488D01*
X153023261Y-102126497D01*
X153119431Y-102332732D01*
X153119432Y-102332734D01*
X153249954Y-102519141D01*
X153410858Y-102680045D01*
X153410861Y-102680047D01*
X153597266Y-102810568D01*
X153655275Y-102837618D01*
X153707714Y-102883791D01*
X153726866Y-102950984D01*
X153706650Y-103017865D01*
X153655275Y-103062382D01*
X153597267Y-103089431D01*
X153597265Y-103089432D01*
X153410858Y-103219954D01*
X153249954Y-103380858D01*
X153173450Y-103490118D01*
X153119881Y-103566624D01*
X153065307Y-103610248D01*
X153018308Y-103619500D01*
X140241692Y-103619500D01*
X140174653Y-103599815D01*
X140140119Y-103566625D01*
X140010047Y-103380861D01*
X140010045Y-103380858D01*
X139849141Y-103219954D01*
X139662734Y-103089432D01*
X139662728Y-103089429D01*
X139604725Y-103062382D01*
X139552285Y-103016210D01*
X139533133Y-102949017D01*
X139553348Y-102882135D01*
X139604725Y-102837618D01*
X139662734Y-102810568D01*
X139849139Y-102680047D01*
X140010047Y-102519139D01*
X140140568Y-102332734D01*
X140236739Y-102126496D01*
X140295635Y-101906692D01*
X140315468Y-101680000D01*
X140295635Y-101453308D01*
X140236739Y-101233504D01*
X140140568Y-101027266D01*
X140010047Y-100840861D01*
X140010045Y-100840858D01*
X139849141Y-100679954D01*
X139662734Y-100549432D01*
X139662728Y-100549429D01*
X139604725Y-100522382D01*
X139552285Y-100476210D01*
X139533133Y-100409017D01*
X139553348Y-100342135D01*
X139604725Y-100297618D01*
X139662734Y-100270568D01*
X139849139Y-100140047D01*
X140010047Y-99979139D01*
X140140568Y-99792734D01*
X140236739Y-99586496D01*
X140295635Y-99366692D01*
X140315468Y-99140000D01*
X140295635Y-98913308D01*
X140236739Y-98693504D01*
X140140568Y-98487266D01*
X140010047Y-98300861D01*
X140010045Y-98300858D01*
X139849141Y-98139954D01*
X139662734Y-98009432D01*
X139662728Y-98009429D01*
X139604725Y-97982382D01*
X139552285Y-97936210D01*
X139533133Y-97869017D01*
X139553348Y-97802135D01*
X139604725Y-97757618D01*
X139662734Y-97730568D01*
X139849139Y-97600047D01*
X140010047Y-97439139D01*
X140140568Y-97252734D01*
X140236739Y-97046496D01*
X140295635Y-96826692D01*
X140315468Y-96600000D01*
X140295635Y-96373308D01*
X140236739Y-96153504D01*
X140140568Y-95947266D01*
X140010047Y-95760861D01*
X140010045Y-95760858D01*
X139849141Y-95599954D01*
X139662734Y-95469432D01*
X139662728Y-95469429D01*
X139604725Y-95442382D01*
X139552285Y-95396210D01*
X139533133Y-95329017D01*
X139553348Y-95262135D01*
X139604725Y-95217618D01*
X139662734Y-95190568D01*
X139849139Y-95060047D01*
X140010047Y-94899139D01*
X140140568Y-94712734D01*
X140236739Y-94506496D01*
X140295635Y-94286692D01*
X140315468Y-94060000D01*
X140295635Y-93833308D01*
X140236739Y-93613504D01*
X140140568Y-93407266D01*
X140010047Y-93220861D01*
X140010045Y-93220858D01*
X139849141Y-93059954D01*
X139662734Y-92929432D01*
X139662728Y-92929429D01*
X139604725Y-92902382D01*
X139552285Y-92856210D01*
X139533133Y-92789017D01*
X139553348Y-92722135D01*
X139604725Y-92677618D01*
X139662734Y-92650568D01*
X139849139Y-92520047D01*
X140010047Y-92359139D01*
X140140568Y-92172734D01*
X140236739Y-91966496D01*
X140295635Y-91746692D01*
X140315468Y-91520000D01*
X140295635Y-91293308D01*
X140236739Y-91073504D01*
X140140568Y-90867266D01*
X140010047Y-90680861D01*
X140010045Y-90680858D01*
X139849141Y-90519954D01*
X139662734Y-90389432D01*
X139662728Y-90389429D01*
X139604725Y-90362382D01*
X139552285Y-90316210D01*
X139533133Y-90249017D01*
X139553348Y-90182135D01*
X139604725Y-90137618D01*
X139662734Y-90110568D01*
X139849139Y-89980047D01*
X140010047Y-89819139D01*
X140140568Y-89632734D01*
X140236739Y-89426496D01*
X140295635Y-89206692D01*
X140315468Y-88980000D01*
X140295635Y-88753308D01*
X140236739Y-88533504D01*
X140140568Y-88327266D01*
X140010047Y-88140861D01*
X140010045Y-88140858D01*
X139849141Y-87979954D01*
X139662734Y-87849432D01*
X139662728Y-87849429D01*
X139604725Y-87822382D01*
X139552285Y-87776210D01*
X139533133Y-87709017D01*
X139553348Y-87642135D01*
X139604725Y-87597618D01*
X139662734Y-87570568D01*
X139849139Y-87440047D01*
X140010047Y-87279139D01*
X140140568Y-87092734D01*
X140236739Y-86886496D01*
X140295635Y-86666692D01*
X140315468Y-86440000D01*
X140295635Y-86213308D01*
X140236739Y-85993504D01*
X140140568Y-85787266D01*
X140010047Y-85600861D01*
X140010045Y-85600858D01*
X139849141Y-85439954D01*
X139662734Y-85309432D01*
X139662728Y-85309429D01*
X139604725Y-85282382D01*
X139552285Y-85236210D01*
X139533133Y-85169017D01*
X139553348Y-85102135D01*
X139604725Y-85057618D01*
X139662734Y-85030568D01*
X139849139Y-84900047D01*
X140010047Y-84739139D01*
X140140568Y-84552734D01*
X140236739Y-84346496D01*
X140295635Y-84126692D01*
X140315468Y-83900000D01*
X140295635Y-83673308D01*
X140236739Y-83453504D01*
X140140568Y-83247266D01*
X140010047Y-83060861D01*
X140010045Y-83060858D01*
X139849141Y-82899954D01*
X139662734Y-82769432D01*
X139662728Y-82769429D01*
X139604725Y-82742382D01*
X139552285Y-82696210D01*
X139533133Y-82629017D01*
X139553348Y-82562135D01*
X139604725Y-82517618D01*
X139662734Y-82490568D01*
X139849139Y-82360047D01*
X140010047Y-82199139D01*
X140140568Y-82012734D01*
X140236739Y-81806496D01*
X140295635Y-81586692D01*
X140315468Y-81360000D01*
X140295635Y-81133308D01*
X140236739Y-80913504D01*
X140140568Y-80707266D01*
X140010047Y-80520861D01*
X140010045Y-80520858D01*
X139849141Y-80359954D01*
X139662734Y-80229432D01*
X139662728Y-80229429D01*
X139604725Y-80202382D01*
X139552285Y-80156210D01*
X139533133Y-80089017D01*
X139553348Y-80022135D01*
X139604725Y-79977618D01*
X139662734Y-79950568D01*
X139849139Y-79820047D01*
X140010047Y-79659139D01*
X140140568Y-79472734D01*
X140236739Y-79266496D01*
X140295635Y-79046692D01*
X140315468Y-78820000D01*
X140295635Y-78593308D01*
X140236739Y-78373504D01*
X140140568Y-78167266D01*
X140010047Y-77980861D01*
X140010045Y-77980858D01*
X139849141Y-77819954D01*
X139662734Y-77689432D01*
X139662728Y-77689429D01*
X139604725Y-77662382D01*
X139552285Y-77616210D01*
X139533133Y-77549017D01*
X139553348Y-77482135D01*
X139604725Y-77437618D01*
X139662734Y-77410568D01*
X139849139Y-77280047D01*
X140010047Y-77119139D01*
X140140568Y-76932734D01*
X140236739Y-76726496D01*
X140295635Y-76506692D01*
X140315468Y-76280000D01*
X140295635Y-76053308D01*
X140236739Y-75833504D01*
X140140568Y-75627266D01*
X140010047Y-75440861D01*
X140010045Y-75440858D01*
X139849141Y-75279954D01*
X139662734Y-75149432D01*
X139662728Y-75149429D01*
X139635038Y-75136517D01*
X139604724Y-75122381D01*
X139552285Y-75076210D01*
X139533133Y-75009017D01*
X139553348Y-74942135D01*
X139604725Y-74897618D01*
X139662734Y-74870568D01*
X139849139Y-74740047D01*
X140010047Y-74579139D01*
X140140568Y-74392734D01*
X140236739Y-74186496D01*
X140295635Y-73966692D01*
X140315468Y-73740000D01*
X140295635Y-73513308D01*
X140236739Y-73293504D01*
X140140568Y-73087266D01*
X140010047Y-72900861D01*
X140010045Y-72900858D01*
X139849141Y-72739954D01*
X139662734Y-72609432D01*
X139662732Y-72609431D01*
X139456497Y-72513261D01*
X139456488Y-72513258D01*
X139236697Y-72454366D01*
X139236693Y-72454365D01*
X139236692Y-72454365D01*
X139236691Y-72454364D01*
X139236686Y-72454364D01*
X139010002Y-72434532D01*
X139009998Y-72434532D01*
X138783313Y-72454364D01*
X138783302Y-72454366D01*
X138563511Y-72513258D01*
X138563502Y-72513261D01*
X138357267Y-72609431D01*
X138357265Y-72609432D01*
X138170858Y-72739954D01*
X138009954Y-72900858D01*
X137879432Y-73087265D01*
X137879431Y-73087267D01*
X137783261Y-73293502D01*
X137783258Y-73293511D01*
X137724366Y-73513302D01*
X137724364Y-73513313D01*
X137704532Y-73739998D01*
X135250499Y-73739998D01*
X135250499Y-72842128D01*
X135244091Y-72782517D01*
X135210144Y-72691501D01*
X135193797Y-72647671D01*
X135193793Y-72647664D01*
X135107547Y-72532455D01*
X135107544Y-72532452D01*
X134992335Y-72446206D01*
X134992328Y-72446202D01*
X134857482Y-72395908D01*
X134857483Y-72395908D01*
X134797883Y-72389501D01*
X134797881Y-72389500D01*
X134797873Y-72389500D01*
X134797864Y-72389500D01*
X133002129Y-72389500D01*
X133002123Y-72389501D01*
X132942516Y-72395908D01*
X132807671Y-72446202D01*
X132807664Y-72446206D01*
X132692455Y-72532452D01*
X132692452Y-72532455D01*
X132606206Y-72647664D01*
X132606202Y-72647671D01*
X132555908Y-72782517D01*
X132549501Y-72842116D01*
X132549501Y-72842123D01*
X132549500Y-72842135D01*
X132549500Y-74637870D01*
X132549501Y-74637876D01*
X132555908Y-74697483D01*
X132606202Y-74832328D01*
X132606206Y-74832335D01*
X132692452Y-74947544D01*
X132692455Y-74947547D01*
X132807664Y-75033793D01*
X132807671Y-75033797D01*
X132939081Y-75082810D01*
X132995015Y-75124681D01*
X133019432Y-75190145D01*
X133004580Y-75258418D01*
X132983430Y-75286673D01*
X132861503Y-75408600D01*
X132725965Y-75602169D01*
X132725964Y-75602171D01*
X132626098Y-75816335D01*
X132626094Y-75816344D01*
X132564938Y-76044586D01*
X132564936Y-76044596D01*
X132544341Y-76279999D01*
X129640500Y-76279999D01*
X129640500Y-66536100D01*
X129660185Y-66469061D01*
X129712989Y-66423306D01*
X129764500Y-66412100D01*
X133571812Y-66412100D01*
X133638851Y-66431785D01*
G37*
%TD.AperFunction*%
%TA.AperFunction,NonConductor*%
G36*
X154018418Y-118875417D02*
G01*
X154046673Y-118896569D01*
X154168597Y-119018493D01*
X154168603Y-119018498D01*
X154354158Y-119148425D01*
X154397783Y-119203002D01*
X154404977Y-119272500D01*
X154373454Y-119334855D01*
X154354158Y-119351575D01*
X154168597Y-119481505D01*
X154001505Y-119648597D01*
X153871575Y-119834158D01*
X153816998Y-119877783D01*
X153747500Y-119884977D01*
X153685145Y-119853454D01*
X153668425Y-119834158D01*
X153538496Y-119648600D01*
X153538492Y-119648596D01*
X153416567Y-119526671D01*
X153383084Y-119465351D01*
X153388068Y-119395659D01*
X153429939Y-119339725D01*
X153460915Y-119322810D01*
X153592331Y-119273796D01*
X153707546Y-119187546D01*
X153793796Y-119072331D01*
X153842810Y-118940916D01*
X153884681Y-118884984D01*
X153950145Y-118860566D01*
X154018418Y-118875417D01*
G37*
%TD.AperFunction*%
%TA.AperFunction,NonConductor*%
G36*
X153854855Y-121186546D02*
G01*
X153871575Y-121205842D01*
X154001501Y-121391396D01*
X154001506Y-121391402D01*
X154168597Y-121558493D01*
X154168603Y-121558498D01*
X154354158Y-121688425D01*
X154397783Y-121743002D01*
X154404977Y-121812500D01*
X154373454Y-121874855D01*
X154354158Y-121891575D01*
X154168597Y-122021505D01*
X154001505Y-122188597D01*
X153871575Y-122374158D01*
X153816998Y-122417783D01*
X153747500Y-122424977D01*
X153685145Y-122393454D01*
X153668425Y-122374158D01*
X153538494Y-122188597D01*
X153371402Y-122021506D01*
X153371396Y-122021501D01*
X153185842Y-121891575D01*
X153142217Y-121836998D01*
X153135023Y-121767500D01*
X153166546Y-121705145D01*
X153185842Y-121688425D01*
X153358286Y-121567678D01*
X153371401Y-121558495D01*
X153538495Y-121391401D01*
X153668425Y-121205842D01*
X153723002Y-121162217D01*
X153792500Y-121155023D01*
X153854855Y-121186546D01*
G37*
%TD.AperFunction*%
%TA.AperFunction,NonConductor*%
G36*
X153854855Y-123726546D02*
G01*
X153871575Y-123745842D01*
X154001501Y-123931396D01*
X154001506Y-123931402D01*
X154168597Y-124098493D01*
X154168603Y-124098498D01*
X154354158Y-124228425D01*
X154397783Y-124283002D01*
X154404977Y-124352500D01*
X154373454Y-124414855D01*
X154354158Y-124431575D01*
X154168597Y-124561505D01*
X154001505Y-124728597D01*
X153871575Y-124914158D01*
X153816998Y-124957783D01*
X153747500Y-124964977D01*
X153685145Y-124933454D01*
X153668425Y-124914158D01*
X153538494Y-124728597D01*
X153371402Y-124561506D01*
X153371396Y-124561501D01*
X153185842Y-124431575D01*
X153142217Y-124376998D01*
X153135023Y-124307500D01*
X153166546Y-124245145D01*
X153185842Y-124228425D01*
X153219168Y-124205090D01*
X153371401Y-124098495D01*
X153538495Y-123931401D01*
X153668425Y-123745842D01*
X153723002Y-123702217D01*
X153792500Y-123695023D01*
X153854855Y-123726546D01*
G37*
%TD.AperFunction*%
%TA.AperFunction,NonConductor*%
G36*
X153854855Y-126266546D02*
G01*
X153871575Y-126285842D01*
X154001501Y-126471396D01*
X154001506Y-126471402D01*
X154168597Y-126638493D01*
X154168603Y-126638498D01*
X154354158Y-126768425D01*
X154397783Y-126823002D01*
X154404977Y-126892500D01*
X154373454Y-126954855D01*
X154354158Y-126971575D01*
X154168597Y-127101505D01*
X154001505Y-127268597D01*
X153871575Y-127454158D01*
X153816998Y-127497783D01*
X153747500Y-127504977D01*
X153685145Y-127473454D01*
X153668425Y-127454158D01*
X153538494Y-127268597D01*
X153371402Y-127101506D01*
X153371396Y-127101501D01*
X153185842Y-126971575D01*
X153142217Y-126916998D01*
X153135023Y-126847500D01*
X153166546Y-126785145D01*
X153185842Y-126768425D01*
X153208026Y-126752891D01*
X153371401Y-126638495D01*
X153538495Y-126471401D01*
X153668425Y-126285842D01*
X153723002Y-126242217D01*
X153792500Y-126235023D01*
X153854855Y-126266546D01*
G37*
%TD.AperFunction*%
%TA.AperFunction,NonConductor*%
G36*
X147018418Y-118875417D02*
G01*
X147046673Y-118896569D01*
X147168597Y-119018493D01*
X147168603Y-119018498D01*
X147354158Y-119148425D01*
X147397783Y-119203002D01*
X147404977Y-119272500D01*
X147373454Y-119334855D01*
X147354158Y-119351575D01*
X147168597Y-119481505D01*
X147001506Y-119648596D01*
X146871575Y-119834159D01*
X146816998Y-119877784D01*
X146747500Y-119884978D01*
X146685145Y-119853455D01*
X146668425Y-119834159D01*
X146538496Y-119648600D01*
X146538492Y-119648596D01*
X146416567Y-119526671D01*
X146383084Y-119465351D01*
X146388068Y-119395659D01*
X146429939Y-119339725D01*
X146460915Y-119322810D01*
X146592331Y-119273796D01*
X146707546Y-119187546D01*
X146793796Y-119072331D01*
X146842810Y-118940916D01*
X146884681Y-118884984D01*
X146950145Y-118860566D01*
X147018418Y-118875417D01*
G37*
%TD.AperFunction*%
%TA.AperFunction,NonConductor*%
G36*
X146854855Y-121186546D02*
G01*
X146871575Y-121205842D01*
X147001501Y-121391396D01*
X147001506Y-121391402D01*
X147168597Y-121558493D01*
X147168603Y-121558498D01*
X147354158Y-121688425D01*
X147397783Y-121743002D01*
X147404977Y-121812500D01*
X147373454Y-121874855D01*
X147354158Y-121891575D01*
X147168597Y-122021505D01*
X147001506Y-122188596D01*
X146871575Y-122374159D01*
X146816998Y-122417784D01*
X146747500Y-122424978D01*
X146685145Y-122393455D01*
X146668425Y-122374159D01*
X146538494Y-122188597D01*
X146371402Y-122021506D01*
X146371396Y-122021501D01*
X146185842Y-121891575D01*
X146142217Y-121836998D01*
X146135023Y-121767500D01*
X146166546Y-121705145D01*
X146185842Y-121688425D01*
X146358286Y-121567678D01*
X146371401Y-121558495D01*
X146538495Y-121391401D01*
X146668425Y-121205842D01*
X146723002Y-121162217D01*
X146792500Y-121155023D01*
X146854855Y-121186546D01*
G37*
%TD.AperFunction*%
%TA.AperFunction,NonConductor*%
G36*
X146854855Y-123726546D02*
G01*
X146871575Y-123745842D01*
X147001501Y-123931396D01*
X147001506Y-123931402D01*
X147168597Y-124098493D01*
X147168603Y-124098498D01*
X147354158Y-124228425D01*
X147397783Y-124283002D01*
X147404977Y-124352500D01*
X147373454Y-124414855D01*
X147354158Y-124431575D01*
X147168597Y-124561505D01*
X147001506Y-124728596D01*
X146871575Y-124914159D01*
X146816998Y-124957784D01*
X146747500Y-124964978D01*
X146685145Y-124933455D01*
X146668425Y-124914159D01*
X146538494Y-124728597D01*
X146371402Y-124561506D01*
X146371396Y-124561501D01*
X146185842Y-124431575D01*
X146142217Y-124376998D01*
X146135023Y-124307500D01*
X146166546Y-124245145D01*
X146185842Y-124228425D01*
X146219168Y-124205090D01*
X146371401Y-124098495D01*
X146538495Y-123931401D01*
X146668425Y-123745842D01*
X146723002Y-123702217D01*
X146792500Y-123695023D01*
X146854855Y-123726546D01*
G37*
%TD.AperFunction*%
%TA.AperFunction,NonConductor*%
G36*
X146854855Y-126266546D02*
G01*
X146871575Y-126285842D01*
X147001501Y-126471396D01*
X147001506Y-126471402D01*
X147168597Y-126638493D01*
X147168603Y-126638498D01*
X147354158Y-126768425D01*
X147397783Y-126823002D01*
X147404977Y-126892500D01*
X147373454Y-126954855D01*
X147354158Y-126971575D01*
X147168597Y-127101505D01*
X147001506Y-127268596D01*
X146871575Y-127454159D01*
X146816998Y-127497784D01*
X146747500Y-127504978D01*
X146685145Y-127473455D01*
X146668425Y-127454159D01*
X146538494Y-127268597D01*
X146371402Y-127101506D01*
X146371396Y-127101501D01*
X146185842Y-126971575D01*
X146142217Y-126916998D01*
X146135023Y-126847500D01*
X146166546Y-126785145D01*
X146185842Y-126768425D01*
X146208026Y-126752891D01*
X146371401Y-126638495D01*
X146538495Y-126471401D01*
X146668425Y-126285842D01*
X146723002Y-126242217D01*
X146792500Y-126235023D01*
X146854855Y-126266546D01*
G37*
%TD.AperFunction*%
%TA.AperFunction,NonConductor*%
G36*
X140018418Y-118875417D02*
G01*
X140046673Y-118896569D01*
X140168597Y-119018493D01*
X140168603Y-119018498D01*
X140354158Y-119148425D01*
X140397783Y-119203002D01*
X140404977Y-119272500D01*
X140373454Y-119334855D01*
X140354158Y-119351575D01*
X140168597Y-119481505D01*
X140001505Y-119648597D01*
X139871575Y-119834158D01*
X139816998Y-119877783D01*
X139747500Y-119884977D01*
X139685145Y-119853454D01*
X139668425Y-119834158D01*
X139538496Y-119648600D01*
X139538492Y-119648596D01*
X139416567Y-119526671D01*
X139383084Y-119465351D01*
X139388068Y-119395659D01*
X139429939Y-119339725D01*
X139460915Y-119322810D01*
X139592331Y-119273796D01*
X139707546Y-119187546D01*
X139793796Y-119072331D01*
X139842810Y-118940916D01*
X139884681Y-118884984D01*
X139950145Y-118860566D01*
X140018418Y-118875417D01*
G37*
%TD.AperFunction*%
%TA.AperFunction,NonConductor*%
G36*
X139854855Y-121186546D02*
G01*
X139871575Y-121205842D01*
X140001501Y-121391396D01*
X140001506Y-121391402D01*
X140168597Y-121558493D01*
X140168603Y-121558498D01*
X140354158Y-121688425D01*
X140397783Y-121743002D01*
X140404977Y-121812500D01*
X140373454Y-121874855D01*
X140354158Y-121891575D01*
X140168597Y-122021505D01*
X140001505Y-122188597D01*
X139871575Y-122374158D01*
X139816998Y-122417783D01*
X139747500Y-122424977D01*
X139685145Y-122393454D01*
X139668425Y-122374158D01*
X139538494Y-122188597D01*
X139371402Y-122021506D01*
X139371396Y-122021501D01*
X139185842Y-121891575D01*
X139142217Y-121836998D01*
X139135023Y-121767500D01*
X139166546Y-121705145D01*
X139185842Y-121688425D01*
X139358286Y-121567678D01*
X139371401Y-121558495D01*
X139538495Y-121391401D01*
X139668425Y-121205842D01*
X139723002Y-121162217D01*
X139792500Y-121155023D01*
X139854855Y-121186546D01*
G37*
%TD.AperFunction*%
%TA.AperFunction,NonConductor*%
G36*
X139854855Y-123726546D02*
G01*
X139871575Y-123745842D01*
X140001501Y-123931396D01*
X140001506Y-123931402D01*
X140168597Y-124098493D01*
X140168603Y-124098498D01*
X140354158Y-124228425D01*
X140397783Y-124283002D01*
X140404977Y-124352500D01*
X140373454Y-124414855D01*
X140354158Y-124431575D01*
X140168597Y-124561505D01*
X140001505Y-124728597D01*
X139871575Y-124914158D01*
X139816998Y-124957783D01*
X139747500Y-124964977D01*
X139685145Y-124933454D01*
X139668425Y-124914158D01*
X139538494Y-124728597D01*
X139371402Y-124561506D01*
X139371396Y-124561501D01*
X139185842Y-124431575D01*
X139142217Y-124376998D01*
X139135023Y-124307500D01*
X139166546Y-124245145D01*
X139185842Y-124228425D01*
X139219168Y-124205090D01*
X139371401Y-124098495D01*
X139538495Y-123931401D01*
X139668425Y-123745842D01*
X139723002Y-123702217D01*
X139792500Y-123695023D01*
X139854855Y-123726546D01*
G37*
%TD.AperFunction*%
%TA.AperFunction,NonConductor*%
G36*
X139854855Y-126266546D02*
G01*
X139871575Y-126285842D01*
X140001501Y-126471396D01*
X140001506Y-126471402D01*
X140168597Y-126638493D01*
X140168603Y-126638498D01*
X140354158Y-126768425D01*
X140397783Y-126823002D01*
X140404977Y-126892500D01*
X140373454Y-126954855D01*
X140354158Y-126971575D01*
X140168597Y-127101505D01*
X140001505Y-127268597D01*
X139871575Y-127454158D01*
X139816998Y-127497783D01*
X139747500Y-127504977D01*
X139685145Y-127473454D01*
X139668425Y-127454158D01*
X139538494Y-127268597D01*
X139371402Y-127101506D01*
X139371396Y-127101501D01*
X139185842Y-126971575D01*
X139142217Y-126916998D01*
X139135023Y-126847500D01*
X139166546Y-126785145D01*
X139185842Y-126768425D01*
X139208026Y-126752891D01*
X139371401Y-126638495D01*
X139538495Y-126471401D01*
X139668425Y-126285842D01*
X139723002Y-126242217D01*
X139792500Y-126235023D01*
X139854855Y-126266546D01*
G37*
%TD.AperFunction*%
D15*
X152500000Y-117980000D03*
X155040000Y-117980000D03*
X152500000Y-120520000D03*
X155040000Y-120520000D03*
X152500000Y-123060000D03*
X155040000Y-123060000D03*
X152500000Y-125600000D03*
X155040000Y-125600000D03*
X152500000Y-128140000D03*
X155040000Y-128140000D03*
X138500000Y-117980000D03*
X141040000Y-117980000D03*
X138500000Y-120520000D03*
X141040000Y-120520000D03*
X138500000Y-123060000D03*
X141040000Y-123060000D03*
X138500000Y-125600000D03*
X141040000Y-125600000D03*
X138500000Y-128140000D03*
X141040000Y-128140000D03*
X159380000Y-109290000D03*
X159380000Y-106750000D03*
X159380000Y-104210000D03*
X159380000Y-101670000D03*
X159380000Y-99130000D03*
X159380000Y-96590000D03*
X159380000Y-94050000D03*
X159380000Y-91510000D03*
X159380000Y-88970000D03*
X159380000Y-86430000D03*
X159380000Y-83890000D03*
X159380000Y-81350000D03*
X159380000Y-78810000D03*
X159380000Y-76270000D03*
X159380000Y-73730000D03*
X133900000Y-117615000D03*
X133900000Y-115075000D03*
X159380000Y-117615000D03*
X159380000Y-115075000D03*
X145500000Y-117980000D03*
X148040000Y-117980000D03*
X145500000Y-120520000D03*
X148040000Y-120520000D03*
X145500000Y-123060000D03*
X148040000Y-123060000D03*
X145500000Y-125600000D03*
X148040000Y-125600000D03*
X145500000Y-128140000D03*
X148040000Y-128140000D03*
X133900000Y-73740000D03*
X133900000Y-76280000D03*
X133900000Y-78820000D03*
X133900000Y-81360000D03*
X133900000Y-83900000D03*
X133900000Y-86440000D03*
X133900000Y-88980000D03*
X133900000Y-91520000D03*
X133900000Y-94060000D03*
X133900000Y-96600000D03*
X133900000Y-99140000D03*
X133900000Y-101680000D03*
X133900000Y-104220000D03*
X133900000Y-106760000D03*
X133900000Y-109300000D03*
X154250000Y-109300000D03*
X154250000Y-106760000D03*
X154250000Y-104220000D03*
X154250000Y-101680000D03*
X154250000Y-99140000D03*
X154250000Y-96600000D03*
X154250000Y-94060000D03*
X154250000Y-91520000D03*
X154250000Y-88980000D03*
X154250000Y-86440000D03*
X154250000Y-83900000D03*
X154250000Y-81360000D03*
X154250000Y-78820000D03*
X154250000Y-76280000D03*
X154250000Y-73740000D03*
X139010000Y-73740000D03*
X139010000Y-76280000D03*
X139010000Y-78820000D03*
X139010000Y-81360000D03*
X139010000Y-83900000D03*
X139010000Y-86440000D03*
X139010000Y-88980000D03*
X139010000Y-91520000D03*
X139010000Y-94060000D03*
X139010000Y-96600000D03*
X139010000Y-99140000D03*
X139010000Y-101680000D03*
X139010000Y-104220000D03*
X139010000Y-106760000D03*
X139010000Y-109300000D03*
M02*
