M48
METRIC,TZ
T1C0.800
T2C1.000
%
G90
G05
T1
X146200Y-89125
X146200Y-91665
X146200Y-94205
X146200Y-96745
X146200Y-99285
X146200Y-101825
X146200Y-104365
X146200Y-106905
X153820Y-89125
X153820Y-91665
X153820Y-94205
X153820Y-96745
X153820Y-99285
X153820Y-101825
X153820Y-104365
X153820Y-106905
T2
X134000Y-98475
X134000Y-101015
X134000Y-103555
X136204Y-90796
X136204Y-111204
X138000Y-89000
X138000Y-113000
X139796Y-87204
X139796Y-114796
X143000Y-104365
X143650Y-111000
X146190Y-111000
X147445Y-85000
X147475Y-117000
X148730Y-111000
X149985Y-85000
X150015Y-117000
X151270Y-111000
X152525Y-85000
X152555Y-117000
X153810Y-111000
X156350Y-111000
X157000Y-104365
X160158Y-87158
X160204Y-114796
X161954Y-88954
X162000Y-113000
X163750Y-90750
X163796Y-111204
X166000Y-98445
X166000Y-100985
X166000Y-103525
M30
