M48
METRIC,TZ
T1C1.000
%
G90
G05
T1
X133900Y-73740
X133900Y-76280
X133900Y-78820
X133900Y-81360
X133900Y-83900
X133900Y-86440
X133900Y-88980
X133900Y-91520
X133900Y-94060
X133900Y-96600
X133900Y-99140
X133900Y-101680
X133900Y-104220
X133900Y-106760
X133900Y-109300
X133900Y-115075
X133900Y-117615
X138500Y-117980
X138500Y-120520
X138500Y-123060
X138500Y-125600
X138500Y-128140
X139010Y-73740
X139010Y-76280
X139010Y-78820
X139010Y-81360
X139010Y-83900
X139010Y-86440
X139010Y-88980
X139010Y-91520
X139010Y-94060
X139010Y-96600
X139010Y-99140
X139010Y-101680
X139010Y-104220
X139010Y-106760
X139010Y-109300
X141040Y-117980
X141040Y-120520
X141040Y-123060
X141040Y-125600
X141040Y-128140
X145500Y-117980
X145500Y-120520
X145500Y-123060
X145500Y-125600
X145500Y-128140
X148040Y-117980
X148040Y-120520
X148040Y-123060
X148040Y-125600
X148040Y-128140
X152500Y-117980
X152500Y-120520
X152500Y-123060
X152500Y-125600
X152500Y-128140
X154250Y-73740
X154250Y-76280
X154250Y-78820
X154250Y-81360
X154250Y-83900
X154250Y-86440
X154250Y-88980
X154250Y-91520
X154250Y-94060
X154250Y-96600
X154250Y-99140
X154250Y-101680
X154250Y-104220
X154250Y-106760
X154250Y-109300
X155040Y-117980
X155040Y-120520
X155040Y-123060
X155040Y-125600
X155040Y-128140
X159380Y-73730
X159380Y-76270
X159380Y-78810
X159380Y-81350
X159380Y-83890
X159380Y-86430
X159380Y-88970
X159380Y-91510
X159380Y-94050
X159380Y-96590
X159380Y-99130
X159380Y-101670
X159380Y-104210
X159380Y-106750
X159380Y-109290
X159380Y-115075
X159380Y-117615
M30
