%TF.GenerationSoftware,KiCad,Pcbnew,8.0.5*%
%TF.CreationDate,2024-12-11T17:58:03+10:00*%
%TF.ProjectId,anemometer,616e656d-6f6d-4657-9465-722e6b696361,rev?*%
%TF.SameCoordinates,Original*%
%TF.FileFunction,Copper,L1,Top*%
%TF.FilePolarity,Positive*%
%FSLAX46Y46*%
G04 Gerber Fmt 4.6, Leading zero omitted, Abs format (unit mm)*
G04 Created by KiCad (PCBNEW 8.0.5) date 2024-12-11 17:58:03*
%MOMM*%
%LPD*%
G01*
G04 APERTURE LIST*
%TA.AperFunction,ComponentPad*%
%ADD10R,1.700000X1.700000*%
%TD*%
%TA.AperFunction,ComponentPad*%
%ADD11O,1.700000X1.700000*%
%TD*%
%TA.AperFunction,ComponentPad*%
%ADD12C,1.400000*%
%TD*%
%TA.AperFunction,ComponentPad*%
%ADD13O,1.400000X1.400000*%
%TD*%
%TA.AperFunction,ComponentPad*%
%ADD14C,1.600000*%
%TD*%
%TA.AperFunction,Conductor*%
%ADD15C,0.200000*%
%TD*%
%ADD16C,0.350000*%
G04 APERTURE END LIST*
D10*
%TO.P,US1881,1,Pin_1*%
%TO.N,VDD*%
X109000000Y-67475000D03*
D11*
%TO.P,US1881,2,Pin_2*%
%TO.N,GND*%
X109000000Y-70015000D03*
%TO.P,US1881,3,Pin_3*%
%TO.N,OUT*%
X109000000Y-72555000D03*
%TD*%
D10*
%TO.P,SIGIN1,1,Pin_1*%
%TO.N,VDD*%
X119000000Y-67475000D03*
D11*
%TO.P,SIGIN1,2,Pin_2*%
%TO.N,GND*%
X119000000Y-70015000D03*
%TO.P,SIGIN1,3,Pin_3*%
%TO.N,OUT*%
X119000000Y-72555000D03*
%TD*%
D12*
%TO.P,R1,1*%
%TO.N,VDD*%
X115500000Y-66190000D03*
D13*
%TO.P,R1,2*%
%TO.N,OUT*%
X115500000Y-73810000D03*
%TD*%
D14*
%TO.P,C1,2*%
%TO.N,VDD*%
X112500000Y-67500000D03*
%TO.P,C1,1*%
%TO.N,GND*%
X112500000Y-72500000D03*
%TD*%
D15*
%TO.N,VDD*%
X112500000Y-67500000D02*
X114000000Y-67500000D01*
%TO.N,OUT*%
X117745000Y-73810000D02*
X119000000Y-72555000D01*
X115500000Y-73810000D02*
X117745000Y-73810000D01*
X110255000Y-73810000D02*
X115500000Y-73810000D01*
X109000000Y-72555000D02*
X110255000Y-73810000D01*
%TO.N,VDD*%
X115310000Y-66190000D02*
X114000000Y-67500000D01*
X116785000Y-67475000D02*
X115500000Y-66190000D01*
X119000000Y-67475000D02*
X116785000Y-67475000D01*
X109000000Y-67475000D02*
X112475000Y-67475000D01*
%TD*%
%TA.AperFunction,NonConductor*%
G36*
X121442896Y-64520185D02*
G01*
X121488651Y-64572989D01*
X121498595Y-64642147D01*
X121475124Y-64698810D01*
X121312775Y-64915682D01*
X121312770Y-64915690D01*
X121175635Y-65166833D01*
X121075628Y-65434962D01*
X121014804Y-65714566D01*
X120994390Y-65999998D01*
X120994390Y-66000001D01*
X121014804Y-66285433D01*
X121075628Y-66565037D01*
X121075630Y-66565043D01*
X121075631Y-66565046D01*
X121128485Y-66706753D01*
X121175635Y-66833166D01*
X121312770Y-67084309D01*
X121312775Y-67084317D01*
X121484254Y-67313387D01*
X121484270Y-67313405D01*
X121686594Y-67515729D01*
X121686612Y-67515745D01*
X121915682Y-67687224D01*
X121915690Y-67687229D01*
X122166833Y-67824364D01*
X122166832Y-67824364D01*
X122166836Y-67824365D01*
X122166839Y-67824367D01*
X122434954Y-67924369D01*
X122434960Y-67924370D01*
X122434962Y-67924371D01*
X122714566Y-67985195D01*
X122714568Y-67985195D01*
X122714572Y-67985196D01*
X122968220Y-68003337D01*
X122999999Y-68005610D01*
X123000000Y-68005610D01*
X123000001Y-68005610D01*
X123028595Y-68003564D01*
X123285428Y-67985196D01*
X123306924Y-67980520D01*
X123565037Y-67924371D01*
X123565037Y-67924370D01*
X123565046Y-67924369D01*
X123833161Y-67824367D01*
X124084315Y-67687226D01*
X124197705Y-67602343D01*
X124301190Y-67524876D01*
X124366654Y-67500459D01*
X124434927Y-67515311D01*
X124484332Y-67564716D01*
X124499500Y-67624143D01*
X124499500Y-75375500D01*
X124479815Y-75442539D01*
X124427011Y-75488294D01*
X124375500Y-75499500D01*
X106624143Y-75499500D01*
X106557104Y-75479815D01*
X106511349Y-75427011D01*
X106501405Y-75357853D01*
X106524876Y-75301190D01*
X106602343Y-75197705D01*
X106687226Y-75084315D01*
X106824367Y-74833161D01*
X106924369Y-74565046D01*
X106985196Y-74285428D01*
X107005610Y-74000000D01*
X106985196Y-73714572D01*
X106958857Y-73593495D01*
X106924371Y-73434962D01*
X106924370Y-73434960D01*
X106924369Y-73434954D01*
X106824367Y-73166839D01*
X106823885Y-73165957D01*
X106687229Y-72915690D01*
X106687224Y-72915682D01*
X106515745Y-72686612D01*
X106515729Y-72686594D01*
X106313405Y-72484270D01*
X106313387Y-72484254D01*
X106084317Y-72312775D01*
X106084309Y-72312770D01*
X105833166Y-72175635D01*
X105833167Y-72175635D01*
X105725915Y-72135632D01*
X105565046Y-72075631D01*
X105565043Y-72075630D01*
X105565037Y-72075628D01*
X105285433Y-72014804D01*
X105000001Y-71994390D01*
X104999999Y-71994390D01*
X104714566Y-72014804D01*
X104434962Y-72075628D01*
X104166833Y-72175635D01*
X103915690Y-72312770D01*
X103915682Y-72312775D01*
X103698810Y-72475123D01*
X103633346Y-72499540D01*
X103565073Y-72484688D01*
X103515668Y-72435282D01*
X103500500Y-72375856D01*
X103500500Y-70014999D01*
X107644341Y-70014999D01*
X107644341Y-70015000D01*
X107664936Y-70250403D01*
X107664938Y-70250413D01*
X107726094Y-70478655D01*
X107726096Y-70478659D01*
X107726097Y-70478663D01*
X107825965Y-70692830D01*
X107825967Y-70692834D01*
X107961501Y-70886395D01*
X107961506Y-70886402D01*
X108128597Y-71053493D01*
X108128603Y-71053498D01*
X108314158Y-71183425D01*
X108357783Y-71238002D01*
X108364977Y-71307500D01*
X108333454Y-71369855D01*
X108314158Y-71386575D01*
X108128597Y-71516505D01*
X107961505Y-71683597D01*
X107825965Y-71877169D01*
X107825964Y-71877171D01*
X107726098Y-72091335D01*
X107726094Y-72091344D01*
X107664938Y-72319586D01*
X107664936Y-72319596D01*
X107644341Y-72554999D01*
X107644341Y-72555000D01*
X107664936Y-72790403D01*
X107664938Y-72790413D01*
X107726094Y-73018655D01*
X107726096Y-73018659D01*
X107726097Y-73018663D01*
X107815086Y-73209500D01*
X107825965Y-73232830D01*
X107825967Y-73232834D01*
X107868269Y-73293247D01*
X107961505Y-73426401D01*
X108128599Y-73593495D01*
X108225384Y-73661265D01*
X108322165Y-73729032D01*
X108322167Y-73729033D01*
X108322170Y-73729035D01*
X108536337Y-73828903D01*
X108764592Y-73890063D01*
X108952918Y-73906539D01*
X108999999Y-73910659D01*
X109000000Y-73910659D01*
X109000001Y-73910659D01*
X109039234Y-73907226D01*
X109235408Y-73890063D01*
X109363757Y-73855672D01*
X109433606Y-73857335D01*
X109483531Y-73887766D01*
X109770139Y-74174374D01*
X109770149Y-74174385D01*
X109774479Y-74178715D01*
X109774480Y-74178716D01*
X109886284Y-74290520D01*
X109973095Y-74340639D01*
X109973097Y-74340641D01*
X110011151Y-74362611D01*
X110023215Y-74369577D01*
X110175943Y-74410501D01*
X110175946Y-74410501D01*
X110341653Y-74410501D01*
X110341669Y-74410500D01*
X114387379Y-74410500D01*
X114454418Y-74430185D01*
X114486333Y-74459773D01*
X114609020Y-74622238D01*
X114773437Y-74772123D01*
X114773439Y-74772125D01*
X114962595Y-74889245D01*
X114962596Y-74889245D01*
X114962599Y-74889247D01*
X115170060Y-74969618D01*
X115388757Y-75010500D01*
X115388759Y-75010500D01*
X115611241Y-75010500D01*
X115611243Y-75010500D01*
X115829940Y-74969618D01*
X116037401Y-74889247D01*
X116226562Y-74772124D01*
X116390981Y-74622236D01*
X116513667Y-74459772D01*
X116569776Y-74418137D01*
X116612621Y-74410500D01*
X117658331Y-74410500D01*
X117658347Y-74410501D01*
X117665943Y-74410501D01*
X117824054Y-74410501D01*
X117824057Y-74410501D01*
X117976785Y-74369577D01*
X118026904Y-74340639D01*
X118113716Y-74290520D01*
X118225520Y-74178716D01*
X118225520Y-74178714D01*
X118235728Y-74168507D01*
X118235730Y-74168504D01*
X118516470Y-73887763D01*
X118577791Y-73854280D01*
X118636238Y-73855670D01*
X118764592Y-73890063D01*
X118952918Y-73906539D01*
X118999999Y-73910659D01*
X119000000Y-73910659D01*
X119000001Y-73910659D01*
X119039234Y-73907226D01*
X119235408Y-73890063D01*
X119463663Y-73828903D01*
X119677830Y-73729035D01*
X119871401Y-73593495D01*
X120038495Y-73426401D01*
X120174035Y-73232830D01*
X120273903Y-73018663D01*
X120335063Y-72790408D01*
X120355659Y-72555000D01*
X120335063Y-72319592D01*
X120273903Y-72091337D01*
X120174035Y-71877171D01*
X120153096Y-71847266D01*
X120038494Y-71683597D01*
X119871402Y-71516506D01*
X119871396Y-71516501D01*
X119685842Y-71386575D01*
X119642217Y-71331998D01*
X119635023Y-71262500D01*
X119666546Y-71200145D01*
X119685842Y-71183425D01*
X119708026Y-71167891D01*
X119871401Y-71053495D01*
X120038495Y-70886401D01*
X120174035Y-70692830D01*
X120273903Y-70478663D01*
X120335063Y-70250408D01*
X120355659Y-70015000D01*
X120335063Y-69779592D01*
X120273903Y-69551337D01*
X120174035Y-69337171D01*
X120038495Y-69143599D01*
X119916567Y-69021671D01*
X119883084Y-68960351D01*
X119888068Y-68890659D01*
X119929939Y-68834725D01*
X119960915Y-68817810D01*
X120092331Y-68768796D01*
X120207546Y-68682546D01*
X120293796Y-68567331D01*
X120344091Y-68432483D01*
X120350500Y-68372873D01*
X120350499Y-66577128D01*
X120344091Y-66517517D01*
X120337763Y-66500552D01*
X120293797Y-66382671D01*
X120293793Y-66382664D01*
X120207547Y-66267455D01*
X120207544Y-66267452D01*
X120092335Y-66181206D01*
X120092328Y-66181202D01*
X119957482Y-66130908D01*
X119957483Y-66130908D01*
X119897883Y-66124501D01*
X119897881Y-66124500D01*
X119897873Y-66124500D01*
X119897864Y-66124500D01*
X118102129Y-66124500D01*
X118102123Y-66124501D01*
X118042516Y-66130908D01*
X117907671Y-66181202D01*
X117907664Y-66181206D01*
X117792455Y-66267452D01*
X117792452Y-66267455D01*
X117706206Y-66382664D01*
X117706202Y-66382671D01*
X117655908Y-66517517D01*
X117650800Y-66565037D01*
X117649501Y-66577123D01*
X117649500Y-66577135D01*
X117649500Y-66750500D01*
X117629815Y-66817539D01*
X117577011Y-66863294D01*
X117525500Y-66874500D01*
X117085097Y-66874500D01*
X117018058Y-66854815D01*
X116997416Y-66838181D01*
X116711314Y-66552079D01*
X116677829Y-66490756D01*
X116679730Y-66430460D01*
X116685115Y-66411536D01*
X116705643Y-66190000D01*
X116685115Y-65968464D01*
X116624229Y-65754472D01*
X116624224Y-65754461D01*
X116525061Y-65555316D01*
X116525056Y-65555308D01*
X116390979Y-65377761D01*
X116226562Y-65227876D01*
X116226560Y-65227874D01*
X116037404Y-65110754D01*
X116037398Y-65110752D01*
X115829940Y-65030382D01*
X115611243Y-64989500D01*
X115388757Y-64989500D01*
X115170060Y-65030382D01*
X115050804Y-65076582D01*
X114962601Y-65110752D01*
X114962595Y-65110754D01*
X114773439Y-65227874D01*
X114773437Y-65227876D01*
X114609020Y-65377761D01*
X114474943Y-65555308D01*
X114474938Y-65555316D01*
X114375775Y-65754461D01*
X114375769Y-65754476D01*
X114314885Y-65968462D01*
X114314884Y-65968464D01*
X114294357Y-66189999D01*
X114294357Y-66190000D01*
X114303098Y-66284333D01*
X114289683Y-66352903D01*
X114267308Y-66383455D01*
X113806281Y-66844483D01*
X113744958Y-66877968D01*
X113675267Y-66872984D01*
X113619333Y-66831113D01*
X113617025Y-66827925D01*
X113612612Y-66821623D01*
X113500047Y-66660861D01*
X113500045Y-66660858D01*
X113339141Y-66499954D01*
X113152734Y-66369432D01*
X113152732Y-66369431D01*
X112946497Y-66273261D01*
X112946488Y-66273258D01*
X112726697Y-66214366D01*
X112726693Y-66214365D01*
X112726692Y-66214365D01*
X112726691Y-66214364D01*
X112726686Y-66214364D01*
X112500002Y-66194532D01*
X112499998Y-66194532D01*
X112273313Y-66214364D01*
X112273302Y-66214366D01*
X112053511Y-66273258D01*
X112053502Y-66273261D01*
X111847267Y-66369431D01*
X111847265Y-66369432D01*
X111660858Y-66499954D01*
X111499954Y-66660858D01*
X111387387Y-66821623D01*
X111332811Y-66865248D01*
X111285812Y-66874500D01*
X110474499Y-66874500D01*
X110407460Y-66854815D01*
X110361705Y-66802011D01*
X110350499Y-66750500D01*
X110350499Y-66577129D01*
X110350498Y-66577123D01*
X110350497Y-66577116D01*
X110344091Y-66517517D01*
X110337763Y-66500552D01*
X110293797Y-66382671D01*
X110293793Y-66382664D01*
X110207547Y-66267455D01*
X110207544Y-66267452D01*
X110092335Y-66181206D01*
X110092328Y-66181202D01*
X109957482Y-66130908D01*
X109957483Y-66130908D01*
X109897883Y-66124501D01*
X109897881Y-66124500D01*
X109897873Y-66124500D01*
X109897864Y-66124500D01*
X108102129Y-66124500D01*
X108102123Y-66124501D01*
X108042516Y-66130908D01*
X107907671Y-66181202D01*
X107907664Y-66181206D01*
X107792455Y-66267452D01*
X107792452Y-66267455D01*
X107706206Y-66382664D01*
X107706202Y-66382671D01*
X107655908Y-66517517D01*
X107650800Y-66565037D01*
X107649501Y-66577123D01*
X107649500Y-66577135D01*
X107649500Y-68372870D01*
X107649501Y-68372876D01*
X107655908Y-68432483D01*
X107706202Y-68567328D01*
X107706206Y-68567335D01*
X107792452Y-68682544D01*
X107792455Y-68682547D01*
X107907664Y-68768793D01*
X107907671Y-68768797D01*
X108039081Y-68817810D01*
X108095015Y-68859681D01*
X108119432Y-68925145D01*
X108104580Y-68993418D01*
X108083430Y-69021673D01*
X107961503Y-69143600D01*
X107825965Y-69337169D01*
X107825964Y-69337171D01*
X107726098Y-69551335D01*
X107726094Y-69551344D01*
X107664938Y-69779586D01*
X107664936Y-69779596D01*
X107644341Y-70014999D01*
X103500500Y-70014999D01*
X103500500Y-64624500D01*
X103520185Y-64557461D01*
X103572989Y-64511706D01*
X103624500Y-64500500D01*
X121375857Y-64500500D01*
X121442896Y-64520185D01*
G37*
%TD.AperFunction*%
%TA.AperFunction,NonConductor*%
G36*
X115121091Y-67330656D02*
G01*
X115122329Y-67331127D01*
X115170060Y-67349618D01*
X115388757Y-67390500D01*
X115388759Y-67390500D01*
X115611241Y-67390500D01*
X115611243Y-67390500D01*
X115749215Y-67364708D01*
X115818730Y-67371739D01*
X115859681Y-67398916D01*
X116300139Y-67839374D01*
X116300149Y-67839385D01*
X116304479Y-67843715D01*
X116304480Y-67843716D01*
X116416284Y-67955520D01*
X116416286Y-67955521D01*
X116416290Y-67955524D01*
X116503043Y-68005610D01*
X116553216Y-68034577D01*
X116665019Y-68064534D01*
X116705942Y-68075500D01*
X116705943Y-68075500D01*
X117525501Y-68075500D01*
X117592540Y-68095185D01*
X117638295Y-68147989D01*
X117649501Y-68199500D01*
X117649501Y-68372876D01*
X117655908Y-68432483D01*
X117706202Y-68567328D01*
X117706206Y-68567335D01*
X117792452Y-68682544D01*
X117792455Y-68682547D01*
X117907664Y-68768793D01*
X117907671Y-68768797D01*
X118039081Y-68817810D01*
X118095015Y-68859681D01*
X118119432Y-68925145D01*
X118104580Y-68993418D01*
X118083430Y-69021673D01*
X117961503Y-69143600D01*
X117825965Y-69337169D01*
X117825964Y-69337171D01*
X117726098Y-69551335D01*
X117726094Y-69551344D01*
X117664938Y-69779586D01*
X117664936Y-69779596D01*
X117644341Y-70014999D01*
X117644341Y-70015000D01*
X117664936Y-70250403D01*
X117664938Y-70250413D01*
X117726094Y-70478655D01*
X117726096Y-70478659D01*
X117726097Y-70478663D01*
X117825965Y-70692830D01*
X117825967Y-70692834D01*
X117961501Y-70886395D01*
X117961506Y-70886402D01*
X118128597Y-71053493D01*
X118128603Y-71053498D01*
X118314158Y-71183425D01*
X118357783Y-71238002D01*
X118364977Y-71307500D01*
X118333454Y-71369855D01*
X118314158Y-71386575D01*
X118128597Y-71516505D01*
X117961505Y-71683597D01*
X117825965Y-71877169D01*
X117825964Y-71877171D01*
X117726098Y-72091335D01*
X117726094Y-72091344D01*
X117664938Y-72319586D01*
X117664936Y-72319596D01*
X117644341Y-72554999D01*
X117644341Y-72555000D01*
X117664936Y-72790403D01*
X117664938Y-72790413D01*
X117699327Y-72918756D01*
X117697664Y-72988606D01*
X117667233Y-73038530D01*
X117532582Y-73173182D01*
X117471262Y-73206666D01*
X117444903Y-73209500D01*
X116612621Y-73209500D01*
X116545582Y-73189815D01*
X116513667Y-73160227D01*
X116390979Y-72997761D01*
X116226562Y-72847876D01*
X116226560Y-72847874D01*
X116037404Y-72730754D01*
X116037398Y-72730752D01*
X116026918Y-72726692D01*
X115829940Y-72650382D01*
X115611243Y-72609500D01*
X115388757Y-72609500D01*
X115170060Y-72650382D01*
X115076558Y-72686605D01*
X114962601Y-72730752D01*
X114962595Y-72730754D01*
X114773439Y-72847874D01*
X114773437Y-72847876D01*
X114609020Y-72997761D01*
X114486333Y-73160227D01*
X114430224Y-73201863D01*
X114387379Y-73209500D01*
X113798739Y-73209500D01*
X113731700Y-73189815D01*
X113685945Y-73137011D01*
X113676001Y-73067853D01*
X113686357Y-73033095D01*
X113702832Y-72997764D01*
X113726739Y-72946496D01*
X113785635Y-72726692D01*
X113805468Y-72500000D01*
X113804128Y-72484688D01*
X113794607Y-72375856D01*
X113785635Y-72273308D01*
X113726739Y-72053504D01*
X113630568Y-71847266D01*
X113500047Y-71660861D01*
X113500045Y-71660858D01*
X113339141Y-71499954D01*
X113152734Y-71369432D01*
X113152732Y-71369431D01*
X112946497Y-71273261D01*
X112946488Y-71273258D01*
X112726697Y-71214366D01*
X112726693Y-71214365D01*
X112726692Y-71214365D01*
X112726691Y-71214364D01*
X112726686Y-71214364D01*
X112500002Y-71194532D01*
X112499998Y-71194532D01*
X112273313Y-71214364D01*
X112273302Y-71214366D01*
X112053511Y-71273258D01*
X112053502Y-71273261D01*
X111847267Y-71369431D01*
X111847265Y-71369432D01*
X111660858Y-71499954D01*
X111499954Y-71660858D01*
X111369432Y-71847265D01*
X111369431Y-71847267D01*
X111273261Y-72053502D01*
X111273258Y-72053511D01*
X111214366Y-72273302D01*
X111214364Y-72273313D01*
X111194532Y-72499998D01*
X111194532Y-72500001D01*
X111214364Y-72726686D01*
X111214366Y-72726697D01*
X111273258Y-72946488D01*
X111273260Y-72946492D01*
X111273261Y-72946496D01*
X111297168Y-72997764D01*
X111313643Y-73033095D01*
X111324135Y-73102173D01*
X111295615Y-73165957D01*
X111237139Y-73204196D01*
X111201261Y-73209500D01*
X110555097Y-73209500D01*
X110488058Y-73189815D01*
X110467416Y-73173181D01*
X110332766Y-73038531D01*
X110299281Y-72977208D01*
X110300672Y-72918757D01*
X110319665Y-72847874D01*
X110335063Y-72790408D01*
X110355659Y-72555000D01*
X110335063Y-72319592D01*
X110273903Y-72091337D01*
X110174035Y-71877171D01*
X110153096Y-71847266D01*
X110038494Y-71683597D01*
X109871402Y-71516506D01*
X109871396Y-71516501D01*
X109685842Y-71386575D01*
X109642217Y-71331998D01*
X109635023Y-71262500D01*
X109666546Y-71200145D01*
X109685842Y-71183425D01*
X109708026Y-71167891D01*
X109871401Y-71053495D01*
X110038495Y-70886401D01*
X110174035Y-70692830D01*
X110273903Y-70478663D01*
X110335063Y-70250408D01*
X110355659Y-70015000D01*
X110335063Y-69779592D01*
X110273903Y-69551337D01*
X110174035Y-69337171D01*
X110038495Y-69143599D01*
X109916567Y-69021671D01*
X109883084Y-68960351D01*
X109888068Y-68890659D01*
X109929939Y-68834725D01*
X109960915Y-68817810D01*
X110092331Y-68768796D01*
X110207546Y-68682546D01*
X110293796Y-68567331D01*
X110344091Y-68432483D01*
X110350500Y-68372873D01*
X110350500Y-68199500D01*
X110370185Y-68132461D01*
X110422989Y-68086706D01*
X110474500Y-68075500D01*
X111254421Y-68075500D01*
X111321460Y-68095185D01*
X111366802Y-68147095D01*
X111369432Y-68152734D01*
X111499954Y-68339141D01*
X111660858Y-68500045D01*
X111660861Y-68500047D01*
X111847266Y-68630568D01*
X112053504Y-68726739D01*
X112273308Y-68785635D01*
X112435230Y-68799801D01*
X112499998Y-68805468D01*
X112500000Y-68805468D01*
X112500002Y-68805468D01*
X112556673Y-68800509D01*
X112726692Y-68785635D01*
X112946496Y-68726739D01*
X113152734Y-68630568D01*
X113339139Y-68500047D01*
X113500047Y-68339139D01*
X113630118Y-68153375D01*
X113684693Y-68109752D01*
X113731692Y-68100500D01*
X113913331Y-68100500D01*
X113913347Y-68100501D01*
X113920943Y-68100501D01*
X114079054Y-68100501D01*
X114079057Y-68100501D01*
X114231785Y-68059577D01*
X114325258Y-68005610D01*
X114368716Y-67980520D01*
X114480520Y-67868716D01*
X114480520Y-67868714D01*
X114490724Y-67858511D01*
X114490728Y-67858506D01*
X114990078Y-67359155D01*
X115051399Y-67325672D01*
X115121091Y-67330656D01*
G37*
%TD.AperFunction*%
D16*
X109000000Y-67475000D03*
X109000000Y-70015000D03*
X109000000Y-72555000D03*
X119000000Y-67475000D03*
X119000000Y-70015000D03*
X119000000Y-72555000D03*
X115500000Y-66190000D03*
X115500000Y-73810000D03*
X112500000Y-67500000D03*
X112500000Y-72500000D03*
M02*
